<?xml version="1.0" standalone="no"?>
<!DOCTYPE svg PUBLIC "-//W3C//DTD SVG 1.1//EN" "http://www.w3.org/Graphics/SVG/1.1/DTD/svg11.dtd" >
<svg xmlns="http://www.w3.org/2000/svg" xmlns:xlink="http://www.w3.org/1999/xlink" version="1.1">
<metadata>
Created by FontForge 20201107 at Mon Nov 11 12:04:45 2024
 By 
Copyright (c) 2019 by Felix Braden. All rights reserved.
</metadata>
<defs>
<font id="Arpona-RegularItalic" horiz-adv-x="1392" >
  <font-face 
    font-family="Arpona"
    font-weight="400"
    font-style="italic"
    font-stretch="normal"
    units-per-em="2048"
    panose-1="2 4 0 4 5 5 5 8 8 4"
    ascent="1536"
    descent="-512"
    x-height="1004"
    cap-height="1360"
    bbox="-1348 -532 2390 1927"
    underline-thickness="102"
    underline-position="-204"
    slope="-10"
    unicode-range="U+000D-FEFF"
  />
<missing-glyph horiz-adv-x="389" 
 />
    <glyph glyph-name="fi" unicode="fi" horiz-adv-x="1097" 
d="M852 983l195 57l-148 -833l21 -191q-56 -34 -123 -34q-47 0 -77 28t-30 80q0 31 15 113l100 569l-6 80h-334l-174 -995q-25 -137 -108.5 -213t-217.5 -76q-76 0 -178 22v185l121 -66q3 0 16.5 -1t22.5 -1q122 0 147 148l174 997h-174l23 131h176l22 129q13 70 45.5 129.5
t86 107.5t135.5 75.5t184 27.5q183 0 387 -84l-176 -145l-172 110q-3 0 -16 1t-21 1q-110 0 -175.5 -65.5t-84.5 -167.5l-23 -119h367z" />
    <glyph glyph-name="fl" unicode="fl" horiz-adv-x="1124" 
d="M1124 1374l-209 -1167l19 -191q-56 -34 -121 -34q-47 0 -77.5 28t-30.5 80q0 36 14 113l188 1065l-102 65q-3 0 -16 1t-21 1q-110 0 -175.5 -65.5t-84.5 -167.5l-23 -119h226l-23 -131h-223l-174 -995q-25 -137 -108.5 -213t-217.5 -76q-76 0 -178 22v185l121 -66
q3 0 16.5 -1t22.5 -1q122 0 147 148l174 997h-174l23 131h176l22 129q13 70 45.5 129.5t86 107.5t135.5 75.5t184 27.5t205.5 -25.5t152.5 -52.5z" />
    <glyph glyph-name=".notdef" horiz-adv-x="389" 
 />
    <glyph glyph-name=".null" horiz-adv-x="0" 
 />
    <glyph glyph-name="nonmarkingreturn" horiz-adv-x="682" 
 />
    <glyph glyph-name="CR" unicode="&#xd;" horiz-adv-x="389" 
 />
    <glyph glyph-name="space" unicode=" " horiz-adv-x="389" 
 />
    <glyph glyph-name="exclam" unicode="!" horiz-adv-x="526" 
d="M188 428l82 856l150 107l106 -121l-223 -842h-115zM168 -43l-137 176l192 148l139 -179z" />
    <glyph glyph-name="quotedbl" unicode="&#x22;" horiz-adv-x="802" 
d="M258 885l10 442l121 98l80 -120l-139 -420h-72zM608 885l10 442l121 98l80 -120l-139 -420h-72z" />
    <glyph glyph-name="numbersign" unicode="#" 
d="M1341 881h-239l-103 -402h271l-25 -139h-280l-88 -340h-164l88 340h-318l-88 -340h-166l88 340h-229l27 139h237l105 402h-273l25 139h283l88 340h165l-88 -340h318l86 340h164l-86 -340h227zM836 479l102 402h-315l-105 -402h318z" />
    <glyph glyph-name="dollar" unicode="$" 
d="M811 770q219 -70 313.5 -157t94.5 -236q0 -180 -144 -291t-407 -121l-33 -184h-135l32 184q-209 13 -426 84v232l177 -121q126 -42 274 -49l90 505q-195 63 -295 157t-100 237q0 177 138 276.5t392 108.5l33 180h137l-32 -182q207 -13 389 -74l2 -223l-174 112
q-111 36 -242 39zM451 1034q0 -78 56 -128.5t175 -92.5l76 434q-150 -11 -228.5 -65t-78.5 -148zM694 113q162 12 243 74t81 163q0 83 -53 130t-189 95z" />
    <glyph glyph-name="percent" unicode="%" horiz-adv-x="1769" 
d="M356 -70l-80 72l1207 1413l82 -72zM463 649q-114 0 -189 75t-75 208q0 70 15 135.5t46.5 122t75.5 98.5t105.5 66t133.5 24q115 0 191 -74t76 -208q0 -119 -42.5 -219t-130.5 -164t-206 -64zM475 750q68 0 121 52t79.5 133.5t26.5 174.5q0 88 -37.5 129t-101.5 41
q-100 0 -162.5 -107.5t-62.5 -252.5q0 -88 37 -129t100 -41zM1255 -18q-114 0 -190 74.5t-76 207.5q0 119 42.5 219t130.5 164t206 64q114 0 189 -74.5t75 -208.5q0 -119 -42 -219t-129.5 -163.5t-205.5 -63.5zM1268 82q101 0 163 107t62 253q0 88 -37 129t-100 41
q-68 0 -121 -52t-80 -133.5t-27 -174.5q0 -88 38 -129t102 -41z" />
    <glyph glyph-name="ampersand" unicode="&#x26;" horiz-adv-x="1415" 
d="M1370 705q-43 -254 -272 -467l205 -238h-252l-103 123q-244 -156 -485 -156q-200 0 -315 85.5t-115 223.5q0 124 94 222.5t326 214.5q-110 132 -150.5 206.5t-40.5 145.5q0 154 140 243t382 89q198 0 318.5 -77.5t120.5 -203.5q0 -113 -106.5 -205t-395.5 -233l278 -324
q74 74 125 168l23 183h223zM772 1243q-142 0 -226.5 -49.5t-84.5 -132.5q0 -47 31 -98t129 -168q235 113 316 176t81 133q0 64 -67.5 101.5t-178.5 37.5zM498 127q176 0 354 109l-301 360q-172 -87 -239.5 -154t-67.5 -147q0 -79 66.5 -123.5t187.5 -44.5z" />
    <glyph glyph-name="quotesingle" unicode="'" horiz-adv-x="452" 
d="M256 885l10 442l121 98l80 -120l-139 -420h-72z" />
    <glyph glyph-name="parenleft" unicode="(" horiz-adv-x="772" 
d="M434 -477q-136 213 -206 423t-70 441q0 319 160.5 612t461.5 531l88 -92q-255 -218 -396.5 -492.5t-141.5 -558.5q0 -213 51 -393t164 -400z" />
    <glyph glyph-name="parenright" unicode=")" horiz-adv-x="772" 
d="M0 -483l-90 92q256 216 398.5 491t142.5 559q0 210 -52 390.5t-166 402.5l111 72q137 -214 208 -424.5t71 -440.5q0 -319 -161 -612.5t-462 -529.5z" />
    <glyph glyph-name="asterisk" unicode="*" horiz-adv-x="931" 
d="M469 508l-78 47l96 315l-268 -190l-78 47l19 100l301 121l-258 123l14 96l84 45l213 -196l10 319l92 49l76 -47l-96 -313l268 190l78 -49l-20 -100l-301 -121l260 -125l-15 -96l-86 -43l-209 194l-12 -317z" />
    <glyph glyph-name="plus" unicode="+" 
d="M1165 678l-24 -141h-363l-69 -390h-152l70 390h-363l25 141h362l70 391h151l-69 -391h362z" />
    <glyph glyph-name="comma" unicode="," horiz-adv-x="526" 
d="M-14 -322l151 308l-117 149l216 162l137 -176l-267 -443h-120z" />
    <glyph glyph-name="hyphen" unicode="-" horiz-adv-x="665" 
d="M78 518l24 146h516l-22 -146h-518z" />
    <glyph glyph-name="period" unicode="." horiz-adv-x="544" 
d="M174 -59l-154 194l216 162l151 -195z" />
    <glyph glyph-name="slash" unicode="/" horiz-adv-x="1036" 
d="M-80 -410l1026 1844h176l-1026 -1844h-176z" />
    <glyph glyph-name="zero" unicode="0" horiz-adv-x="1402" 
d="M621 -37q-220 0 -348 149.5t-128 395.5q0 178 53.5 340.5t145 283t222.5 192t278 71.5q220 0 347.5 -149t127.5 -396q0 -140 -33 -272.5t-95 -243.5t-146.5 -194.5t-194 -130t-229.5 -46.5zM637 125q100 0 190.5 63.5t152 166t98 233t36.5 262.5q0 183 -73.5 284
t-213.5 101q-130 0 -241 -106t-173.5 -272.5t-62.5 -346.5q0 -183 73.5 -284t213.5 -101z" />
    <glyph glyph-name="one" unicode="1" horiz-adv-x="987" 
d="M387 0l80 190l170 969l-485 -235l24 157l567 297h131l-210 -1188l-2 -190h-275z" />
    <glyph glyph-name="two" unicode="2" horiz-adv-x="1214" 
d="M297 156l561 4l189 47l-74 -207h-973l16 92q101 83 225 180t201 156.5t163.5 130.5t137 122.5t95 111t63.5 117t19 120.5q0 101 -65.5 157t-178.5 56q-43 0 -83.5 -5.5t-61.5 -10.5t-68 -17l-238 -120l70 233q122 39 217 55.5t203 16.5q193 0 303 -94.5t110 -253.5
q0 -52 -10.5 -100.5t-26 -90.5t-47 -87t-60.5 -80.5t-80.5 -81.5t-92 -79t-110.5 -84.5t-120 -87t-137 -96.5t-147 -104z" />
    <glyph glyph-name="three" unicode="3" horiz-adv-x="1214" 
d="M518 -37q-64 1 -121 5.5t-113.5 15.5t-84.5 17t-87.5 22.5t-70.5 19.5l6 233l170 -122q121 -37 277 -37q167 0 262.5 75t95.5 193q0 123 -95 180.5t-313 57.5l31 159q226 0 347.5 74t121.5 197q0 96 -64.5 146t-183.5 50q-135 0 -250 -35l-237 -118l70 227
q135 41 235.5 56.5t222.5 15.5q198 0 305 -85t107 -237q0 -144 -95 -240t-272 -128q133 -26 210 -104.5t77 -209.5q0 -192 -146.5 -310t-404.5 -118z" />
    <glyph glyph-name="four" unicode="4" horiz-adv-x="1345" 
d="M1180 1276l-150 -848h225l-26 -139h-221l-19 -101l-4 -188h-270l76 188l18 101h-786l20 112l901 979h322zM281 428h553l133 752z" />
    <glyph glyph-name="five" unicode="5" horiz-adv-x="1265" 
d="M1217 1202h-725l-74 -414q126 35 289 35q193 0 314.5 -106t121.5 -271q0 -221 -160 -352t-430 -131q-94 0 -187 17t-139 32.5t-128 46.5q-13 5 -19 7l4 221l190 -135q125 -39 254 -39q184 0 292 86.5t108 232.5q0 109 -81 170.5t-220 61.5q-153 0 -305 -41l-103 71
l117 666h760l190 45z" />
    <glyph glyph-name="six" unicode="6" horiz-adv-x="1337" 
d="M647 -37q-228 0 -366 151.5t-138 417.5q0 176 56.5 334t156 275t246 185.5t316.5 68.5q186 0 380 -76l-2 -225l-186 125q-86 26 -186 26q-136 0 -258.5 -69.5t-204.5 -192t-101 -270.5q220 166 465 166q171 0 283.5 -111t112.5 -283q0 -153 -79 -273.5t-209 -184.5
t-286 -64zM649 117q153 0 259 102t106 252q0 115 -71 180.5t-187 65.5q-187 0 -410 -166q-4 -32 -4 -62q0 -172 81.5 -272t225.5 -100z" />
    <glyph glyph-name="seven" unicode="7" horiz-adv-x="1173" 
d="M238 1360h1019l-16 -92l-805 -1295l-221 70l807 1149h-660l-194 -45z" />
    <glyph glyph-name="eight" unicode="8" horiz-adv-x="1349" 
d="M883 705q167 -84 241 -163.5t74 -187.5q0 -178 -171 -285.5t-445 -107.5q-240 0 -368 88.5t-128 226.5q0 137 106.5 235.5t329.5 184.5q-135 78 -192.5 157.5t-57.5 170.5q0 170 151.5 271.5t407.5 101.5q206 0 325.5 -83.5t119.5 -213.5q0 -131 -94 -223t-299 -172z
M807 1247q-156 0 -244 -55.5t-88 -151.5q0 -72 56.5 -133.5t207.5 -132.5q194 71 271 138.5t77 160.5q0 78 -72.5 126t-207.5 48zM606 117q171 0 272 60.5t101 166.5q0 79 -74.5 141.5t-242.5 141.5q-186 -65 -279.5 -141.5t-93.5 -174.5q0 -90 82.5 -142t234.5 -52z" />
    <glyph glyph-name="nine" unicode="9" horiz-adv-x="1337" 
d="M483 -37q-189 0 -383 76l2 225l187 -125q86 -26 188 -26q135 0 257 69.5t203.5 192t100.5 270.5q-217 -166 -463 -166q-171 0 -283 110.5t-112 282.5q0 153 79 274t209 185t286 64q227 0 365 -152t138 -418q0 -176 -56.5 -334t-156.5 -274.5t-245.5 -185t-315.5 -68.5z
M645 641q187 0 410 166q4 32 4 61q0 172 -82 272.5t-227 100.5q-152 0 -258.5 -102t-106.5 -252q0 -115 72 -180.5t188 -65.5z" />
    <glyph glyph-name="colon" unicode=":" horiz-adv-x="544" 
d="M305 678l-153 194l215 162l151 -194zM174 -59l-154 194l216 162l151 -195z" />
    <glyph glyph-name="semicolon" unicode=";" horiz-adv-x="552" 
d="M313 678l-153 194l213 162l153 -194zM-12 -322l151 308l-116 149l213 162l137 -176l-267 -443h-118z" />
    <glyph glyph-name="less" unicode="&#x3c;" 
d="M1188 1077l29 -143l-758 -326l643 -327l-72 -129l-762 401l23 123z" />
    <glyph glyph-name="equal" unicode="=" 
d="M301 743l25 140h874l-24 -140h-875zM227 330l25 141h876l-24 -141h-877z" />
    <glyph glyph-name="greater" unicode="&#x3e;" 
d="M244 152l-27 143l756 326l-641 327l71 129l760 -401l-20 -123z" />
    <glyph glyph-name="question" unicode="?" horiz-adv-x="1030" 
d="M367 426q41 46 108 119.5t105.5 115.5t87 101.5t73.5 101.5t43.5 91.5t18.5 93.5q0 90 -55.5 143t-153.5 53q-61 0 -152 -24l-272 -131l70 233q246 72 405 72q170 0 271.5 -90.5t101.5 -237.5q0 -45 -12.5 -90.5t-30.5 -84t-52 -82.5t-63 -76.5t-77.5 -78t-82 -74.5
t-90 -77.5t-88.5 -77.5h-155zM369 -43l-138 176l193 148l139 -179z" />
    <glyph glyph-name="at" unicode="@" horiz-adv-x="2064" 
d="M1055 -295q-195 0 -359.5 52.5t-286.5 152.5t-190.5 256t-68.5 354t74.5 366t204 283.5t308.5 180.5t383 65q192 0 352.5 -59t267 -159.5t165.5 -234.5t59 -284q0 -245 -133 -393t-328 -148q-101 0 -164 50t-77 139q-52 -85 -137 -134t-191 -49q-58 0 -111 20.5
t-96.5 61.5t-69.5 110.5t-26 158.5q0 137 56.5 249.5t171 182t267.5 69.5q116 0 238 -37l137 25l-84 -471q-10 -87 -10 -117q0 -58 29 -91.5t90 -33.5q108 0 192 112t84 294q0 124 -45 231.5t-129 189t-216 128.5t-296 47q-225 0 -402 -91.5t-278.5 -263.5t-101.5 -397
q0 -170 54 -298.5t154.5 -208.5t237 -120t307.5 -40q101 0 205 14t166.5 28.5t161.5 41.5l-23 -148q-266 -84 -542 -84zM991 276q92 0 164 65.5t94 186.5l60 324q-102 20 -170 20q-81 0 -146 -31.5t-104 -84.5t-59.5 -118t-20.5 -136q0 -111 47.5 -168.5t134.5 -57.5z" />
    <glyph glyph-name="A" unicode="A" horiz-adv-x="1337" 
d="M1223 0h-250l4 176l-31 137h-633l-77 -137l-62 -176h-237l735 1262l-27 98h266zM397 461h518l-143 655z" />
    <glyph glyph-name="B" unicode="B" horiz-adv-x="1323" 
d="M45 0l64 190l174 979l4 191h600q176 0 272 -77.5t96 -215.5q0 -135 -76.5 -228.5t-213.5 -133.5q116 -25 190 -100t74 -191q0 -185 -139 -299.5t-381 -114.5h-664zM408 770h317q153 0 243.5 70t90.5 198q0 174 -232 174h-340zM297 147h389q152 0 243 78t91 207
q0 95 -69.5 145t-200.5 50h-367z" />
    <glyph glyph-name="C" unicode="C" horiz-adv-x="1280" 
d="M682 -37q-260 0 -410.5 156t-150.5 418q0 251 99 447.5t276 304.5t401 108q184 0 377 -78v-223l-182 116q-102 29 -197 29q-164 0 -294 -91t-202.5 -253t-72.5 -365q0 -196 97.5 -302.5t278.5 -106.5q116 0 211 29l228 120l-70 -235q-193 -74 -389 -74z" />
    <glyph glyph-name="D" unicode="D" horiz-adv-x="1427" 
d="M45 0l64 190l174 979l4 191h510q571 0 571 -535q0 -384 -206 -604.5t-580 -220.5h-537zM305 152h311q168 0 292.5 85t190.5 238t66 354q0 198 -91 288.5t-288 90.5h-294z" />
    <glyph glyph-name="E" unicode="E" horiz-adv-x="1214" 
d="M1073 1208h-581l-78 -438h428l153 23l-34 -193l-146 23h-428l-84 -471h590l192 45l-75 -197h-965l64 190l174 979l4 191h958v-197z" />
    <glyph glyph-name="F" unicode="F" horiz-adv-x="1169" 
d="M1229 1360v-197l-172 45h-565l-95 -530h445l153 22l-34 -194l-146 22h-444l-60 -338l19 -190h-285l64 190l174 979l4 191h942z" />
    <glyph glyph-name="G" unicode="G" horiz-adv-x="1394" 
d="M705 -37q-272 0 -428 153.5t-156 420.5q0 251 103.5 447t289.5 304.5t424 108.5q218 0 416 -76v-225l-183 116q-113 29 -229 29q-274 0 -446 -196.5t-172 -512.5q0 -200 102.5 -307.5t292.5 -107.5q161 0 323 61l52 291l-43 180h249l-104 -583q-147 -59 -256 -81
t-235 -22z" />
    <glyph glyph-name="H" unicode="H" horiz-adv-x="1431" 
d="M1186 1360h262l-64 -191l-174 -979l-4 -190h-262l64 190l75 426h-696l-76 -426l-4 -190h-262l64 190l174 979l4 191h262l-64 -191l-69 -397h696l70 397z" />
    <glyph glyph-name="I" unicode="I" horiz-adv-x="532" 
d="M45 0l64 190l174 979l4 191h262l-64 -191l-174 -979l-4 -190h-262z" />
    <glyph glyph-name="J" unicode="J" horiz-adv-x="931" 
d="M289 -23q-153 0 -301 103l37 237l176 -163q41 -17 96 -17q103 0 170 67.5t90 194.5l137 770l4 191h263l-66 -191l-137 -774q-37 -206 -155.5 -312t-313.5 -106z" />
    <glyph glyph-name="K" unicode="K" horiz-adv-x="1300" 
d="M45 0l64 190l174 979l4 191h264l-66 -191l-174 -979l-4 -190h-262zM897 0l-49 154l-412 555l547 501l107 150h296l-727 -649l525 -711h-287z" />
    <glyph glyph-name="L" unicode="L" horiz-adv-x="1085" 
d="M807 156l192 45l-75 -201h-879l64 190l174 979l4 191h262l-64 -191l-180 -1013h502z" />
    <glyph glyph-name="M" unicode="M" horiz-adv-x="1695" 
d="M45 0l64 190l174 979l4 191h352l6 -176l164 -920l489 920l72 176h342l-65 -191l-172 -979l-5 -190h-241l63 190l178 1004l-632 -1194h-176l-211 1192l-177 -1002l-4 -190h-225z" />
    <glyph glyph-name="N" unicode="N" horiz-adv-x="1466" 
d="M45 0l64 190l174 979l4 191h307l479 -1176l176 985l2 191h234l-64 -191l-209 -1169h-276l-479 1176l-176 -986l-2 -190h-234z" />
    <glyph glyph-name="O" unicode="O" horiz-adv-x="1495" 
d="M666 -39q-249 0 -398 156.5t-149 414.5q0 243 101.5 441.5t279 311t393.5 112.5q249 0 398 -157t149 -415q0 -146 -38 -279t-108.5 -239t-165.5 -184t-213.5 -120t-248.5 -42zM676 119q152 0 281 95.5t203.5 259t74.5 355.5t-93 301t-259 109q-114 0 -217.5 -56.5
t-178.5 -152t-119 -227t-44 -275.5q0 -193 92.5 -301t259.5 -108z" />
    <glyph glyph-name="P" unicode="P" horiz-adv-x="1261" 
d="M45 0l64 190l174 979l4 191h555q206 0 316 -95.5t110 -281.5q0 -224 -151.5 -357.5t-409.5 -133.5h-342l-54 -302l17 -190h-283zM387 639h311q177 0 275 93.5t98 250.5q0 120 -65 173.5t-199 53.5h-320z" />
    <glyph glyph-name="Q" unicode="Q" horiz-adv-x="1495" 
d="M1159 -266l-571 233q-216 23 -342.5 175.5t-126.5 389.5q0 243 101.5 441.5t279 311t393.5 112.5q249 0 398 -157t149 -415q0 -217 -82.5 -397.5t-224.5 -292t-318 -137.5l397 -92h152zM676 119q152 0 281 95.5t203.5 259t74.5 355.5t-93 301t-259 109
q-114 0 -217.5 -56.5t-178.5 -152t-119 -227t-44 -275.5q0 -193 92.5 -301t259.5 -108z" />
    <glyph glyph-name="R" unicode="R" horiz-adv-x="1333" 
d="M1276 1004q0 -174 -112 -288t-296 -141l318 -575h-283l-35 176l-196 371h-297l-64 -357l2 -190h-268l64 190l174 979l4 191h571q202 0 310 -93.5t108 -262.5zM489 1217l-92 -517h318q171 0 266.5 80t95.5 224q0 103 -63.5 158t-190.5 55h-334z" />
    <glyph glyph-name="S" unicode="S" horiz-adv-x="1208" 
d="M516 -37q-102 1 -204 18.5t-144 30.5t-111 37l-2 232l183 -125q146 -47 280 -47q166 0 264.5 65.5t98.5 175.5q0 96 -70.5 156t-230.5 115q-198 67 -288.5 162t-90.5 231q0 173 146 277t392 104q226 0 439 -76l2 -223l-181 116q-110 39 -258 39q-150 0 -241.5 -61
t-91.5 -158q0 -90 63 -147t221 -113q204 -69 299.5 -163t95.5 -238q0 -184 -156.5 -296t-414.5 -112z" />
    <glyph glyph-name="T" unicode="T" horiz-adv-x="1173" 
d="M1253 1360v-201l-176 45h-264l-182 -1014l18 -190h-305l86 190l180 1014h-266l-192 -45l77 201h1024z" />
    <glyph glyph-name="U" unicode="U" horiz-adv-x="1429" 
d="M653 -39q-237 0 -368 127.5t-131 337.5q0 78 14 160l102 583l4 191h263l-64 -191l-108 -614q-11 -72 -11 -129q0 -149 82 -230t238 -81q170 0 277.5 96.5t142.5 290.5l118 667l2 191h242l-65 -191l-119 -675q-46 -260 -203 -396.5t-416 -136.5z" />
    <glyph glyph-name="V" unicode="V" horiz-adv-x="1286" 
d="M440 0l-262 1360h252l-6 -186l174 -981l522 981l62 186h229l-752 -1360h-219z" />
    <glyph glyph-name="W" unicode="W" horiz-adv-x="1892" 
d="M365 0l-187 1360h248l-14 -186l116 -959l441 954l-17 191h256l-16 -191l98 -954l455 959l55 186h217l-678 -1360h-204l-103 948l-442 -948h-225z" />
    <glyph glyph-name="X" unicode="X" horiz-adv-x="1247" 
d="M-102 0l643 717l-361 643h299l27 -186l192 -355l301 348l105 193h270l-594 -670l391 -690h-305l-26 186l-217 400l-344 -393l-105 -193h-276z" />
    <glyph glyph-name="Y" unicode="Y" horiz-adv-x="1323" 
d="M440 0l64 190l57 326l-385 844h289l18 -186l215 -512l394 512l90 186h266l-686 -858l-55 -312l-5 -190h-262z" />
    <glyph glyph-name="Z" unicode="Z" horiz-adv-x="1193" 
d="M-29 0l6 31l977 1179h-548l-218 -53l76 203h1020l-4 -31l-975 -1177h547l217 51l-76 -203h-1022z" />
    <glyph glyph-name="bracketleft" unicode="[" horiz-adv-x="645" 
d="M12 -467l348 1966h357l-25 -141h-190l-297 -1684h190l-24 -141h-359z" />
    <glyph glyph-name="backslash" unicode="\" horiz-adv-x="989" 
d="M641 -410l-412 1844h158l412 -1844h-158z" />
    <glyph glyph-name="bracketright" unicode="]" horiz-adv-x="645" 
d="M-66 -467l25 141h191l296 1684h-190l27 141h356l-346 -1966h-359z" />
    <glyph glyph-name="asciicircum" unicode="^" 
d="M258 653l508 715h166l256 -715h-158l-196 576l-404 -576h-172z" />
    <glyph glyph-name="underscore" unicode="_" horiz-adv-x="1193" 
d="M-121 -127l25 141h1214l-24 -141h-1215z" />
    <glyph glyph-name="grave" unicode="`" horiz-adv-x="1208" 
d="M688 1178l-196 364h208l138 -364h-150z" />
    <glyph glyph-name="a" unicode="a" horiz-adv-x="1183" 
d="M395 -29q-138 0 -225.5 104t-87.5 273q0 146 47.5 273.5t130.5 218t200 142.5t251 52q137 0 290 -47l121 53l-149 -833l20 -193q-61 -32 -119 -32q-43 0 -69.5 25.5t-26.5 80.5q0 14 9 68t20 118.5t14 85.5q-146 -389 -426 -389zM453 123q88 0 176.5 88t154.5 231.5
t95 307.5l22 120q-94 25 -190 25q-189 0 -312 -147.5t-123 -380.5q0 -111 49.5 -177.5t127.5 -66.5z" />
    <glyph glyph-name="b" unicode="b" horiz-adv-x="1181" 
d="M471 -33q-100 0 -192 26.5t-201 76.5l196 1097l-14 193l256 76l-158 -795q143 391 430 391q135 0 223.5 -105.5t88.5 -269.5q0 -197 -80.5 -354.5t-224.5 -246.5t-324 -89zM285 154q109 -48 202 -48q177 0 297.5 149t120.5 382q0 111 -49 176.5t-125 65.5
q-138 0 -257 -170.5t-171 -454.5z" />
    <glyph glyph-name="c" unicode="c" horiz-adv-x="1021" 
d="M514 -33q-188 0 -304 125.5t-116 319.5q0 273 161.5 448.5t412.5 175.5q179 0 313 -67l-2 -195l-162 103q-68 22 -141 22q-168 0 -276.5 -135t-108.5 -342q0 -142 74.5 -224.5t199.5 -82.5q162 0 320 88l-27 -150q-149 -86 -344 -86z" />
    <glyph glyph-name="d" unicode="d" horiz-adv-x="1183" 
d="M395 -29q-137 0 -225 102.5t-88 264.5q0 151 47 282t126.5 220.5t185 140.5t221.5 51q135 0 256 -51l32 188l-14 191l258 76l-219 -1229l18 -193q-53 -32 -119 -32q-43 0 -69.5 25.5t-26.5 80.5q0 14 9 69t21.5 122.5t14.5 80.5q-146 -389 -428 -389zM453 123
q88 0 177 87.5t155.5 231.5t95.5 308l20 116q-99 29 -199 29q-181 0 -302 -148t-121 -380q0 -111 48.5 -177.5t125.5 -66.5z" />
    <glyph glyph-name="e" unicode="e" horiz-adv-x="1112" 
d="M541 393q-125 0 -260 33v-10q0 -151 76 -229t227 -78q161 0 327 84l-26 -142q-165 -84 -361 -84q-192 0 -312 121.5t-120 317.5q0 278 162 453t420 175q169 0 272 -83t103 -224q0 -156 -128 -245t-380 -89zM659 899q-139 0 -239 -97t-129 -263q131 -27 215 -27
q176 0 267 57t91 158q0 82 -56.5 127t-148.5 45z" />
    <glyph glyph-name="f" unicode="f" horiz-adv-x="694" 
d="M-35 -432q-91 0 -205 29l29 178l119 -64q20 -4 41 -4q120 0 145 148l178 1015h-174l23 134h174l31 159q23 126 105.5 202.5t217.5 76.5q80 0 207 -29l-33 -176l-121 63q-12 3 -38 3q-120 0 -148 -148l-29 -151h246l-24 -134h-242l-176 -1013q-25 -138 -108 -213.5
t-218 -75.5z" />
    <glyph glyph-name="g" unicode="g" horiz-adv-x="1171" 
d="M354 -438q-173 0 -315 69v197l162 -104q62 -23 143 -23q359 0 430 383l51 276q-146 -389 -430 -389q-138 0 -225.5 104t-87.5 273q0 146 47.5 273.5t130.5 218t200 142.5t251 52q137 0 290 -47l121 53l-168 -946q-21 -123 -66 -218.5t-117 -166.5t-177.5 -109t-239.5 -38
zM453 123q137 0 256.5 172t169.5 455l22 120q-94 25 -190 25q-189 0 -312 -147.5t-123 -380.5q0 -111 49.5 -177.5t127.5 -66.5z" />
    <glyph glyph-name="h" unicode="h" horiz-adv-x="1179" 
d="M885 -18q-48 0 -78.5 28.5t-30.5 79.5q0 18 7 63t8 50l75 422q11 60 11 92q0 77 -34.5 117t-97.5 40q-55 0 -120.5 -47t-127.5 -129.5t-115 -208t-79 -268.5l-41 -221h-199l211 1169l-14 191l258 76l-164 -824q79 194 198.5 307t264.5 113q119 0 188.5 -77.5t69.5 -200.5
q0 -60 -8 -101l-80 -446l19 -193q-61 -32 -121 -32z" />
    <glyph glyph-name="i" unicode="i" horiz-adv-x="509" 
d="M362 1188l-143 168l191 137l143 -170zM199 -18q-47 0 -78 28t-31 80q0 36 14 113l101 569l-15 193l259 75l-148 -833l18 -191q-56 -34 -120 -34z" />
    <glyph glyph-name="j" unicode="j" horiz-adv-x="497" 
d="M375 1188l-144 168l191 137l143 -170zM-88 -432q-74 0 -176 22v185l121 -66q3 0 16.5 -1t22.5 -1q122 0 147 148l162 919l-15 191l256 75l-208 -1183q-25 -138 -108 -213.5t-218 -75.5z" />
    <glyph glyph-name="k" unicode="k" horiz-adv-x="1048" 
d="M68 0l208 1169l-16 191l258 76l-256 -1436h-194zM852 -20q-79 0 -133 92l-322 493l342 301l88 138h279l-514 -439l375 -555q-48 -30 -115 -30z" />
    <glyph glyph-name="l" unicode="l" horiz-adv-x="507" 
d="M197 -18q-47 0 -77 28t-30 80q0 14 12 113l172 964l-14 193l258 76l-219 -1229l20 -191q-61 -34 -122 -34z" />
    <glyph glyph-name="m" unicode="m" horiz-adv-x="1804" 
d="M1511 -18q-49 0 -78.5 28.5t-29.5 79.5q0 36 14 113l76 424q10 68 10 106q0 141 -108 141q-51 0 -115 -47.5t-125.5 -129.5t-114.5 -208t-79 -268l-39 -221h-199l113 627q8 54 8 106q0 141 -107 141q-52 0 -116 -47.5t-125.5 -129.5t-114 -207.5t-78.5 -268.5l-41 -221
h-199l142 774l-15 191l252 73l-88 -426q77 203 201 311.5t256 108.5q105 0 164 -72t59 -184q0 -66 -18 -151q74 195 195.5 301t250.5 106q114 0 176 -74.5t62 -195.5q0 -62 -6 -109l-80 -446l18 -193q-67 -32 -121 -32z" />
    <glyph glyph-name="n" unicode="n" horiz-adv-x="1179" 
d="M885 -18q-48 0 -78.5 28.5t-30.5 79.5q0 31 15 113l75 422q11 60 11 92q0 77 -34.5 117t-97.5 40q-55 0 -120.5 -47t-127.5 -129.5t-115 -208t-79 -268.5l-41 -221h-196l139 774l-15 191l252 73l-88 -426q75 196 195.5 308t267.5 112q119 0 188.5 -77.5t69.5 -200.5
q0 -60 -8 -101l-80 -446l19 -193q-61 -32 -121 -32z" />
    <glyph glyph-name="o" unicode="o" horiz-adv-x="1198" 
d="M522 -33q-190 0 -310 123.5t-120 323.5q0 178 76 320.5t209.5 222t298.5 79.5q189 0 308.5 -123t119.5 -323q0 -178 -75.5 -321t-208.5 -222.5t-298 -79.5zM537 113q158 0 264 134.5t106 344.5q0 136 -68 217.5t-177 81.5q-159 0 -265 -134.5t-106 -344.5
q0 -136 68.5 -217.5t177.5 -81.5z" />
    <glyph glyph-name="p" unicode="p" horiz-adv-x="1181" 
d="M-33 -410l62 197l176 987l-15 191l252 73l-84 -397q143 391 430 391q136 0 223 -105.5t87 -275.5q0 -147 -46 -275t-124.5 -217t-184.5 -139.5t-223 -50.5q-123 0 -254 51l-43 -233l13 -197h-269zM479 106q182 0 304 149t122 382q0 111 -49 176.5t-125 65.5
q-138 0 -257 -170.5t-171 -454.5l-22 -119q101 -29 198 -29z" />
    <glyph glyph-name="q" unicode="q" horiz-adv-x="1165" 
d="M643 -410l70 197l114 573q-149 -389 -432 -389q-137 0 -225 102.5t-88 264.5q0 200 82 359.5t226 248t323 88.5q138 0 291 -47l120 53l-223 -1253v-197h-258zM453 123q137 0 257.5 172t170.5 455l22 120q-94 25 -190 25q-189 0 -311.5 -147.5t-122.5 -380.5
q0 -111 48.5 -177.5t125.5 -66.5z" />
    <glyph glyph-name="r" unicode="r" horiz-adv-x="825" 
d="M66 0l139 774l-15 191l250 73l-96 -475q69 220 200 344.5t296 124.5q22 0 32 -2l-36 -201q-28 7 -52 7q-76 0 -146.5 -33t-135.5 -101t-116 -186.5t-79 -277.5l-45 -238h-196z" />
    <glyph glyph-name="s" unicode="s" horiz-adv-x="1009" 
d="M418 -33q-33 0 -63.5 1.5t-61 5.5t-50 7t-50.5 10.5t-43 10t-46.5 12t-42.5 11.5v215l162 -109q93 -22 203 -22q116 0 180 43t64 110q0 59 -43.5 97t-161.5 77q-171 55 -240 124.5t-69 184.5q0 129 118 209t312 80q40 0 78 -3t63.5 -5.5t59.5 -9.5t47 -10.5t46 -12.5
t38 -10v-207l-160 101q-70 18 -162 18q-111 0 -175.5 -36t-64.5 -95q0 -56 43.5 -92.5t161.5 -75.5q168 -54 238.5 -126.5t70.5 -180.5q0 -142 -119 -232t-333 -90z" />
    <glyph glyph-name="t" unicode="t" horiz-adv-x="743" 
d="M358 -29q-101 0 -159 54t-58 149q0 44 9 88l106 606h-180v9l422 374h18l-43 -247h307l-24 -136h-305l-105 -581q-4 -29 -4 -58q0 -43 25 -65.5t69 -22.5q65 0 189 37l-29 -162q-133 -45 -238 -45z" />
    <glyph glyph-name="u" unicode="u" horiz-adv-x="1177" 
d="M371 -31q-120 0 -191 77t-71 194q0 25 2.5 53t4.5 51.5t9.5 62.5t11.5 61t15.5 73.5t16.5 74t20.5 88.5t21.5 93l-18 190q69 33 122 33q48 0 78.5 -28t30.5 -79q0 -67 -58.5 -297.5t-58.5 -328.5q0 -77 38 -118.5t101 -41.5q121 0 248.5 184t179.5 469l39 221h199
l-143 -794l18 -193q-2 -1 -12.5 -5.5t-16.5 -7t-18 -7t-22 -6.5t-24 -4t-28 -2q-94 0 -94 106q0 21 19.5 136.5t29.5 162.5q-70 -196 -185 -307t-265 -111z" />
    <glyph glyph-name="v" unicode="v" horiz-adv-x="1075" 
d="M893 1004h225l-553 -1004h-227l-203 1004h242l-6 -179l114 -661l349 661z" />
    <glyph glyph-name="w" unicode="w" horiz-adv-x="1740" 
d="M328 0l-193 1004h244l-10 -179l94 -649l399 828h205l107 -826l323 647l55 179h232l-535 -1004h-209l-106 809l-395 -809h-211z" />
    <glyph glyph-name="x" unicode="x" horiz-adv-x="1058" 
d="M-86 0l502 530l-289 474h276l39 -177l115 -209l188 207l103 179h268l-465 -490l316 -514h-285l-35 176l-137 244l-223 -244l-101 -176h-272z" />
    <glyph glyph-name="y" unicode="y" horiz-adv-x="1169" 
d="M348 -438q-173 0 -315 69l2 197l162 -104q62 -23 141 -23q186 0 292 100.5t138 282.5l53 303q-69 -197 -183.5 -307.5t-264.5 -110.5q-120 0 -191 77t-71 194q0 63 14.5 154t30.5 162t57 241l-18 190q63 33 120 33q48 0 78.5 -28t30.5 -79q0 -67 -57.5 -297.5
t-57.5 -328.5q0 -77 38 -118.5t102 -41.5q77 0 161 79t157 231.5t107 342.5l41 224h199l-166 -910q-21 -123 -66 -218.5t-117 -166.5t-177.5 -109t-239.5 -38z" />
    <glyph glyph-name="z" unicode="z" horiz-adv-x="1024" 
d="M653 -35q-111 0 -368.5 16.5t-304.5 18.5l6 31l723 833h-381l-203 -71l76 211h819l-4 -33l-742 -846q40 0 177.5 -1.5t189.5 -0.5l209 80q33 -60 33 -113q0 -60 -51 -92.5t-179 -32.5z" />
    <glyph glyph-name="braceleft" unicode="{" horiz-adv-x="684" 
d="M348 -483q-103 60 -147.5 128.5t-44.5 166.5q0 42 10 104l67 377q7 35 7 55q0 59 -34.5 83t-117.5 24l16 133q98 0 145.5 36.5t61.5 118.5l72 406q27 142 100 233t211 142l82 -88q-102 -49 -151 -122.5t-70 -191.5l-70 -385q-19 -103 -72 -154t-153 -63q73 -11 112.5 -55
t39.5 -117q0 -32 -6 -69l-68 -385q-10 -55 -10 -95q0 -68 25.5 -113t97.5 -102z" />
    <glyph glyph-name="bar" unicode="|" horiz-adv-x="514" 
d="M16 -410l326 1844h160l-326 -1844h-160z" />
    <glyph glyph-name="braceright" unicode="}" horiz-adv-x="684" 
d="M-6 -483l-82 88q102 49 151 122.5t70 192.5l70 385q19 102 72.5 153.5t152.5 61.5q-73 11 -112.5 55t-39.5 117q0 30 7 70l67 385q10 58 10 94q0 68 -25.5 113.5t-96.5 101.5l104 68q102 -60 146 -128t44 -167q0 -59 -10 -103l-65 -378q-6 -30 -6 -56q0 -57 34 -81.5
t117 -24.5l-18 -131q-97 0 -144.5 -37.5t-62.5 -120.5l-72 -406q-25 -140 -98.5 -230.5t-212.5 -143.5z" />
    <glyph glyph-name="asciitilde" unicode="~" 
d="M338 457l-107 78q64 117 131.5 162.5t161.5 45.5q60 0 136 -33.5t143.5 -66.5t107.5 -33q64 0 104.5 36.5t76.5 109.5l106 -76q-62 -118 -130.5 -163.5t-162.5 -45.5q-48 0 -106.5 20.5t-103 45t-94.5 45t-83 20.5q-64 0 -103 -35.5t-77 -109.5z" />
    <glyph glyph-name="uni00A0" unicode="&#xa0;" horiz-adv-x="389" 
 />
    <glyph glyph-name="exclamdown" unicode="&#xa1;" horiz-adv-x="526" 
d="M356 1042l140 -178l-193 -145l-139 176zM336 571l-80 -858l-150 -104l-106 121l223 841h113z" />
    <glyph glyph-name="cent" unicode="&#xa2;" 
d="M1059 874q-64 16 -150 23l-137 -780q142 9 348 82l-24 -144q-194 -74 -351 -86l-32 -188h-140l35 190q-182 24 -296.5 144t-114.5 295q0 264 165.5 435.5t432.5 186.5l34 195h140l-35 -197q163 -13 287 -61l-2 -195zM416 422q0 -116 59.5 -194t159.5 -103l135 768
q-160 -25 -257 -154t-97 -317z" />
    <glyph glyph-name="sterling" unicode="&#xa3;" 
d="M387 154l664 6l198 47l-67 -207h-1059l14 94q12 12 58.5 58t61 61t50.5 52.5t52 57t40 49.5t38.5 54.5t25.5 48.5h-332l23 129h338q-2 54 -28.5 118t-51.5 132.5t-25 136.5q0 128 73 221t193.5 138t272.5 45q188 0 389 -76l2 -223l-193 125q-92 28 -186 28
q-145 0 -232.5 -68.5t-87.5 -189.5q0 -63 38 -181t40 -206h301l-24 -129h-299q-29 -75 -96.5 -146.5t-190.5 -174.5z" />
    <glyph glyph-name="currency" unicode="&#xa4;" 
d="M1208 971q56 -106 56 -219q0 -109 -41.5 -211t-116.5 -183l131 -153l-133 -115l-133 158q-152 -92 -326 -92q-171 0 -293 98l-194 -166l-107 121l197 168q-58 103 -58 221q0 112 43 215t121 184l-135 158l133 115l140 -164q144 86 315 86q168 0 287 -92l200 170l107 -135
zM373 598q0 -126 77 -207.5t209 -81.5q116 0 214 64.5t152 166t54 212.5q0 125 -76.5 206.5t-209.5 81.5q-116 0 -214 -64t-152 -165.5t-54 -212.5z" />
    <glyph glyph-name="yen" unicode="&#xa5;" 
d="M1509 1360l-395 -477h197l-23 -123h-276l-113 -137h367l-23 -123h-444l-58 -310l-2 -190h-264l64 190l57 310h-449l21 123h379l-68 137h-286l20 123h205l-234 477h299l17 -186l233 -512l412 512l88 186h276z" />
    <glyph glyph-name="brokenbar" unicode="&#xa6;" horiz-adv-x="514" 
d="M223 766l119 668h160l-117 -668h-162zM16 -410l113 637h160l-113 -637h-160z" />
    <glyph glyph-name="section" unicode="&#xa7;" 
d="M846 1247q-168 0 -266.5 -50.5t-98.5 -131.5q0 -78 70.5 -127t253.5 -104q224 -65 331 -149.5t107 -209.5q0 -112 -68.5 -191.5t-193.5 -144.5q119 -93 119 -241q0 -157 -155 -248.5t-413 -91.5q-257 0 -464 67v219l163 -102q140 -39 306 -39q168 0 267 49.5t99 130.5
q0 80 -70 128.5t-255 103.5q-225 66 -332 151t-107 209q0 110 68.5 190.5t191.5 145.5q-116 91 -116 240q0 158 154 249t413 91q252 0 465 -66v-219l-164 102q-140 39 -305 39zM1042 412q0 85 -68.5 140t-258.5 114q-151 49 -226 88q-149 -101 -149 -215q0 -87 69 -142
t259 -112q144 -45 225 -88q149 96 149 215z" />
    <glyph glyph-name="dieresis" unicode="&#xa8;" horiz-adv-x="1208" 
d="M524 1192l-110 156l168 127l112 -160zM922 1192l-113 156l170 127l111 -160z" />
    <glyph glyph-name="copyright" unicode="&#xa9;" horiz-adv-x="1601" 
d="M717 -31q-167 0 -300.5 78.5t-207.5 215.5t-74 304q0 161 68 313.5t179 264t260.5 179t305.5 67.5q166 0 299.5 -78.5t208 -215t74.5 -302.5q0 -161 -68 -314t-179.5 -264.5t-261 -179.5t-304.5 -68zM719 57q136 -1 267.5 60t230.5 161t160 237t61 280
q0 215 -137.5 361.5t-354.5 146.5q-136 0 -268 -61t-231 -161t-159.5 -236.5t-60.5 -279.5q0 -215 136.5 -360t355.5 -148zM807 291q-146 0 -238 90t-92 233q0 195 123.5 325t314.5 130q123 0 236 -45v-141l-104 67q-65 19 -127 19q-91 0 -164.5 -51t-112.5 -132t-39 -172
q0 -99 57 -159t158 -60q64 0 131 17l135 71l-43 -147q-120 -45 -235 -45z" />
    <glyph glyph-name="ordfeminine" unicode="&#xaa;" horiz-adv-x="868" 
d="M371 631q-91 0 -150 71.5t-59 186.5q0 214 123 348.5t315 134.5q89 0 197 -33l92 37l-105 -585l15 -129q-46 -23 -88 -23q-30 0 -49 18t-19 54q0 19 27 168q-52 -117 -129.5 -182.5t-169.5 -65.5zM424 743q94 0 175 113t120 313l16 82q-69 17 -135 17
q-130 0 -215.5 -100.5t-85.5 -260.5q0 -74 35 -119t90 -45z" />
    <glyph glyph-name="guillemotleft" unicode="&#xab;" horiz-adv-x="968" 
d="M297 190l-180 367l10 64l297 370h154l-285 -405l139 -396h-135zM672 190l-180 367l10 64l297 370h153l-284 -405l139 -396h-135z" />
    <glyph glyph-name="logicalnot" unicode="&#xac;" 
d="M922 264l82 479h-730l25 140h881l-109 -619h-149z" />
    <glyph glyph-name="uni00AD" unicode="&#xad;" horiz-adv-x="665" 
d="M78 518l24 146h516l-22 -146h-518z" />
    <glyph glyph-name="registered" unicode="&#xae;" horiz-adv-x="1181" 
d="M594 457q-178 0 -293 119.5t-115 300.5q0 110 47 215t124 182t180 123.5t211 46.5q178 0 292.5 -119.5t114.5 -300.5q0 -110 -47 -215t-123.5 -182t-179.5 -123.5t-211 -46.5zM594 528q126 0 238.5 70t179.5 185t67 241q0 152 -93 250t-238 98q-126 0 -239 -70
t-180 -184.5t-67 -240.5q0 -152 93.5 -249.5t238.5 -99.5zM410 690l26 78l68 365l-2 77h248q77 0 120 -36.5t43 -104.5q0 -64 -41.5 -106t-115.5 -54l114 -219h-127l-4 62l-73 143h-113l-23 -127l2 -78h-122zM565 967h117q64 0 100.5 25.5t36.5 72.5q0 74 -90 74h-133z" />
    <glyph glyph-name="macron" unicode="&#xaf;" horiz-adv-x="1208" 
d="M444 1262l25 143h588l-27 -143h-586z" />
    <glyph glyph-name="degree" unicode="&#xb0;" horiz-adv-x="970" 
d="M526 721q-127 0 -216 83t-89 208q0 102 56 190.5t149.5 139.5t200.5 51q127 0 215 -82.5t88 -206.5q0 -157 -120 -270t-284 -113zM539 856q96 0 169.5 72t73.5 168q0 69 -48 116.5t-122 47.5q-96 0 -168.5 -73t-72.5 -169q0 -69 47 -115.5t121 -46.5z" />
    <glyph glyph-name="plusminus" unicode="&#xb1;" 
d="M829 840h363l-25 -142h-362l-68 -389h-151l69 389h-362l24 142h363l70 391h149zM164 -29l24 140h877l-25 -140h-876z" />
    <glyph glyph-name="uni00B2" unicode="&#xb2;" horiz-adv-x="731" 
d="M256 750l334 4l102 24l-39 -127h-563l14 70l-2 4q45 33 113 81t105 74.5t85.5 63.5t74 61.5t51.5 54t36.5 55.5t10.5 52q0 97 -121 97q-51 0 -121 -17l-129 -59l41 141q132 33 237 33q123 0 184.5 -48.5t61.5 -133.5q0 -28 -9 -55t-20.5 -50t-37.5 -50t-45.5 -46
t-59.5 -47t-64 -44t-75.5 -46t-78 -44.5t-85.5 -47.5z" />
    <glyph glyph-name="uni00B3" unicode="&#xb3;" horiz-adv-x="735" 
d="M391 635q-112 0 -268 37l-4 139l96 -61q74 -19 152 -19q83 0 133.5 32t50.5 93q0 52 -47.5 80.5t-173.5 28.5l16 88q250 0 250 127q0 90 -127 90q-56 0 -129 -15l-141 -63l39 139q148 31 264 31q119 0 182.5 -44t63.5 -124q0 -148 -193 -182q68 -14 111 -57t43 -105
q0 -103 -83.5 -159t-234.5 -56z" />
    <glyph glyph-name="acute" unicode="&#xb4;" horiz-adv-x="1208" 
d="M600 1178l264 364h221l-323 -364h-162z" />
    <glyph glyph-name="uni00B5" unicode="&#xb5;" horiz-adv-x="1185" 
d="M84 -428q-47 0 -78 27.5t-31 78.5q0 53 15 115l231 1004l-18 190q63 33 121 33q49 0 78.5 -28t29.5 -79q0 -67 -57.5 -297.5t-57.5 -328.5q0 -78 37.5 -119t102.5 -41q127 0 250 182.5t176 470.5l41 224h198l-145 -797l20 -191q-65 -34 -120 -34q-43 0 -69 25t-26 79
q0 23 19 134.5t30 160.5q-68 -180 -183 -296t-240 -116q-74 0 -126 42t-59 126l-57 -350l20 -190q-50 -25 -102 -25z" />
    <glyph glyph-name="paragraph" unicode="&#xb6;" horiz-adv-x="1431" 
d="M416 -410l78 193l124 700h-45q-194 0 -308.5 103t-114.5 278q0 221 144.5 358.5t395.5 137.5h740l-66 -191l-246 -1386l12 -193h-278l70 193l252 1427h-232l-250 -1427v-193h-276zM604 631h41l100 579h-45q-168 0 -262 -94t-94 -250q0 -112 68.5 -173.5t191.5 -61.5z" />
    <glyph glyph-name="periodcentered" unicode="&#xb7;" horiz-adv-x="544" 
d="M258 412l-154 194l215 162l152 -195z" />
    <glyph glyph-name="cedilla" unicode="&#xb8;" horiz-adv-x="1208" 
d="M434 -442q-111 0 -190 28l22 117q55 -16 127 -16q54 0 85.5 18t31.5 51t-20 48.5t-70 15.5h-90l135 194h123l-86 -118h26q71 0 109.5 -38.5t38.5 -111.5q0 -86 -69 -137t-173 -51z" />
    <glyph glyph-name="uni00B9" unicode="&#xb9;" horiz-adv-x="573" 
d="M268 651l49 101l84 467l-241 -125l18 106l287 152h102l-108 -600l2 -101h-193z" />
    <glyph glyph-name="ordmasculine" unicode="&#xba;" horiz-adv-x="868" 
d="M469 629q-132 0 -216.5 84t-84.5 221q0 191 114.5 316.5t292.5 125.5q135 0 219.5 -82t84.5 -217q0 -193 -116 -320.5t-294 -127.5zM477 733q112 0 188 99t76 245q0 91 -47.5 143t-126.5 52q-112 0 -187 -98t-75 -244q0 -92 46.5 -144.5t125.5 -52.5z" />
    <glyph glyph-name="guillemotright" unicode="&#xbb;" horiz-adv-x="970" 
d="M328 991l180 -368l-10 -64l-297 -369h-152l283 406l-139 395h135zM705 991l180 -368l-11 -64l-296 -369h-154l285 406l-140 395h136z" />
    <glyph glyph-name="onequarter" unicode="&#xbc;" horiz-adv-x="1544" 
d="M1325 1415l82 -72l-1208 -1413l-80 72zM319 768l84 467l-241 -125l18 107l287 151h102l-108 -600l2 -100h-193zM1409 639l-70 -406h109l-14 -90h-111l-8 -45v-98h-180l41 98l8 45h-404l11 68l438 489h231zM936 233h264l68 371z" />
    <glyph glyph-name="onehalf" unicode="&#xbd;" horiz-adv-x="1622" 
d="M1325 1415l82 -72l-1208 -1413l-80 72zM319 768l84 467l-241 -125l18 107l287 151h102l-108 -600l2 -100h-193zM1032 98l334 4l102 25l-38 -127h-564l15 70l-2 4q45 33 113 81t104.5 74.5t85.5 63.5t74.5 61.5t51 54t36 55.5t10.5 52q0 96 -121 96q-55 0 -121 -16
l-129 -59l41 141q132 33 238 33q123 0 184 -49t61 -134q0 -28 -9 -55t-20.5 -50t-37.5 -50t-45.5 -46t-59.5 -47t-64 -44t-75.5 -46t-78 -44.5t-85.5 -47.5z" />
    <glyph glyph-name="threequarters" unicode="&#xbe;" horiz-adv-x="1705" 
d="M1487 1415l82 -72l-1209 -1413l-79 72zM711 866q0 -103 -83.5 -159t-234.5 -56q-112 0 -268 37l-4 139l96 -61q70 -18 152 -18q83 0 133.5 31.5t50.5 92.5q0 52 -47.5 80.5t-173.5 28.5l16 88q250 0 250 127q0 90 -127 90q-61 0 -129 -14l-141 -64l39 140q143 30 264 30
q119 0 182.5 -44t63.5 -124q0 -148 -193 -182q68 -14 111 -57t43 -105zM1571 639l-70 -406h109l-15 -90h-110l-8 -45v-98h-181l41 98l9 45h-404l10 68l439 489h231zM1098 233h264l68 371z" />
    <glyph glyph-name="questiondown" unicode="&#xbf;" horiz-adv-x="1028" 
d="M645 1024l139 -176l-194 -148l-137 177zM647 555q-40 -46 -108 -120t-105.5 -115.5t-86.5 -101.5t-74 -102.5t-43.5 -92t-18.5 -93.5q0 -89 56 -141.5t153 -52.5q71 0 151 22l275 131l-72 -233q-243 -72 -405 -72q-170 0 -270.5 91t-100.5 237q0 52 13.5 102t44.5 99
t61 88.5t83.5 91t90 84.5t102.5 90t101 88h153z" />
    <glyph glyph-name="Agrave" unicode="&#xc0;" horiz-adv-x="1337" 
d="M983 1489h-164l-309 297h225zM1223 0h-250l4 176l-31 137h-633l-77 -137l-62 -176h-237l735 1262l-27 98h266zM397 461h518l-143 655z" />
    <glyph glyph-name="Aacute" unicode="&#xc1;" horiz-adv-x="1337" 
d="M1260 1786l-406 -297h-186l344 297h248zM645 1360h266l312 -1360h-250l4 176l-31 137h-633l-77 -137l-62 -176h-237l735 1262zM397 461h518l-143 655z" />
    <glyph glyph-name="Acircumflex" unicode="&#xc2;" horiz-adv-x="1337" 
d="M874 1688l-196 -199h-213l307 297h215l203 -297h-195zM1223 0h-250l4 176l-31 137h-633l-77 -137l-62 -176h-237l735 1262l-27 98h266zM397 461h518l-143 655z" />
    <glyph glyph-name="Atilde" unicode="&#xc3;" horiz-adv-x="1337" 
d="M713 1642q-63 0 -103 -149h-123q59 301 246 301q43 0 78.5 -16.5t58.5 -40t42 -47t39 -40t40 -16.5q60 0 103 150h123q-59 -301 -244 -301q-43 0 -79 16.5t-59 39.5t-42 46.5t-39.5 40t-40.5 16.5zM1223 0h-250l4 176l-31 137h-633l-77 -137l-62 -176h-237l735 1262
l-27 98h266zM397 461h518l-143 655z" />
    <glyph glyph-name="Adieresis" unicode="&#xc4;" horiz-adv-x="1337" 
d="M770 1606l-168 -121l-113 153l170 123zM1210 1606l-168 -121l-112 153l168 123zM1223 0h-250l4 176l-31 137h-633l-77 -137l-62 -176h-237l735 1262l-27 98h266zM397 461h518l-143 655z" />
    <glyph glyph-name="Aring" unicode="&#xc5;" horiz-adv-x="1337" 
d="M838 1477q-92 0 -151.5 56t-59.5 144q0 107 76.5 178.5t187.5 71.5q91 0 151 -56t60 -145q0 -105 -76.5 -177t-187.5 -72zM885 1819q-58 0 -99 -39t-41 -101q0 -41 28.5 -68.5t72.5 -27.5q56 0 96.5 40t40.5 99q0 43 -27.5 70t-70.5 27zM1223 0h-250l4 176l-31 137h-633
l-77 -137l-62 -176h-237l735 1262l-27 98h266zM397 461h518l-143 655z" />
    <glyph glyph-name="AE" unicode="&#xc6;" horiz-adv-x="1964" 
d="M1821 1210h-564l-75 -440h407l154 23l-33 -193l-145 23h-410l-84 -473h569l193 47l-70 -197h-929l43 178l24 135h-567l-92 -137l-68 -176h-256l868 1284l-22 76h1231v-197zM926 461l133 749h-125l-502 -749h494z" />
    <glyph glyph-name="Ccedilla" unicode="&#xc7;" horiz-adv-x="1280" 
d="M895 1241q-164 0 -294 -91t-202.5 -253t-72.5 -365q0 -196 97.5 -302.5t278.5 -106.5q116 0 211 29l228 120l-70 -235q-187 -71 -377 -74l-49 -67h27q71 0 109 -38.5t38 -111.5q0 -86 -68.5 -137t-172.5 -51q-112 0 -191 28l23 117q55 -16 127 -16q54 0 85 18t31 51
t-20 48.5t-70 15.5h-90l105 151q-215 31 -336 181.5t-121 384.5q0 251 99 447.5t276 304.5t401 108q184 0 377 -78v-223l-182 116q-102 29 -197 29z" />
    <glyph glyph-name="Egrave" unicode="&#xc8;" horiz-adv-x="1214" 
d="M934 1489h-164l-309 297h225zM1073 1208h-581l-78 -438h428l153 23l-34 -193l-146 23h-428l-84 -471h590l192 45l-75 -197h-965l64 190l174 979l4 191h958v-197z" />
    <glyph glyph-name="Eacute" unicode="&#xc9;" horiz-adv-x="1214" 
d="M1210 1786l-405 -297h-187l345 297h247zM1073 1208h-581l-78 -438h428l153 23l-34 -193l-146 23h-428l-84 -471h590l192 45l-75 -197h-965l64 190l174 979l4 191h958v-197z" />
    <glyph glyph-name="Ecircumflex" unicode="&#xca;" horiz-adv-x="1214" 
d="M825 1688l-196 -199h-213l307 297h215l203 -297h-195zM1073 1208h-581l-78 -438h428l153 23l-34 -193l-146 23h-428l-84 -471h590l192 45l-75 -197h-965l64 190l174 979l4 191h958v-197z" />
    <glyph glyph-name="Edieresis" unicode="&#xcb;" horiz-adv-x="1214" 
d="M721 1606l-168 -121l-113 153l170 123zM1161 1606l-168 -121l-112 153l168 123zM1073 1208h-581l-78 -438h428l153 23l-34 -193l-146 23h-428l-84 -471h590l192 45l-75 -197h-965l64 190l174 979l4 191h958v-197z" />
    <glyph glyph-name="Igrave" unicode="&#xcc;" horiz-adv-x="532" 
d="M391 1489l-137 297h199l82 -297h-144zM45 0l64 190l174 979l4 191h262l-64 -191l-174 -979l-4 -190h-262z" />
    <glyph glyph-name="Iacute" unicode="&#xcd;" horiz-adv-x="532" 
d="M334 1489l176 297h213l-240 -297h-149zM45 0l64 190l174 979l4 191h262l-64 -191l-174 -979l-4 -190h-262z" />
    <glyph glyph-name="Icircumflex" unicode="&#xce;" horiz-adv-x="532" 
d="M158 1489l207 297h243l119 -297h-158l-86 213l-161 -213h-164zM45 0l64 190l174 979l4 191h262l-64 -191l-174 -979l-4 -190h-262z" />
    <glyph glyph-name="Idieresis" unicode="&#xcf;" horiz-adv-x="532" 
d="M279 1481l-113 155l168 125l112 -157zM594 1481l-111 155l168 125l111 -157zM45 0l64 190l174 979l4 191h262l-64 -191l-174 -979l-4 -190h-262z" />
    <glyph glyph-name="Eth" unicode="&#xd0;" horiz-adv-x="1427" 
d="M797 1360q571 0 571 -535q0 -384 -206 -604.5t-580 -220.5h-537l64 190l79 449h-120l18 111h123l74 419l4 191h510zM616 152q168 0 292.5 85t190.5 238t66 354q0 198 -91 288.5t-288 90.5h-294l-82 -458h319l-18 -111h-320l-86 -487h311z" />
    <glyph glyph-name="Ntilde" unicode="&#xd1;" horiz-adv-x="1466" 
d="M1053 1483q-43 0 -79 16.5t-59 39.5t-42 46.5t-39.5 40t-40.5 16.5q-63 0 -103 -149h-123q59 301 246 301q43 0 78.5 -16.5t58.5 -40t42 -47t39 -40t40 -16.5q60 0 103 150h122q-59 -301 -243 -301zM45 0l64 190l174 979l4 191h307l479 -1176l176 985l2 191h234l-64 -191
l-209 -1169h-276l-479 1176l-176 -986l-2 -190h-234z" />
    <glyph glyph-name="Ograve" unicode="&#xd2;" horiz-adv-x="1495" 
d="M915 1489l-309 297h225l248 -297h-164zM666 -39q-249 0 -398 156.5t-149 414.5q0 243 101.5 441.5t279 311t393.5 112.5q249 0 398 -157t149 -415q0 -146 -38 -279t-108.5 -239t-165.5 -184t-213.5 -120t-248.5 -42zM676 119q152 0 281 95.5t203.5 259t74.5 355.5
t-93 301t-259 109q-114 0 -217.5 -56.5t-178.5 -152t-119 -227t-44 -275.5q0 -193 92.5 -301t259.5 -108z" />
    <glyph glyph-name="Oacute" unicode="&#xd3;" horiz-adv-x="1495" 
d="M764 1489l344 297h248l-406 -297h-186zM666 -39q-249 0 -398 156.5t-149 414.5q0 243 101.5 441.5t279 311t393.5 112.5q249 0 398 -157t149 -415q0 -146 -38 -279t-108.5 -239t-165.5 -184t-213.5 -120t-248.5 -42zM676 119q152 0 281 95.5t203.5 259t74.5 355.5
t-93 301t-259 109q-114 0 -217.5 -56.5t-178.5 -152t-119 -227t-44 -275.5q0 -193 92.5 -301t259.5 -108z" />
    <glyph glyph-name="Ocircumflex" unicode="&#xd4;" horiz-adv-x="1495" 
d="M561 1489l307 297h215l203 -297h-194l-121 199l-197 -199h-213zM666 -39q-249 0 -398 156.5t-149 414.5q0 243 101.5 441.5t279 311t393.5 112.5q249 0 398 -157t149 -415q0 -146 -38 -279t-108.5 -239t-165.5 -184t-213.5 -120t-248.5 -42zM676 119q152 0 281 95.5
t203.5 259t74.5 355.5t-93 301t-259 109q-114 0 -217.5 -56.5t-178.5 -152t-119 -227t-44 -275.5q0 -193 92.5 -301t259.5 -108z" />
    <glyph glyph-name="Otilde" unicode="&#xd5;" horiz-adv-x="1495" 
d="M1069 1483q-43 0 -79 16.5t-59 39.5t-42 46.5t-39.5 40t-40.5 16.5q-62 0 -102 -149h-123q30 151 89.5 226t155.5 75q43 0 78.5 -16.5t58.5 -40t42 -47t39 -40t40 -16.5q60 0 103 150h123q-59 -301 -244 -301zM666 -39q-249 0 -398 156.5t-149 414.5q0 243 101.5 441.5
t279 311t393.5 112.5q249 0 398 -157t149 -415q0 -146 -38 -279t-108.5 -239t-165.5 -184t-213.5 -120t-248.5 -42zM676 119q152 0 281 95.5t203.5 259t74.5 355.5t-93 301t-259 109q-114 0 -217.5 -56.5t-178.5 -152t-119 -227t-44 -275.5q0 -193 92.5 -301t259.5 -108z
" />
    <glyph glyph-name="Odieresis" unicode="&#xd6;" horiz-adv-x="1495" 
d="M698 1485l-112 153l170 123l110 -155zM1139 1485l-113 153l168 123l113 -155zM666 -39q-249 0 -398 156.5t-149 414.5q0 243 101.5 441.5t279 311t393.5 112.5q249 0 398 -157t149 -415q0 -146 -38 -279t-108.5 -239t-165.5 -184t-213.5 -120t-248.5 -42zM676 119
q152 0 281 95.5t203.5 259t74.5 355.5t-93 301t-259 109q-114 0 -217.5 -56.5t-178.5 -152t-119 -227t-44 -275.5q0 -193 92.5 -301t259.5 -108z" />
    <glyph glyph-name="multiply" unicode="&#xd7;" 
d="M1196 944l-385 -344l262 -340l-104 -94l-264 342l-383 -342l-86 104l385 344l-263 340l105 97l264 -342l383 342z" />
    <glyph glyph-name="Oslash" unicode="&#xd8;" horiz-adv-x="1495" 
d="M1516 1354l-175 -176q99 -148 99 -353q0 -146 -38 -279t-108.5 -239t-165.5 -184t-213.5 -120t-248.5 -42q-236 0 -385 143l-168 -167l-66 67l172 174q-100 142 -100 354q0 243 101.5 441.5t279 311t393.5 112.5q238 0 387 -146l170 172zM324 528q0 -124 36 -206l791 798
q-96 119 -268 119q-114 0 -217.5 -56.5t-178.5 -152t-119 -227t-44 -275.5zM1235 829q0 118 -35 205l-790 -798q91 -117 266 -117q152 0 281 95.5t203.5 259t74.5 355.5z" />
    <glyph glyph-name="Ugrave" unicode="&#xd9;" horiz-adv-x="1429" 
d="M883 1489l-310 297h226l248 -297h-164zM653 -39q-237 0 -368 127.5t-131 337.5q0 78 14 160l102 583l4 191h263l-64 -191l-108 -614q-11 -72 -11 -129q0 -149 82 -230t238 -81q170 0 277.5 96.5t142.5 290.5l118 667l2 191h242l-65 -191l-119 -675q-46 -260 -203 -396.5
t-416 -136.5z" />
    <glyph glyph-name="Uacute" unicode="&#xda;" horiz-adv-x="1429" 
d="M731 1489l344 297h248l-405 -297h-187zM653 -39q-237 0 -368 127.5t-131 337.5q0 78 14 160l102 583l4 191h263l-64 -191l-108 -614q-11 -72 -11 -129q0 -149 82 -230t238 -81q170 0 277.5 96.5t142.5 290.5l118 667l2 191h242l-65 -191l-119 -675q-46 -260 -203 -396.5
t-416 -136.5z" />
    <glyph glyph-name="Ucircumflex" unicode="&#xdb;" horiz-adv-x="1429" 
d="M528 1489l308 297h215l202 -297h-194l-121 199l-197 -199h-213zM653 -39q-237 0 -368 127.5t-131 337.5q0 78 14 160l102 583l4 191h263l-64 -191l-108 -614q-11 -72 -11 -129q0 -149 82 -230t238 -81q170 0 277.5 96.5t142.5 290.5l118 667l2 191h242l-65 -191
l-119 -675q-46 -260 -203 -396.5t-416 -136.5z" />
    <glyph glyph-name="Udieresis" unicode="&#xdc;" horiz-adv-x="1429" 
d="M666 1485l-113 153l170 123l111 -155zM1106 1485l-113 153l168 123l113 -155zM653 -39q-237 0 -368 127.5t-131 337.5q0 78 14 160l102 583l4 191h263l-64 -191l-108 -614q-11 -72 -11 -129q0 -149 82 -230t238 -81q170 0 277.5 96.5t142.5 290.5l118 667l2 191h242
l-65 -191l-119 -675q-46 -260 -203 -396.5t-416 -136.5z" />
    <glyph glyph-name="Yacute" unicode="&#xdd;" horiz-adv-x="1323" 
d="M678 1489l344 297h248l-406 -297h-186zM440 0l64 190l57 326l-385 844h289l18 -186l215 -512l394 512l90 186h266l-686 -858l-55 -312l-5 -190h-262z" />
    <glyph glyph-name="Thorn" unicode="&#xde;" horiz-adv-x="1261" 
d="M797 1122q207 0 317.5 -95.5t110.5 -281.5q0 -224 -151.5 -357.5t-409.5 -133.5h-340l-13 -64l-2 -190h-264l64 190l174 979l4 191h264l-66 -191l-8 -47h320zM653 401q177 0 275 93.5t98 248.5q0 122 -65 176t-197 54h-313l-103 -572h305z" />
    <glyph glyph-name="germandbls" unicode="&#xdf;" horiz-adv-x="1253" 
d="M-86 -432q-76 0 -178 22v185l121 -66q3 0 16.5 -1t22.5 -1q122 0 147 148l217 1235q35 196 145.5 274t342.5 78q195 0 293 -65.5t98 -188.5q0 -45 -16 -87t-42 -75.5t-57 -65t-62.5 -61t-57.5 -58.5t-42 -62.5t-16 -67.5q0 -50 23.5 -84.5t97.5 -89.5q90 -66 132 -127.5
t42 -153.5q0 -126 -100.5 -207.5t-262.5 -81.5q-120 0 -272 56v194l141 -94q44 -17 113 -17q88 0 141 42.5t53 113.5q0 57 -33.5 96t-115.5 97q-82 57 -115 111t-33 122q0 48 21.5 95.5t54.5 84t70.5 75.5t70.5 71.5t54.5 72t21.5 76.5q0 69 -50.5 105.5t-164.5 36.5
q-134 0 -196.5 -52.5t-87.5 -185.5l-211 -1210q-25 -138 -108 -213.5t-218 -75.5z" />
    <glyph glyph-name="agrave" unicode="&#xe0;" horiz-adv-x="1183" 
d="M698 1178l-196 364h209l137 -364h-150zM395 -29q-138 0 -225.5 104t-87.5 273q0 146 47.5 273.5t130.5 218t200 142.5t251 52q137 0 290 -47l121 53l-149 -833l20 -193q-61 -32 -119 -32q-43 0 -69.5 25.5t-26.5 80.5q0 14 9 68t20 118.5t14 85.5q-146 -389 -426 -389z
M453 123q88 0 176.5 88t154.5 231.5t95 307.5l22 120q-94 25 -190 25q-189 0 -312 -147.5t-123 -380.5q0 -111 49.5 -177.5t127.5 -66.5z" />
    <glyph glyph-name="aacute" unicode="&#xe1;" horiz-adv-x="1183" 
d="M610 1178l264 364h222l-324 -364h-162zM395 -29q-138 0 -225.5 104t-87.5 273q0 146 47.5 273.5t130.5 218t200 142.5t251 52q137 0 290 -47l121 53l-149 -833l20 -193q-61 -32 -119 -32q-43 0 -69.5 25.5t-26.5 80.5q0 14 9 68t20 118.5t14 85.5q-146 -389 -426 -389z
M453 123q88 0 176.5 88t154.5 231.5t95 307.5l22 120q-94 25 -190 25q-189 0 -312 -147.5t-123 -380.5q0 -111 49.5 -177.5t127.5 -66.5z" />
    <glyph glyph-name="acircumflex" unicode="&#xe2;" horiz-adv-x="1183" 
d="M387 1178l305 364h209l178 -364h-184l-109 264l-200 -264h-199zM395 -29q-138 0 -225.5 104t-87.5 273q0 146 47.5 273.5t130.5 218t200 142.5t251 52q137 0 290 -47l121 53l-149 -833l20 -193q-61 -32 -119 -32q-43 0 -69.5 25.5t-26.5 80.5q0 14 9 68t20 118.5t14 85.5
q-146 -389 -426 -389zM453 123q88 0 176.5 88t154.5 231.5t95 307.5l22 120q-94 25 -190 25q-189 0 -312 -147.5t-123 -380.5q0 -111 49.5 -177.5t127.5 -66.5z" />
    <glyph glyph-name="atilde" unicode="&#xe3;" horiz-adv-x="1183" 
d="M885 1165q-40 0 -73 15.5t-53 39t-38 51t-30 51t-27 39t-31 15.5q-33 0 -60 -47t-53 -153h-119q31 185 90 270.5t154 85.5q47 0 84 -21.5t58.5 -53t38.5 -62.5t34.5 -52.5t36.5 -21.5q33 0 59 47t52 154h120q-32 -186 -90.5 -271.5t-152.5 -85.5zM395 -29
q-138 0 -225.5 104t-87.5 273q0 146 47.5 273.5t130.5 218t200 142.5t251 52q137 0 290 -47l121 53l-149 -833l20 -193q-61 -32 -119 -32q-43 0 -69.5 25.5t-26.5 80.5q0 14 9 68t20 118.5t14 85.5q-146 -389 -426 -389zM453 123q88 0 176.5 88t154.5 231.5t95 307.5l22 120
q-94 25 -190 25q-189 0 -312 -147.5t-123 -380.5q0 -111 49.5 -177.5t127.5 -66.5z" />
    <glyph glyph-name="adieresis" unicode="&#xe4;" horiz-adv-x="1183" 
d="M535 1192l-111 156l168 127l113 -160zM932 1192l-113 156l170 127l111 -160zM395 -29q-138 0 -225.5 104t-87.5 273q0 146 47.5 273.5t130.5 218t200 142.5t251 52q137 0 290 -47l121 53l-149 -833l20 -193q-61 -32 -119 -32q-43 0 -69.5 25.5t-26.5 80.5q0 14 9 68
t20 118.5t14 85.5q-146 -389 -426 -389zM453 123q88 0 176.5 88t154.5 231.5t95 307.5l22 120q-94 25 -190 25q-189 0 -312 -147.5t-123 -380.5q0 -111 49.5 -177.5t127.5 -66.5z" />
    <glyph glyph-name="aring" unicode="&#xe5;" horiz-adv-x="1183" 
d="M743 1161q-87 0 -145.5 58t-58.5 149q0 104 77.5 180t184.5 76q88 0 145.5 -57.5t57.5 -149.5q0 -105 -76.5 -180.5t-184.5 -75.5zM750 1270q57 0 98 42t41 101q0 46 -26.5 74.5t-67.5 28.5q-57 0 -98.5 -42.5t-41.5 -101.5q0 -46 26 -74t69 -28zM395 -29
q-138 0 -225.5 104t-87.5 273q0 146 47.5 273.5t130.5 218t200 142.5t251 52q137 0 290 -47l121 53l-149 -833l20 -193q-61 -32 -119 -32q-43 0 -69.5 25.5t-26.5 80.5q0 14 9 68t20 118.5t14 85.5q-146 -389 -426 -389zM453 123q88 0 176.5 88t154.5 231.5t95 307.5l22 120
q-94 25 -190 25q-189 0 -312 -147.5t-123 -380.5q0 -111 49.5 -177.5t127.5 -66.5z" />
    <glyph glyph-name="ae" unicode="&#xe6;" horiz-adv-x="1763" 
d="M1206 393q-137 0 -274 39v-14q0 -153 78 -231t231 -78q161 0 322 84l-27 -142q-162 -84 -344 -84q-149 0 -252 74.5t-139 202.5q-55 -132 -159 -203.5t-249 -71.5q-147 0 -241.5 88.5t-94.5 227.5q0 147 106 244.5t273 97.5q66 0 131 -13.5t100 -26t91 -36.5
q16 94 16 131q0 110 -54 163.5t-153 53.5q-71 0 -159 -20l-199 -88l55 194q191 49 334 49q130 0 208.5 -60.5t98.5 -174.5q68 110 181.5 172.5t246.5 62.5q166 0 267.5 -83.5t101.5 -223.5q0 -155 -126 -244.5t-370 -89.5zM1313 899q-137 0 -237.5 -95.5t-131.5 -256.5
q130 -35 227 -35q167 0 257 57.5t90 157.5q0 81 -54.5 126.5t-150.5 45.5zM727 362l12 78q-145 62 -272 62q-111 0 -176.5 -58.5t-65.5 -150.5q0 -88 59 -140.5t154 -52.5q101 0 182 71.5t107 190.5z" />
    <glyph glyph-name="ccedilla" unicode="&#xe7;" horiz-adv-x="1021" 
d="M676 899q-168 0 -276.5 -135t-108.5 -342q0 -142 74.5 -224.5t199.5 -82.5q162 0 320 88l-27 -150q-139 -80 -321 -86l-52 -71h27q71 0 109 -38.5t38 -111.5q0 -86 -68.5 -137t-172.5 -51q-112 0 -191 28l23 117q55 -16 127 -16q54 0 85.5 18t31.5 51t-20.5 48.5
t-70.5 15.5h-90l109 155q-150 31 -239 150t-89 287q0 273 161.5 448.5t412.5 175.5q179 0 313 -67l-2 -195l-162 103q-68 22 -141 22z" />
    <glyph glyph-name="egrave" unicode="&#xe8;" horiz-adv-x="1112" 
d="M811 1178h-149l-197 364h209zM541 393q-125 0 -260 33v-10q0 -151 76 -229t227 -78q161 0 327 84l-26 -142q-165 -84 -361 -84q-192 0 -312 121.5t-120 317.5q0 278 162 453t420 175q169 0 272 -83t103 -224q0 -156 -128 -245t-380 -89zM659 899q-139 0 -239 -97
t-129 -263q131 -27 215 -27q176 0 267 57t91 158q0 82 -56.5 127t-148.5 45z" />
    <glyph glyph-name="eacute" unicode="&#xe9;" horiz-adv-x="1112" 
d="M1059 1542l-324 -364h-162l265 364h221zM674 1034q169 0 272 -83t103 -224q0 -156 -128 -245t-380 -89q-125 0 -260 33v-10q0 -151 76 -229t227 -78q161 0 327 84l-26 -142q-165 -84 -361 -84q-192 0 -312 121.5t-120 317.5q0 278 162 453t420 175zM506 512q176 0 267 57
t91 158q0 82 -56.5 127t-148.5 45q-139 0 -239 -97t-129 -263q131 -27 215 -27z" />
    <glyph glyph-name="ecircumflex" unicode="&#xea;" horiz-adv-x="1112" 
d="M750 1442l-201 -264h-199l305 364h209l178 -364h-184zM541 393q-125 0 -260 33v-10q0 -151 76 -229t227 -78q161 0 327 84l-26 -142q-165 -84 -361 -84q-192 0 -312 121.5t-120 317.5q0 278 162 453t420 175q169 0 272 -83t103 -224q0 -156 -128 -245t-380 -89zM659 899
q-139 0 -239 -97t-129 -263q131 -27 215 -27q176 0 267 57t91 158q0 82 -56.5 127t-148.5 45z" />
    <glyph glyph-name="edieresis" unicode="&#xeb;" horiz-adv-x="1112" 
d="M666 1315l-170 -123l-111 156l168 127zM1061 1315l-168 -123l-113 156l170 127zM674 1034q169 0 272 -83t103 -224q0 -156 -128 -245t-380 -89q-125 0 -260 33v-10q0 -151 76 -229t227 -78q161 0 327 84l-26 -142q-165 -84 -361 -84q-192 0 -312 121.5t-120 317.5
q0 278 162 453t420 175zM506 512q176 0 267 57t91 158q0 82 -56.5 127t-148.5 45q-139 0 -239 -97t-129 -263q131 -27 215 -27z" />
    <glyph glyph-name="igrave" unicode="&#xec;" horiz-adv-x="509" 
d="M307 1178l-90 364h189l43 -364h-142zM199 -18q-47 0 -78 28t-31 80q0 36 14 113l101 569l-15 193l259 75l-148 -833l18 -191q-56 -34 -120 -34z" />
    <glyph glyph-name="iacute" unicode="&#xed;" horiz-adv-x="509" 
d="M262 1178l164 364h199l-222 -364h-141zM199 -18q-47 0 -78 28t-31 80q0 36 14 113l101 569l-15 193l259 75l-148 -833l18 -191q-56 -34 -120 -34z" />
    <glyph glyph-name="icircumflex" unicode="&#xee;" horiz-adv-x="509" 
d="M117 1178l180 364h248l57 -364h-158l-34 276l-134 -276h-159zM199 -18q-47 0 -78 28t-31 80q0 36 14 113l101 569l-15 193l259 75l-148 -833l18 -191q-56 -34 -120 -34z" />
    <glyph glyph-name="idieresis" unicode="&#xef;" horiz-adv-x="509" 
d="M541 1475l112 -160l-168 -123l-88 121l-168 -121l-110 156l168 127l88 -125zM190 965l259 75l-148 -833l18 -191q-56 -34 -120 -34q-47 0 -78 28t-31 80q0 36 14 113l101 569z" />
    <glyph glyph-name="eth" unicode="&#xf0;" horiz-adv-x="1239" 
d="M844 1270q303 -201 303 -578q0 -209 -76 -373.5t-217 -258t-324 -93.5q-194 0 -313 121t-119 320q0 128 41 237.5t111 184t164.5 117t199.5 42.5q109 0 196 -48t138 -130q-27 235 -258 367l-229 -140l-92 58l217 131q-91 37 -211 65l106 127q153 -37 269 -94l208 127
l91 -57zM549 113q110 0 199.5 68t137.5 177t48 232q0 111 -75 185.5t-187 74.5q-162 0 -268.5 -124t-106.5 -325q0 -134 68.5 -211t183.5 -77z" />
    <glyph glyph-name="ntilde" unicode="&#xf1;" horiz-adv-x="1179" 
d="M838 1165q-40 0 -73 15.5t-53 39t-38 51t-30 51t-27 39t-31 15.5q-33 0 -60 -47t-53 -153h-119q31 185 90 270.5t154 85.5q47 0 84 -21.5t58.5 -53t38.5 -62.5t34.5 -52.5t36.5 -21.5q33 0 59 47t52 154h120q-32 -186 -90.5 -271.5t-152.5 -85.5zM885 -18
q-48 0 -78.5 28.5t-30.5 79.5q0 31 15 113l75 422q11 60 11 92q0 77 -34.5 117t-97.5 40q-55 0 -120.5 -47t-127.5 -129.5t-115 -208t-79 -268.5l-41 -221h-196l139 774l-15 191l252 73l-88 -426q75 196 195.5 308t267.5 112q119 0 188.5 -77.5t69.5 -200.5q0 -60 -8 -101
l-80 -446l19 -193q-61 -32 -121 -32z" />
    <glyph glyph-name="ograve" unicode="&#xf2;" horiz-adv-x="1198" 
d="M682 1178l-197 364h209l137 -364h-149zM522 -33q-190 0 -310 123.5t-120 323.5q0 178 76 320.5t209.5 222t298.5 79.5q189 0 308.5 -123t119.5 -323q0 -178 -75.5 -321t-208.5 -222.5t-298 -79.5zM537 113q158 0 264 134.5t106 344.5q0 136 -68 217.5t-177 81.5
q-159 0 -265 -134.5t-106 -344.5q0 -136 68.5 -217.5t177.5 -81.5z" />
    <glyph glyph-name="oacute" unicode="&#xf3;" horiz-adv-x="1198" 
d="M594 1178l264 364h221l-323 -364h-162zM522 -33q-190 0 -310 123.5t-120 323.5q0 178 76 320.5t209.5 222t298.5 79.5q189 0 308.5 -123t119.5 -323q0 -178 -75.5 -321t-208.5 -222.5t-298 -79.5zM537 113q158 0 264 134.5t106 344.5q0 136 -68 217.5t-177 81.5
q-159 0 -265 -134.5t-106 -344.5q0 -136 68.5 -217.5t177.5 -81.5z" />
    <glyph glyph-name="ocircumflex" unicode="&#xf4;" horiz-adv-x="1198" 
d="M373 1178l305 364h209l178 -364h-184l-109 264l-201 -264h-198zM522 -33q-190 0 -310 123.5t-120 323.5q0 178 76 320.5t209.5 222t298.5 79.5q189 0 308.5 -123t119.5 -323q0 -178 -75.5 -321t-208.5 -222.5t-298 -79.5zM537 113q158 0 264 134.5t106 344.5
q0 136 -68 217.5t-177 81.5q-159 0 -265 -134.5t-106 -344.5q0 -136 68.5 -217.5t177.5 -81.5z" />
    <glyph glyph-name="otilde" unicode="&#xf5;" horiz-adv-x="1198" 
d="M868 1165q-40 0 -73 15.5t-53 39t-38 51t-30 51t-27 39t-31 15.5q-33 0 -59.5 -46.5t-52.5 -153.5h-119q31 185 90 270.5t154 85.5q47 0 84 -21.5t58.5 -53t38.5 -62.5t34.5 -52.5t36.5 -21.5q33 0 58.5 46.5t51.5 154.5h121q-32 -185 -91 -271t-153 -86zM522 -33
q-190 0 -310 123.5t-120 323.5q0 178 76 320.5t209.5 222t298.5 79.5q189 0 308.5 -123t119.5 -323q0 -178 -75.5 -321t-208.5 -222.5t-298 -79.5zM537 113q158 0 264 134.5t106 344.5q0 136 -68 217.5t-177 81.5q-159 0 -265 -134.5t-106 -344.5q0 -136 68.5 -217.5
t177.5 -81.5z" />
    <glyph glyph-name="odieresis" unicode="&#xf6;" horiz-adv-x="1198" 
d="M518 1192l-110 156l167 127l113 -160zM915 1192l-112 156l170 127l110 -160zM522 -33q-190 0 -310 123.5t-120 323.5q0 178 76 320.5t209.5 222t298.5 79.5q189 0 308.5 -123t119.5 -323q0 -178 -75.5 -321t-208.5 -222.5t-298 -79.5zM537 113q158 0 264 134.5t106 344.5
q0 136 -68 217.5t-177 81.5q-159 0 -265 -134.5t-106 -344.5q0 -136 68.5 -217.5t177.5 -81.5z" />
    <glyph glyph-name="divide" unicode="&#xf7;" 
d="M754 834l-131 170l184 141l133 -170zM264 537l25 141h874l-24 -141h-875zM623 74l-134 170l187 141l133 -170z" />
    <glyph glyph-name="oslash" unicode="&#xf8;" horiz-adv-x="1198" 
d="M1165 991l-137 -133q76 -112 76 -268q0 -178 -75.5 -321t-208.5 -222.5t-298 -79.5q-177 0 -293 107l-133 -129l-59 71l131 129q-76 112 -76 269q0 178 76 320.5t209.5 222t298.5 79.5q179 0 293 -108l139 135zM291 412q0 -70 18 -129l535 522q-70 86 -182 86
q-159 0 -265 -134.5t-106 -344.5zM907 592q0 72 -18 127l-533 -520q67 -86 181 -86q158 0 264 134.5t106 344.5z" />
    <glyph glyph-name="ugrave" unicode="&#xf9;" horiz-adv-x="1177" 
d="M657 1178l-196 364h209l137 -364h-150zM371 -31q-120 0 -191 77t-71 194q0 25 2.5 53t4.5 51.5t9.5 62.5t11.5 61t15.5 73.5t16.5 74t20.5 88.5t21.5 93l-18 190q69 33 122 33q48 0 78.5 -28t30.5 -79q0 -67 -58.5 -297.5t-58.5 -328.5q0 -77 38 -118.5t101 -41.5
q121 0 248.5 184t179.5 469l39 221h199l-143 -794l18 -193q-2 -1 -12.5 -5.5t-16.5 -7t-18 -7t-22 -6.5t-24 -4t-28 -2q-94 0 -94 106q0 21 19.5 136.5t29.5 162.5q-70 -196 -185 -307t-265 -111z" />
    <glyph glyph-name="uacute" unicode="&#xfa;" horiz-adv-x="1177" 
d="M569 1178l265 364h221l-324 -364h-162zM371 -31q-120 0 -191 77t-71 194q0 25 2.5 53t4.5 51.5t9.5 62.5t11.5 61t15.5 73.5t16.5 74t20.5 88.5t21.5 93l-18 190q69 33 122 33q48 0 78.5 -28t30.5 -79q0 -67 -58.5 -297.5t-58.5 -328.5q0 -77 38 -118.5t101 -41.5
q121 0 248.5 184t179.5 469l39 221h199l-143 -794l18 -193q-2 -1 -12.5 -5.5t-16.5 -7t-18 -7t-22 -6.5t-24 -4t-28 -2q-94 0 -94 106q0 21 19.5 136.5t29.5 162.5q-70 -196 -185 -307t-265 -111z" />
    <glyph glyph-name="ucircumflex" unicode="&#xfb;" horiz-adv-x="1177" 
d="M346 1178l305 364h209l178 -364h-184l-109 264l-200 -264h-199zM371 -31q-120 0 -191 77t-71 194q0 25 2.5 53t4.5 51.5t9.5 62.5t11.5 61t15.5 73.5t16.5 74t20.5 88.5t21.5 93l-18 190q69 33 122 33q48 0 78.5 -28t30.5 -79q0 -67 -58.5 -297.5t-58.5 -328.5
q0 -77 38 -118.5t101 -41.5q121 0 248.5 184t179.5 469l39 221h199l-143 -794l18 -193q-2 -1 -12.5 -5.5t-16.5 -7t-18 -7t-22 -6.5t-24 -4t-28 -2q-94 0 -94 106q0 21 19.5 136.5t29.5 162.5q-70 -196 -185 -307t-265 -111z" />
    <glyph glyph-name="udieresis" unicode="&#xfc;" horiz-adv-x="1177" 
d="M494 1192l-111 156l168 127l113 -160zM891 1192l-113 156l170 127l111 -160zM371 -31q-120 0 -191 77t-71 194q0 25 2.5 53t4.5 51.5t9.5 62.5t11.5 61t15.5 73.5t16.5 74t20.5 88.5t21.5 93l-18 190q69 33 122 33q48 0 78.5 -28t30.5 -79q0 -67 -58.5 -297.5
t-58.5 -328.5q0 -77 38 -118.5t101 -41.5q121 0 248.5 184t179.5 469l39 221h199l-143 -794l18 -193q-2 -1 -12.5 -5.5t-16.5 -7t-18 -7t-22 -6.5t-24 -4t-28 -2q-94 0 -94 106q0 21 19.5 136.5t29.5 162.5q-70 -196 -185 -307t-265 -111z" />
    <glyph glyph-name="yacute" unicode="&#xfd;" horiz-adv-x="1169" 
d="M571 1178l265 364h221l-324 -364h-162zM348 -438q-173 0 -315 69l2 197l162 -104q62 -23 141 -23q186 0 292 100.5t138 282.5l53 303q-69 -197 -183.5 -307.5t-264.5 -110.5q-120 0 -191 77t-71 194q0 63 14.5 154t30.5 162t57 241l-18 190q63 33 120 33q48 0 78.5 -28
t30.5 -79q0 -67 -57.5 -297.5t-57.5 -328.5q0 -77 38 -118.5t102 -41.5q77 0 161 79t157 231.5t107 342.5l41 224h199l-166 -910q-21 -123 -66 -218.5t-117 -166.5t-177.5 -109t-239.5 -38z" />
    <glyph glyph-name="thorn" unicode="&#xfe;" horiz-adv-x="1185" 
d="M-33 -410l64 195l243 1384l-14 193l258 74l-158 -795q68 180 189 285.5t260 105.5q129 0 211 -101t82 -265q0 -152 -46.5 -283t-126 -221t-185 -141.5t-222.5 -51.5q-125 0 -256 51l-41 -235l13 -195h-271zM481 106q182 0 304 149t122 382q0 109 -49.5 175.5t-126.5 66.5
q-137 0 -256 -170.5t-172 -454.5l-20 -119q99 -29 198 -29z" />
    <glyph glyph-name="ydieresis" unicode="&#xff;" horiz-adv-x="1169" 
d="M496 1192l-111 156l168 127l113 -160zM893 1192l-113 156l170 127l111 -160zM348 -438q-173 0 -315 69l2 197l162 -104q62 -23 141 -23q186 0 292 100.5t138 282.5l53 303q-69 -197 -183.5 -307.5t-264.5 -110.5q-120 0 -191 77t-71 194q0 63 14.5 154t30.5 162t57 241
l-18 190q63 33 120 33q48 0 78.5 -28t30.5 -79q0 -67 -57.5 -297.5t-57.5 -328.5q0 -77 38 -118.5t102 -41.5q77 0 161 79t157 231.5t107 342.5l41 224h199l-166 -910q-21 -123 -66 -218.5t-117 -166.5t-177.5 -109t-239.5 -38z" />
    <glyph glyph-name="Amacron" unicode="&#x100;" horiz-adv-x="1337" 
d="M1180 1724l-27 -149h-625l29 149h623zM1223 0h-250l4 176l-31 137h-633l-77 -137l-62 -176h-237l735 1262l-27 98h266zM397 461h518l-143 655z" />
    <glyph glyph-name="amacron" unicode="&#x101;" horiz-adv-x="1183" 
d="M451 1262l24 143h588l-27 -143h-585zM395 -29q-138 0 -225.5 104t-87.5 273q0 146 47.5 273.5t130.5 218t200 142.5t251 52q137 0 290 -47l121 53l-149 -833l20 -193q-61 -32 -119 -32q-43 0 -69.5 25.5t-26.5 80.5q0 14 9 68t20 118.5t14 85.5q-146 -389 -426 -389z
M453 123q88 0 176.5 88t154.5 231.5t95 307.5l22 120q-94 25 -190 25q-189 0 -312 -147.5t-123 -380.5q0 -111 49.5 -177.5t127.5 -66.5z" />
    <glyph glyph-name="Abreve" unicode="&#x102;" horiz-adv-x="1337" 
d="M831 1481q-130 0 -201 66.5t-71 178.5q0 30 6 64h131q-2 -14 -2 -37q0 -115 156 -115q172 0 215 152h131q-62 -309 -365 -309zM1223 0h-250l4 176l-31 137h-633l-77 -137l-62 -176h-237l735 1262l-27 98h266zM397 461h518l-143 655z" />
    <glyph glyph-name="abreve" unicode="&#x103;" horiz-adv-x="1183" 
d="M727 1165q-126 0 -194 71t-68 194q0 51 10 96h125q-2 -16 -2 -45q3 -158 150 -158q80 0 137.5 51t83.5 152h129q-25 -178 -126 -269.5t-245 -91.5zM395 -29q-138 0 -225.5 104t-87.5 273q0 146 47.5 273.5t130.5 218t200 142.5t251 52q137 0 290 -47l121 53l-149 -833
l20 -193q-61 -32 -119 -32q-43 0 -69.5 25.5t-26.5 80.5q0 14 9 68t20 118.5t14 85.5q-146 -389 -426 -389zM453 123q88 0 176.5 88t154.5 231.5t95 307.5l22 120q-94 25 -190 25q-189 0 -312 -147.5t-123 -380.5q0 -111 49.5 -177.5t127.5 -66.5z" />
    <glyph glyph-name="Aogonek" unicode="&#x104;" horiz-adv-x="1337" 
d="M870 -236q0 -36 24 -54.5t64 -18.5q52 0 115 26v-123q-83 -36 -182 -36q-85 0 -138 40.5t-53 112.5q0 185 310 305l-64 297h-633l-77 -137l-62 -176h-237l737 1268l-29 92h266l312 -1360q-62 -21 -104.5 -37t-93.5 -40t-82 -46t-52 -52t-21 -61zM397 461h516l-141 655z
" />
    <glyph glyph-name="aogonek" unicode="&#x105;" horiz-adv-x="1183" 
d="M723 -442q-85 0 -138 40.5t-53 112.5q0 172 279 293q-33 23 -33 84q0 14 9 68t20 118.5t14 85.5q-146 -389 -426 -389q-138 0 -225.5 104t-87.5 273q0 146 47.5 273.5t130.5 218t200 142.5t251 52q137 0 290 -47l121 53l-149 -833l20 -193q-142 -65 -216.5 -121.5
t-74.5 -128.5q0 -35 24.5 -54t64.5 -19q49 0 116 26v-123q-86 -36 -184 -36zM453 123q88 0 176.5 88t154.5 231.5t95 307.5l22 120q-94 25 -190 25q-189 0 -312 -147.5t-123 -380.5q0 -111 49.5 -177.5t127.5 -66.5z" />
    <glyph glyph-name="Cacute" unicode="&#x106;" horiz-adv-x="1280" 
d="M733 1489l344 297h248l-405 -297h-187zM682 -37q-260 0 -410.5 156t-150.5 418q0 251 99 447.5t276 304.5t401 108q184 0 377 -78v-223l-182 116q-102 29 -197 29q-164 0 -294 -91t-202.5 -253t-72.5 -365q0 -196 97.5 -302.5t278.5 -106.5q116 0 211 29l228 120
l-70 -235q-193 -74 -389 -74z" />
    <glyph glyph-name="cacute" unicode="&#x107;" horiz-adv-x="1021" 
d="M524 1178l264 364h222l-324 -364h-162zM514 -33q-188 0 -304 125.5t-116 319.5q0 273 161.5 448.5t412.5 175.5q179 0 313 -67l-2 -195l-162 103q-68 22 -141 22q-168 0 -276.5 -135t-108.5 -342q0 -142 74.5 -224.5t199.5 -82.5q162 0 320 88l-27 -150
q-149 -86 -344 -86z" />
    <glyph glyph-name="Ccircumflex" unicode="&#x108;" horiz-adv-x="1280" 
d="M530 1489l308 297h215l202 -297h-194l-121 199l-197 -199h-213zM682 -37q-260 0 -410.5 156t-150.5 418q0 251 99 447.5t276 304.5t401 108q184 0 377 -78v-223l-182 116q-102 29 -197 29q-164 0 -294 -91t-202.5 -253t-72.5 -365q0 -196 97.5 -302.5t278.5 -106.5
q116 0 211 29l228 120l-70 -235q-193 -74 -389 -74z" />
    <glyph glyph-name="ccircumflex" unicode="&#x109;" horiz-adv-x="1021" 
d="M303 1178l305 364h209l178 -364h-184l-109 264l-200 -264h-199zM514 -33q-188 0 -304 125.5t-116 319.5q0 273 161.5 448.5t412.5 175.5q179 0 313 -67l-2 -195l-162 103q-68 22 -141 22q-168 0 -276.5 -135t-108.5 -342q0 -142 74.5 -224.5t199.5 -82.5q162 0 320 88
l-27 -150q-149 -86 -344 -86z" />
    <glyph glyph-name="Cdotaccent" unicode="&#x10a;" horiz-adv-x="1280" 
d="M893 1485l-148 151l195 125l147 -153zM682 -37q-260 0 -410.5 156t-150.5 418q0 251 99 447.5t276 304.5t401 108q184 0 377 -78v-223l-182 116q-102 29 -197 29q-164 0 -294 -91t-202.5 -253t-72.5 -365q0 -196 97.5 -302.5t278.5 -106.5q116 0 211 29l228 120l-70 -235
q-193 -74 -389 -74z" />
    <glyph glyph-name="cdotaccent" unicode="&#x10b;" horiz-adv-x="1021" 
d="M653 1188l-143 168l190 137l144 -170zM514 -33q-188 0 -304 125.5t-116 319.5q0 273 161.5 448.5t412.5 175.5q179 0 313 -67l-2 -195l-162 103q-68 22 -141 22q-168 0 -276.5 -135t-108.5 -342q0 -142 74.5 -224.5t199.5 -82.5q162 0 320 88l-27 -150q-149 -86 -344 -86
z" />
    <glyph glyph-name="Ccaron" unicode="&#x10c;" horiz-adv-x="1280" 
d="M784 1489l-200 297h192l123 -199l195 199h213l-306 -297h-217zM682 -37q-260 0 -410.5 156t-150.5 418q0 251 99 447.5t276 304.5t401 108q184 0 377 -78v-223l-182 116q-102 29 -197 29q-164 0 -294 -91t-202.5 -253t-72.5 -365q0 -196 97.5 -302.5t278.5 -106.5
q116 0 211 29l228 120l-70 -235q-193 -74 -389 -74z" />
    <glyph glyph-name="ccaron" unicode="&#x10d;" horiz-adv-x="1021" 
d="M545 1178l-178 364h184l108 -264l201 264h199l-305 -364h-209zM514 -33q-188 0 -304 125.5t-116 319.5q0 273 161.5 448.5t412.5 175.5q179 0 313 -67l-2 -195l-162 103q-68 22 -141 22q-168 0 -276.5 -135t-108.5 -342q0 -142 74.5 -224.5t199.5 -82.5q162 0 320 88
l-27 -150q-149 -86 -344 -86z" />
    <glyph glyph-name="Dcaron" unicode="&#x10e;" horiz-adv-x="1427" 
d="M688 1489l-201 297h193l123 -199l194 199h213l-305 -297h-217zM45 0l64 190l174 979l4 191h510q571 0 571 -535q0 -384 -206 -604.5t-580 -220.5h-537zM305 152h311q168 0 292.5 85t190.5 238t66 354q0 198 -91 288.5t-288 90.5h-294z" />
    <glyph glyph-name="dcaron" unicode="&#x10f;" horiz-adv-x="1366" 
d="M1272 1178l112 329h177l-158 -329h-131zM395 -29q-137 0 -225 102.5t-88 264.5q0 151 47 282t126.5 220.5t185 140.5t221.5 51q135 0 256 -51l32 188l-14 191l258 76l-219 -1229l18 -193q-53 -32 -119 -32q-43 0 -69.5 25.5t-26.5 80.5q0 14 9 69t21.5 122.5t14.5 80.5
q-146 -389 -428 -389zM453 123q88 0 177 87.5t155.5 231.5t95.5 308l20 116q-99 29 -199 29q-181 0 -302 -148t-121 -380q0 -111 48.5 -177.5t125.5 -66.5z" />
    <glyph glyph-name="Dcroat" unicode="&#x110;" horiz-adv-x="1427" 
d="M797 1360q571 0 571 -535q0 -384 -206 -604.5t-580 -220.5h-537l64 190l79 449h-120l18 111h123l74 419l4 191h510zM616 152q168 0 292.5 85t190.5 238t66 354q0 198 -91 288.5t-288 90.5h-294l-82 -458h319l-18 -111h-320l-86 -487h311z" />
    <glyph glyph-name="dcroat" unicode="&#x111;" horiz-adv-x="1204" 
d="M1272 1128h-133l-164 -921l20 -191q-61 -34 -121 -34q-94 0 -94 104q0 47 45 276q-67 -181 -188.5 -287t-259.5 -106q-130 0 -212.5 101.5t-82.5 267.5q0 151 46 279.5t125 215t184 135t222 48.5q126 0 254 -51l29 163h-246l17 97h233l-8 135l256 76l-37 -211h133z
M877 731l22 119q-99 29 -201 29q-179 0 -299 -146.5t-120 -367.5q0 -109 48.5 -175.5t125.5 -66.5q138 0 255.5 163t168.5 445z" />
    <glyph glyph-name="Emacron" unicode="&#x112;" horiz-adv-x="1214" 
d="M1130 1724l-26 -149h-625l29 149h622zM1073 1208h-581l-78 -438h428l153 23l-34 -193l-146 23h-428l-84 -471h590l192 45l-75 -197h-965l64 190l174 979l4 191h958v-197z" />
    <glyph glyph-name="emacron" unicode="&#x113;" horiz-adv-x="1112" 
d="M1026 1405l-27 -143h-585l24 143h588zM541 393q-125 0 -260 33v-10q0 -151 76 -229t227 -78q161 0 327 84l-26 -142q-165 -84 -361 -84q-192 0 -312 121.5t-120 317.5q0 278 162 453t420 175q169 0 272 -83t103 -224q0 -156 -128 -245t-380 -89zM659 899q-139 0 -239 -97
t-129 -263q131 -27 215 -27q176 0 267 57t91 158q0 82 -56.5 127t-148.5 45z" />
    <glyph glyph-name="Ebreve" unicode="&#x114;" horiz-adv-x="1214" 
d="M782 1481q-130 0 -201 66.5t-71 178.5q0 30 6 64h131q-2 -14 -2 -37q0 -115 156 -115q172 0 215 152h131q-62 -309 -365 -309zM1073 1208h-581l-78 -438h428l153 23l-34 -193l-146 23h-428l-84 -471h590l192 45l-75 -197h-965l64 190l174 979l4 191h958v-197z" />
    <glyph glyph-name="ebreve" unicode="&#x115;" horiz-adv-x="1112" 
d="M688 1165q-126 0 -194 71t-68 194q0 51 10 96h125q-2 -16 -2 -45q3 -158 150 -158q80 0 137.5 51t83.5 152h129q-25 -178 -126 -269.5t-245 -91.5zM674 1034q169 0 272 -83t103 -224q0 -156 -128 -245t-380 -89q-125 0 -260 33v-10q0 -151 76 -229t227 -78q161 0 327 84
l-26 -142q-165 -84 -361 -84q-192 0 -312 121.5t-120 317.5q0 278 162 453t420 175zM506 512q176 0 267 57t91 158q0 82 -56.5 127t-148.5 45q-139 0 -239 -97t-129 -263q131 -27 215 -27z" />
    <glyph glyph-name="Edotaccent" unicode="&#x116;" horiz-adv-x="1214" 
d="M975 1608l-195 -123l-147 151l194 125zM1073 1208h-581l-78 -438h428l153 23l-34 -193l-146 23h-428l-84 -471h590l192 45l-75 -197h-965l64 190l174 979l4 191h958v-197z" />
    <glyph glyph-name="edotaccent" unicode="&#x117;" horiz-adv-x="1112" 
d="M891 1323l-191 -135l-143 168l191 137zM541 393q-125 0 -260 33v-10q0 -151 76 -229t227 -78q161 0 327 84l-26 -142q-165 -84 -361 -84q-192 0 -312 121.5t-120 317.5q0 278 162 453t420 175q169 0 272 -83t103 -224q0 -156 -128 -245t-380 -89zM659 899
q-139 0 -239 -97t-129 -263q131 -27 215 -27q176 0 267 57t91 158q0 82 -56.5 127t-148.5 45z" />
    <glyph glyph-name="Eogonek" unicode="&#x118;" horiz-adv-x="1214" 
d="M721 -440q-87 0 -140 39.5t-53 111.5q0 170 265 289h-748l64 190l174 979l4 191h958v-197l-172 45h-581l-80 -438h430l153 23l-34 -193l-146 23h-428l-84 -471h643l139 45l-75 -197q-115 -23 -212.5 -92.5t-97.5 -143.5q0 -36 23.5 -54.5t64.5 -18.5q40 0 115 26v-120
q-81 -37 -182 -37z" />
    <glyph glyph-name="eogonek" unicode="&#x119;" horiz-adv-x="1112" 
d="M541 393q-125 0 -260 33v-10q0 -151 76 -229t227 -78q161 0 327 84l-26 -142q-65 -27 -111 -48t-100.5 -51t-88 -57t-56.5 -61.5t-23 -69.5q0 -36 23.5 -54.5t64.5 -18.5q50 0 113 26v-123q-83 -36 -181 -36q-87 0 -139.5 40.5t-52.5 112.5q0 147 203 258q-7 -1 -45 0
q-173 8 -286.5 127.5t-113.5 309.5q0 278 162 453t420 175q169 0 272 -83t103 -224q0 -156 -128 -245t-380 -89zM659 899q-139 0 -239 -97t-129 -263q131 -27 215 -27q176 0 267 57t91 158q0 82 -56.5 127t-148.5 45z" />
    <glyph glyph-name="Ecaron" unicode="&#x11a;" horiz-adv-x="1214" 
d="M887 1489h-217l-201 297h193l122 -199l195 199h213zM1073 1208h-581l-78 -438h428l153 23l-34 -193l-146 23h-428l-84 -471h590l192 45l-75 -197h-965l64 190l174 979l4 191h958v-197z" />
    <glyph glyph-name="ecaron" unicode="&#x11b;" horiz-adv-x="1112" 
d="M801 1178h-209l-178 364h184l109 -264l200 264h199zM674 1034q169 0 272 -83t103 -224q0 -156 -128 -245t-380 -89q-125 0 -260 33v-10q0 -151 76 -229t227 -78q161 0 327 84l-26 -142q-165 -84 -361 -84q-192 0 -312 121.5t-120 317.5q0 278 162 453t420 175zM506 512
q176 0 267 57t91 158q0 82 -56.5 127t-148.5 45q-139 0 -239 -97t-129 -263q131 -27 215 -27z" />
    <glyph glyph-name="Gcircumflex" unicode="&#x11c;" horiz-adv-x="1394" 
d="M557 1489l307 297h215l203 -297h-195l-120 199l-197 -199h-213zM705 -37q-272 0 -428 153.5t-156 420.5q0 251 103.5 447t289.5 304.5t424 108.5q218 0 416 -76v-225l-183 116q-113 29 -229 29q-274 0 -446 -196.5t-172 -512.5q0 -200 102.5 -307.5t292.5 -107.5
q161 0 323 61l52 291l-43 180h249l-104 -583q-147 -59 -256 -81t-235 -22z" />
    <glyph glyph-name="gcircumflex" unicode="&#x11d;" horiz-adv-x="1171" 
d="M397 1178l305 364h209l179 -364h-185l-108 264l-201 -264h-199zM354 -438q-173 0 -315 69v197l162 -104q62 -23 143 -23q359 0 430 383l51 276q-146 -389 -430 -389q-138 0 -225.5 104t-87.5 273q0 146 47.5 273.5t130.5 218t200 142.5t251 52q137 0 290 -47l121 53
l-168 -946q-21 -123 -66 -218.5t-117 -166.5t-177.5 -109t-239.5 -38zM453 123q137 0 256.5 172t169.5 455l22 120q-94 25 -190 25q-189 0 -312 -147.5t-123 -380.5q0 -111 49.5 -177.5t127.5 -66.5z" />
    <glyph glyph-name="Gbreve" unicode="&#x11e;" horiz-adv-x="1394" 
d="M924 1481q-131 0 -202 67t-71 178q0 30 6 64h131q-2 -14 -2 -37q0 -115 156 -115q172 0 215 152h131q-62 -309 -364 -309zM705 -37q-272 0 -428 153.5t-156 420.5q0 251 103.5 447t289.5 304.5t424 108.5q218 0 416 -76v-225l-183 116q-113 29 -229 29
q-274 0 -446 -196.5t-172 -512.5q0 -200 102.5 -307.5t292.5 -107.5q161 0 323 61l52 291l-43 180h249l-104 -583q-147 -59 -256 -81t-235 -22z" />
    <glyph glyph-name="gbreve" unicode="&#x11f;" horiz-adv-x="1171" 
d="M735 1165q-126 0 -194 71t-68 194q0 51 10 96h125q-2 -16 -2 -45q3 -158 150 -158q80 0 137.5 51t83.5 152h129q-25 -178 -126 -269.5t-245 -91.5zM354 -438q-173 0 -315 69v197l162 -104q62 -23 143 -23q359 0 430 383l51 276q-146 -389 -430 -389q-138 0 -225.5 104
t-87.5 273q0 146 47.5 273.5t130.5 218t200 142.5t251 52q137 0 290 -47l121 53l-168 -946q-21 -123 -66 -218.5t-117 -166.5t-177.5 -109t-239.5 -38zM453 123q137 0 256.5 172t169.5 455l22 120q-94 25 -190 25q-189 0 -312 -147.5t-123 -380.5q0 -111 49.5 -177.5
t127.5 -66.5z" />
    <glyph glyph-name="Gdotaccent" unicode="&#x120;" horiz-adv-x="1394" 
d="M922 1485l-148 151l195 125l147 -153zM705 -37q-272 0 -428 153.5t-156 420.5q0 251 103.5 447t289.5 304.5t424 108.5q218 0 416 -76v-225l-183 116q-113 29 -229 29q-274 0 -446 -196.5t-172 -512.5q0 -200 102.5 -307.5t292.5 -107.5q161 0 323 61l52 291l-43 180h249
l-104 -583q-147 -59 -256 -81t-235 -22z" />
    <glyph glyph-name="gdotaccent" unicode="&#x121;" horiz-adv-x="1171" 
d="M748 1188l-144 168l191 137l143 -170zM354 -438q-173 0 -315 69v197l162 -104q62 -23 143 -23q359 0 430 383l51 276q-146 -389 -430 -389q-138 0 -225.5 104t-87.5 273q0 146 47.5 273.5t130.5 218t200 142.5t251 52q137 0 290 -47l121 53l-168 -946
q-21 -123 -66 -218.5t-117 -166.5t-177.5 -109t-239.5 -38zM453 123q137 0 256.5 172t169.5 455l22 120q-94 25 -190 25q-189 0 -312 -147.5t-123 -380.5q0 -111 49.5 -177.5t127.5 -66.5z" />
    <glyph glyph-name="uni0122" unicode="&#x122;" horiz-adv-x="1394" 
d="M705 -37q-272 0 -428 153.5t-156 420.5q0 251 103.5 447t289.5 304.5t424 108.5q218 0 416 -76v-225l-183 116q-113 29 -229 29q-274 0 -446 -196.5t-172 -512.5q0 -200 102.5 -307.5t292.5 -107.5q161 0 323 61l52 291l-43 180h249l-104 -583q-147 -59 -256 -81
t-235 -22zM481 -479l80 141l-106 121l186 133l127 -152l-186 -243h-101z" />
    <glyph glyph-name="uni0123" unicode="&#x123;" horiz-adv-x="1171" 
d="M692 1178l80 141l-106 121l186 133l127 -152l-186 -243h-101zM354 -438q-173 0 -315 69v197l162 -104q62 -23 143 -23q359 0 430 383l51 276q-146 -389 -430 -389q-138 0 -225.5 104t-87.5 273q0 146 47.5 273.5t130.5 218t200 142.5t251 52q137 0 290 -47l121 53
l-168 -946q-21 -123 -66 -218.5t-117 -166.5t-177.5 -109t-239.5 -38zM453 123q137 0 256.5 172t169.5 455l22 120q-94 25 -190 25q-189 0 -312 -147.5t-123 -380.5q0 -111 49.5 -177.5t127.5 -66.5z" />
    <glyph glyph-name="Hcircumflex" unicode="&#x124;" horiz-adv-x="1431" 
d="M934 1688l-197 -199h-213l307 297h216l202 -297h-194zM1186 1360h262l-64 -191l-174 -979l-4 -190h-262l64 190l75 426h-696l-76 -426l-4 -190h-262l64 190l174 979l4 191h262l-64 -191l-69 -397h696l70 397z" />
    <glyph glyph-name="hcircumflex" unicode="&#x125;" horiz-adv-x="1179" 
d="M59 1450l308 297h215l202 -297h-194l-121 199l-197 -199h-213zM885 -18q-48 0 -78.5 28.5t-30.5 79.5q0 18 7 63t8 50l75 422q11 60 11 92q0 77 -34.5 117t-97.5 40q-55 0 -120.5 -47t-127.5 -129.5t-115 -208t-79 -268.5l-41 -221h-199l211 1169l-14 191l258 76
l-164 -824q79 194 198.5 307t264.5 113q119 0 188.5 -77.5t69.5 -200.5q0 -60 -8 -101l-80 -446l19 -193q-61 -32 -121 -32z" />
    <glyph glyph-name="Hbar" unicode="&#x126;" horiz-adv-x="1431" 
d="M1489 1092l-19 -99h-116l-144 -803l-4 -190h-262l64 190l75 426h-696l-76 -426l-4 -190h-262l64 190l143 803h-123l16 99h123l15 77l4 191h262l-64 -191l-14 -77h696l15 77l4 191h262l-64 -191l-14 -77h119zM1112 772l39 221h-696l-39 -221h696z" />
    <glyph glyph-name="hbar" unicode="&#x127;" horiz-adv-x="1179" 
d="M1075 754q0 -60 -8 -101l-80 -446l19 -193q-61 -32 -121 -32q-48 0 -78.5 28.5t-30.5 79.5q0 18 7 63t8 50l75 422q11 60 11 92q0 77 -34.5 117t-97.5 40q-55 0 -120.5 -47t-127.5 -129.5t-115 -208t-79 -268.5l-41 -221h-199l203 1128h-127l17 97h114l-10 135l258 76
l-41 -211h260l-16 -97h-264l-103 -516q79 194 198.5 307t264.5 113q119 0 188.5 -77.5t69.5 -200.5z" />
    <glyph glyph-name="Itilde" unicode="&#x128;" horiz-adv-x="532" 
d="M586 1483q-43 0 -79 16.5t-59 39.5t-42 46.5t-39.5 40t-40.5 16.5q-63 0 -103 -149h-123q59 301 246 301q43 0 78.5 -16.5t58.5 -40t42 -47t39 -40t40 -16.5q60 0 103 150h122q-59 -301 -243 -301zM45 0l64 190l174 979l4 191h262l-64 -191l-174 -979l-4 -190h-262z" />
    <glyph glyph-name="itilde" unicode="&#x129;" horiz-adv-x="509" 
d="M508 1165q-40 0 -73 15.5t-53 39t-38 51t-30 51t-27 39t-31 15.5q-33 0 -60 -47t-53 -153h-118q31 185 90 270.5t153 85.5q47 0 84 -21.5t58.5 -53t38.5 -62.5t34.5 -52.5t36.5 -21.5q33 0 59 47t52 154h121q-32 -185 -91 -271t-153 -86zM199 -18q-47 0 -78 28t-31 80
q0 36 14 113l101 569l-15 193l259 75l-148 -833l18 -191q-56 -34 -120 -34z" />
    <glyph glyph-name="Imacron" unicode="&#x12a;" horiz-adv-x="532" 
d="M141 1575l29 149h623l-27 -149h-625zM45 0l64 190l174 979l4 191h262l-64 -191l-174 -979l-4 -190h-262z" />
    <glyph glyph-name="imacron" unicode="&#x12b;" horiz-adv-x="509" 
d="M76 1262l24 143h588l-26 -143h-586zM199 -18q-47 0 -78 28t-31 80q0 36 14 113l101 569l-15 193l259 75l-148 -833l18 -191q-56 -34 -120 -34z" />
    <glyph glyph-name="Ibreve" unicode="&#x12c;" horiz-adv-x="532" 
d="M444 1481q-130 0 -201 66.5t-71 178.5q0 30 6 64h131q-2 -14 -2 -37q0 -115 156 -115q172 0 215 152h131q-62 -309 -365 -309zM45 0l64 190l174 979l4 191h262l-64 -191l-174 -979l-4 -190h-262z" />
    <glyph glyph-name="ibreve" unicode="&#x12d;" horiz-adv-x="509" 
d="M350 1165q-126 0 -194 71t-68 194q0 51 10 96h125q-2 -16 -2 -45q3 -158 150 -158q80 0 137.5 51t83.5 152h129q-25 -178 -126 -269.5t-245 -91.5zM199 -18q-47 0 -78 28t-31 80q0 36 14 113l101 569l-15 193l259 75l-148 -833l18 -191q-56 -34 -120 -34z" />
    <glyph glyph-name="Iogonek" unicode="&#x12e;" horiz-adv-x="532" 
d="M66 -442q-87 0 -140 40.5t-53 112.5q0 79 66.5 155t212.5 140q-14 8 -23 14.5t-20 25.5t-11 44q0 31 15 113l170 966l4 191h262l-64 -191l-172 -962l21 -191q-289 -132 -289 -252q0 -36 23.5 -54.5t64.5 -18.5q52 0 115 26v-123q-86 -36 -182 -36z" />
    <glyph glyph-name="iogonek" unicode="&#x12f;" horiz-adv-x="509" 
d="M553 1323l-191 -135l-143 168l191 137zM190 965l259 75l-148 -833l18 -191q-20 -13 -51 -24q-239 -112 -239 -228q0 -36 24 -54.5t64 -18.5q51 0 114 26v-123q-86 -36 -182 -36q-85 0 -137.5 40.5t-52.5 112.5q0 174 274 289q-43 29 -43 90q0 36 14 113l101 569z" />
    <glyph glyph-name="Idotaccent" unicode="&#x130;" horiz-adv-x="532" 
d="M440 1485l-147 151l194 125l148 -153zM45 0l64 190l174 979l4 191h262l-64 -191l-174 -979l-4 -190h-262z" />
    <glyph glyph-name="dotlessi" unicode="&#x131;" horiz-adv-x="509" 
d="M199 -18q-47 0 -78 28t-31 80q0 36 14 113l101 569l-15 193l259 75l-148 -833l18 -191q-56 -34 -120 -34z" />
    <glyph glyph-name="Jcircumflex" unicode="&#x134;" horiz-adv-x="931" 
d="M492 1489l307 297h215l203 -297h-195l-121 199l-196 -199h-213zM289 -23q-153 0 -301 103l37 237l176 -163q41 -17 96 -17q103 0 170 67.5t90 194.5l137 770l4 191h263l-66 -191l-137 -774q-37 -206 -155.5 -312t-313.5 -106z" />
    <glyph glyph-name="jcircumflex" unicode="&#x135;" horiz-adv-x="497" 
d="M129 1178l180 364h248l57 -364h-157l-35 276l-133 -276h-160zM-88 -432q-74 0 -176 22v185l121 -66q3 0 16.5 -1t22.5 -1q122 0 147 148l162 919l-15 191l256 75l-208 -1183q-25 -138 -108 -213.5t-218 -75.5z" />
    <glyph glyph-name="uni0136" unicode="&#x136;" horiz-adv-x="1300" 
d="M45 0l64 190l174 979l4 191h264l-66 -191l-174 -979l-4 -190h-262zM897 0l-49 154l-412 555l547 501l107 150h296l-727 -649l525 -711h-287zM383 -479l80 141l-107 121l187 133l127 -152l-187 -243h-100z" />
    <glyph glyph-name="uni0137" unicode="&#x137;" horiz-adv-x="1048" 
d="M68 0l208 1169l-16 191l258 76l-256 -1436h-194zM852 -20q-79 0 -133 92l-322 493l342 301l88 138h279l-514 -439l375 -555q-48 -30 -115 -30zM338 -479l80 141l-107 121l187 133l127 -152l-187 -243h-100z" />
    <glyph glyph-name="Lacute" unicode="&#x139;" horiz-adv-x="1085" 
d="M872 1786l-405 -297h-186l344 297h247zM807 156l192 45l-75 -201h-879l64 190l174 979l4 191h262l-64 -191l-180 -1013h502z" />
    <glyph glyph-name="lacute" unicode="&#x13a;" horiz-adv-x="507" 
d="M334 1542l176 297h213l-240 -297h-149zM197 -18q-47 0 -77 28t-30 80q0 14 12 113l172 964l-14 193l258 76l-219 -1229l20 -191q-61 -34 -122 -34z" />
    <glyph glyph-name="uni013B" unicode="&#x13b;" horiz-adv-x="1085" 
d="M807 156l192 45l-75 -201h-879l64 190l174 979l4 191h262l-64 -191l-180 -1013h502zM301 -217l186 133l127 -152l-186 -243h-100l80 141z" />
    <glyph glyph-name="uni013C" unicode="&#x13c;" horiz-adv-x="507" 
d="M197 -18q-47 0 -77 28t-30 80q0 14 12 113l172 964l-14 193l258 76l-219 -1229l20 -191q-61 -34 -122 -34zM14 -479l80 141l-106 121l186 133l127 -152l-186 -243h-101z" />
    <glyph glyph-name="Lcaron" unicode="&#x13d;" horiz-adv-x="1085" 
d="M551 1489h-217l-201 297h193l123 -199l194 199h213zM807 156l192 45l-75 -201h-879l64 190l174 979l4 191h262l-64 -191l-180 -1013h502z" />
    <glyph glyph-name="lcaron" unicode="&#x13e;" horiz-adv-x="684" 
d="M590 1178l112 329h175l-158 -329h-129zM197 -18q-47 0 -77 28t-30 80q0 14 12 113l172 964l-14 193l258 76l-219 -1229l20 -191q-61 -34 -122 -34z" />
    <glyph glyph-name="Ldot" unicode="&#x13f;" horiz-adv-x="1171" 
d="M305 156h502l192 45l-75 -201h-879l64 190l174 979l4 191h262l-64 -191zM1071 700l-213 -161l-153 196l215 160z" />
    <glyph glyph-name="ldot" unicode="&#x140;" horiz-adv-x="833" 
d="M197 -18q-47 0 -77 28t-30 80q0 14 12 113l172 964l-14 193l258 76l-219 -1229l20 -191q-61 -34 -122 -34zM672 506l-154 194l215 162l152 -194z" />
    <glyph glyph-name="Lslash" unicode="&#x141;" horiz-adv-x="1099" 
d="M817 156l193 45l-76 -201h-879l66 190l63 359l-143 -92l27 149l143 92l84 471l2 191h264l-65 -191l-58 -325l258 166l-26 -150l-258 -166l-97 -538h502z" />
    <glyph glyph-name="lslash" unicode="&#x142;" horiz-adv-x="626" 
d="M653 834l-207 -134l-88 -493l21 -191q-56 -34 -123 -34q-46 0 -76 28t-30 80q0 36 14 113l63 356l-202 -131l26 150l201 129l82 460l-12 193l256 76l-105 -586l207 133z" />
    <glyph glyph-name="Nacute" unicode="&#x143;" horiz-adv-x="1466" 
d="M745 1489l345 297h247l-405 -297h-187zM45 0l64 190l174 979l4 191h307l479 -1176l176 985l2 191h234l-64 -191l-209 -1169h-276l-479 1176l-176 -986l-2 -190h-234z" />
    <glyph glyph-name="nacute" unicode="&#x144;" horiz-adv-x="1179" 
d="M565 1178l264 364h222l-324 -364h-162zM885 -18q-48 0 -78.5 28.5t-30.5 79.5q0 31 15 113l75 422q11 60 11 92q0 77 -34.5 117t-97.5 40q-55 0 -120.5 -47t-127.5 -129.5t-115 -208t-79 -268.5l-41 -221h-196l139 774l-15 191l252 73l-88 -426q75 196 195.5 308
t267.5 112q119 0 188.5 -77.5t69.5 -200.5q0 -60 -8 -101l-80 -446l19 -193q-61 -32 -121 -32z" />
    <glyph glyph-name="uni0145" unicode="&#x145;" horiz-adv-x="1466" 
d="M45 0l64 190l174 979l4 191h307l479 -1176l176 985l2 191h234l-64 -191l-209 -1169h-276l-479 1176l-176 -986l-2 -190h-234zM483 -479l80 141l-106 121l186 133l127 -152l-186 -243h-101z" />
    <glyph glyph-name="uni0146" unicode="&#x146;" horiz-adv-x="1179" 
d="M885 -18q-48 0 -78.5 28.5t-30.5 79.5q0 31 15 113l75 422q11 60 11 92q0 77 -34.5 117t-97.5 40q-55 0 -120.5 -47t-127.5 -129.5t-115 -208t-79 -268.5l-41 -221h-196l139 774l-15 191l252 73l-88 -426q75 196 195.5 308t267.5 112q119 0 188.5 -77.5t69.5 -200.5
q0 -60 -8 -101l-80 -446l19 -193q-61 -32 -121 -32zM369 -479l80 141l-107 121l186 133l127 -152l-186 -243h-100z" />
    <glyph glyph-name="Ncaron" unicode="&#x147;" horiz-adv-x="1466" 
d="M799 1489l-201 297h193l122 -199l195 199h213l-305 -297h-217zM45 0l64 190l174 979l4 191h307l479 -1176l176 985l2 191h234l-64 -191l-209 -1169h-276l-479 1176l-176 -986l-2 -190h-234z" />
    <glyph glyph-name="ncaron" unicode="&#x148;" horiz-adv-x="1179" 
d="M584 1178l-178 364h184l108 -264l201 264h199l-305 -364h-209zM885 -18q-48 0 -78.5 28.5t-30.5 79.5q0 31 15 113l75 422q11 60 11 92q0 77 -34.5 117t-97.5 40q-55 0 -120.5 -47t-127.5 -129.5t-115 -208t-79 -268.5l-41 -221h-196l139 774l-15 191l252 73l-88 -426
q75 196 195.5 308t267.5 112q119 0 188.5 -77.5t69.5 -200.5q0 -60 -8 -101l-80 -446l19 -193q-61 -32 -121 -32z" />
    <glyph glyph-name="Eng" unicode="&#x14a;" horiz-adv-x="1466" 
d="M784 -442q-148 0 -299 102l37 229l176 -163q39 -19 95 -19q91 0 155 66.5t86 185.5l8 41h-49l-544 1137l-168 -947l-2 -190h-234l64 190l174 979l4 191h258l540 -1100l164 909l2 191h234l-64 -191l-213 -1194q-35 -202 -148 -309.5t-276 -107.5z" />
    <glyph glyph-name="eng" unicode="&#x14b;" horiz-adv-x="1185" 
d="M600 -432q-86 0 -209 29l31 178l121 -64q16 -4 41 -4q120 0 145 148l137 770q11 60 11 92q0 77 -34.5 117t-97.5 40q-55 0 -120.5 -47t-127.5 -129.5t-115 -208t-79 -268.5l-41 -221h-196l139 774l-15 191l252 73l-88 -426q75 196 195.5 308t267.5 112q119 0 188.5 -77.5
t69.5 -200.5q0 -60 -8 -101l-141 -796q-25 -137 -108.5 -213t-217.5 -76z" />
    <glyph glyph-name="Omacron" unicode="&#x14c;" horiz-adv-x="1495" 
d="M625 1575l28 149h623l-27 -149h-624zM666 -39q-249 0 -398 156.5t-149 414.5q0 243 101.5 441.5t279 311t393.5 112.5q249 0 398 -157t149 -415q0 -146 -38 -279t-108.5 -239t-165.5 -184t-213.5 -120t-248.5 -42zM676 119q152 0 281 95.5t203.5 259t74.5 355.5t-93 301
t-259 109q-114 0 -217.5 -56.5t-178.5 -152t-119 -227t-44 -275.5q0 -193 92.5 -301t259.5 -108z" />
    <glyph glyph-name="omacron" unicode="&#x14d;" horiz-adv-x="1198" 
d="M434 1262l25 143h588l-27 -143h-586zM522 -33q-190 0 -310 123.5t-120 323.5q0 178 76 320.5t209.5 222t298.5 79.5q189 0 308.5 -123t119.5 -323q0 -178 -75.5 -321t-208.5 -222.5t-298 -79.5zM537 113q158 0 264 134.5t106 344.5q0 136 -68 217.5t-177 81.5
q-159 0 -265 -134.5t-106 -344.5q0 -136 68.5 -217.5t177.5 -81.5z" />
    <glyph glyph-name="Obreve" unicode="&#x14e;" horiz-adv-x="1495" 
d="M928 1481q-131 0 -202 67t-71 178q0 24 7 64h131q-2 -14 -2 -37q0 -115 155 -115q172 0 215 152h131q-62 -309 -364 -309zM666 -39q-249 0 -398 156.5t-149 414.5q0 243 101.5 441.5t279 311t393.5 112.5q249 0 398 -157t149 -415q0 -146 -38 -279t-108.5 -239
t-165.5 -184t-213.5 -120t-248.5 -42zM676 119q152 0 281 95.5t203.5 259t74.5 355.5t-93 301t-259 109q-114 0 -217.5 -56.5t-178.5 -152t-119 -227t-44 -275.5q0 -193 92.5 -301t259.5 -108z" />
    <glyph glyph-name="obreve" unicode="&#x14f;" horiz-adv-x="1198" 
d="M711 1165q-126 0 -194 71t-68 194q0 51 10 96h125q-2 -16 -2 -45q3 -158 149 -158q80 0 137.5 51t83.5 152h129q-25 -178 -125.5 -269.5t-244.5 -91.5zM522 -33q-190 0 -310 123.5t-120 323.5q0 178 76 320.5t209.5 222t298.5 79.5q189 0 308.5 -123t119.5 -323
q0 -178 -75.5 -321t-208.5 -222.5t-298 -79.5zM537 113q158 0 264 134.5t106 344.5q0 136 -68 217.5t-177 81.5q-159 0 -265 -134.5t-106 -344.5q0 -136 68.5 -217.5t177.5 -81.5z" />
    <glyph glyph-name="Ohungarumlaut" unicode="&#x150;" horiz-adv-x="1495" 
d="M614 1489l351 299h225l-412 -299h-164zM997 1489l349 299h225l-410 -299h-164zM666 -39q-249 0 -398 156.5t-149 414.5q0 243 101.5 441.5t279 311t393.5 112.5q249 0 398 -157t149 -415q0 -146 -38 -279t-108.5 -239t-165.5 -184t-213.5 -120t-248.5 -42zM676 119
q152 0 281 95.5t203.5 259t74.5 355.5t-93 301t-259 109q-114 0 -217.5 -56.5t-178.5 -152t-119 -227t-44 -275.5q0 -193 92.5 -301t259.5 -108z" />
    <glyph glyph-name="ohungarumlaut" unicode="&#x151;" horiz-adv-x="1198" 
d="M461 1178l262 364h203l-324 -364h-141zM793 1178l262 364h202l-323 -364h-141zM522 -33q-190 0 -310 123.5t-120 323.5q0 178 76 320.5t209.5 222t298.5 79.5q189 0 308.5 -123t119.5 -323q0 -178 -75.5 -321t-208.5 -222.5t-298 -79.5zM537 113q158 0 264 134.5
t106 344.5q0 136 -68 217.5t-177 81.5q-159 0 -265 -134.5t-106 -344.5q0 -136 68.5 -217.5t177.5 -81.5z" />
    <glyph glyph-name="OE" unicode="&#x152;" horiz-adv-x="2035" 
d="M1894 1208h-555l-79 -438h403l154 23l-35 -193l-146 23h-401l-86 -471h565l193 45l-76 -197h-893l10 53q-141 -86 -299 -86q-240 0 -385 154.5t-145 410.5q0 182 59.5 342.5t162 274.5t246 180t306.5 66q167 0 276 -80l9 45h888v-197zM680 119q163 0 299 108l162 920
q-54 50 -113.5 71t-136.5 21q-158 0 -288.5 -95.5t-204.5 -259t-74 -356.5q0 -192 95 -300.5t261 -108.5z" />
    <glyph glyph-name="oe" unicode="&#x153;" horiz-adv-x="1912" 
d="M1341 393q-125 0 -260 33v-10q0 -150 76.5 -228.5t226.5 -78.5q162 0 328 84l-26 -142q-79 -41 -157 -62.5t-181 -21.5q-132 0 -233 59.5t-152 166.5q-73 -108 -187 -167t-256 -59q-189 0 -308.5 123.5t-119.5 323.5q0 272 165.5 446t418.5 174q126 0 218 -57.5
t140 -161.5q73 105 186 162t257 57q167 0 269.5 -83t102.5 -224q0 -156 -128 -245t-380 -89zM1460 899q-139 0 -239 -97t-129 -263q131 -27 217 -27q175 0 266.5 57.5t91.5 157.5q0 82 -57.5 127t-149.5 45zM535 113q160 0 265 134t105 345q0 136 -67 216.5t-176 80.5
q-159 0 -265 -133.5t-106 -341.5q0 -139 68 -220t176 -81z" />
    <glyph glyph-name="Racute" unicode="&#x154;" horiz-adv-x="1333" 
d="M1200 1786l-405 -297h-187l344 297h248zM1276 1004q0 -174 -112 -288t-296 -141l318 -575h-283l-35 176l-196 371h-297l-64 -357l2 -190h-268l64 190l174 979l4 191h571q202 0 310 -93.5t108 -262.5zM489 1217l-92 -517h318q171 0 266.5 80t95.5 224q0 103 -63.5 158
t-190.5 55h-334z" />
    <glyph glyph-name="racute" unicode="&#x155;" horiz-adv-x="825" 
d="M420 1178l264 364h221l-323 -364h-162zM66 0l139 774l-15 191l250 73l-96 -475q69 220 200 344.5t296 124.5q22 0 32 -2l-36 -201q-28 7 -52 7q-76 0 -146.5 -33t-135.5 -101t-116 -186.5t-79 -277.5l-45 -238h-196z" />
    <glyph glyph-name="uni0156" unicode="&#x156;" horiz-adv-x="1333" 
d="M1276 1004q0 -174 -112 -288t-296 -141l318 -575h-283l-35 176l-196 371h-297l-64 -357l2 -190h-268l64 190l174 979l4 191h571q202 0 310 -93.5t108 -262.5zM489 1217l-92 -517h318q171 0 266.5 80t95.5 224q0 103 -63.5 158t-190.5 55h-334zM410 -217l186 133l127 -152
l-186 -243h-101l80 141z" />
    <glyph glyph-name="uni0157" unicode="&#x157;" horiz-adv-x="825" 
d="M66 0l139 774l-15 191l250 73l-96 -475q69 220 200 344.5t296 124.5q22 0 32 -2l-36 -201q-28 7 -52 7q-76 0 -146.5 -33t-135.5 -101t-116 -186.5t-79 -277.5l-45 -238h-196zM-8 -479l80 141l-107 121l187 133l127 -152l-187 -243h-100z" />
    <glyph glyph-name="Rcaron" unicode="&#x158;" horiz-adv-x="1333" 
d="M879 1489h-217l-201 297h192l123 -199l195 199h213zM1276 1004q0 -174 -112 -288t-296 -141l318 -575h-283l-35 176l-196 371h-297l-64 -357l2 -190h-268l64 190l174 979l4 191h571q202 0 310 -93.5t108 -262.5zM489 1217l-92 -517h318q171 0 266.5 80t95.5 224
q0 103 -63.5 158t-190.5 55h-334z" />
    <glyph glyph-name="rcaron" unicode="&#x159;" horiz-adv-x="825" 
d="M440 1178l-178 364h184l109 -264l201 264h198l-305 -364h-209zM66 0l139 774l-15 191l250 73l-96 -475q69 220 200 344.5t296 124.5q22 0 32 -2l-36 -201q-28 7 -52 7q-76 0 -146.5 -33t-135.5 -101t-116 -186.5t-79 -277.5l-45 -238h-196z" />
    <glyph glyph-name="Sacute" unicode="&#x15a;" horiz-adv-x="1208" 
d="M598 1489l344 297h248l-406 -297h-186zM516 -37q-102 1 -204 18.5t-144 30.5t-111 37l-2 232l183 -125q146 -47 280 -47q166 0 264.5 65.5t98.5 175.5q0 96 -70.5 156t-230.5 115q-198 67 -288.5 162t-90.5 231q0 173 146 277t392 104q226 0 439 -76l2 -223l-181 116
q-110 39 -258 39q-150 0 -241.5 -61t-91.5 -158q0 -90 63 -147t221 -113q204 -69 299.5 -163t95.5 -238q0 -184 -156.5 -296t-414.5 -112z" />
    <glyph glyph-name="sacute" unicode="&#x15b;" horiz-adv-x="1009" 
d="M496 1178l264 364h221l-324 -364h-161zM418 -33q-33 0 -63.5 1.5t-61 5.5t-50 7t-50.5 10.5t-43 10t-46.5 12t-42.5 11.5v215l162 -109q93 -22 203 -22q116 0 180 43t64 110q0 59 -43.5 97t-161.5 77q-171 55 -240 124.5t-69 184.5q0 129 118 209t312 80q40 0 78 -3
t63.5 -5.5t59.5 -9.5t47 -10.5t46 -12.5t38 -10v-207l-160 101q-70 18 -162 18q-111 0 -175.5 -36t-64.5 -95q0 -56 43.5 -92.5t161.5 -75.5q168 -54 238.5 -126.5t70.5 -180.5q0 -142 -119 -232t-333 -90z" />
    <glyph glyph-name="Scircumflex" unicode="&#x15c;" horiz-adv-x="1208" 
d="M395 1489l307 297h216l202 -297h-194l-121 199l-197 -199h-213zM516 -37q-102 1 -204 18.5t-144 30.5t-111 37l-2 232l183 -125q146 -47 280 -47q166 0 264.5 65.5t98.5 175.5q0 96 -70.5 156t-230.5 115q-198 67 -288.5 162t-90.5 231q0 173 146 277t392 104
q226 0 439 -76l2 -223l-181 116q-110 39 -258 39q-150 0 -241.5 -61t-91.5 -158q0 -90 63 -147t221 -113q204 -69 299.5 -163t95.5 -238q0 -184 -156.5 -296t-414.5 -112z" />
    <glyph glyph-name="scircumflex" unicode="&#x15d;" horiz-adv-x="1009" 
d="M272 1178l306 364h208l179 -364h-185l-108 264l-201 -264h-199zM418 -33q-33 0 -63.5 1.5t-61 5.5t-50 7t-50.5 10.5t-43 10t-46.5 12t-42.5 11.5v215l162 -109q93 -22 203 -22q116 0 180 43t64 110q0 59 -43.5 97t-161.5 77q-171 55 -240 124.5t-69 184.5q0 129 118 209
t312 80q40 0 78 -3t63.5 -5.5t59.5 -9.5t47 -10.5t46 -12.5t38 -10v-207l-160 101q-70 18 -162 18q-111 0 -175.5 -36t-64.5 -95q0 -56 43.5 -92.5t161.5 -75.5q168 -54 238.5 -126.5t70.5 -180.5q0 -142 -119 -232t-333 -90z" />
    <glyph glyph-name="Scedilla" unicode="&#x15e;" horiz-adv-x="1208" 
d="M692 772q204 -69 299.5 -163t95.5 -238q0 -177 -143 -287t-383 -121l-49 -67h27q71 0 109 -38.5t38 -111.5q0 -86 -69 -137t-173 -51q-111 0 -190 28l22 117q55 -16 127 -16q54 0 85.5 18t31.5 51t-20 48.5t-70 15.5h-90l102 145q-27 2 -54 5t-49 6t-48 8t-42.5 8.5
t-41 10t-35.5 9.5t-34.5 10.5t-29 9t-28 9.5t-23.5 8l-2 232l183 -125q146 -47 280 -47q166 0 264.5 65.5t98.5 175.5q0 96 -70.5 156t-230.5 115q-198 67 -288.5 162t-90.5 231q0 173 146 277t392 104q226 0 439 -76l2 -223l-181 116q-110 39 -258 39q-150 0 -241.5 -61
t-91.5 -158q0 -90 63 -147t221 -113z" />
    <glyph glyph-name="scedilla" unicode="&#x15f;" horiz-adv-x="1009" 
d="M596 895q-111 0 -175.5 -36t-64.5 -95q0 -56 43.5 -92.5t161.5 -75.5q168 -54 238.5 -126.5t70.5 -180.5q0 -134 -107.5 -223t-301.5 -99l-53 -71h26q71 0 109.5 -38.5t38.5 -111.5q0 -86 -69 -137t-173 -51q-111 0 -190 28l22 117q55 -16 127 -16q54 0 85.5 18t31.5 51
t-20 48.5t-70 15.5h-90l104 149q-24 2 -46 4.5t-46 6.5t-38.5 6.5t-40.5 9.5t-35 9t-38.5 10.5t-34.5 9.5v215l162 -109q93 -22 203 -22q116 0 180 43t64 110q0 59 -43.5 97t-161.5 77q-171 55 -240 124.5t-69 184.5q0 129 118 209t312 80q40 0 78 -3t63.5 -5.5t59.5 -9.5
t47 -10.5t46 -12.5t38 -10v-207l-160 101q-70 18 -162 18z" />
    <glyph glyph-name="Scaron" unicode="&#x160;" horiz-adv-x="1208" 
d="M649 1489l-200 297h192l123 -199l194 199h213l-305 -297h-217zM516 -37q-102 1 -204 18.5t-144 30.5t-111 37l-2 232l183 -125q146 -47 280 -47q166 0 264.5 65.5t98.5 175.5q0 96 -70.5 156t-230.5 115q-198 67 -288.5 162t-90.5 231q0 173 146 277t392 104
q226 0 439 -76l2 -223l-181 116q-110 39 -258 39q-150 0 -241.5 -61t-91.5 -158q0 -90 63 -147t221 -113q204 -69 299.5 -163t95.5 -238q0 -184 -156.5 -296t-414.5 -112z" />
    <glyph glyph-name="scaron" unicode="&#x161;" horiz-adv-x="1009" 
d="M514 1178l-178 364h184l109 -264l200 264h199l-305 -364h-209zM418 -33q-33 0 -63.5 1.5t-61 5.5t-50 7t-50.5 10.5t-43 10t-46.5 12t-42.5 11.5v215l162 -109q93 -22 203 -22q116 0 180 43t64 110q0 59 -43.5 97t-161.5 77q-171 55 -240 124.5t-69 184.5q0 129 118 209
t312 80q40 0 78 -3t63.5 -5.5t59.5 -9.5t47 -10.5t46 -12.5t38 -10v-207l-160 101q-70 18 -162 18q-111 0 -175.5 -36t-64.5 -95q0 -56 43.5 -92.5t161.5 -75.5q168 -54 238.5 -126.5t70.5 -180.5q0 -142 -119 -232t-333 -90z" />
    <glyph glyph-name="uni0162" unicode="&#x162;" horiz-adv-x="1173" 
d="M1253 1360v-201l-176 45h-264l-182 -1014l18 -190h-86l-76 -104h27q71 0 109.5 -38.5t38.5 -111.5q0 -86 -69 -137t-173 -51q-112 0 -191 28l23 117q55 -16 127 -16q54 0 85.5 18t31.5 51t-20 48.5t-70 15.5h-91l125 180h-96l86 190l180 1014h-266l-192 -45l77 201h1024z
" />
    <glyph glyph-name="uni0163" unicode="&#x163;" horiz-adv-x="743" 
d="M451 868l-105 -581q-4 -29 -4 -58q0 -43 25 -65.5t69 -22.5q65 0 189 37l-29 -162q-123 -39 -201 -43l-55 -77h27q71 0 109 -38.5t38 -111.5q0 -86 -69 -137t-173 -51q-111 0 -190 28l22 117q55 -16 127 -16q54 0 85.5 18t31.5 51t-20 48.5t-70 15.5h-90l113 162
q-67 19 -103.5 68.5t-36.5 123.5q0 44 9 88l106 606h-180v9l422 374h18l-43 -247h307l-24 -136h-305z" />
    <glyph glyph-name="Tcaron" unicode="&#x164;" horiz-adv-x="1173" 
d="M872 1489h-217l-200 297h192l123 -199l195 199h213zM1253 1360v-201l-176 45h-264l-182 -1014l18 -190h-305l86 190l180 1014h-266l-192 -45l77 201h1024z" />
    <glyph glyph-name="tcaron" unicode="&#x165;" horiz-adv-x="851" 
d="M713 1178l112 329h176l-159 -329h-129zM358 -29q-101 0 -159 54t-58 149q0 44 9 88l106 606h-180v9l422 374h18l-43 -247h307l-24 -136h-305l-105 -581q-4 -29 -4 -58q0 -43 25 -65.5t69 -22.5q65 0 189 37l-29 -162q-133 -45 -238 -45z" />
    <glyph glyph-name="Tbar" unicode="&#x166;" horiz-adv-x="1173" 
d="M1253 1360v-201l-176 45h-264l-84 -469h219l-18 -110h-221l-78 -435l18 -190h-305l86 190l78 435h-221l18 110h221l84 469h-266l-192 -45l77 201h1024z" />
    <glyph glyph-name="tbar" unicode="&#x167;" horiz-adv-x="743" 
d="M756 868h-305l-54 -295h283l-18 -110h-285l-31 -176q-4 -29 -4 -58q0 -43 25 -65.5t69 -22.5q65 0 189 37l-29 -162q-133 -45 -238 -45q-101 0 -159 54t-58 149q0 44 9 88l34 201h-166l19 110h168l51 295h-180v9l422 374h18l-43 -247h307z" />
    <glyph glyph-name="Utilde" unicode="&#x168;" horiz-adv-x="1429" 
d="M1036 1483q-43 0 -79 16.5t-59 39.5t-42 46.5t-39.5 40t-40.5 16.5q-62 0 -102 -149h-123q59 301 246 301q43 0 78.5 -16.5t58.5 -40t42 -47t39 -40t40 -16.5q59 0 102 150h123q-59 -301 -244 -301zM653 -39q-237 0 -368 127.5t-131 337.5q0 78 14 160l102 583l4 191h263
l-64 -191l-108 -614q-11 -72 -11 -129q0 -149 82 -230t238 -81q170 0 277.5 96.5t142.5 290.5l118 667l2 191h242l-65 -191l-119 -675q-46 -260 -203 -396.5t-416 -136.5z" />
    <glyph glyph-name="utilde" unicode="&#x169;" horiz-adv-x="1177" 
d="M844 1165q-40 0 -73 15.5t-53 39t-38 51t-30 51t-27 39t-31 15.5q-33 0 -60 -47t-53 -153h-119q31 185 90 270.5t154 85.5q47 0 84 -21.5t58.5 -53t38.5 -62.5t34.5 -52.5t36.5 -21.5q33 0 59 47t52 154h120q-32 -186 -90.5 -271.5t-152.5 -85.5zM371 -31q-120 0 -191 77
t-71 194q0 25 2.5 53t4.5 51.5t9.5 62.5t11.5 61t15.5 73.5t16.5 74t20.5 88.5t21.5 93l-18 190q69 33 122 33q48 0 78.5 -28t30.5 -79q0 -67 -58.5 -297.5t-58.5 -328.5q0 -77 38 -118.5t101 -41.5q121 0 248.5 184t179.5 469l39 221h199l-143 -794l18 -193
q-2 -1 -12.5 -5.5t-16.5 -7t-18 -7t-22 -6.5t-24 -4t-28 -2q-94 0 -94 106q0 21 19.5 136.5t29.5 162.5q-70 -196 -185 -307t-265 -111z" />
    <glyph glyph-name="Umacron" unicode="&#x16a;" horiz-adv-x="1429" 
d="M592 1575l29 149h622l-26 -149h-625zM653 -39q-237 0 -368 127.5t-131 337.5q0 78 14 160l102 583l4 191h263l-64 -191l-108 -614q-11 -72 -11 -129q0 -149 82 -230t238 -81q170 0 277.5 96.5t142.5 290.5l118 667l2 191h242l-65 -191l-119 -675q-46 -260 -203 -396.5
t-416 -136.5z" />
    <glyph glyph-name="umacron" unicode="&#x16b;" horiz-adv-x="1177" 
d="M410 1262l24 143h588l-27 -143h-585zM371 -31q-120 0 -191 77t-71 194q0 25 2.5 53t4.5 51.5t9.5 62.5t11.5 61t15.5 73.5t16.5 74t20.5 88.5t21.5 93l-18 190q69 33 122 33q48 0 78.5 -28t30.5 -79q0 -67 -58.5 -297.5t-58.5 -328.5q0 -77 38 -118.5t101 -41.5
q121 0 248.5 184t179.5 469l39 221h199l-143 -794l18 -193q-2 -1 -12.5 -5.5t-16.5 -7t-18 -7t-22 -6.5t-24 -4t-28 -2q-94 0 -94 106q0 21 19.5 136.5t29.5 162.5q-70 -196 -185 -307t-265 -111z" />
    <glyph glyph-name="Ubreve" unicode="&#x16c;" horiz-adv-x="1429" 
d="M895 1481q-130 0 -201 66.5t-71 178.5q0 30 6 64h131q-2 -14 -2 -37q0 -115 155 -115q172 0 215 152h132q-62 -309 -365 -309zM653 -39q-237 0 -368 127.5t-131 337.5q0 78 14 160l102 583l4 191h263l-64 -191l-108 -614q-11 -72 -11 -129q0 -149 82 -230t238 -81
q170 0 277.5 96.5t142.5 290.5l118 667l2 191h242l-65 -191l-119 -675q-46 -260 -203 -396.5t-416 -136.5z" />
    <glyph glyph-name="ubreve" unicode="&#x16d;" horiz-adv-x="1177" 
d="M686 1165q-126 0 -194 71t-68 194q0 51 10 96h125q-2 -16 -2 -45q3 -158 150 -158q80 0 137.5 51t83.5 152h129q-25 -178 -126 -269.5t-245 -91.5zM371 -31q-120 0 -191 77t-71 194q0 25 2.5 53t4.5 51.5t9.5 62.5t11.5 61t15.5 73.5t16.5 74t20.5 88.5t21.5 93l-18 190
q69 33 122 33q48 0 78.5 -28t30.5 -79q0 -67 -58.5 -297.5t-58.5 -328.5q0 -77 38 -118.5t101 -41.5q121 0 248.5 184t179.5 469l39 221h199l-143 -794l18 -193q-2 -1 -12.5 -5.5t-16.5 -7t-18 -7t-22 -6.5t-24 -4t-28 -2q-94 0 -94 106q0 21 19.5 136.5t29.5 162.5
q-70 -196 -185 -307t-265 -111z" />
    <glyph glyph-name="Uring" unicode="&#x16e;" horiz-adv-x="1429" 
d="M901 1477q-92 0 -151.5 56t-59.5 144q0 107 76.5 178.5t187.5 71.5q91 0 151 -56t60 -145q0 -105 -76.5 -177t-187.5 -72zM909 1583q56 0 97 40t41 99q0 43 -28 70t-71 27q-58 0 -98.5 -39t-40.5 -101q0 -42 28 -69t72 -27zM653 -39q-237 0 -368 127.5t-131 337.5
q0 78 14 160l102 583l4 191h263l-64 -191l-108 -614q-11 -72 -11 -129q0 -149 82 -230t238 -81q170 0 277.5 96.5t142.5 290.5l118 667l2 191h242l-65 -191l-119 -675q-46 -260 -203 -396.5t-416 -136.5z" />
    <glyph glyph-name="uring" unicode="&#x16f;" horiz-adv-x="1177" 
d="M702 1161q-87 0 -145.5 58t-58.5 149q0 104 77.5 180t184.5 76q88 0 145.5 -57.5t57.5 -149.5q0 -105 -76.5 -180.5t-184.5 -75.5zM709 1270q57 0 98 42t41 101q0 46 -26.5 74.5t-67.5 28.5q-57 0 -98.5 -42.5t-41.5 -101.5q0 -46 26 -74t69 -28zM371 -31q-120 0 -191 77
t-71 194q0 25 2.5 53t4.5 51.5t9.5 62.5t11.5 61t15.5 73.5t16.5 74t20.5 88.5t21.5 93l-18 190q69 33 122 33q48 0 78.5 -28t30.5 -79q0 -67 -58.5 -297.5t-58.5 -328.5q0 -77 38 -118.5t101 -41.5q121 0 248.5 184t179.5 469l39 221h199l-143 -794l18 -193
q-2 -1 -12.5 -5.5t-16.5 -7t-18 -7t-22 -6.5t-24 -4t-28 -2q-94 0 -94 106q0 21 19.5 136.5t29.5 162.5q-70 -196 -185 -307t-265 -111z" />
    <glyph glyph-name="Uhungarumlaut" unicode="&#x170;" horiz-adv-x="1429" 
d="M582 1489l350 299h225l-412 -299h-163zM965 1489l348 299h225l-410 -299h-163zM653 -39q-237 0 -368 127.5t-131 337.5q0 78 14 160l102 583l4 191h263l-64 -191l-108 -614q-11 -72 -11 -129q0 -149 82 -230t238 -81q170 0 277.5 96.5t142.5 290.5l118 667l2 191h242
l-65 -191l-119 -675q-46 -260 -203 -396.5t-416 -136.5z" />
    <glyph glyph-name="uhungarumlaut" unicode="&#x171;" horiz-adv-x="1177" 
d="M436 1178l262 364h203l-323 -364h-142zM768 1178l262 364h203l-324 -364h-141zM371 -31q-120 0 -191 77t-71 194q0 25 2.5 53t4.5 51.5t9.5 62.5t11.5 61t15.5 73.5t16.5 74t20.5 88.5t21.5 93l-18 190q69 33 122 33q48 0 78.5 -28t30.5 -79q0 -67 -58.5 -297.5
t-58.5 -328.5q0 -77 38 -118.5t101 -41.5q121 0 248.5 184t179.5 469l39 221h199l-143 -794l18 -193q-2 -1 -12.5 -5.5t-16.5 -7t-18 -7t-22 -6.5t-24 -4t-28 -2q-94 0 -94 106q0 21 19.5 136.5t29.5 162.5q-70 -196 -185 -307t-265 -111z" />
    <glyph glyph-name="Uogonek" unicode="&#x172;" horiz-adv-x="1429" 
d="M573 -461q-85 0 -137.5 40.5t-52.5 111.5q0 174 260 274h-47q-209 13 -325.5 138t-116.5 323q0 78 14 160l102 583l4 191h263l-64 -191l-108 -614q-11 -72 -11 -129q0 -149 82 -230t238 -81q170 0 277.5 96.5t142.5 290.5l118 667l2 191h242l-65 -191l-119 -675
q-63 -353 -322 -471q-35 -17 -88.5 -40t-92 -39t-81.5 -38.5t-70 -44t-45 -51.5t-18 -64q0 -36 23.5 -55t64.5 -19q45 0 115 27v-123q-88 -37 -185 -37z" />
    <glyph glyph-name="uogonek" unicode="&#x173;" horiz-adv-x="1177" 
d="M944 -4q-246 -113 -246 -232q0 -36 24 -54.5t64 -18.5q52 0 115 26v-123q-86 -36 -182 -36q-85 0 -138 40.5t-53 112.5q0 173 275 291q-31 28 -31 86q0 21 19.5 136.5t29.5 162.5q-70 -196 -185 -307t-265 -111q-120 0 -191 77t-71 194q0 25 2.5 53t4.5 51.5t9.5 62.5
t11.5 61t15.5 73.5t16.5 74t20.5 88.5t21.5 93l-18 190q69 33 122 33q48 0 78.5 -28t30.5 -79q0 -67 -58.5 -297.5t-58.5 -328.5q0 -77 38 -118.5t101 -41.5q121 0 248.5 184t179.5 469l39 221h199l-143 -794l18 -193q-1 0 -16.5 -7t-26.5 -11z" />
    <glyph glyph-name="Wcircumflex" unicode="&#x174;" horiz-adv-x="1892" 
d="M752 1489l307 297h215l203 -297h-195l-121 199l-196 -199h-213zM365 0l-187 1360h248l-14 -186l116 -959l441 954l-17 191h256l-16 -191l98 -954l455 959l55 186h217l-678 -1360h-204l-103 948l-442 -948h-225z" />
    <glyph glyph-name="wcircumflex" unicode="&#x175;" horiz-adv-x="1740" 
d="M641 1178l305 364h209l178 -364h-184l-109 264l-200 -264h-199zM328 0l-193 1004h244l-10 -179l94 -649l399 828h205l107 -826l323 647l55 179h232l-535 -1004h-209l-106 809l-395 -809h-211z" />
    <glyph glyph-name="Ycircumflex" unicode="&#x176;" horiz-adv-x="1323" 
d="M475 1489l307 297h215l203 -297h-194l-121 199l-197 -199h-213zM440 0l64 190l57 326l-385 844h289l18 -186l215 -512l394 512l90 186h266l-686 -858l-55 -312l-5 -190h-262z" />
    <glyph glyph-name="ycircumflex" unicode="&#x177;" horiz-adv-x="1169" 
d="M350 1178l305 364h209l178 -364h-184l-108 264l-201 -264h-199zM348 -438q-173 0 -315 69l2 197l162 -104q62 -23 141 -23q186 0 292 100.5t138 282.5l53 303q-69 -197 -183.5 -307.5t-264.5 -110.5q-120 0 -191 77t-71 194q0 63 14.5 154t30.5 162t57 241l-18 190
q63 33 120 33q48 0 78.5 -28t30.5 -79q0 -67 -57.5 -297.5t-57.5 -328.5q0 -77 38 -118.5t102 -41.5q77 0 161 79t157 231.5t107 342.5l41 224h199l-166 -910q-21 -123 -66 -218.5t-117 -166.5t-177.5 -109t-239.5 -38z" />
    <glyph glyph-name="Ydieresis" unicode="&#x178;" horiz-adv-x="1323" 
d="M612 1485l-112 153l170 123l110 -155zM1053 1485l-113 153l168 123l113 -155zM440 0l64 190l57 326l-385 844h289l18 -186l215 -512l394 512l90 186h266l-686 -858l-55 -312l-5 -190h-262z" />
    <glyph glyph-name="Zacute" unicode="&#x179;" horiz-adv-x="1193" 
d="M600 1489l344 297h248l-406 -297h-186zM-29 0l6 31l977 1179h-548l-218 -53l76 203h1020l-4 -31l-975 -1177h547l217 51l-76 -203h-1022z" />
    <glyph glyph-name="zacute" unicode="&#x17a;" horiz-adv-x="1024" 
d="M489 1178l265 364h221l-324 -364h-162zM653 -35q-111 0 -368.5 16.5t-304.5 18.5l6 31l723 833h-381l-203 -71l76 211h819l-4 -33l-742 -846q40 0 177.5 -1.5t189.5 -0.5l209 80q33 -60 33 -113q0 -60 -51 -92.5t-179 -32.5z" />
    <glyph glyph-name="Zdotaccent" unicode="&#x17b;" horiz-adv-x="1193" 
d="M762 1485l-148 151l195 125l147 -153zM-29 0l6 31l977 1179h-548l-218 -53l76 203h1020l-4 -31l-975 -1177h547l217 51l-76 -203h-1022z" />
    <glyph glyph-name="zdotaccent" unicode="&#x17c;" horiz-adv-x="1024" 
d="M618 1188l-143 168l191 137l143 -170zM653 -35q-111 0 -368.5 16.5t-304.5 18.5l6 31l723 833h-381l-203 -71l76 211h819l-4 -33l-742 -846q40 0 177.5 -1.5t189.5 -0.5l209 80q33 -60 33 -113q0 -60 -51 -92.5t-179 -32.5z" />
    <glyph glyph-name="Zcaron" unicode="&#x17d;" horiz-adv-x="1193" 
d="M651 1489l-200 297h192l123 -199l195 199h213l-306 -297h-217zM-29 0l6 31l977 1179h-548l-218 -53l76 203h1020l-4 -31l-975 -1177h547l217 51l-76 -203h-1022z" />
    <glyph glyph-name="zcaron" unicode="&#x17e;" horiz-adv-x="1024" 
d="M508 1178l-178 364h184l109 -264l200 264h199l-305 -364h-209zM653 -35q-111 0 -368.5 16.5t-304.5 18.5l6 31l723 833h-381l-203 -71l76 211h819l-4 -33l-742 -846q40 0 177.5 -1.5t189.5 -0.5l209 80q33 -60 33 -113q0 -60 -51 -92.5t-179 -32.5z" />
    <glyph glyph-name="uni018F" unicode="&#x18f;" horiz-adv-x="1425" 
d="M786 1397q265 0 423.5 -155t158.5 -419q0 -176 -54.5 -333.5t-151 -274t-238 -184.5t-306.5 -68q-247 0 -378 141.5t-131 374.5q0 108 28 248l1020 -4q6 53 6 108q0 196 -105.5 300t-301.5 104q-146 0 -291 -45l-217 -111l67 226q258 92 471 92zM629 117
q187 0 317.5 124.5t183.5 329.5l-815 7q-10 -51 -10 -117q0 -161 83 -252.5t241 -91.5z" />
    <glyph glyph-name="florin" unicode="&#x192;" 
d="M379 -90q-85 0 -244 35l27 184l143 -76q28 -4 47 -4q116 0 142 146l88 489h-334l24 135h332l45 246q28 162 133.5 249t274.5 87q124 0 297 -41l-31 -201l-193 105q-6 0 -21 1t-24 1q-98 0 -162 -57t-83 -160l-39 -230h426l-25 -135h-424l-88 -496q-23 -135 -102.5 -206.5
t-208.5 -71.5z" />
    <glyph glyph-name="uni0218" unicode="&#x218;" horiz-adv-x="1208" 
d="M516 -37q-102 1 -204 18.5t-144 30.5t-111 37l-2 232l183 -125q146 -47 280 -47q166 0 264.5 65.5t98.5 175.5q0 96 -70.5 156t-230.5 115q-198 67 -288.5 162t-90.5 231q0 173 146 277t392 104q226 0 439 -76l2 -223l-181 116q-110 39 -258 39q-150 0 -241.5 -61
t-91.5 -158q0 -90 63 -147t221 -113q204 -69 299.5 -163t95.5 -238q0 -184 -156.5 -296t-414.5 -112zM346 -479l80 141l-107 121l187 133l127 -152l-187 -243h-100z" />
    <glyph glyph-name="uni0219" unicode="&#x219;" horiz-adv-x="1009" 
d="M418 -33q-33 0 -63.5 1.5t-61 5.5t-50 7t-50.5 10.5t-43 10t-46.5 12t-42.5 11.5v215l162 -109q93 -22 203 -22q116 0 180 43t64 110q0 59 -43.5 97t-161.5 77q-171 55 -240 124.5t-69 184.5q0 129 118 209t312 80q40 0 78 -3t63.5 -5.5t59.5 -9.5t47 -10.5t46 -12.5
t38 -10v-207l-160 101q-70 18 -162 18q-111 0 -175.5 -36t-64.5 -95q0 -56 43.5 -92.5t161.5 -75.5q168 -54 238.5 -126.5t70.5 -180.5q0 -142 -119 -232t-333 -90zM242 -479l80 141l-107 121l186 133l127 -152l-186 -243h-100z" />
    <glyph glyph-name="uni021A" unicode="&#x21a;" horiz-adv-x="1173" 
d="M1253 1360v-201l-176 45h-264l-182 -1014l18 -190h-305l86 190l180 1014h-266l-192 -45l77 201h1024zM295 -217l186 133l127 -152l-186 -243h-100l79 141z" />
    <glyph glyph-name="uni021B" unicode="&#x21b;" horiz-adv-x="743" 
d="M358 -29q-101 0 -159 54t-58 149q0 44 9 88l106 606h-180v9l422 374h18l-43 -247h307l-24 -136h-305l-105 -581q-4 -29 -4 -58q0 -43 25 -65.5t69 -22.5q65 0 189 37l-29 -162q-133 -45 -238 -45zM176 -479l80 141l-106 121l186 133l127 -152l-187 -243h-100z" />
    <glyph glyph-name="uni0237" unicode="&#x237;" horiz-adv-x="497" 
d="M-88 -432q-74 0 -176 22v185l121 -66q3 0 16.5 -1t22.5 -1q122 0 147 148l162 919l-15 191l256 75l-208 -1183q-25 -138 -108 -213.5t-218 -75.5z" />
    <glyph glyph-name="uni0259" unicode="&#x259;" horiz-adv-x="1112" 
d="M588 1036q192 0 312 -121t120 -317q0 -278 -162 -453.5t-420 -175.5q-169 0 -272 83t-103 224q0 156 128 245t380 89q129 0 260 -32v10q0 151 -76 229t-227 78q-161 0 -327 -84l26 141q165 84 361 84zM453 104q139 0 239 97.5t129 263.5q-131 27 -215 27
q-176 0 -267 -57.5t-91 -158.5q0 -82 56.5 -127t148.5 -45z" />
    <glyph glyph-name="circumflex" unicode="&#x2c6;" horiz-adv-x="1208" 
d="M377 1178l305 364h209l178 -364h-184l-109 264l-201 -264h-198z" />
    <glyph glyph-name="caron" unicode="&#x2c7;" horiz-adv-x="1208" 
d="M618 1178l-178 364h185l108 -264l201 264h199l-306 -364h-209z" />
    <glyph glyph-name="breve" unicode="&#x2d8;" horiz-adv-x="1208" 
d="M731 1165q-127 0 -195.5 71t-68.5 194q0 28 10 96h125q-2 -16 -2 -45q3 -158 152 -158q80 0 136.5 51t82.5 152h129q-24 -177 -125 -269t-244 -92z" />
    <glyph glyph-name="dotaccent" unicode="&#x2d9;" horiz-adv-x="1208" 
d="M725 1188l-145 168l192 137l141 -170z" />
    <glyph glyph-name="ring" unicode="&#x2da;" horiz-adv-x="1208" 
d="M733 1161q-87 0 -146 58t-59 149q0 104 78 180t185 76q88 0 145 -57.5t57 -149.5q0 -105 -76 -180.5t-184 -75.5zM739 1270q57 0 98.5 42.5t41.5 100.5q0 46 -27 74.5t-68 28.5q-57 0 -98 -42.5t-41 -101.5q0 -46 25.5 -74t68.5 -28z" />
    <glyph glyph-name="ogonek" unicode="&#x2db;" horiz-adv-x="1208" 
d="M455 -442q-85 0 -138 40.5t-53 112.5q0 92 88 177.5t293 152.5l45 -41q-256 -116 -256 -236q0 -36 24 -54.5t64 -18.5q52 0 115 26v-123q-86 -36 -182 -36z" />
    <glyph glyph-name="tilde" unicode="&#x2dc;" horiz-adv-x="1208" 
d="M872 1165q-40 0 -73 15.5t-53 39t-37.5 51t-29.5 51t-27 39t-31 15.5q-33 0 -60 -47t-53 -153h-119q31 185 90 270.5t154 85.5q47 0 84 -21.5t58.5 -53t38.5 -62.5t34.5 -52.5t36.5 -21.5q33 0 58.5 46.5t51.5 154.5h121q-32 -185 -91 -271t-153 -86z" />
    <glyph glyph-name="hungarumlaut" unicode="&#x2dd;" horiz-adv-x="1208" 
d="M467 1178l262 364h203l-324 -364h-141zM799 1178l262 364h203l-324 -364h-141z" />
    <glyph glyph-name="gravecomb" unicode="&#x300;" horiz-adv-x="0" 
d="M-520 1178l-197 364h209l137 -364h-149z" />
    <glyph glyph-name="acutecomb" unicode="&#x301;" horiz-adv-x="0" 
d="M-608 1178l264 364h221l-323 -364h-162z" />
    <glyph glyph-name="uni0302" unicode="&#x302;" horiz-adv-x="0" 
d="M-831 1178l305 364h209l178 -364h-185l-108 264l-201 -264h-198z" />
    <glyph glyph-name="tildecomb" unicode="&#x303;" horiz-adv-x="0" 
d="M-336 1165q-40 0 -73 15.5t-53 39t-38 51t-30 51t-27 39t-31 15.5q-33 0 -59.5 -46.5t-52.5 -153.5h-119q31 185 90 270.5t154 85.5q40 0 72.5 -15.5t52.5 -39t38 -51t30 -51t27 -39t31 -15.5q33 0 59 47t52 154h121q-32 -185 -91 -271t-153 -86z" />
    <glyph glyph-name="uni0304" unicode="&#x304;" horiz-adv-x="0" 
d="M-764 1262l25 143h587l-26 -143h-586z" />
    <glyph glyph-name="uni0306" unicode="&#x306;" horiz-adv-x="0" 
d="M-492 1165q-126 0 -194 71t-68 194q0 46 11 96h125q-3 -24 -3 -45q3 -158 150 -158q80 0 137.5 51t83.5 152h129q-25 -178 -126 -269.5t-245 -91.5z" />
    <glyph glyph-name="uni0307" unicode="&#x307;" horiz-adv-x="0" 
d="M-129 1188l-143 168l190 137l143 -170z" />
    <glyph glyph-name="uni0308" unicode="&#x308;" horiz-adv-x="0" 
d="M-684 1192l-111 156l168 127l113 -160zM-287 1192l-112 156l170 127l110 -160z" />
    <glyph glyph-name="uni030A" unicode="&#x30a;" horiz-adv-x="0" 
d="M-475 1161q-87 0 -146 58t-59 149q0 104 77.5 180t184.5 76q88 0 145.5 -57.5t57.5 -149.5q0 -105 -76 -180.5t-184 -75.5zM-469 1270q57 0 98 42t41 101q0 46 -26.5 74.5t-67.5 28.5q-57 0 -98 -42.5t-41 -101.5q0 -46 25.5 -74t68.5 -28z" />
    <glyph glyph-name="uni030B" unicode="&#x30b;" horiz-adv-x="0" 
d="M-741 1178l262 364h203l-324 -364h-141zM-410 1178l263 364h202l-323 -364h-142z" />
    <glyph glyph-name="uni030C" unicode="&#x30c;" horiz-adv-x="0" 
d="M-590 1178l-178 364h184l109 -264l201 264h198l-305 -364h-209z" />
    <glyph glyph-name="uni0312" unicode="&#x312;" horiz-adv-x="0" 
d="M-532 1178l79 141l-106 121l186 133l127 -152l-186 -243h-100z" />
    <glyph glyph-name="uni0313" unicode="&#x313;" horiz-adv-x="0" 
d="M-549 1178l113 329h176l-160 -329h-129z" />
    <glyph glyph-name="uni0326" unicode="&#x326;" horiz-adv-x="0" 
d="M-866 -479l80 141l-107 121l186 133l127 -152l-186 -243h-100z" />
    <glyph glyph-name="uni0327" unicode="&#x327;" horiz-adv-x="0" 
d="M-774 -442q-112 0 -191 28l23 117q55 -16 127 -16q54 0 85.5 18t31.5 51t-20 48.5t-70 15.5h-91l136 194h122l-86 -118h27q71 0 109.5 -38.5t38.5 -111.5q0 -86 -69 -137t-173 -51z" />
    <glyph glyph-name="uni0328" unicode="&#x328;" horiz-adv-x="0" 
d="M-754 -442q-85 0 -137.5 40.5t-52.5 112.5q0 92 88 177.5t293 152.5l45 -41q-256 -116 -256 -236q0 -36 24 -54.5t64 -18.5q52 0 115 26v-123q-86 -36 -183 -36z" />
    <glyph glyph-name="uni0335" unicode="&#x335;" horiz-adv-x="0" 
d="M-934 461l19 110h643l-19 -110h-643z" />
    <glyph glyph-name="uni0336" unicode="&#x336;" horiz-adv-x="0" 
d="M-1280 952l16 99h1344l-19 -99h-1341z" />
    <glyph glyph-name="uni0337" unicode="&#x337;" horiz-adv-x="0" 
d="M-897 424l27 149l628 404l-26 -150z" />
    <glyph glyph-name="uni0338" unicode="&#x338;" horiz-adv-x="0" 
d="M-1094 -57l-59 71l1071 1047l57 -72z" />
    <glyph glyph-name="uni0394" unicode="&#x394;" 
d="M6 0l19 100l733 1260h182l287 -1258l-19 -102h-1202zM229 137h789l-219 991z" />
    <glyph glyph-name="uni03A9" unicode="&#x3a9;" horiz-adv-x="1517" 
d="M45 0v197l180 -45h219l35 192q-311 156 -311 461q0 124 56.5 234t152 188.5t226 124t274.5 45.5q263 0 430.5 -143.5t167.5 -370.5q0 -197 -134.5 -342.5t-361.5 -218.5l-29 -170h224l190 45l-61 -197h-547l69 420q200 48 322.5 168t122.5 295q0 158 -108.5 257
t-284.5 99q-141 0 -258.5 -58.5t-184.5 -158t-67 -217.5q0 -263 292 -385l-71 -420h-543z" />
    <glyph glyph-name="uni03BC" unicode="&#x3bc;" horiz-adv-x="1185" 
d="M84 -428q-47 0 -78 27.5t-31 78.5q0 53 15 115l231 1004l-18 190q63 33 121 33q49 0 78.5 -28t29.5 -79q0 -67 -57.5 -297.5t-57.5 -328.5q0 -78 37.5 -119t102.5 -41q127 0 250 182.5t176 470.5l41 224h198l-145 -797l20 -191q-65 -34 -120 -34q-43 0 -69 25t-26 79
q0 23 19 134.5t30 160.5q-68 -180 -183 -296t-240 -116q-74 0 -126 42t-59 126l-57 -350l20 -190q-50 -25 -102 -25z" />
    <glyph glyph-name="pi" unicode="&#x3c0;" horiz-adv-x="1323" 
d="M963 -29q-103 0 -166.5 56t-63.5 151q0 49 8 88l107 606h-293l-121 -682l-10 -190h-258l65 190l121 682h-243l24 132h1206l-22 -132h-266l-111 -618q-4 -20 -4 -57t23 -57.5t59 -20.5q65 0 168 39l-21 -142q-115 -45 -202 -45z" />
    <glyph glyph-name="Wgrave" unicode="&#x1e80;" horiz-adv-x="1892" 
d="M1106 1489l-309 297h225l248 -297h-164zM365 0l-187 1360h248l-14 -186l116 -959l441 954l-17 191h256l-16 -191l98 -954l455 959l55 186h217l-678 -1360h-204l-103 948l-442 -948h-225z" />
    <glyph glyph-name="wgrave" unicode="&#x1e81;" horiz-adv-x="1740" 
d="M952 1178l-196 364h209l137 -364h-150zM328 0l-193 1004h244l-10 -179l94 -649l399 828h205l107 -826l323 647l55 179h232l-535 -1004h-209l-106 809l-395 -809h-211z" />
    <glyph glyph-name="Wacute" unicode="&#x1e82;" horiz-adv-x="1892" 
d="M954 1489l344 297h248l-405 -297h-187zM365 0l-187 1360h248l-14 -186l116 -959l441 954l-17 191h256l-16 -191l98 -954l455 959l55 186h217l-678 -1360h-204l-103 948l-442 -948h-225z" />
    <glyph glyph-name="wacute" unicode="&#x1e83;" horiz-adv-x="1740" 
d="M864 1178l264 364h222l-324 -364h-162zM328 0l-193 1004h244l-10 -179l94 -649l399 828h205l107 -826l323 647l55 179h232l-535 -1004h-209l-106 809l-395 -809h-211z" />
    <glyph glyph-name="Wdieresis" unicode="&#x1e84;" horiz-adv-x="1892" 
d="M889 1485l-113 153l170 123l111 -155zM1329 1485l-112 153l167 123l113 -155zM365 0l-187 1360h248l-14 -186l116 -959l441 954l-17 191h256l-16 -191l98 -954l455 959l55 186h217l-678 -1360h-204l-103 948l-442 -948h-225z" />
    <glyph glyph-name="wdieresis" unicode="&#x1e85;" horiz-adv-x="1740" 
d="M788 1192l-110 156l168 127l112 -160zM1186 1192l-113 156l170 127l111 -160zM328 0l-193 1004h244l-10 -179l94 -649l399 828h205l107 -826l323 647l55 179h232l-535 -1004h-209l-106 809l-395 -809h-211z" />
    <glyph glyph-name="uni1E9E" unicode="&#x1e9e;" horiz-adv-x="1398" 
d="M834 -37q-137 0 -306 62l4 200l140 -96q53 -16 121 -16q141 0 212.5 67t71.5 176q0 92 -54.5 154.5t-168.5 114.5l-129 61l367 518q-133 45 -285 45q-317 0 -375 -317l-164 -932h-233l63 190l133 750q41 235 188.5 347t407.5 112q108 0 213 -19t168.5 -39.5t147.5 -54.5
l-389 -541q153 -56 234 -154.5t81 -234.5q0 -168 -125 -280.5t-323 -112.5z" />
    <glyph glyph-name="Ygrave" unicode="&#x1ef2;" horiz-adv-x="1323" 
d="M829 1489l-309 297h225l248 -297h-164zM440 0l64 190l57 326l-385 844h289l18 -186l215 -512l394 512l90 186h266l-686 -858l-55 -312l-5 -190h-262z" />
    <glyph glyph-name="ygrave" unicode="&#x1ef3;" horiz-adv-x="1169" 
d="M659 1178l-196 364h209l137 -364h-150zM348 -438q-173 0 -315 69l2 197l162 -104q62 -23 141 -23q186 0 292 100.5t138 282.5l53 303q-69 -197 -183.5 -307.5t-264.5 -110.5q-120 0 -191 77t-71 194q0 63 14.5 154t30.5 162t57 241l-18 190q63 33 120 33q48 0 78.5 -28
t30.5 -79q0 -67 -57.5 -297.5t-57.5 -328.5q0 -77 38 -118.5t102 -41.5q77 0 161 79t157 231.5t107 342.5l41 224h199l-166 -910q-21 -123 -66 -218.5t-117 -166.5t-177.5 -109t-239.5 -38z" />
    <glyph glyph-name="uni2007" unicode="&#x2007;" 
 />
    <glyph glyph-name="uni2008" unicode="&#x2008;" horiz-adv-x="1200" 
 />
    <glyph glyph-name="uni2009" unicode="&#x2009;" horiz-adv-x="204" 
 />
    <glyph glyph-name="uni200B" unicode="&#x200b;" horiz-adv-x="0" 
 />
    <glyph glyph-name="uni2011" unicode="&#x2011;" horiz-adv-x="665" 
d="M78 518l24 146h516l-22 -146h-518z" />
    <glyph glyph-name="figuredash" unicode="&#x2012;" 
d="M170 524l23 140h1064l-24 -140h-1063z" />
    <glyph glyph-name="endash" unicode="&#x2013;" horiz-adv-x="1542" 
d="M168 520l25 142h1214l-25 -142h-1214z" />
    <glyph glyph-name="emdash" unicode="&#x2014;" horiz-adv-x="1878" 
d="M168 520l25 142h1550l-25 -142h-1550z" />
    <glyph glyph-name="quoteleft" unicode="&#x2018;" horiz-adv-x="477" 
d="M518 1399l-156 -316l105 -135l-186 -143l-119 151l254 443h102z" />
    <glyph glyph-name="quoteright" unicode="&#x2019;" horiz-adv-x="477" 
d="M168 838l154 315l-105 135l189 142l116 -152l-252 -440h-102z" />
    <glyph glyph-name="quotesinglbase" unicode="&#x201a;" horiz-adv-x="477" 
d="M-35 -317l154 315l-105 135l189 143l116 -151l-251 -442h-103z" />
    <glyph glyph-name="quotedblleft" unicode="&#x201c;" horiz-adv-x="835" 
d="M518 1399l-156 -316l105 -135l-186 -143l-119 151l254 443h102zM874 1399l-153 -316l104 -135l-188 -143l-117 151l252 443h102z" />
    <glyph glyph-name="quotedblright" unicode="&#x201d;" horiz-adv-x="835" 
d="M168 838l154 315l-105 135l189 142l116 -152l-252 -440h-102zM526 838l154 315l-105 135l189 142l119 -152l-254 -440h-103z" />
    <glyph glyph-name="quotedblbase" unicode="&#x201e;" horiz-adv-x="833" 
d="M-35 -317l154 315l-105 135l189 143l116 -151l-251 -442h-103zM322 -317l155 315l-104 135l186 143l119 -151l-254 -442h-102z" />
    <glyph glyph-name="dagger" unicode="&#x2020;" 
d="M477 -410l117 816l70 342l-258 -9l-193 -45l43 248l174 -45l258 -8l45 278l-8 193h250l-78 -193l-55 -278l256 8l192 45l-43 -248l-176 45l-252 9l-53 -342l-176 -816h-113z" />
    <glyph glyph-name="daggerdbl" unicode="&#x2021;" 
d="M408 -410l77 195l52 240l-258 -9l-193 -45l43 246l176 -45l254 -6l113 620l-262 -8l-189 -45l43 248l174 -47l256 -6l41 239l-8 193h248l-78 -193l-49 -239l258 6l190 47l-43 -248l-176 45l-254 8l-110 -620l258 6l192 45l-43 -246l-176 45l-256 9l-39 -240l8 -195h-249z
" />
    <glyph glyph-name="bullet" unicode="&#x2022;" horiz-adv-x="1079" 
d="M498 254l-287 369l403 307l285 -371z" />
    <glyph glyph-name="ellipsis" unicode="&#x2026;" horiz-adv-x="1531" 
d="M174 -59l-154 194l216 162l151 -195zM668 -59l-152 194l213 162l154 -195zM1161 -59l-153 194l215 162l151 -195z" />
    <glyph glyph-name="perthousand" unicode="&#x2030;" horiz-adv-x="2525" 
d="M356 -70l-80 72l1207 1413l82 -72zM463 649q-114 0 -189 75t-75 208q0 70 15 135.5t46.5 122t75.5 98.5t105.5 66t133.5 24q115 0 191 -74t76 -208q0 -119 -42.5 -219t-130.5 -164t-206 -64zM475 750q68 0 121 52t79.5 133.5t26.5 174.5q0 88 -37.5 129t-101.5 41
q-100 0 -162.5 -107.5t-62.5 -252.5q0 -88 37 -129t100 -41zM1255 -18q-114 0 -190 74.5t-76 207.5q0 119 42.5 219t130.5 164t206 64q114 0 189 -74.5t75 -208.5q0 -119 -42 -219t-129.5 -163.5t-205.5 -63.5zM2011 -18q-114 0 -190 74.5t-76 207.5q0 119 42.5 219
t130.5 164t206 64q114 0 190 -74.5t76 -208.5q0 -119 -42.5 -219t-130.5 -163.5t-206 -63.5zM1268 82q101 0 163 107t62 253q0 88 -37 129t-100 41q-68 0 -121 -52t-80 -133.5t-27 -174.5q0 -88 38 -129t102 -41zM2023 82q101 0 163.5 107.5t62.5 252.5q0 88 -37.5 129
t-100.5 41q-68 0 -121 -52t-79.5 -133.5t-26.5 -174.5q0 -87 38 -128.5t101 -41.5z" />
    <glyph glyph-name="minute" unicode="&#x2032;" horiz-adv-x="448" 
d="M174 885l137 463l138 77l45 -139l-242 -401h-78z" />
    <glyph glyph-name="second" unicode="&#x2033;" horiz-adv-x="800" 
d="M174 885l137 463l138 77l45 -139l-242 -401h-78zM526 885l140 463l135 77l47 -139l-244 -401h-78z" />
    <glyph glyph-name="uni2034" unicode="&#x2034;" horiz-adv-x="1155" 
d="M174 885l137 463l138 77l45 -139l-242 -401h-78zM526 885l140 463l135 77l47 -139l-244 -401h-78zM879 885l139 463l137 77l45 -139l-242 -401h-79z" />
    <glyph glyph-name="guilsinglleft" unicode="&#x2039;" horiz-adv-x="593" 
d="M297 190l-180 367l10 64l297 370h154l-285 -405l139 -396h-135z" />
    <glyph glyph-name="guilsinglright" unicode="&#x203a;" horiz-adv-x="593" 
d="M328 991l180 -368l-10 -64l-297 -369h-152l283 406l-139 395h135z" />
    <glyph glyph-name="uni203D" unicode="&#x203d;" horiz-adv-x="1030" 
d="M383 428l92 795q-20 -2 -67 -13l-238 -116l66 221q162 55 253 65l9 84l92 49l90 -38l-16 -80q163 -6 257.5 -93t94.5 -229q0 -48 -12 -95t-30.5 -86t-51.5 -83t-62.5 -76.5t-77.5 -76.5t-82.5 -73.5t-91 -77t-90.5 -77.5h-135zM514 563q59 59 86 86.5t74 79t69 84
t48 77.5t36.5 86t10.5 83q0 83 -51 128.5t-148 45.5zM371 -55l-152 190l207 141l154 -172z" />
    <glyph glyph-name="fraction" unicode="&#x2044;" horiz-adv-x="317" 
d="M-375 -70l-80 72l1207 1413l82 -72z" />
    <glyph glyph-name="uni2060" unicode="&#x2060;" horiz-adv-x="0" 
 />
    <glyph glyph-name="uni2070" unicode="&#x2070;" horiz-adv-x="798" 
d="M430 633q-114 0 -189 74.5t-75 207.5q0 119 42 219t129.5 164t205.5 64q114 0 190 -74.5t76 -208.5q0 -119 -42.5 -219t-130.5 -163.5t-206 -63.5zM442 733q68 0 121 52.5t80 134t27 174.5q0 88 -38 129t-102 41q-101 0 -163 -107.5t-62 -253.5q0 -88 37 -129t100 -41z
" />
    <glyph glyph-name="uni2074" unicode="&#x2074;" horiz-adv-x="735" 
d="M713 1290l-70 -405h109l-15 -90h-110l-9 -45v-99h-180l41 99l8 45h-403l10 67l438 490h232zM240 885h264l67 370z" />
    <glyph glyph-name="uni2075" unicode="&#x2075;" horiz-adv-x="747" 
d="M758 1241h-402l-34 -192q83 22 161 22q110 0 176 -50t66 -142q0 -112 -89 -178t-235 -66q-61 0 -115.5 9t-81.5 17.5t-69 24.5l-4 131l105 -67q72 -21 145 -21q87 0 139.5 37.5t52.5 103.5q0 52 -39 80.5t-110 28.5q-60 0 -160 -21l-63 43l59 345h436l105 24z" />
    <glyph glyph-name="uni2076" unicode="&#x2076;" horiz-adv-x="790" 
d="M457 635q-135 0 -213 75.5t-78 223.5q0 183 114 306.5t306 123.5q108 0 217 -39l4 -137l-96 61q-63 19 -121 19q-105 0 -180.5 -67t-92.5 -187q105 84 242 84q95 0 156 -53t61 -138q0 -115 -90 -193.5t-229 -78.5zM459 733q72 -3 124 46.5t52 121.5q0 51 -32 79t-89 28
q-53 0 -100 -17t-109 -59v-14q0 -92 40.5 -137.5t113.5 -47.5z" />
    <glyph glyph-name="uni2077" unicode="&#x2077;" horiz-adv-x="698" 
d="M215 1343h559l-12 -77l-422 -629l-156 43l432 553h-342l-104 -25z" />
    <glyph glyph-name="uni2078" unicode="&#x2078;" horiz-adv-x="788" 
d="M608 1012q90 -38 127 -77t37 -95q0 -99 -99 -153t-259 -54q-135 0 -211 44t-76 122q0 134 227 207q-133 65 -133 163q0 90 91.5 142.5t232.5 52.5q124 0 194 -45t70 -119q0 -64 -50 -108.5t-151 -79.5zM530 1278q-76 0 -123 -27.5t-47 -76.5q0 -37 33 -65.5t111 -57.5
q97 32 133.5 64t36.5 73q0 40 -38 65t-106 25zM426 721q91 0 146 29t55 88q0 36 -39.5 66t-128.5 63q-193 -56 -193 -152q0 -44 42 -69t118 -25z" />
    <glyph glyph-name="uni2079" unicode="&#x2079;" horiz-adv-x="788" 
d="M379 635q-113 0 -217 37l-4 137l96 -61q56 -17 121 -17q104 0 179.5 67t92.5 185q-102 -82 -241 -82q-96 0 -157 52.5t-61 138.5q0 114 90.5 193t229.5 79q135 0 213 -76t78 -223q0 -184 -113.5 -307t-306.5 -123zM451 989q54 0 100 17.5t108 60.5v14q0 182 -153 185
q-72 2 -124 -48t-52 -120q0 -51 32 -80t89 -29z" />
    <glyph glyph-name="uni2080" unicode="&#x2080;" horiz-adv-x="798" 
d="M244 -428q-114 0 -189 75t-75 208q0 70 15 135.5t46.5 122t75.5 98.5t105.5 66t133.5 24q114 0 190.5 -74.5t76.5 -208.5q0 -119 -42.5 -219t-130.5 -163.5t-206 -63.5zM256 -328q68 0 121 52.5t79.5 134t26.5 174.5q0 88 -37.5 129t-101.5 41q-101 0 -163 -107.5
t-62 -253.5q0 -88 37 -129t100 -41z" />
    <glyph glyph-name="uni2081" unicode="&#x2081;" horiz-adv-x="573" 
d="M82 -410l49 101l84 467l-242 -125l19 106l287 152h102l-109 -600l2 -101h-192z" />
    <glyph glyph-name="uni2082" unicode="&#x2082;" horiz-adv-x="731" 
d="M70 -311l333 4l103 24l-39 -127h-563l14 68l-2 6q45 33 113 81t104.5 74.5t85.5 63.5t74.5 61.5t51 54t36 55.5t10.5 52q0 97 -121 97q-50 0 -120 -17l-130 -59l41 141q132 33 238 33q123 0 184.5 -48.5t61.5 -133.5q0 -28 -9 -55t-20.5 -50t-37.5 -50t-45.5 -46
t-59.5 -47t-64 -44t-75.5 -46t-78 -44.5t-85.5 -47.5z" />
    <glyph glyph-name="uni2083" unicode="&#x2083;" horiz-adv-x="735" 
d="M205 -426q-112 0 -268 37l-5 139l97 -61q74 -19 151 -19q83 0 134 32t51 93q0 52 -48 80.5t-174 28.5l17 88q250 0 250 127q0 90 -127 90q-61 0 -129 -14l-142 -64l39 139q148 31 264 31q119 0 182.5 -44t63.5 -124q0 -149 -192 -182q67 -14 110 -57t43 -105
q0 -103 -83 -159t-234 -56z" />
    <glyph glyph-name="uni2084" unicode="&#x2084;" horiz-adv-x="735" 
d="M526 229l-69 -405h108l-14 -90h-111l-8 -45v-99h-180l41 99l8 45h-403l10 67l438 490h232zM53 -176h264l68 371z" />
    <glyph glyph-name="uni2085" unicode="&#x2085;" horiz-adv-x="747" 
d="M571 180h-401l-35 -192q83 22 162 22q110 0 176 -50t66 -142q0 -112 -89 -178t-235 -66q-61 0 -115.5 9t-81.5 17.5t-69 24.5l-4 131l104 -67q72 -21 146 -21q86 0 139 38t53 104q0 52 -39 80t-110 28q-65 0 -160 -20l-64 43l60 344h436l104 24z" />
    <glyph glyph-name="uni2086" unicode="&#x2086;" horiz-adv-x="790" 
d="M270 -426q-135 0 -212.5 75.5t-77.5 223.5q0 183 113.5 306.5t305.5 123.5q108 0 217 -39l5 -137l-97 61q-63 19 -121 19q-105 0 -180 -67t-92 -187q105 84 242 84q95 0 156 -53t61 -138q0 -115 -90.5 -193.5t-229.5 -78.5zM272 -328q72 -3 124.5 46.5t52.5 121.5
q0 51 -32 79t-89 28q-53 0 -100 -17t-109 -59v-14q0 -182 153 -185z" />
    <glyph glyph-name="uni2087" unicode="&#x2087;" horiz-adv-x="698" 
d="M29 283h559l-13 -78l-421 -629l-156 43l432 553h-342l-104 -25z" />
    <glyph glyph-name="uni2088" unicode="&#x2088;" horiz-adv-x="788" 
d="M422 -49q90 -38 127 -77t37 -95q0 -99 -99.5 -153t-259.5 -54q-135 0 -210.5 44t-75.5 122q0 134 227 207q-133 65 -133 164q0 90 91 142t232 52q124 0 194.5 -45.5t70.5 -118.5q0 -64 -50 -108.5t-151 -79.5zM344 217q-76 0 -123 -27.5t-47 -76.5q0 -37 32.5 -65.5
t110.5 -57.5q97 32 133.5 64t36.5 73q0 40 -37.5 65t-105.5 25zM240 -340q91 0 145.5 29t54.5 88q0 36 -39.5 66t-128.5 63q-192 -56 -192 -152q0 -44 42 -69t118 -25z" />
    <glyph glyph-name="uni2089" unicode="&#x2089;" horiz-adv-x="788" 
d="M193 -426q-114 0 -218 37l-4 137l97 -61q56 -17 120 -17q104 0 180 67t93 185q-102 -82 -242 -82q-96 0 -156.5 52.5t-60.5 138.5q0 114 90.5 193t229.5 79q134 0 212 -76t78 -223q0 -185 -113.5 -307.5t-305.5 -122.5zM264 -72q54 0 100.5 17.5t108.5 60.5v14
q0 92 -40.5 137.5t-113.5 47.5q-72 2 -124 -48t-52 -120q0 -51 32 -80t89 -29z" />
    <glyph glyph-name="Euro" unicode="&#x20ac;" 
d="M1001 1241q-170 0 -302.5 -96t-202.5 -264h604l-23 -123h-620q-18 -78 -23 -135h619l-23 -123h-600q9 -181 107 -279t272 -98q119 0 217 29l227 120l-71 -235q-201 -74 -394 -74q-252 0 -402 144t-161 393h-139l18 123h125q3 65 19 135h-115l21 123h127
q86 239 277.5 377.5t445.5 138.5q187 0 380 -78v-223l-182 116q-104 29 -201 29z" />
    <glyph glyph-name="uni20B9" unicode="&#x20b9;" 
d="M1419 1360l-24 -131h-525q44 -29 74 -80t37 -117h379l-23 -131h-364q-27 -133 -142.5 -216t-320.5 -101l-70 -4l570 -580h-351l-49 150l-440 452l20 105h209q305 0 365 194h-539l23 131h526q-9 106 -73.5 151.5t-198.5 45.5h-219l24 131h1112z" />
    <glyph glyph-name="uni20BA" unicode="&#x20ba;" 
d="M1274 788q14 -58 14 -126q-18 -323 -238 -492.5t-593 -169.5h-279l64 186l63 357l-203 -88l25 139l203 88l26 145l-204 -90l24 140l205 90l37 202l6 191h268l-63 -191l-19 -104l434 190l-24 -139l-436 -190l-25 -144l436 191l-24 -139l-439 -191l-88 -487
q302 0 491.5 164.5t229.5 467.5h109z" />
    <glyph glyph-name="uni20BC" unicode="&#x20bc;" 
d="M915 1391q153 -25 247.5 -154.5t94.5 -372.5q0 -196 -57 -674l-4 -190h-272l63 190q78 476 78 674q0 322 -178 365l-174 -989h-135l174 991q-104 -17 -178 -108.5t-143 -315t-138 -617.5l-2 -190h-273l66 190q41 241 86 424.5t96 315t105 219.5t120.5 140.5t135 76.5
t155.5 29l31 180h135z" />
    <glyph glyph-name="uni20BF" unicode="&#x20bf;" 
d="M324 -215l36 215h-315l64 190l174 979l4 191h315l37 215h133l-39 -215h137l39 215h131l-39 -221q138 -15 213.5 -90t75.5 -197q0 -134 -77 -228t-214 -134q116 -25 190.5 -100t74.5 -191q0 -182 -132.5 -294.5t-371.5 -119.5l-37 -215h-131l37 215h-137l-37 -215h-131z
M408 770h352q153 0 243.5 70t90.5 198q0 174 -232 174h-375zM297 147h416q161 0 251.5 77t90.5 208q0 95 -69.5 145t-201.5 50h-401z" />
    <glyph glyph-name="uni2113" unicode="&#x2113;" horiz-adv-x="1011" 
d="M418 451l-33 -187q-4 -40 -4 -57q0 -88 102 -88q88 0 207 39l-37 -142q-134 -45 -233 -45q-113 0 -174.5 51t-61.5 152q0 44 6 90l17 90l-109 -43l21 144q54 21 114 47l105 596q28 155 117.5 236t230.5 81q127 0 195.5 -71.5t68.5 -208.5q0 -208 -122 -372.5t-410 -311.5
zM530 1083l-84 -471q189 114 272 240.5t83 275.5q0 142 -109 142q-129 0 -162 -187z" />
    <glyph glyph-name="uni2117" unicode="&#x2117;" horiz-adv-x="1601" 
d="M717 -31q-167 0 -300.5 78.5t-207.5 215.5t-74 304q0 161 68 313.5t179 264t260.5 179t305.5 67.5q166 0 299.5 -78.5t208 -215t74.5 -302.5q0 -161 -68 -314t-179.5 -264.5t-261 -179.5t-304.5 -68zM719 57q136 -1 267.5 60t230.5 161t160 237t61 280
q0 215 -137.5 361.5t-354.5 146.5q-136 0 -268 -61t-231 -161t-159.5 -236.5t-60.5 -279.5q0 -215 136.5 -360t355.5 -148zM479 297l39 111l98 544v111h359q112 0 177 -53.5t65 -157.5q0 -128 -85.5 -208.5t-222.5 -80.5h-239l-29 -155l2 -111h-164zM686 657h213
q91 0 144 54t53 141q0 117 -140 117h-215z" />
    <glyph glyph-name="trademark" unicode="&#x2122;" horiz-adv-x="1423" 
d="M297 788l49 127l66 367h-80l-117 -31l35 109h444v-109l-102 31h-80l-68 -367l2 -127h-149zM668 788l39 130l57 311l4 131h170l10 -125l56 -332l178 332l57 125h174l-41 -131l-57 -311l-4 -130h-127l43 130l61 342l-258 -472h-96l-84 484l-62 -354l-6 -130h-114z" />
    <glyph glyph-name="uni2126" unicode="&#x2126;" horiz-adv-x="1517" 
d="M45 0v197l180 -45h219l35 192q-311 156 -311 461q0 124 56.5 234t152 188.5t226 124t274.5 45.5q263 0 430.5 -143.5t167.5 -370.5q0 -197 -134.5 -342.5t-361.5 -218.5l-29 -170h224l190 45l-61 -197h-547l69 420q200 48 322.5 168t122.5 295q0 158 -108.5 257
t-284.5 99q-141 0 -258.5 -58.5t-184.5 -158t-67 -217.5q0 -263 292 -385l-71 -420h-543z" />
    <glyph glyph-name="estimated" unicode="&#x212e;" horiz-adv-x="1388" 
d="M1321 674h-975l-74 -371q104 -252 408 -252q177 0 309 53l205 113l-43 -145q-129 -56 -242.5 -82.5t-240.5 -26.5q-254 0 -401.5 151t-147.5 412q0 246 93.5 444t262 311.5t379.5 113.5q232 0 360.5 -132.5t128.5 -365.5q0 -97 -22 -223zM434 1116l-69 -352l753 -2
l68 348q-51 100 -131 148.5t-205 48.5q-121 0 -229.5 -51t-186.5 -140z" />
    <glyph glyph-name="uni2150" unicode="&#x2150;" horiz-adv-x="1589" 
d="M1325 1415l82 -72l-1208 -1413l-80 72zM319 768l84 467l-241 -125l18 107l287 151h102l-108 -600l2 -100h-193zM991 692h559l-12 -78l-422 -628l-155 43l432 553h-342l-105 -25z" />
    <glyph glyph-name="uni2151" unicode="&#x2151;" horiz-adv-x="1679" 
d="M199 -70l-80 72l1206 1413l82 -72zM270 668l49 100l84 467l-241 -125l18 107l287 151h102l-108 -600l2 -100h-193zM1155 -16q-116 0 -217 36l-4 138l96 -62q53 -16 121 -16q104 0 179.5 67t92.5 185q-102 -82 -241 -82q-96 0 -156.5 52t-60.5 138q0 114 90 193.5
t229 79.5q135 0 213 -76t78 -223q0 -184 -113.5 -307t-306.5 -123zM1227 338q54 0 100.5 17.5t108.5 60.5v14q0 181 -154 184q-72 2 -124 -48t-52 -120q0 -51 32 -79.5t89 -28.5z" />
    <glyph glyph-name="uni2152" unicode="&#x2152;" horiz-adv-x="2263" 
d="M199 -70l-80 72l1206 1413l82 -72zM270 668l49 100l84 467l-241 -125l18 107l287 151h102l-108 -600l2 -100h-193zM1780 -18q-114 0 -189 74.5t-75 207.5q0 89 24.5 168.5t70.5 142t119 99.5t162 37q114 0 190.5 -74.5t76.5 -208.5q0 -119 -42.5 -219t-130.5 -163.5
t-206 -63.5zM1044 0l50 100l84 467l-242 -125l18 107l287 151h102l-108 -600l2 -100h-193zM1792 82q68 0 121 52t79.5 133.5t26.5 174.5q0 88 -37.5 129t-101.5 41q-101 0 -163 -107t-62 -253q0 -88 37 -129t100 -41z" />
    <glyph glyph-name="uni2153" unicode="&#x2153;" horiz-adv-x="1626" 
d="M199 -70l-80 72l1206 1413l82 -72zM270 668l49 100l84 467l-241 -125l18 107l287 151h102l-108 -600l2 -100h-193zM1167 -16q-116 0 -268 36l-4 140l96 -62q71 -18 152 -18q83 0 133.5 32t50.5 93q0 52 -47 80t-174 28l16 88q250 0 250 127q0 90 -127 90q-61 0 -129 -14
l-141 -63l39 139q148 31 264 31q119 0 182.5 -44t63.5 -124q0 -149 -193 -183q68 -14 111 -56.5t43 -104.5q0 -103 -83.5 -159t-234.5 -56z" />
    <glyph glyph-name="uni2154" unicode="&#x2154;" horiz-adv-x="1783" 
d="M1483 1415l82 -72l-1209 -1413l-80 72zM655 668h-563l14 69l-2 4q45 33 113 81t104.5 74.5t85.5 64t74.5 61.5t51.5 54t36.5 56t10.5 52q0 96 -121 96q-55 0 -121 -16l-129 -60l41 142q128 32 237 32q123 0 184.5 -48.5t61.5 -133.5q0 -28 -9 -55t-20.5 -50t-37.5 -50
t-45.5 -46t-59.5 -47t-64 -44t-75.5 -46t-78 -44.5t-85.5 -47.5l334 4l102 25zM1489 360q68 -14 110.5 -56.5t42.5 -104.5q0 -103 -83 -159t-234 -56q-116 0 -268 36l-4 140l96 -62q71 -18 151 -18q83 0 134 32t51 93q0 52 -47 80t-174 28l16 88q250 0 250 127q0 90 -127 90
q-61 0 -129 -14l-141 -63l38 139q148 31 265 31q119 0 182 -44t63 -124q0 -77 -51 -122t-141 -61z" />
    <glyph glyph-name="uni2155" unicode="&#x2155;" horiz-adv-x="1638" 
d="M1325 1415l82 -72l-1208 -1413l-80 72zM319 768l84 467l-241 -125l18 107l287 151h102l-108 -600l2 -100h-193zM1534 590h-401l-35 -193q87 23 162 23q110 0 175.5 -50.5t65.5 -142.5q0 -112 -88.5 -177.5t-234.5 -65.5q-61 0 -116 9t-82 17.5t-69 24.5l-4 131l105 -68
q68 -20 145 -20q87 0 140 37.5t53 103.5q0 52 -39.5 80.5t-110.5 28.5q-60 0 -160 -21l-63 43l59 344h437l104 25z" />
    <glyph glyph-name="uni2156" unicode="&#x2156;" horiz-adv-x="1796" 
d="M1483 1415l82 -72l-1209 -1413l-80 72zM655 668h-563l14 69l-2 4q45 33 113 81t104.5 74.5t85.5 64t74.5 61.5t51.5 54t36.5 56t10.5 52q0 96 -121 96q-55 0 -121 -16l-129 -60l41 142q128 32 237 32q123 0 184.5 -48.5t61.5 -133.5q0 -28 -9 -55t-20.5 -50t-37.5 -50
t-45.5 -46t-59.5 -47t-64 -44t-75.5 -46t-78 -44.5t-85.5 -47.5l334 4l102 25zM1692 590h-402l-35 -193q87 23 162 23q110 0 176 -50.5t66 -142.5q0 -112 -89 -177.5t-235 -65.5q-61 0 -115.5 9t-81.5 17.5t-69 24.5l-4 131l104 -68q68 -20 146 -20q87 0 139.5 37.5
t52.5 103.5q0 52 -39 80.5t-110 28.5q-60 0 -160 -21l-63 43l59 344h436l105 25z" />
    <glyph glyph-name="uni2157" unicode="&#x2157;" horiz-adv-x="1800" 
d="M1487 1415l82 -72l-1209 -1413l-79 72zM711 866q0 -103 -83.5 -159t-234.5 -56q-112 0 -268 37l-4 139l96 -61q70 -18 152 -18q83 0 133.5 31.5t50.5 92.5q0 52 -47.5 80.5t-173.5 28.5l16 88q250 0 250 127q0 90 -127 90q-61 0 -129 -14l-141 -64l39 140q143 30 264 30
q119 0 182.5 -44t63.5 -124q0 -148 -193 -182q68 -14 111 -57t43 -105zM1696 590h-402l-34 -193q87 23 161 23q110 0 176 -50.5t66 -142.5q0 -112 -89 -177.5t-235 -65.5q-61 0 -115.5 9t-81.5 17.5t-69 24.5l-4 131l105 -68q68 -20 145 -20q87 0 139.5 37.5t52.5 103.5
q0 52 -39 80.5t-110 28.5q-60 0 -160 -21l-63 43l59 344h436l105 25z" />
    <glyph glyph-name="uni2158" unicode="&#x2158;" horiz-adv-x="1800" 
d="M1487 1415l82 -72l-1209 -1413l-79 72zM481 766l8 45h-403l10 68l439 489h231l-51 -61l-70 -406h109l-15 -90h-110l-8 -45v-98h-181zM242 901h264l67 371zM1696 590h-402l-34 -193q87 23 161 23q110 0 176 -50.5t66 -142.5q0 -112 -89 -177.5t-235 -65.5q-61 0 -115.5 9
t-81.5 17.5t-69 24.5l-4 131l105 -68q68 -20 145 -20q87 0 139.5 37.5t52.5 103.5q0 52 -39 80.5t-110 28.5q-60 0 -160 -21l-63 43l59 344h436l105 25z" />
    <glyph glyph-name="uni2159" unicode="&#x2159;" horiz-adv-x="1681" 
d="M199 -70l-80 72l1206 1413l82 -72zM270 668l49 100l84 467l-241 -125l18 107l287 151h102l-108 -600l2 -100h-193zM1233 -16q-135 0 -213 75.5t-78 223.5q0 183 114 306.5t306 123.5q108 0 217 -39l4 -137l-96 61q-59 18 -121 18q-105 0 -180 -67t-92 -187q105 84 241 84
q96 0 156.5 -53t60.5 -137q0 -115 -90 -193.5t-229 -78.5zM1235 82q72 -3 124 46.5t52 121.5q0 51 -32 78.5t-89 27.5q-54 0 -100.5 -17t-108.5 -58v-15q0 -181 154 -184z" />
    <glyph glyph-name="uni215A" unicode="&#x215a;" horiz-adv-x="1855" 
d="M1499 1415l82 -72l-1208 -1413l-80 72zM727 895q0 -112 -89 -178t-235 -66q-61 0 -115.5 9t-81.5 17.5t-69 24.5l-4 132l105 -68q72 -21 145 -21q86 0 139 38t53 104q0 52 -39 80t-110 28q-65 0 -160 -20l-63 43l59 344h436l105 24l-43 -129h-402l-34 -192q83 22 161 22
q110 0 176 -50t66 -142zM1509 446q96 0 156.5 -53t60.5 -137q0 -115 -90 -193.5t-229 -78.5q-135 0 -213 75.5t-78 223.5q0 183 114 306.5t306 123.5q108 0 217 -39l4 -137l-96 61q-59 18 -121 18q-105 0 -180 -67t-92 -187q105 84 241 84zM1409 82q72 -3 124 46.5t52 121.5
q0 51 -32 78.5t-89 27.5q-54 0 -100.5 -17t-108.5 -58v-15q0 -181 154 -184z" />
    <glyph glyph-name="oneeighth" unicode="&#x215b;" horiz-adv-x="1679" 
d="M1325 1415l82 -72l-1208 -1413l-80 72zM319 768l84 467l-241 -125l18 107l287 151h102l-108 -600l2 -100h-193zM1384 360q90 -38 127 -77t37 -95q0 -98 -99 -152t-259 -54q-135 0 -211 43.5t-76 121.5q0 134 227 207q-133 65 -133 164q0 90 91.5 142.5t232.5 52.5
q124 0 194 -45t70 -119q0 -64 -50 -109t-151 -80zM1307 627q-76 0 -123 -28t-47 -77q0 -37 32.5 -65.5t110.5 -57.5q97 32 133.5 64.5t36.5 73.5q0 40 -37.5 65t-105.5 25zM1202 70q91 0 146 28.5t55 87.5q0 36 -39.5 66t-128.5 63q-193 -56 -193 -151q0 -44 42 -69t118 -25
z" />
    <glyph glyph-name="threeeighths" unicode="&#x215c;" horiz-adv-x="1841" 
d="M1487 1415l82 -72l-1209 -1413l-79 72zM711 866q0 -103 -83.5 -159t-234.5 -56q-112 0 -268 37l-4 139l96 -61q70 -18 152 -18q83 0 133.5 31.5t50.5 92.5q0 52 -47.5 80.5t-173.5 28.5l16 88q250 0 250 127q0 90 -127 90q-61 0 -129 -14l-141 -64l39 140q143 30 264 30
q119 0 182.5 -44t63.5 -124q0 -148 -193 -182q68 -14 111 -57t43 -105zM1546 360q90 -38 127 -77t37 -95q0 -98 -99 -152t-259 -54q-135 0 -211 43.5t-76 121.5q0 134 227 207q-133 65 -133 164q0 90 91.5 142.5t232.5 52.5q124 0 194 -45t70 -119q0 -64 -50 -109t-151 -80z
M1468 627q-76 0 -123 -28t-47 -77q0 -37 33 -65.5t111 -57.5q97 32 133.5 64.5t36.5 73.5q0 40 -38 65t-106 25zM1364 70q91 0 146 28.5t55 87.5q0 36 -39.5 66t-128.5 63q-193 -56 -193 -151q0 -44 42 -69t118 -25z" />
    <glyph glyph-name="fiveeighths" unicode="&#x215d;" horiz-adv-x="1853" 
d="M1499 1415l82 -72l-1208 -1413l-80 72zM727 895q0 -112 -89 -178t-235 -66q-61 0 -115.5 9t-81.5 17.5t-69 24.5l-4 132l105 -68q72 -21 145 -21q86 0 139 38t53 104q0 52 -39 80t-110 28q-65 0 -160 -20l-63 43l59 344h436l105 24l-43 -129h-402l-34 -192q83 22 161 22
q110 0 176 -50t66 -142zM1559 360q90 -38 126.5 -77t36.5 -95q0 -98 -99 -152t-259 -54q-135 0 -211 43.5t-76 121.5q0 133 228 207q-134 65 -134 164q0 90 91.5 142.5t232.5 52.5q124 0 194 -45t70 -119q0 -64 -50 -109t-150 -80zM1481 627q-76 0 -123 -28t-47 -77
q0 -37 32.5 -65.5t110.5 -57.5q97 32 133.5 64.5t36.5 73.5q0 40 -37.5 65t-105.5 25zM1376 70q91 0 146 28.5t55 87.5q0 36 -39.5 66t-128.5 63q-192 -56 -192 -151q0 -44 41.5 -69t117.5 -25z" />
    <glyph glyph-name="seveneighths" unicode="&#x215e;" horiz-adv-x="1701" 
d="M1348 1415l82 -72l-1209 -1413l-80 72zM645 1249h-342l-104 -24l45 135h559l-12 -78l-422 -629l-156 43zM1407 360q90 -38 127 -77t37 -95q0 -98 -99 -152t-260 -54q-135 0 -210.5 43.5t-75.5 121.5q0 134 227 207q-133 65 -133 164q0 90 91.5 142.5t231.5 52.5
q124 0 194.5 -45.5t70.5 -118.5q0 -64 -50 -109t-151 -80zM1329 627q-76 0 -123 -28t-47 -77q0 -37 33 -65.5t111 -57.5q97 32 133.5 64.5t36.5 73.5q0 40 -38 65t-106 25zM1225 70q91 0 145.5 28.5t54.5 87.5q0 36 -39.5 66t-128.5 63q-192 -56 -192 -151q0 -44 42 -69
t118 -25z" />
    <glyph glyph-name="arrowleft" unicode="&#x2190;" horiz-adv-x="1607" 
d="M807 1094l-389 -381h1042l-24 -142h-1063l258 -381h-178l-258 404l16 96l397 404h199z" />
    <glyph glyph-name="arrowup" unicode="&#x2191;" horiz-adv-x="1607" 
d="M991 1272l338 -354l-29 -177l-315 342l-192 -1083h-152l193 1081l-441 -346l35 197l453 340h110z" />
    <glyph glyph-name="arrowright" unicode="&#x2192;" horiz-adv-x="1607" 
d="M840 139l391 381h-1045l27 142h1063l-258 380h178l258 -403l-18 -96l-396 -404h-200z" />
    <glyph glyph-name="arrowdown" unicode="&#x2193;" horiz-adv-x="1607" 
d="M662 -4l-338 354l30 174l314 -342l192 1086h154l-195 -1084l441 348l-33 -198l-455 -338h-110z" />
    <glyph glyph-name="arrowboth" unicode="&#x2194;" horiz-adv-x="1607" 
d="M281 139l-258 404l18 96l395 403h201l-391 -380h1192l-258 380h178l258 -403l-17 -96l-397 -404h-198l389 381h-1192l258 -381h-178z" />
    <glyph glyph-name="arrowupdn" unicode="&#x2195;" horiz-adv-x="1607" 
d="M639 -145l-338 352l29 176l315 -342l211 1180l-440 -349l33 199l454 338h109l340 -354l-31 -176l-313 342l-211 -1178l440 346l-35 -196l-452 -338h-111z" />
    <glyph glyph-name="uni2196" unicode="&#x2196;" horiz-adv-x="1607" 
d="M999 1305l99 -129l-502 -37l760 -981l-113 -101l-754 973l-129 -522l-106 135l141 541l82 69z" />
    <glyph glyph-name="uni2197" unicode="&#x2197;" horiz-adv-x="1607" 
d="M207 -12l-90 116l1089 965l-489 39l141 127l506 -51l70 -86l-50 -541l-155 -135l59 522z" />
    <glyph glyph-name="uni2198" unicode="&#x2198;" horiz-adv-x="1607" 
d="M664 14l-99 129l502 37l-760 981l113 101l754 -973l129 522l106 -135l-141 -541l-82 -69z" />
    <glyph glyph-name="uni2199" unicode="&#x2199;" horiz-adv-x="1607" 
d="M1456 1331l92 -117l-1089 -964l489 -39l-141 -127l-506 51l-70 86l50 541l153 135l-57 -522z" />
    <glyph glyph-name="partialdiff" unicode="&#x2202;" horiz-adv-x="1312" 
d="M547 -33q-197 0 -317.5 115.5t-120.5 296.5q0 136 66 244t177.5 166.5t247.5 58.5q214 0 408 -150q8 76 8 152q0 200 -73 293.5t-193 93.5q-87 0 -174 -39t-193 -131l-100 86q230 240 503 240q195 0 311.5 -146t116.5 -424q0 -140 -26.5 -267t-81.5 -234.5t-133.5 -186.5
t-187.5 -123.5t-238 -44.5zM565 115q71 0 134 25t121.5 78.5t103 151t67.5 230.5q-154 113 -329 113q-153 0 -258 -94.5t-105 -237.5q0 -117 72.5 -191.5t193.5 -74.5z" />
    <glyph glyph-name="emptyset" unicode="&#x2205;" horiz-adv-x="1685" 
d="M1704 1358l-236 -209q107 -157 107 -358q0 -165 -67.5 -318t-179 -264t-262 -177.5t-308.5 -66.5q-127 0 -235.5 46.5t-186.5 129.5l-234 -207l-55 68l234 207q-107 157 -107 360q0 165 68 318t179.5 264t261.5 177.5t308 66.5q128 0 237 -46.5t187 -131.5l234 208z
M328 569q0 -148 65 -260l912 811q-120 133 -324 133q-128 0 -248.5 -55.5t-209 -147.5t-142 -218.5t-53.5 -262.5zM1423 791q0 148 -65 260l-912 -811q121 -134 326 -134q128 0 248 56t208.5 148.5t141.5 219t53 261.5z" />
    <glyph glyph-name="uni2206" unicode="&#x2206;" 
d="M6 0l19 100l733 1260h182l287 -1258l-19 -102h-1202zM229 137h789l-219 991z" />
    <glyph glyph-name="product" unicode="&#x220f;" horiz-adv-x="1445" 
d="M6 -410l80 193l246 1386l4 191h1081l-65 -191l-246 -1386l10 -193h-276l71 193l252 1427h-628l-254 -1427l4 -193h-279z" />
    <glyph glyph-name="summation" unicode="&#x2211;" horiz-adv-x="1212" 
d="M-98 -410l4 33l717 854l-414 850l4 33h1065l-39 -223l-178 69h-608l370 -747l-606 -713h598l217 68l-84 -224h-1046z" />
    <glyph glyph-name="minus" unicode="&#x2212;" 
d="M264 537l25 141h876l-24 -141h-877z" />
    <glyph glyph-name="uni2219" unicode="&#x2219;" 
d="M688 442l-145 185l202 151l144 -184z" />
    <glyph glyph-name="radical" unicode="&#x221a;" horiz-adv-x="1329" 
d="M334 0l-154 829h240l-4 -176l98 -536l721 1317h168l-785 -1434h-284z" />
    <glyph glyph-name="infinity" unicode="&#x221e;" horiz-adv-x="1712" 
d="M1270 1004q131 0 210 -91t79 -245q0 -119 -49 -222.5t-140 -167t-203 -63.5q-115 0 -186 70t-123 194q-43 -59 -80.5 -101.5t-85 -82t-100.5 -60t-111 -20.5q-133 0 -212 90t-79 244q0 119 49 223t140 168t203 64q60 0 110 -21t86.5 -60.5t62 -82.5t50.5 -101
q43 59 80.5 101t85 82.5t101.5 61t112 20.5zM498 356q43 0 83.5 19.5t80 60t69.5 79t72 99.5q-23 59 -40.5 96.5t-44 76t-60 57t-74.5 18.5q-110 0 -179 -92.5t-69 -216.5q0 -94 43.5 -145.5t118.5 -51.5zM1165 356q110 0 179 92.5t69 217.5q0 94 -43.5 145t-118.5 51
q-43 0 -83.5 -19.5t-80 -60t-69.5 -79t-72 -99.5q23 -59 40.5 -96.5t44 -76t60 -57t74.5 -18.5z" />
    <glyph glyph-name="integral" unicode="&#x222b;" horiz-adv-x="901" 
d="M109 -432q-66 0 -207 29l30 178l121 -66q4 0 17 -1t22 -1q123 0 148 148l229 1308q23 126 106.5 202.5t217.5 76.5q83 0 206 -29l-30 -176l-121 63q-12 3 -39 3q-122 0 -147 -146l-230 -1311q-23 -125 -105.5 -201.5t-217.5 -76.5z" />
    <glyph glyph-name="congruent" unicode="&#x2245;" 
d="M428 952l-106 78q63 117 130.5 162t161.5 45q47 0 106 -20.5t104 -45t95 -45t82 -20.5q65 0 105 36t74 109l108 -77q-63 -117 -131 -162t-162 -45q-48 0 -106.5 20.5t-103 45t-94.5 45t-83 20.5q-64 0 -103 -35.5t-77 -110.5zM279 602l24 141h877l-25 -141h-876zM205 188
l26 142h875l-25 -142h-876z" />
    <glyph glyph-name="approxequal" unicode="&#x2248;" 
d="M375 664l-107 75q63 118 131 163.5t162 45.5q60 0 135.5 -33t143 -65.5t108.5 -32.5q64 0 103 36t75 110l109 -78q-64 -117 -132 -163t-163 -46q-48 0 -106 21t-102.5 45.5t-94 45.5t-82.5 21q-64 0 -103 -35.5t-77 -109.5zM303 252l-108 76q64 117 131.5 163t162.5 46
q59 0 135 -33.5t144 -67t109 -33.5q63 0 102.5 36t75.5 110l106 -76q-62 -117 -130.5 -163t-162.5 -46q-48 0 -106.5 21t-103 45.5t-94.5 45.5t-83 21q-64 0 -103 -35.5t-75 -109.5z" />
    <glyph glyph-name="uni2259" unicode="&#x2259;" 
d="M313 944l508 717h166l256 -717h-158l-196 576l-404 -576h-172zM279 602l26 141h875l-25 -141h-876zM207 188l24 142h875l-25 -142h-874z" />
    <glyph glyph-name="notequal" unicode="&#x2260;" 
d="M1204 1178l-221 -295h219l-24 -140h-299l-203 -272h452l-22 -141h-537l-264 -355l-80 52l228 303h-224l25 141h305l203 272h-461l27 140h538l260 346z" />
    <glyph glyph-name="lessequal" unicode="&#x2264;" 
d="M1219 1233l26 -143l-756 -326l641 -328l-71 -129l-760 402l20 122zM164 -29l24 140h877l-25 -140h-876z" />
    <glyph glyph-name="greaterequal" unicode="&#x2265;" 
d="M268 307l-28 142l757 327l-643 326l72 131l762 -402l-23 -122zM164 -29l24 140h877l-25 -140h-876z" />
    <glyph glyph-name="filledbox" unicode="&#x25a0;" horiz-adv-x="1527" 
d="M45 18l231 1317h1270l-231 -1317h-1270z" />
    <glyph glyph-name="uni25A1" unicode="&#x25a1;" horiz-adv-x="1527" 
d="M45 18l231 1317h1270l-231 -1317h-1270zM225 164h959l180 1026h-958z" />
    <glyph glyph-name="triagup" unicode="&#x25b2;" horiz-adv-x="1538" 
d="M-74 16l1002 1389l516 -1389h-1518z" />
    <glyph glyph-name="uni25B3" unicode="&#x25b3;" horiz-adv-x="1538" 
d="M-74 16l1002 1389l516 -1389h-1518zM207 160h1024l-346 938z" />
    <glyph glyph-name="uni25B4" unicode="&#x25b4;" horiz-adv-x="952" 
d="M111 313l434 607l225 -607h-659z" />
    <glyph glyph-name="uni25B6" unicode="&#x25b6;" horiz-adv-x="1538" 
d="M41 -119l281 1594l1181 -795z" />
    <glyph glyph-name="uni25B7" unicode="&#x25b7;" horiz-adv-x="1538" 
d="M43 -119l281 1594l1181 -795zM242 152l991 538l-801 537z" />
    <glyph glyph-name="uni25B8" unicode="&#x25b8;" horiz-adv-x="952" 
d="M180 254l121 694l514 -346z" />
    <glyph glyph-name="triagdn" unicode="&#x25bc;" horiz-adv-x="1538" 
d="M674 -53l-516 1388h1517z" />
    <glyph glyph-name="uni25BD" unicode="&#x25bd;" horiz-adv-x="1536" 
d="M672 -53l-516 1388h1517zM715 254l678 938h-1026z" />
    <glyph glyph-name="uni25BE" unicode="&#x25be;" horiz-adv-x="952" 
d="M440 285l-225 602h659z" />
    <glyph glyph-name="uni25C0" unicode="&#x25c0;" horiz-adv-x="1538" 
d="M1278 -119l-1182 795l1463 799z" />
    <glyph glyph-name="uni25C1" unicode="&#x25c1;" horiz-adv-x="1538" 
d="M1276 -119l-1182 795l1462 799zM1169 129l189 1075l-991 -538z" />
    <glyph glyph-name="uni25C2" unicode="&#x25c2;" horiz-adv-x="952" 
d="M682 254l-514 348l633 346z" />
    <glyph glyph-name="uni25C6" unicode="&#x25c6;" horiz-adv-x="1579" 
d="M678 -145l-639 823l924 823l639 -823z" />
    <glyph glyph-name="uni25C7" unicode="&#x25c7;" horiz-adv-x="1579" 
d="M678 -145l-639 823l924 823l639 -823zM698 57l711 635l-467 606l-711 -634z" />
    <glyph glyph-name="lozenge" unicode="&#x25ca;" 
d="M535 0l-314 686l551 682h150l313 -684l-551 -684h-149zM627 150l440 548l-238 521l-440 -547z" />
    <glyph glyph-name="circle" unicode="&#x25cb;" horiz-adv-x="1552" 
d="M690 -41q-166 0 -297.5 79t-203.5 215.5t-72 305.5q0 162 67 316t177 267.5t258.5 183t304.5 69.5q251 0 412 -170.5t161 -427.5q0 -161 -66.5 -315t-176 -268.5t-258.5 -184.5t-306 -70zM700 100q170 0 321.5 99.5t241 260t89.5 335.5q0 200 -121.5 330t-317.5 130
q-127 0 -247.5 -59t-208 -155t-140.5 -223.5t-53 -258.5q0 -200 120 -329.5t316 -129.5z" />
    <glyph glyph-name="uni25CF" unicode="&#x25cf;" horiz-adv-x="1552" 
d="M690 -41q-166 0 -297.5 79t-203.5 215.5t-72 305.5q0 162 67 316t177 267.5t258.5 183t304.5 69.5q251 0 412 -170.5t161 -427.5q0 -161 -66.5 -315t-176 -268.5t-258.5 -184.5t-306 -70z" />
    <glyph glyph-name="uni2611" unicode="&#x2611;" horiz-adv-x="1568" 
d="M35 -6l241 1368h1313l-241 -1368h-1313zM201 127h1028l194 1102h-1028zM686 307l-252 262l78 109l162 -197l436 566l98 -70z" />
    <glyph glyph-name="uni2612" unicode="&#x2612;" horiz-adv-x="1568" 
d="M276 1362h1313l-241 -1368h-1313zM1229 127l194 1102h-1028l-194 -1102h1028zM1143 1053l74 -92l-324 -287l223 -287l-88 -80l-223 287l-322 -287l-75 90l323 289l-221 285l88 82l223 -287z" />
    <glyph glyph-name="uni2713" unicode="&#x2713;" horiz-adv-x="1488" 
d="M604 150l-395 460l100 121l287 -366l682 849l119 -92z" />
    <glyph glyph-name="uni2E18" unicode="&#x2e18;" horiz-adv-x="1028" 
d="M643 1034l152 -188l-205 -141l-154 169zM631 553l-90 -797q23 2 67 15l238 116l-68 -221q-152 -52 -252 -67l-10 -82l-90 -49l-92 36l18 82q-164 6 -258 92t-94 228q0 48 12 95t30 86t51 83t62.5 76.5t77 77t82 74t91 77.5t90.5 78h135zM500 418q-54 -54 -74 -75
t-64.5 -68.5t-62.5 -72t-47.5 -66.5t-41.5 -72.5t-22 -68.5t-10 -75q0 -81 51 -127.5t146 -46.5z" />
    <glyph glyph-name="uniFEFF" unicode="&#xfeff;" horiz-adv-x="0" 
 />
    <glyph glyph-name="NULL" horiz-adv-x="0" 
 />
    <glyph glyph-name="G.ss01" horiz-adv-x="1394" 
d="M705 -37q-272 0 -428 153.5t-156 420.5q0 251 103.5 447t289.5 304.5t424 108.5q218 0 416 -76v-225l-183 116q-113 29 -229 29q-274 0 -446 -196.5t-172 -512.5q0 -200 102.5 -307.5t292.5 -107.5q158 0 309 57l49 272l-22 191h262l-64 -191l-43 -225l4 -158
q-152 -58 -265.5 -79t-243.5 -21z" />
    <glyph glyph-name="Q.ss01" horiz-adv-x="1495" 
d="M1440 825q0 -251 -109 -454t-295 -312l150 -282h-242l-16 151l-35 68q-110 -35 -227 -35q-250 0 -399.5 156t-149.5 415q0 243 102 441.5t280 311t394 112.5q250 0 398.5 -156.5t148.5 -415.5zM918 285l36 -72q128 94 204.5 257.5t76.5 358.5q0 192 -93 301t-259 109
q-114 0 -217.5 -56.5t-178.5 -151.5t-119 -226.5t-44 -276.5q0 -193 92.5 -301t259.5 -108q68 0 139 22l-156 297h242z" />
    <glyph glyph-name="v.ss01" horiz-adv-x="1134" 
d="M406 -31q-129 0 -203 88t-74 246q0 23 1.5 48t3 45t6 50.5t6.5 46t9.5 52t10 47.5t12 52.5t11 48.5t12.5 53.5t12 50.5l-20 190q71 33 120 33q51 0 80 -28.5t29 -78.5q0 -68 -50 -276.5t-50 -317.5q0 -192 129 -192q93 0 185 88t157 243t79 335l-26 194q61 33 115 33
q52 0 82 -34t30 -105q0 -177 -57.5 -346t-150 -292.5t-214 -198.5t-245.5 -75z" />
    <glyph glyph-name="w.ss01" horiz-adv-x="1771" 
d="M1595 1020q52 0 83.5 -34.5t31.5 -104.5q0 -174 -55.5 -343.5t-144.5 -293t-203.5 -199.5t-227.5 -76q-115 0 -178 71t-80 222q-165 -293 -415 -293q-129 0 -203 88t-74 246q0 23 1.5 48t3 45t6 50.5t6.5 46t9.5 52t10 47.5t12 52.5t11 48.5t12.5 53.5t12 50.5l-20 190
q71 33 120 33q51 0 80 -28.5t29 -78.5q0 -68 -50 -276.5t-50 -317.5q0 -192 129 -192q74 0 141 49t114 125t82.5 167t52.5 175.5t17 149.5l-27 194q71 33 121 33q52 0 81.5 -31.5t29.5 -93.5q0 -105 -44 -282.5t-44 -293.5q0 -192 129 -192q93 0 182.5 90t150.5 244.5
t72 331.5l-28 194q61 33 114 33z" />
    <glyph glyph-name="wacute.ss01" horiz-adv-x="1771" 
d="M1327 1542l-323 -364h-162l264 364h221zM1595 1020q52 0 83.5 -34.5t31.5 -104.5q0 -174 -55.5 -343.5t-144.5 -293t-203.5 -199.5t-227.5 -76q-115 0 -178 71t-80 222q-165 -293 -415 -293q-129 0 -203 88t-74 246q0 23 1.5 48t3 45t6 50.5t6.5 46t9.5 52t10 47.5
t12 52.5t11 48.5t12.5 53.5t12 50.5l-20 190q71 33 120 33q51 0 80 -28.5t29 -78.5q0 -68 -50 -276.5t-50 -317.5q0 -192 129 -192q74 0 141 49t114 125t82.5 167t52.5 175.5t17 149.5l-27 194q71 33 121 33q52 0 81.5 -31.5t29.5 -93.5q0 -105 -44 -282.5t-44 -293.5
q0 -192 129 -192q93 0 182.5 90t150.5 244.5t72 331.5l-28 194q61 33 114 33z" />
    <glyph glyph-name="wcircumflex.ss01" horiz-adv-x="1771" 
d="M1020 1442l-201 -264h-198l305 364h209l178 -364h-185zM1595 1020q52 0 83.5 -34.5t31.5 -104.5q0 -174 -55.5 -343.5t-144.5 -293t-203.5 -199.5t-227.5 -76q-115 0 -178 71t-80 222q-165 -293 -415 -293q-129 0 -203 88t-74 246q0 23 1.5 48t3 45t6 50.5t6.5 46t9.5 52
t10 47.5t12 52.5t11 48.5t12.5 53.5t12 50.5l-20 190q71 33 120 33q51 0 80 -28.5t29 -78.5q0 -68 -50 -276.5t-50 -317.5q0 -192 129 -192q74 0 141 49t114 125t82.5 167t52.5 175.5t17 149.5l-27 194q71 33 121 33q52 0 81.5 -31.5t29.5 -93.5q0 -105 -44 -282.5
t-44 -293.5q0 -192 129 -192q93 0 182.5 90t150.5 244.5t72 331.5l-28 194q61 33 114 33z" />
    <glyph glyph-name="wdieresis.ss01" horiz-adv-x="1771" 
d="M936 1315l-170 -123l-111 156l168 127zM1331 1315l-168 -123l-112 156l170 127zM1595 1020q52 0 83.5 -34.5t31.5 -104.5q0 -174 -55.5 -343.5t-144.5 -293t-203.5 -199.5t-227.5 -76q-115 0 -178 71t-80 222q-165 -293 -415 -293q-129 0 -203 88t-74 246q0 23 1.5 48
t3 45t6 50.5t6.5 46t9.5 52t10 47.5t12 52.5t11 48.5t12.5 53.5t12 50.5l-20 190q71 33 120 33q51 0 80 -28.5t29 -78.5q0 -68 -50 -276.5t-50 -317.5q0 -192 129 -192q74 0 141 49t114 125t82.5 167t52.5 175.5t17 149.5l-27 194q71 33 121 33q52 0 81.5 -31.5t29.5 -93.5
q0 -105 -44 -282.5t-44 -293.5q0 -192 129 -192q93 0 182.5 90t150.5 244.5t72 331.5l-28 194q61 33 114 33z" />
    <glyph glyph-name="wgrave.ss01" horiz-adv-x="1771" 
d="M1079 1178h-149l-197 364h209zM1595 1020q52 0 83.5 -34.5t31.5 -104.5q0 -174 -55.5 -343.5t-144.5 -293t-203.5 -199.5t-227.5 -76q-115 0 -178 71t-80 222q-165 -293 -415 -293q-129 0 -203 88t-74 246q0 23 1.5 48t3 45t6 50.5t6.5 46t9.5 52t10 47.5t12 52.5
t11 48.5t12.5 53.5t12 50.5l-20 190q71 33 120 33q51 0 80 -28.5t29 -78.5q0 -68 -50 -276.5t-50 -317.5q0 -192 129 -192q74 0 141 49t114 125t82.5 167t52.5 175.5t17 149.5l-27 194q71 33 121 33q52 0 81.5 -31.5t29.5 -93.5q0 -105 -44 -282.5t-44 -293.5
q0 -192 129 -192q93 0 182.5 90t150.5 244.5t72 331.5l-28 194q61 33 114 33z" />
    <glyph glyph-name="x.ss01" horiz-adv-x="1077" 
d="M117 -25q-83 0 -144 21l37 203q75 -54 121 -54q65 0 136.5 79.5t185.5 283.5q-70 223 -150 323l-176 37q17 85 56 123.5t106 38.5q54 0 98 -30t76 -86t54 -119.5t40 -145.5q35 80 75 145.5t89 120t108 85t121 30.5q88 0 146 -20l-37 -203q-74 53 -119 53
q-63 0 -131.5 -77.5t-185.5 -280.5q71 -232 155 -330l174 -35q-29 -162 -164 -162q-44 0 -81.5 20.5t-64.5 53.5t-50.5 85t-40 105t-33.5 123q-78 -176 -178.5 -281.5t-222.5 -105.5z" />
    <glyph glyph-name="f_b" horiz-adv-x="1800" 
d="M1423 1032q130 0 212.5 -101t82.5 -265q0 -201 -81 -361t-225.5 -249t-324.5 -89q-100 0 -192 26.5t-199 76.5l211 1198l-102 65q-3 0 -16 1t-21 1q-110 0 -175.5 -65.5t-84.5 -167.5l-23 -119h226l-23 -131h-223l-174 -995q-25 -137 -108.5 -213t-217.5 -76
q-76 0 -178 22v185l121 -66q3 0 16.5 -1t22.5 -1q122 0 147 148l174 997h-174l23 131h176l22 129q13 70 45.5 129.5t86 107.5t135.5 75.5t184 27.5t205.5 -25.5t152.5 -52.5l-149 -733q67 180 188.5 285.5t259.5 105.5zM1104 109q178 0 298 147.5t120 380.5
q0 109 -48.5 175.5t-125.5 66.5q-137 0 -256.5 -170.5t-171.5 -454.5l-19 -100q103 -45 203 -45z" />
    <glyph glyph-name="f_h" horiz-adv-x="1794" 
d="M1696 762q0 -22 -10 -100l-82 -455l18 -191q-56 -34 -121 -34q-47 0 -77.5 28.5t-30.5 79.5q0 14 2.5 34t6.5 44t5 35l76 422q10 55 10 92q0 77 -34.5 117t-96.5 40q-56 0 -121.5 -47t-127.5 -129t-114.5 -207.5t-78.5 -267.5l-41 -223h-199l227 1268l-102 65q-3 0 -16 1
t-21 1q-110 0 -175.5 -65.5t-84.5 -167.5l-23 -119h226l-23 -131h-223l-174 -995q-25 -137 -108.5 -213t-217.5 -76q-76 0 -178 22v185l121 -66q3 0 16.5 -1t22.5 -1q122 0 147 148l174 997h-174l23 131h176l22 129q13 70 45.5 129.5t86 107.5t135.5 75.5t184 27.5
t205.5 -25.5t152.5 -52.5l-153 -762q75 172 206.5 296t272.5 124q112 0 179 -72t67 -198z" />
    <glyph glyph-name="f_k" horiz-adv-x="1665" 
d="M766 1452q102 0 205.5 -25.5t152.5 -52.5l-245 -1374h-195l223 1268l-102 65q-3 0 -16 1t-21 1q-110 0 -175.5 -65.5t-84.5 -167.5l-23 -119h226l-23 -131h-223l-174 -995q-25 -137 -108.5 -213t-217.5 -76q-76 0 -178 22v185l121 -66q3 0 16.5 -1t22.5 -1q122 0 147 148
l174 997h-174l23 131h176l22 129q13 70 45.5 129.5t86 107.5t135.5 75.5t184 27.5zM1722 1004l-514 -439l375 -555q-48 -30 -115 -30q-100 0 -137 100l-319 485l342 303l88 136h280z" />
    <glyph glyph-name="zero.zero" horiz-adv-x="1402" 
d="M844 1395q220 0 347.5 -149t127.5 -396q0 -140 -33 -272.5t-95 -243.5t-146.5 -194.5t-194 -130t-229.5 -46.5q-220 0 -348 149.5t-128 395.5q0 178 53.5 340.5t145 283t222.5 192t278 71.5zM827 1235q-130 0 -241 -106t-173.5 -272.5t-62.5 -346.5q0 -75 17 -152
l700 732q-73 145 -240 145zM637 125q100 0 190.5 63.5t152 166t98 233t36.5 262.5q0 87 -14 147l-703 -729q73 -143 240 -143z" />
    <glyph glyph-name="zero.osf" horiz-adv-x="1421" 
d="M631 -37q-221 0 -361.5 135t-140.5 355q0 188 84 342t240.5 244.5t355.5 90.5q224 0 363 -131t139 -350q0 -140 -49.5 -266t-137.5 -218.5t-216 -147t-277 -54.5zM647 123q136 0 243.5 76.5t162.5 194.5t55 251q0 156 -85.5 242t-229.5 86q-103 0 -191.5 -44.5
t-146.5 -117.5t-90.5 -166t-32.5 -192q0 -155 85.5 -242.5t229.5 -87.5z" />
    <glyph glyph-name="one.osf" horiz-adv-x="1040" 
d="M440 0l80 190l127 709l-536 -205l24 148l615 270h131l-162 -922l-2 -190h-277z" />
    <glyph glyph-name="two.osf" horiz-adv-x="1193" 
d="M322 156l530 4l186 47l-75 -207h-959l25 135q74 45 209 125q135 81 197 119t154 97.5t131 93.5t84 79t60 83.5t15 80.5q0 164 -236 164q-113 0 -225 -23l-238 -110l72 233q221 53 418 53q214 0 317 -79.5t103 -219.5q0 -71 -32.5 -137.5t-91 -128.5t-156.5 -130
t-212.5 -133t-275.5 -146z" />
    <glyph glyph-name="three.osf" horiz-adv-x="1214" 
d="M471 -301q-64 1 -121.5 5.5t-112 15t-85.5 17.5t-86.5 22.5t-71.5 19.5l6 233l170 -123q121 -39 276 -39q166 0 263.5 76.5t97.5 194.5q-2 122 -97.5 179.5t-312.5 57.5l31 158q226 0 348.5 74t120.5 196q0 97 -64.5 148t-183.5 51q-135 0 -250 -35l-237 -119l69 228
q134 40 235 55.5t224 15.5q198 0 306 -85t108 -236q0 -143 -96 -240t-273 -129q133 -28 210 -106t77 -207q0 -192 -147 -310.5t-404 -117.5z" />
    <glyph glyph-name="four.osf" horiz-adv-x="1345" 
d="M1133 1010l-150 -846h225l-26 -141h-224l-16 -99l-2 -188h-272l77 188l17 99h-785l19 114l901 979h322zM238 164h548l134 749z" />
    <glyph glyph-name="five.osf" horiz-adv-x="1263" 
d="M1169 938h-727l-73 -416q133 37 290 37q192 0 314.5 -106t122.5 -271q0 -222 -159.5 -352.5t-430.5 -130.5q-75 0 -142 8t-134.5 27.5t-97.5 30t-99 36.5l4 222l190 -136q125 -39 254 -39q183 0 291.5 86.5t108.5 233.5q0 108 -81 169.5t-220 61.5q-157 0 -306 -41
l-102 72l117 666h760l190 45z" />
    <glyph glyph-name="six.osf" horiz-adv-x="1339" 
d="M647 -37q-228 0 -366 151.5t-138 417.5q0 176 56.5 334t156 275t246 185.5t316.5 68.5q186 0 380 -76l-2 -225l-186 125q-86 26 -186 26q-136 0 -258.5 -69.5t-204.5 -192t-101 -270.5q220 166 465 166q171 0 283.5 -111t112.5 -283q0 -153 -79 -273.5t-209 -184.5
t-286 -64zM649 117q153 0 259 102t106 252q0 115 -71 180.5t-187 65.5q-187 0 -410 -166q-4 -32 -4 -62q0 -172 81.5 -272t225.5 -100z" />
    <glyph glyph-name="seven.osf" horiz-adv-x="1175" 
d="M193 1096h1017l-16 -92l-805 -1297l-221 70l809 1151h-662l-194 -45z" />
    <glyph glyph-name="eight.osf" horiz-adv-x="1349" 
d="M883 705q167 -84 241 -163.5t74 -187.5q0 -178 -171 -285.5t-445 -107.5q-240 0 -368 88.5t-128 226.5q0 137 106.5 235.5t329.5 184.5q-135 78 -192.5 157.5t-57.5 170.5q0 170 151.5 271.5t407.5 101.5q206 0 325.5 -83.5t119.5 -213.5q0 -131 -94 -223t-299 -172z
M807 1247q-156 0 -244 -55.5t-88 -151.5q0 -72 56.5 -133.5t207.5 -132.5q194 71 271 138.5t77 160.5q0 78 -72.5 126t-207.5 48zM606 117q171 0 272 60.5t101 166.5q0 79 -74.5 141.5t-242.5 141.5q-186 -65 -279.5 -141.5t-93.5 -174.5q0 -90 82.5 -142t234.5 -52z" />
    <glyph glyph-name="nine.osf" horiz-adv-x="1339" 
d="M438 -301q-189 0 -383 76l2 223l187 -123q96 -29 188 -29q135 0 257 70.5t203.5 193.5t100.5 271q-222 -168 -463 -168q-171 0 -284 111.5t-113 283.5q0 153 79.5 273.5t210 184.5t286.5 64q226 0 363.5 -151.5t137.5 -417.5q0 -141 -35.5 -271.5t-103.5 -237.5
t-161 -186t-214.5 -123t-257.5 -44zM600 377q184 0 410 166q2 16 2 61q0 172 -81.5 272.5t-225.5 100.5q-153 0 -259 -102t-106 -252q0 -115 71.5 -180.5t188.5 -65.5z" />
    <glyph glyph-name="zero.osf.zero" horiz-adv-x="1421" 
d="M809 1130q224 0 363 -131t139 -350q0 -140 -49.5 -266t-137.5 -218.5t-216 -147t-277 -54.5q-221 0 -361.5 135t-140.5 355q0 188 84 342t240.5 244.5t355.5 90.5zM793 973q-103 0 -191.5 -44.5t-146.5 -117.5t-90.5 -166t-32.5 -192q0 -109 41 -183l645 621
q-85 82 -225 82zM647 123q136 0 243.5 76.5t162.5 194.5t55 251q0 103 -39 176l-645 -618q86 -80 223 -80z" />
    <glyph glyph-name="zero.tf" 
d="M616 -37q-232 0 -363.5 150t-131.5 401q0 236 91 437.5t256.5 322.5t369.5 121q232 0 363.5 -150t131.5 -399q0 -175 -53 -335.5t-145.5 -282t-227.5 -193.5t-291 -72zM631 125q142 0 258 107.5t177.5 271t61.5 340.5q0 187 -78 289t-227 102q-104 0 -198 -62.5
t-158.5 -163.5t-102.5 -231.5t-38 -263.5q0 -186 78 -287.5t227 -101.5z" />
    <glyph glyph-name="one.tf" 
d="M815 150h352l-26 -150h-1035l27 150h485l179 1009l-488 -235l27 153l565 301h131z" />
    <glyph glyph-name="two.tf" 
d="M334 156l676 4l196 47l-73 -207h-1119l17 92q104 75 226 159.5t205.5 141t174.5 121t150.5 111t117 99.5t89.5 98t51.5 95.5t19.5 102.5q0 106 -78.5 164.5t-220.5 58.5q-144 0 -272 -33l-250 -120l69 233q241 72 473 72q233 0 360.5 -94t127.5 -265q0 -68 -20.5 -131
t-59 -120.5t-96.5 -114.5t-129.5 -112t-162 -114t-191 -120t-218.5 -131q-42 -24 -63 -37z" />
    <glyph glyph-name="three.tf" 
d="M571 -37q-70 0 -132.5 4.5t-120.5 15t-92 18t-91.5 23t-75.5 19.5l2 233l183 -122q139 -37 299 -37q222 0 341.5 73t119.5 203q0 116 -127 173t-390 57l31 159q276 0 427 71t151 191q0 98 -89.5 151.5t-256.5 53.5q-151 0 -273 -35l-248 -118l68 227q145 39 258 55.5
t242 16.5q250 0 380 -85.5t130 -240.5q0 -146 -120 -242.5t-335 -121.5q168 -15 270.5 -99t102.5 -219q0 -191 -173.5 -308t-480.5 -116z" />
    <glyph glyph-name="four.tf" 
d="M1217 1276l-148 -838h219l-26 -155h-222l-16 -95l-4 -188h-275l80 190l17 93h-828l21 123l930 974h338zM285 438h583l138 764z" />
    <glyph glyph-name="five.tf" 
d="M1315 1202h-828l-73 -414q158 35 329 35q242 0 369 -98.5t127 -280.5q0 -219 -164.5 -350t-478.5 -131q-113 0 -224.5 19.5t-158.5 35t-141 48.5l2 221l196 -135q122 -39 295 -39q217 0 339 84t122 231q0 236 -367 236q-184 0 -342 -41l-104 71l119 666h854l196 45z" />
    <glyph glyph-name="six.tf" 
d="M686 -37q-261 0 -412 153t-151 433q0 135 35 260.5t105 231.5t167.5 185.5t230 124t285.5 44.5q216 0 416 -76v-225l-193 125q-88 26 -219 26q-239 0 -403 -141.5t-205 -390.5q235 168 489 168q215 0 335 -110.5t120 -293.5q0 -147 -78.5 -265t-216 -183.5t-305.5 -65.5z
M684 117q171 0 283 100.5t112 249.5q0 119 -78.5 184.5t-220.5 65.5q-233 0 -456 -168v-55q0 -175 94 -276t266 -101z" />
    <glyph glyph-name="seven.tf" 
d="M287 1360h1153l-17 -90l-843 -1297l-218 70l846 1149h-788l-203 -45z" />
    <glyph glyph-name="eight.tf" 
d="M924 705q182 -81 264 -163.5t82 -191.5q0 -118 -83 -206t-234 -135.5t-349 -47.5q-266 0 -405.5 90t-139.5 230q0 137 113.5 235.5t355.5 181.5q-154 77 -215 156.5t-61 173.5q0 169 161.5 269t442.5 100q227 0 358.5 -84.5t131.5 -214.5q0 -135 -96 -225t-326 -168z
M457 1036q0 -74 64.5 -135t238.5 -131q215 69 305 135.5t90 155.5q0 86 -83.5 136t-242.5 50q-178 0 -275 -58t-97 -153zM627 117q197 0 310.5 60.5t113.5 168.5q0 81 -84 142t-283 143q-214 -67 -319 -140.5t-105 -168.5q0 -97 94.5 -151t272.5 -54z" />
    <glyph glyph-name="nine.tf" 
d="M508 -37q-216 0 -416 76v225l193 -125q88 -26 219 -26q239 0 403 141.5t205 390.5q-235 -168 -489 -168q-215 0 -334 110.5t-119 293.5q0 147 78 265t215 183.5t305 65.5q261 0 412 -153t151 -433q0 -135 -35 -260.5t-105 -231.5t-167.5 -185.5t-230 -124t-285.5 -44.5z
M674 641q233 0 456 168v55q0 175 -94 276t-266 101q-171 0 -283 -100.5t-112 -249.5q0 -119 78.5 -184.5t220.5 -65.5z" />
    <glyph glyph-name="zero.tf.zero" 
d="M838 1395q232 0 363.5 -150t131.5 -399q0 -175 -53 -335.5t-145.5 -282t-227.5 -193.5t-291 -72q-232 0 -363.5 150t-131.5 401q0 236 91 437.5t256.5 322.5t369.5 121zM823 1235q-104 0 -198 -62.5t-158.5 -163.5t-102.5 -231.5t-38 -263.5q0 -90 18 -158l733 734
q-76 145 -254 145zM631 125q142 0 258 107.5t177.5 271t61.5 340.5q0 86 -18 157l-733 -733q76 -143 254 -143z" />
    <glyph glyph-name="zero.tosf" 
d="M614 -37q-226 0 -369 134.5t-143 355.5q0 188 85 342t244 244.5t362 90.5q232 0 373 -130.5t141 -350.5q0 -141 -50 -266.5t-138.5 -218t-219.5 -147t-285 -54.5zM631 123q142 0 252 76.5t165.5 194.5t55.5 251q0 156 -87.5 242t-240.5 86q-141 0 -250.5 -76t-165 -193.5
t-55.5 -250.5q0 -156 87 -243t239 -87z" />
    <glyph glyph-name="one.tosf" 
d="M860 150h348l-24 -150h-1034l26 150h486l133 749l-519 -199l25 146l598 266h131z" />
    <glyph glyph-name="two.tosf" 
d="M383 156l618 4l199 47l-74 -207h-1095l24 135q98 55 215 117.5t195.5 104t166 89.5t143.5 82.5t110.5 73.5t85 71.5t49 69t18.5 72.5q0 52 -26.5 86t-99.5 55t-197 21q-128 0 -250 -23l-250 -110l70 233q238 53 452 53q142 0 242 -20.5t158 -61t84 -94.5t26 -127
q0 -105 -72.5 -199.5t-264.5 -211t-527 -260.5z" />
    <glyph glyph-name="three.tosf" 
d="M524 -301q-70 0 -132 4.5t-119.5 15t-91.5 18t-91.5 23t-75.5 19.5l2 233l183 -123q133 -39 299 -39q221 0 340.5 74t119.5 203q0 117 -126.5 174t-389.5 57l29 158q277 0 428.5 72t151.5 192q0 98 -89.5 151.5t-256.5 53.5q-154 0 -273 -35l-248 -119l68 228
q147 38 260 54.5t240 16.5q248 0 379 -86t131 -239q0 -146 -120 -243t-335 -122q168 -15 270.5 -99.5t102.5 -219.5q0 -189 -174 -306t-482 -116z" />
    <glyph glyph-name="four.tosf" 
d="M1169 1012l-147 -838h219l-27 -158h-221l-16 -92l-2 -188h-277l82 190l17 90h-830l21 125l930 975h337zM238 174h585l135 764z" />
    <glyph glyph-name="five.tosf" 
d="M1268 938h-828l-73 -416q167 37 329 37q242 0 369 -99t127 -282q0 -217 -164.5 -348t-478.5 -131q-114 0 -222 18t-163.5 35.5t-138.5 48.5l2 222l196 -136q122 -39 295 -39q217 0 339 84.5t122 231.5q0 235 -367 235q-184 0 -342 -41l-104 72l119 666h854l196 45z" />
    <glyph glyph-name="six.tosf" 
d="M686 -37q-261 0 -412 153t-151 433q0 135 35 260.5t105 231.5t167.5 185.5t230 124t285.5 44.5q216 0 416 -76v-225l-193 125q-88 26 -219 26q-239 0 -403 -141.5t-205 -390.5q235 168 489 168q215 0 335 -110.5t120 -293.5q0 -147 -78.5 -265t-216 -183.5t-305.5 -65.5z
M684 117q171 0 283 100.5t112 249.5q0 119 -78.5 184.5t-220.5 65.5q-233 0 -456 -168v-55q0 -175 94 -276t266 -101z" />
    <glyph glyph-name="seven.tosf" 
d="M242 1096h1153l-17 -90l-846 -1299l-215 70l844 1151h-788l-201 -47z" />
    <glyph glyph-name="eight.tosf" 
d="M924 705q182 -81 264 -163.5t82 -191.5q0 -118 -83 -206t-234 -135.5t-349 -47.5q-266 0 -405.5 90t-139.5 230q0 137 113.5 235.5t355.5 181.5q-154 77 -215 156.5t-61 173.5q0 169 161.5 269t442.5 100q227 0 358.5 -84.5t131.5 -214.5q0 -135 -96 -225t-326 -168z
M457 1036q0 -74 64.5 -135t238.5 -131q215 69 305 135.5t90 155.5q0 86 -83.5 136t-242.5 50q-178 0 -275 -58t-97 -153zM627 117q197 0 310.5 60.5t113.5 168.5q0 81 -84 142t-283 143q-214 -67 -319 -140.5t-105 -168.5q0 -97 94.5 -151t272.5 -54z" />
    <glyph glyph-name="nine.tosf" 
d="M461 -301q-224 0 -416 76v223l195 -123q98 -29 217 -29q238 0 403 142t207 391q-237 -166 -492 -166q-214 0 -333 110.5t-119 292.5q0 147 78.5 265t215.5 183.5t304 65.5q261 0 412 -152.5t151 -432.5q0 -135 -35 -260.5t-105 -231.5t-167.5 -185.5t-230 -124
t-285.5 -44.5zM627 377q236 0 456 168v55q0 175 -94 276t-266 101q-170 0 -282.5 -101t-112.5 -249q0 -119 78.5 -184.5t220.5 -65.5z" />
    <glyph glyph-name="zero.tosf.zero" 
d="M793 1130q232 0 373 -130.5t141 -350.5q0 -141 -50 -266.5t-138.5 -218t-219.5 -147t-285 -54.5q-226 0 -369 134.5t-143 355.5q0 188 85 342t244 244.5t362 90.5zM776 973q-141 0 -250.5 -76t-165 -193.5t-55.5 -250.5q0 -113 45 -189l658 631q-87 78 -232 78zM631 123
q142 0 252 76.5t165.5 194.5t55.5 251q0 111 -43 184l-655 -630q85 -76 225 -76z" />
    <glyph glyph-name="zero.dnom" horiz-adv-x="798" 
d="M315 -18q-114 0 -189 74.5t-75 207.5q0 119 42 219t129.5 164t205.5 64q114 0 190 -74.5t76 -208.5q0 -119 -42.5 -219t-130.5 -163.5t-206 -63.5zM328 82q68 0 121 52t79.5 133.5t26.5 174.5q0 88 -37.5 129t-101.5 41q-101 0 -163.5 -107.5t-62.5 -252.5
q0 -88 37.5 -129t100.5 -41z" />
    <glyph glyph-name="one.dnom" horiz-adv-x="573" 
d="M154 0l49 100l84 467l-242 -125l18 107l287 151h103l-109 -600l2 -100h-192z" />
    <glyph glyph-name="two.dnom" horiz-adv-x="731" 
d="M141 98l334 4l103 25l-39 -127h-564l15 70l-2 4q45 33 113 81t104.5 74.5t85.5 63.5t74.5 61.5t51 54t36 55.5t10.5 52q0 96 -121 96q-55 0 -121 -16l-129 -59l41 141q132 33 238 33q123 0 184 -49t61 -134q0 -28 -9 -55t-20.5 -50t-37.5 -50t-45.5 -46t-59.5 -47
t-64 -44t-75.5 -46t-78 -44.5t-85.5 -47.5z" />
    <glyph glyph-name="three.dnom" horiz-adv-x="735" 
d="M276 -16q-116 0 -268 36l-4 140l96 -62q71 -18 152 -18q83 0 133.5 32t50.5 93q0 52 -47 80t-174 28l16 88q250 0 250 127q0 90 -127 90q-61 0 -129 -14l-141 -63l39 139q148 31 264 31q119 0 182.5 -44t63.5 -124q0 -149 -193 -183q68 -14 111 -56.5t43 -104.5
q0 -103 -83.5 -159t-234.5 -56z" />
    <glyph glyph-name="four.dnom" horiz-adv-x="735" 
d="M598 639l-70 -406h109l-14 -90h-111l-8 -45v-98h-180l41 98l8 45h-404l11 68l438 489h231zM125 233h264l68 371z" />
    <glyph glyph-name="five.dnom" horiz-adv-x="747" 
d="M643 590h-401l-35 -193q87 23 162 23q110 0 175.5 -50.5t65.5 -142.5q0 -112 -88.5 -177.5t-234.5 -65.5q-61 0 -116 9t-82 17.5t-69 24.5l-4 131l105 -68q68 -20 145 -20q87 0 140 37.5t53 103.5q0 52 -39.5 80.5t-110.5 28.5q-59 0 -159 -21l-64 43l59 344h437l104 25z
" />
    <glyph glyph-name="six.dnom" horiz-adv-x="790" 
d="M342 -16q-135 0 -213 75.5t-78 223.5q0 183 114 306.5t306 123.5q108 0 217 -39l4 -137l-96 61q-59 18 -121 18q-105 0 -180 -67t-92 -187q105 84 241 84q96 0 157 -53t61 -137q0 -115 -90.5 -193.5t-229.5 -78.5zM344 82q72 -3 124 46.5t52 121.5q0 51 -32 78.5
t-89 27.5q-54 0 -100.5 -17t-108.5 -58v-15q0 -181 154 -184z" />
    <glyph glyph-name="seven.dnom" horiz-adv-x="698" 
d="M100 692h559l-12 -78l-422 -628l-155 43l432 553h-342l-105 -25z" />
    <glyph glyph-name="eight.dnom" horiz-adv-x="788" 
d="M494 360q90 -38 126.5 -77t36.5 -95q0 -98 -99 -152t-259 -54q-135 0 -211 43.5t-76 121.5q0 133 228 207q-134 65 -134 164q0 90 91.5 142.5t232.5 52.5q124 0 194 -45t70 -119q0 -64 -50 -109t-150 -80zM416 627q-76 0 -123 -28t-47 -77q0 -37 32.5 -65.5t110.5 -57.5
q97 32 133.5 64.5t36.5 73.5q0 40 -37.5 65t-105.5 25zM311 70q91 0 146 28.5t55 87.5q0 36 -39.5 66t-128.5 63q-192 -56 -192 -151q0 -44 41.5 -69t117.5 -25z" />
    <glyph glyph-name="nine.dnom" horiz-adv-x="788" 
d="M264 -16q-116 0 -217 36l-4 138l96 -62q53 -16 121 -16q104 0 179.5 67t92.5 185q-102 -82 -241 -82q-96 0 -156.5 52t-60.5 138q0 114 90 193.5t229 79.5q135 0 213 -76t78 -223q0 -184 -113.5 -307t-306.5 -123zM336 338q54 0 100.5 17.5t108.5 60.5v14q0 181 -154 184
q-72 2 -124 -48t-52 -120q0 -51 32 -79.5t89 -28.5z" />
    <glyph glyph-name="zero.numr" horiz-adv-x="798" 
d="M432 649q-114 0 -189 75t-75 208q0 119 42 219t129.5 163.5t205.5 63.5q114 0 190 -74t76 -208q0 -119 -42.5 -219t-130.5 -164t-206 -64zM444 750q68 0 121 52t80 133.5t27 174.5q0 88 -38 129t-102 41q-101 0 -163 -107t-62 -253q0 -88 37 -129t100 -41z" />
    <glyph glyph-name="one.numr" horiz-adv-x="573" 
d="M270 668l49 100l84 467l-241 -125l18 107l287 151h102l-108 -600l2 -100h-193z" />
    <glyph glyph-name="two.numr" horiz-adv-x="731" 
d="M258 766l334 4l102 25l-39 -127h-563l14 69l-2 4q45 33 113 81t104.5 74.5t85.5 64t74.5 61.5t51.5 54t36.5 56t10.5 52q0 96 -121 96q-55 0 -121 -16l-129 -60l41 142q128 32 237 32q123 0 184.5 -48.5t61.5 -133.5q0 -28 -9 -55t-20.5 -50t-37.5 -50t-45.5 -46
t-59.5 -47t-64 -44t-75.5 -46t-78 -44.5t-85.5 -47.5z" />
    <glyph glyph-name="three.numr" horiz-adv-x="735" 
d="M393 651q-112 0 -268 37l-4 139l96 -61q70 -18 152 -18q83 0 133.5 31.5t50.5 92.5q0 52 -47.5 80.5t-173.5 28.5l16 88q250 0 250 127q0 90 -127 90q-61 0 -129 -14l-141 -64l39 140q143 30 264 30q119 0 182.5 -44t63.5 -124q0 -148 -193 -182q68 -14 111 -57t43 -105
q0 -103 -83.5 -159t-234.5 -56z" />
    <glyph glyph-name="four.numr" horiz-adv-x="735" 
d="M715 1307l-70 -406h109l-15 -90h-110l-8 -45v-98h-181l41 98l8 45h-403l10 68l439 489h231zM242 901h264l67 371z" />
    <glyph glyph-name="five.numr" horiz-adv-x="747" 
d="M760 1257h-402l-34 -192q83 22 161 22q110 0 176 -50t66 -142q0 -112 -89 -178t-235 -66q-61 0 -115.5 9t-81.5 17.5t-69 24.5l-4 132l105 -68q72 -21 145 -21q86 0 139 38t53 104q0 52 -39 80t-110 28q-65 0 -160 -20l-63 43l59 344h436l105 24z" />
    <glyph glyph-name="six.numr" horiz-adv-x="790" 
d="M459 651q-135 0 -213 75.5t-78 223.5q0 183 114 306.5t306 123.5q108 0 217 -39l4 -137l-96 62q-59 18 -121 18q-105 0 -180.5 -67t-92.5 -187q105 84 242 84q96 0 156.5 -53t60.5 -137q0 -116 -90 -194.5t-229 -78.5zM461 750q72 -3 124 46.5t52 121.5q0 51 -32 78.5
t-89 27.5q-53 0 -100 -17t-109 -59v-14q0 -181 154 -184z" />
    <glyph glyph-name="seven.numr" horiz-adv-x="698" 
d="M244 1360h559l-12 -78l-422 -629l-156 43l432 553h-342l-104 -24z" />
    <glyph glyph-name="eight.numr" horiz-adv-x="788" 
d="M610 1028q90 -38 127 -77t37 -95q0 -99 -99 -153t-259 -54q-135 0 -211 44t-76 122q0 134 227 207q-133 65 -133 164q0 90 91.5 142t232.5 52q124 0 194 -45t70 -118q0 -64 -50 -109t-151 -80zM532 1294q-76 0 -123 -27.5t-47 -76.5q0 -37 33 -65.5t111 -57.5
q97 32 133.5 64t36.5 73q0 40 -38 65t-106 25zM428 737q91 0 146 29t55 88q0 36 -39.5 66t-128.5 63q-193 -56 -193 -152q0 -44 42 -69t118 -25z" />
    <glyph glyph-name="nine.numr" horiz-adv-x="788" 
d="M381 651q-113 0 -217 37l-4 137l96 -61q53 -16 121 -16q104 0 179.5 66.5t92.5 184.5q-101 -81 -241 -81q-96 0 -157 52.5t-61 137.5q0 114 90.5 193t229.5 79q135 0 213 -76t78 -223q0 -184 -113.5 -307t-306.5 -123zM453 1006q54 0 101 17t108 60v15q0 181 -154 184
q-72 2 -124 -48t-52 -120q0 -51 32 -79.5t89 -28.5z" />
    <glyph glyph-name="colon.case" horiz-adv-x="544" 
d="M340 872l-154 195l213 162l154 -195zM209 137l-154 195l215 160l152 -195z" />
    <glyph glyph-name="exclamdown.case" horiz-adv-x="526" 
d="M422 1399l137 -176l-192 -148l-140 176zM401 928l-82 -856l-149 -107l-107 121l224 842h114z" />
    <glyph glyph-name="questiondown.case" horiz-adv-x="1028" 
d="M713 1399l139 -176l-195 -148l-137 176zM715 930q-40 -46 -108 -119.5t-105.5 -115.5t-86.5 -102t-74 -102t-43.5 -91t-18.5 -93q0 -90 55.5 -143t152.5 -53q59 0 152 22l274 133l-71 -233q-243 -72 -406 -72q-170 0 -270 90t-100 236q0 46 12.5 91.5t30 83.5t52 83.5
t62 77t77 78t81.5 74.5t90.5 78t89.5 77h154z" />
    <glyph glyph-name="periodcentered.case" horiz-adv-x="544" 
d="M276 518l-153 195l213 159l153 -194z" />
    <glyph glyph-name="bullet.case" horiz-adv-x="1081" 
d="M516 362l-285 369l404 305l285 -368z" />
    <glyph glyph-name="slash.case" horiz-adv-x="911" 
d="M-20 -74l839 1508h176l-839 -1508h-176z" />
    <glyph glyph-name="backslash.case" horiz-adv-x="888" 
d="M565 -74l-336 1508h158l338 -1508h-160z" />
    <glyph glyph-name="parenleft.case" horiz-adv-x="770" 
d="M459 -334q-137 214 -207 424t-70 440q0 319 161 612t462 531l88 -92q-255 -218 -397 -492.5t-142 -558.5q0 -212 51 -392t164 -400z" />
    <glyph glyph-name="parenright.case" horiz-adv-x="774" 
d="M27 -340l-90 92q256 216 398 491t142 560q0 210 -52 390.5t-165 401.5l111 72q137 -214 207.5 -424t70.5 -440q0 -320 -160.5 -613.5t-461.5 -529.5z" />
    <glyph glyph-name="braceleft.case" horiz-adv-x="681" 
d="M373 -340q-103 60 -148 128.5t-45 166.5q0 42 10 104l68 377q6 30 6 56q0 58 -34 82t-117 24l16 133q97 0 145 37t62 119l72 405q27 142 100 233t211 142l82 -88q-102 -49 -151 -122t-70 -191l-70 -385q-19 -103 -72 -154t-153 -63q72 -11 111.5 -55t39.5 -117
q0 -33 -6 -70l-68 -385q-10 -55 -10 -94q0 -68 25.5 -113t97.5 -102z" />
    <glyph glyph-name="braceright.case" horiz-adv-x="686" 
d="M20 -340l-81 88q102 49 151 122.5t70 192.5l69 386q19 102 73 153.5t153 61.5q-73 11 -112.5 55t-39.5 117q0 35 6 69l68 385q10 58 10 94q0 68 -25.5 113t-97.5 102l105 68q102 -60 146 -128t44 -167q0 -58 -10 -102l-66 -379q-6 -30 -6 -55q0 -57 34.5 -82t117.5 -25
l-19 -131q-97 0 -144.5 -37.5t-62.5 -120.5l-71 -405q-25 -140 -99 -231t-213 -144z" />
    <glyph glyph-name="bracketleft.case" horiz-adv-x="645" 
d="M37 -324l348 1966h356l-24 -141h-191l-297 -1683h191l-25 -142h-358z" />
    <glyph glyph-name="bracketright.case" horiz-adv-x="645" 
d="M-41 -324l25 142h190l297 1683h-190l26 141h357l-347 -1966h-358z" />
    <glyph glyph-name="hyphen.case" horiz-adv-x="665" 
d="M94 627l27 145h516l-25 -145h-518z" />
    <glyph glyph-name="uni00AD.case" horiz-adv-x="665" 
d="M94 627l27 145h516l-25 -145h-518z" />
    <glyph glyph-name="endash.case" horiz-adv-x="1542" 
d="M182 602l25 141h1214l-24 -141h-1215z" />
    <glyph glyph-name="emdash.case" horiz-adv-x="1878" 
d="M182 602l25 141h1550l-24 -141h-1551z" />
    <glyph glyph-name="figuredash.case" 
d="M184 606l23 139h1065l-25 -139h-1063z" />
    <glyph glyph-name="uni2011.case" horiz-adv-x="665" 
d="M92 600l25 145h516l-23 -145h-518z" />
    <glyph glyph-name="guillemotleft.case" horiz-adv-x="968" 
d="M315 299l-180 367l10 63l297 371h154l-285 -406l140 -395h-136zM690 299l-180 367l10 63l297 371h154l-285 -406l139 -395h-135z" />
    <glyph glyph-name="guillemotright.case" horiz-adv-x="966" 
d="M346 1100l180 -369l-10 -63l-297 -369h-151l282 406l-139 395h135zM721 1100l180 -369l-10 -63l-297 -369h-152l283 406l-139 395h135z" />
    <glyph glyph-name="guilsinglleft.case" horiz-adv-x="593" 
d="M315 299l-180 367l10 63l297 371h154l-285 -406l140 -395h-136z" />
    <glyph glyph-name="guilsinglright.case" horiz-adv-x="591" 
d="M346 1100l180 -369l-10 -63l-297 -369h-151l282 406l-139 395h135z" />
    <glyph glyph-name="at.case" horiz-adv-x="2076" 
d="M1075 -186q-195 0 -359.5 52.5t-287 152.5t-191.5 256t-69 354t75 366.5t205.5 284t309.5 180t383 64.5q192 0 352.5 -58.5t267 -159t165.5 -234.5t59 -284q0 -123 -37 -226t-100 -171.5t-146.5 -106.5t-177.5 -38q-101 0 -165 49.5t-77 138.5q-52 -85 -137 -133.5
t-193 -48.5q-57 0 -109.5 20.5t-96.5 61.5t-70.5 111t-26.5 159q0 102 34 192t96 159t157 109t211 40q113 0 235 -37l140 25l-84 -471q-11 -64 -11 -117q0 -58 29 -91.5t90 -33.5q107 0 192 111.5t85 293.5q0 124 -45 231.5t-129 189t-216 128.5t-296 47
q-168 0 -312.5 -53.5t-249 -149.5t-164 -237.5t-59.5 -310.5t54.5 -297t155 -208.5t237.5 -120.5t309 -40q102 0 204 13.5t167 28t161 40.5l-24 -147q-262 -84 -541 -84zM1012 387q92 0 164 65t94 187l57 322q-85 20 -168 20q-82 0 -147 -31.5t-104.5 -85t-60 -118
t-20.5 -134.5q0 -112 48.5 -168.5t136.5 -56.5z" />
    <glyph glyph-name="uni0308.case" horiz-adv-x="0" 
d="M-694 1485l-113 153l170 123l111 -155zM-254 1485l-113 153l168 123l113 -155z" />
    <glyph glyph-name="uni0307.case" horiz-adv-x="0" 
d="M-76 1485l-147 151l194 125l148 -153z" />
    <glyph glyph-name="gravecomb.case" horiz-adv-x="0" 
d="M-477 1489l-309 297h225l248 -297h-164z" />
    <glyph glyph-name="acutecomb.case" horiz-adv-x="0" 
d="M-629 1489l344 297h248l-405 -297h-187z" />
    <glyph glyph-name="uni030B.case" horiz-adv-x="0" 
d="M-778 1489l350 299h225l-411 -299h-164zM-395 1489l348 299h225l-409 -299h-164z" />
    <glyph glyph-name="uni0302.case" horiz-adv-x="0" 
d="M-831 1489l307 297h215l203 -297h-195l-121 199l-196 -199h-213z" />
    <glyph glyph-name="uni030C.case" horiz-adv-x="0" 
d="M-578 1489l-200 297h192l123 -199l195 199h213l-305 -297h-218z" />
    <glyph glyph-name="uni0306.case" horiz-adv-x="0" 
d="M-465 1481q-130 0 -201 66.5t-71 178.5q0 30 6 64h131q-2 -14 -2 -37q0 -115 156 -115q172 0 215 152h131q-62 -309 -365 -309z" />
    <glyph glyph-name="uni030A.case" horiz-adv-x="0" 
d="M-459 1477q-92 0 -151.5 56t-59.5 144q0 107 76.5 178.5t187.5 71.5q91 0 151 -56t60 -145q0 -105 -76.5 -177t-187.5 -72zM-451 1583q56 0 97 40t41 99q0 43 -28 70t-71 27q-58 0 -98.5 -39t-40.5 -101q0 -42 28 -69t72 -27z" />
    <glyph glyph-name="tildecomb.case" horiz-adv-x="0" 
d="M-322 1483q-43 0 -79 16.5t-59 39.5t-42 46.5t-39.5 40t-40.5 16.5q-62 0 -102 -149h-123q59 301 246 301q43 0 78.5 -16.5t58.5 -40t42 -47t39 -40t40 -16.5q59 0 102 150h123q-59 -301 -244 -301z" />
    <glyph glyph-name="uni0304.case" horiz-adv-x="0" 
d="M-766 1575l29 149h622l-26 -149h-625z" />
    <glyph glyph-name="uni0338.case" horiz-adv-x="0" 
d="M-1282 -63l-66 67l1403 1419l66 -69z" />
    <glyph glyph-name="uni0308.narrow" horiz-adv-x="0" 
d="M-193 1315l-167 -123l-89 121l-167 -121l-111 156l168 127l88 -125l166 125z" />
    <glyph glyph-name="gravecomb.narrow" horiz-adv-x="0" 
d="M-537 1178l-90 364h189l43 -364h-142z" />
    <glyph glyph-name="acutecomb.narrow" horiz-adv-x="0" 
d="M-584 1178l164 364h199l-221 -364h-142z" />
    <glyph glyph-name="uni0302.narrow" horiz-adv-x="0" 
d="M-727 1178l180 364h248l57 -364h-157l-35 276l-133 -276h-160z" />
    <glyph glyph-name="uni0308.case.narrow" horiz-adv-x="0" 
d="M-633 1481l-112 155l167 125l113 -157zM-317 1481l-111 155l168 125l110 -157z" />
    <glyph glyph-name="gravecomb.case.narrow" horiz-adv-x="0" 
d="M-520 1489l-137 297h198l82 -297h-143z" />
    <glyph glyph-name="acutecomb.case.narrow" horiz-adv-x="0" 
d="M-602 1489l176 297h213l-240 -297h-149z" />
    <glyph glyph-name="uni0302.case.narrow" horiz-adv-x="0" 
d="M-729 1489l207 297h243l119 -297h-157l-86 213l-162 -213h-164z" />
    </font>
</defs>
</svg>
