<?xml version="1.0" standalone="no"?>
<!DOCTYPE svg PUBLIC "-//W3C//DTD SVG 1.1//EN" "http://www.w3.org/Graphics/SVG/1.1/DTD/svg11.dtd" >
<svg xmlns="http://www.w3.org/2000/svg" xmlns:xlink="http://www.w3.org/1999/xlink" version="1.1">
<metadata>
Created by FontForge 20201107 at Mon Nov 11 12:04:46 2024
 By 
Copyright (c) 2016-2020 by Alejandro Paul. All rights reserved. www.sudtipos.com, with Reserved Font Name "Henderson Sans"
</metadata>
<defs>
<font id="HendersonSansBasic-BoldItalic" horiz-adv-x="0" >
  <font-face 
    font-family="Henderson Sans Basic"
    font-weight="700"
    font-style="italic"
    font-stretch="normal"
    units-per-em="2048"
    panose-1="2 0 5 5 3 0 0 2 0 4"
    ascent="1638"
    descent="-410"
    x-height="1067"
    cap-height="1419"
    bbox="-875 -811.087 3059 2022"
    underline-thickness="106"
    underline-position="-213"
    unicode-range="U+0020-FB02"
  />
<missing-glyph horiz-adv-x="1066" 
d="M875 1647v-2133h-677v2133h677zM710 1504h-352v-70h139v-79h-141v-71h354v71h-140v79h140v70zM570 1229h-214v-222h354v72h-140v150zM497 1156v-77h-70v77h70zM710 949h-354v-70h141v-79h-141v-70h214v149h140v70zM710 821h-70v-140h-284v-73h354v213zM710 561h-213v-119
h73v49h70v-101h-213v171h-71v-241h354v241zM710 192h-354v-241h354v241zM640 122v-101h-213v101h213zM710 -98h-354v-71h150l-150 -100v-70h354v70h-217l149 100h68v71z" />
    <glyph glyph-name="fi" unicode="fi" horiz-adv-x="1691" 
d="M1444 1203q-76 0 -122 44t-46 114q0 102 72 169.5t165 67.5q76 0 121 -44t45 -114q0 -103 -71.5 -170t-163.5 -67zM1084 0l141 809h-613l-141 -809h-307l135 766h-150l54 301l149 2q21 116 64.5 192.5t118 120.5t171 61.5t235.5 17.5l-47 -264q-113 0 -158 -24t-70 -106
h915l-190 -1067h-307z" />
    <glyph glyph-name="fl" unicode="fl" horiz-adv-x="1706" 
d="M894 1199q-113 0 -159.5 -25t-71.5 -107h143l-53 -301h-149l-135 -766h-307l135 766h-150l54 301l149 2q20 115 63 191.5t117.5 121.5t171 63t235.5 18h637l-177 -1006q-8 -40 -8 -77q0 -49 22 -68.5t74 -19.5q74 0 126 9l-52 -301q-71 -13 -189 -13q-151 0 -224 73.5
t-73 225.5q0 79 15 158l134 755h-328z" />
    <glyph glyph-name=".notdef" horiz-adv-x="1066" 
d="M875 1647v-2133h-677v2133h677zM710 1504h-352v-70h139v-79h-141v-71h354v71h-140v79h140v70zM570 1229h-214v-222h354v72h-140v150zM497 1156v-77h-70v77h70zM710 949h-354v-70h141v-79h-141v-70h214v149h140v70zM710 821h-70v-140h-284v-73h354v213zM710 561h-213v-119
h73v49h70v-101h-213v171h-71v-241h354v241zM710 192h-354v-241h354v241zM640 122v-101h-213v101h213zM710 -98h-354v-71h150l-150 -100v-70h354v70h-217l149 100h68v71z" />
    <glyph glyph-name=".null" 
 />
    <glyph glyph-name="nonmarkingreturn" horiz-adv-x="682" 
 />
    <glyph glyph-name="space" unicode=" " horiz-adv-x="682" 
 />
    <glyph glyph-name="exclam" unicode="!" horiz-adv-x="729" 
d="M320 1419h397l-54 -303l-202 -657h-222l28 657zM271 -36q98 0 167.5 68t69.5 175q0 71 -46.5 113.5t-124.5 42.5q-98 0 -167.5 -68.5t-69.5 -175.5q0 -71 46 -113t125 -42z" />
    <glyph glyph-name="quotedbl" unicode="&#x22;" horiz-adv-x="1326" 
d="M335 1419h397l-54 -303l-157 -414h-222l-17 414zM905 1419h396l-53 -303l-158 -414h-222l-17 414z" />
    <glyph glyph-name="numbersign" unicode="#" horiz-adv-x="1339" 
d="M631 924l233 309h85l-232 -309h298l233 309h85l-232 -309h262l-15 -86h-311l-226 -298h335l-15 -86h-384l-235 -311h-85l234 311h-298l-235 -311h-85l234 311h-236l14 86h286l226 298h-309l15 86h358zM725 540l226 298h-298l-226 -298h298z" />
    <glyph glyph-name="dollar" unicode="$" horiz-adv-x="1397" 
d="M331 506q15 -48 72.5 -84t125 -52t130.5 -16q346 0 346 145q0 41 -44.5 63t-115.5 29.5t-157 11.5t-172.5 16.5t-157.5 37t-115.5 80.5t-44.5 140q0 72 24 134t66 107t94 81t114.5 59.5t121 38t118.5 21.5l30 165h224l-30 -173q92 -15 169 -47.5t136 -90.5t75 -133
l-237 -102q-15 48 -72.5 80.5t-122.5 45t-131 12.5q-121 0 -201.5 -30.5t-80.5 -95.5q0 -36 34 -59t89.5 -32t126.5 -16.5t144.5 -13t144.5 -22.5t126.5 -43t89.5 -76.5t34 -121.5q0 -92 -33.5 -169.5t-87.5 -130t-126 -92t-144.5 -60.5t-147.5 -30l-26 -147h-226l25 145
q-363 31 -424 322z" />
    <glyph glyph-name="percent" unicode="%" horiz-adv-x="2139" 
d="M602 -36l-69 42l1076 1434l66 -43zM518 493q146 0 269 68.5t197 197.5t74 293q0 161 -102 256.5t-280 95.5q-108 0 -207 -40t-173 -111t-118 -176.5t-44 -227.5q0 -164 102.5 -260t281.5 -96zM830 937q-21 -113 -95 -177.5t-182 -64.5q-92 0 -143.5 53.5t-51.5 145.5
q0 140 79.5 223.5t202.5 83.5q93 0 144.5 -53.5t51.5 -146.5q0 -33 -6 -64zM1523 -17q145 0 268 68t197.5 196t74.5 291q0 162 -103 259t-281 97q-145 0 -268 -68t-197.5 -196t-74.5 -291q0 -164 102.5 -260t281.5 -96zM1841 491q0 -123 -79 -214t-205 -91q-92 0 -143 52
t-51 144q0 141 79 225t203 84q93 0 144.5 -53.5t51.5 -146.5z" />
    <glyph glyph-name="ampersand" unicode="&#x26;" horiz-adv-x="1913" 
d="M988 1481q70 0 139 -13t135 -41.5t116 -68.5t80.5 -99.5t30.5 -129.5q0 -105 -54.5 -209t-145.5 -182q73 -57 104 -111q83 57 197 108.5t189 51.5l4 -277q-36 -9 -70.5 -22.5t-70 -34.5t-57 -51t-21.5 -65q0 -20 11.5 -35.5t26 -24.5t41 -16t42 -9.5t43.5 -6.5
q-7 -28 -29 -122t-37 -146q-45 -9 -81 -9q-180 0 -305 171q-196 -120 -309 -156t-316 -36q-151 0 -273 47t-194.5 136.5t-72.5 206.5q0 124 75 233t192 181q-39 66 -58 116.5t-19 105.5q0 76 24 143.5t65 118t96.5 92.5t117.5 70t129.5 47.5t131 28t123.5 8.5zM666 1047
q-3 -13 -3 -21q0 -38 23 -65.5t60 -41t72.5 -19.5t71.5 -6q41 0 83.5 7.5t85.5 24.5t70 49.5t27 76.5q0 38 -24.5 63.5t-66 36.5t-76 15t-72.5 4q-35 0 -72.5 -6t-77 -19.5t-67.5 -39t-34 -59.5zM448 422q-2 -9 -2 -23q0 -44 31 -74t82 -43t93.5 -17.5t89.5 -4.5
q37 0 91.5 10t114 28.5t101 54t41.5 78.5q0 58 -93 112t-193 54q-51 0 -101.5 -7t-107.5 -24.5t-97 -54.5t-50 -89z" />
    <glyph glyph-name="quotesingle" unicode="'" horiz-adv-x="757" 
d="M335 1419h397l-54 -303l-157 -414h-222l-17 414z" />
    <glyph glyph-name="parenleft" unicode="(" horiz-adv-x="787" 
d="M926 1707q-246 -271 -379 -620t-133 -699q0 -388 158 -680h-162q-133 154 -200 345t-67 401q0 332 161 664t460 589h162z" />
    <glyph glyph-name="parenright" unicode=")" horiz-adv-x="789" 
d="M439 1707q263 -330 263 -766q0 -336 -160 -664t-457 -569h-162q246 274 380 624.5t134 700.5q0 381 -160 674h162z" />
    <glyph glyph-name="asterisk" unicode="*" horiz-adv-x="968" 
d="M589 1135q-5 0 -21 32t-31.5 83.5t-15.5 93.5q0 10 6 31t19 49.5t42 48.5t67 20q42 0 64.5 -33.5t22.5 -72.5q0 -41 -37.5 -104t-73.5 -105.5t-40 -42.5h-2zM540 1107q-6 -6 -88 -6q-213 0 -213 115q0 50 36 86t90 36q47 0 85.5 -35.5t60 -86t29.5 -107.5v-2zM631 1109
q28 66 105.5 146t148.5 80q39 0 67.5 -21.5t28.5 -59.5q0 -47 -27 -79.5t-71.5 -47t-84.5 -20.5t-83 -6q-81 0 -81 6zM531 1054q-44 -90 -115.5 -159t-140.5 -69q-41 0 -66.5 22.5t-25.5 56.5q0 50 27.5 84t73 48.5t83 19.5t79.5 5q79 0 85 -6v-2zM625 1056q0 6 83 6
q218 0 218 -115q0 -54 -39.5 -86.5t-90.5 -32.5q-38 0 -71.5 26t-54.5 63t-33.5 74t-13.5 63zM572 1028q5 0 21.5 -32.5t32.5 -85t16 -95.5q0 -10 -7 -31t-21 -48t-41.5 -46.5t-62.5 -19.5q-44 0 -68 32t-24 70q0 41 36.5 105t73 107.5t42.5 43.5h2z" />
    <glyph glyph-name="plus" unicode="+" horiz-adv-x="1132" 
d="M557 732l87 501h86l-88 -501h504l-15 -86h-504l-89 -503h-86l90 503h-501l14 86h502z" />
    <glyph glyph-name="comma" unicode="," horiz-adv-x="736" 
d="M546 186q-41 -223 -341 -497q0 -1 -27.5 20.5t-55.5 42.5l-28 22q11 9 30 26t61.5 66.5t68.5 97.5q-95 1 -149 53t-54 139q0 132 84.5 216.5t205.5 84.5q99 0 154 -61.5t55 -154.5q0 -17 -4 -55z" />
    <glyph glyph-name="hyphen" unicode="-" horiz-adv-x="1457" 
d="M1295 774l-34 -192h-1048l34 192h1048z" />
    <glyph glyph-name="period" unicode="." horiz-adv-x="806" 
d="M303 -36q-96 0 -151.5 52.5t-55.5 139.5q0 131 85 216t205 85q96 0 152.5 -54t56.5 -141q0 -131 -86 -214.5t-206 -83.5z" />
    <glyph glyph-name="slash" unicode="/" horiz-adv-x="1096" 
d="M-13 -36l-68 42l1246 1434l66 -43z" />
    <glyph glyph-name="zero" unicode="0" horiz-adv-x="1845" 
d="M821 -49q-296 0 -467 160.5t-171 430.5q0 205 72 381t195 295t287 186.5t347 67.5q298 0 470 -161t172 -434q0 -204 -73.5 -379.5t-197.5 -294t-288.5 -185.5t-345.5 -67zM1393 813q0 170 -94.5 267.5t-265.5 97.5q-227 0 -373 -153.5t-146 -412.5q0 -172 93 -269.5
t266 -97.5q120 0 220 48t164.5 128t100 181.5t35.5 210.5z" />
    <glyph glyph-name="one" unicode="1" horiz-adv-x="904" 
d="M237 0l196 1116h-235l54 303h542l-250 -1419h-307z" />
    <glyph glyph-name="two" unicode="2" horiz-adv-x="1730" 
d="M1088 1481q107 0 204 -22t176.5 -65t127 -114.5t47.5 -161.5q0 -87 -24 -160t-58.5 -124.5t-98 -96.5t-115 -72.5t-138 -56t-139.5 -42t-145 -35.5q-109 -26 -163 -41t-127 -43t-110.5 -63.5t-50.5 -82.5h1026l-51 -301h-1381q10 154 52.5 277.5t108.5 210.5t160 151.5
t199 103.5t235 63q44 7 65 11t75 16t86.5 23.5t78 31.5t71.5 42.5t45 54t19 67.5q0 61 -70.5 93.5t-179.5 32.5q-105 0 -210 -27.5t-187 -83t-100 -126.5l-256 92q252 448 828 448z" />
    <glyph glyph-name="three" unicode="3" horiz-adv-x="1760" 
d="M226 1033q253 450 824 450q117 0 221 -22.5t188.5 -66.5t134 -118t49.5 -169q0 -115 -68 -220t-167 -151q73 -33 113.5 -107.5t40.5 -161.5q0 -92 -28.5 -170t-76.5 -132.5t-115 -97.5t-138 -69t-151.5 -43t-150.5 -23.5t-140 -6.5q-659 0 -670 455l294 115
q14 -52 46 -92t72.5 -65t92.5 -41t102 -22t105 -6q34 0 59 0.5t69 4.5t76 10.5t69.5 20.5t61.5 32.5t40 48t16 66.5q0 41 -27.5 68t-76.5 38t-88 14.5t-90 3.5h-154l50 282h153q46 0 82.5 2.5t82.5 12.5t77 27t52.5 49.5t21.5 76.5q0 72 -84 110.5t-211 38.5
q-165 0 -282.5 -49.5t-218.5 -184.5z" />
    <glyph glyph-name="four" unicode="4" horiz-adv-x="1796" 
d="M1677 386h-329l-66 -386h-307l66 386h-872l-73 224l1190 892l248 -73l-135 -753h329zM1165 1086l-519 -410h446z" />
    <glyph glyph-name="five" unicode="5" horiz-adv-x="1841" 
d="M1685 1116h-1041l-42 -243q200 53 450 53q97 0 185.5 -12t171 -40t142.5 -69.5t96 -105.5t36 -144q0 -129 -53.5 -235t-139.5 -174.5t-197.5 -116t-223 -67.5t-220.5 -20q-91 0 -175 7t-177 28t-164.5 54t-127.5 90t-77 131l282 177q69 -95 187.5 -129.5t283.5 -34.5
q47 0 99 4.5t114 17.5t109.5 33t80 55t32.5 79q0 78 -110 122.5t-267 44.5q-152 0 -289.5 -30.5t-184.5 -78.5q-33 17 -68 39.5t-77.5 53t-63.5 44.5l137 770h1344z" />
    <glyph glyph-name="six" unicode="6" horiz-adv-x="1841" 
d="M567 794q123 66 239 88.5t256 22.5q583 0 583 -380q0 -260 -213.5 -418t-561.5 -158q-342 0 -515.5 138.5t-173.5 409.5q0 229 74.5 416t205.5 310.5t308 190.5t383 67q95 0 181 -15t165.5 -48.5t138.5 -83.5t97 -124.5t45 -166.5l-294 -102q-40 107 -154.5 166.5
t-257.5 59.5q-116 0 -219 -38.5t-183.5 -125.5t-103.5 -209zM559 446q10 -46 41.5 -80t70.5 -52t94 -28t96 -12.5t93 -2.5q33 0 64.5 2t77 7t83 17.5t71.5 30.5t53.5 48t19.5 68q0 76 -98.5 123t-234.5 47q-143 0 -271 -48.5t-160 -119.5z" />
    <glyph glyph-name="seven" unicode="7" horiz-adv-x="1674" 
d="M1702 1203q-664 -589 -1017 -1261l-314 58q53 117 130 242.5t148.5 224.5t180.5 229.5t179 209t190 210.5h-998l53 303h1355z" />
    <glyph glyph-name="eight" unicode="8" horiz-adv-x="1877" 
d="M386 772q-28 39 -46 109.5t-18 131.5q0 113 71.5 206.5t187 150.5t251.5 88t273 31q170 0 311.5 -40.5t233 -127t91.5 -205.5q0 -59 -47.5 -169.5t-119.5 -174.5q61 -59 94.5 -117t33.5 -139q0 -97 -36.5 -182t-100 -147t-147.5 -111t-182 -79t-200 -45.5t-204 -15.5
q-137 0 -258.5 26.5t-219 78t-154.5 136t-57 192.5q0 226 243 403zM981 866q55 0 115 8.5t123.5 28t104.5 58.5t41 91q0 38 -34 64t-88.5 38t-100 16.5t-88.5 4.5q-50 0 -103 -6t-117 -21.5t-104.5 -49.5t-40.5 -83q0 -39 27.5 -68.5t72 -46.5t93 -25t99.5 -9zM866 262
q469 0 469 192q0 45 -39 78t-101.5 48.5t-121 22.5t-115.5 7q-51 0 -104.5 -4.5t-117 -18t-112 -34.5t-81.5 -57t-33 -82q0 -147 356 -152z" />
    <glyph glyph-name="nine" unicode="9" horiz-adv-x="1766" 
d="M738 -68q-264 0 -424.5 97.5t-191.5 269.5l271 181q24 -104 136.5 -163t257.5 -59q106 0 199 31t163.5 100.5t87.5 167.5q0 21 2 32q-187 -107 -388 -107q-282 0 -445 117.5t-163 313.5q0 121 68 229.5t178 183t252 118t289 43.5q97 0 184.5 -20t165.5 -64.5t135 -110.5
t90 -163.5t33 -217.5q0 -298 -113.5 -520.5t-317 -340.5t-469.5 -118zM610 975q0 -79 81.5 -132.5t219.5 -53.5q155 0 255.5 64t100.5 154q0 79 -84 120.5t-206 41.5q-41 0 -87 -5.5t-96.5 -20t-90.5 -35.5t-66.5 -55.5t-26.5 -77.5z" />
    <glyph glyph-name="colon" unicode=":" horiz-adv-x="710" 
d="M412 855q-96 0 -151.5 52.5t-55.5 139.5q0 131 86 216t206 85q96 0 152.5 -53.5t56.5 -140.5q0 -130 -87.5 -214.5t-206.5 -84.5zM256 -36q-96 0 -151.5 52.5t-55.5 139.5q0 131 85 216t205 85q96 0 152.5 -54t56.5 -141q0 -131 -86 -214.5t-206 -83.5z" />
    <glyph glyph-name="semicolon" unicode=";" horiz-adv-x="699" 
d="M401 855q-96 0 -151.5 52.5t-55.5 139.5q0 131 86 216t206 85q96 0 152.5 -53.5t56.5 -140.5q0 -130 -87.5 -214.5t-206.5 -84.5zM533 186q-41 -223 -341 -497q0 -1 -28 20.5t-56 42.5l-27 22q11 9 30 26t61.5 66.5t68.5 97.5q-95 1 -149 53t-54 139q0 132 85 216.5
t206 84.5q99 0 154 -61.5t55 -154.5q0 -7 -5 -55z" />
    <glyph glyph-name="less" unicode="&#x3c;" horiz-adv-x="793" 
d="M860 1225l-15 -86l-730 -450l570 -450l-15 -85l-621 492l15 86z" />
    <glyph glyph-name="equal" unicode="=" horiz-adv-x="1386" 
d="M1308 924l-15 -86h-1090l15 86h1090zM1239 540l-14 -86h-1091l15 86h1090z" />
    <glyph glyph-name="greater" unicode="&#x3e;" horiz-adv-x="795" 
d="M-11 154l15 85l728 450l-568 450l15 86l621 -493l-15 -86z" />
    <glyph glyph-name="question" unicode="?" horiz-adv-x="1433" 
d="M465 557q12 62 54.5 108t100 72t124 46t131 38.5t117 42t85 64t32.5 96.5q0 72 -85.5 118t-208.5 46q-135 0 -262 -60.5t-197 -180.5l-247 96q54 109 144 194t197.5 137.5t223.5 79.5t233 27q154 0 281 -43.5t206.5 -131.5t79.5 -205q0 -35 -6 -66q-16 -88 -62 -157.5
t-107.5 -112.5t-132.5 -75.5t-140.5 -56t-127.5 -45t-97 -51t-46 -66.5l-2 -12h-307zM521 -36q-79 0 -125 42t-46 113q0 107 69.5 175.5t167.5 68.5q78 0 124 -42.5t46 -113.5q0 -107 -69 -175t-167 -68z" />
    <glyph glyph-name="at" unicode="@" horiz-adv-x="1926" 
d="M1018 909q135 0 217 -98l30 70h130l-57 -331q-13 -71 -13 -125q0 -90 27.5 -132.5t61.5 -42.5q81 0 152.5 122.5t71.5 271.5q0 69 -17 130.5t-59 120t-105.5 100.5t-163.5 67.5t-226 25.5q-134 0 -253 -40.5t-206 -109t-150.5 -157t-95 -186.5t-31.5 -196
q0 -79 20.5 -150t66 -133.5t111 -108t161.5 -71.5t212 -26q243 0 483 96l68 -168q-226 -130 -625 -130q-182 0 -323 51t-226.5 139.5t-128.5 199.5t-43 239q0 131 43 263.5t129.5 253.5t204 215t278.5 149.5t341 55.5q152 0 275 -34.5t204.5 -92t136.5 -136.5t79 -164.5
t24 -178.5q0 -108 -34 -212.5t-92 -185.5t-142 -130.5t-178 -49.5q-63 0 -120.5 39t-69.5 112q-130 -151 -307 -151q-171 0 -259.5 96t-88.5 239q0 85 33.5 170t93.5 155.5t154.5 114.5t205.5 44zM905 252q121 0 198 87t77 216q0 89 -49.5 139.5t-142.5 50.5
q-117 0 -189 -91t-72 -204q0 -85 45.5 -141.5t132.5 -56.5z" />
    <glyph glyph-name="A" unicode="A" horiz-adv-x="1883" 
d="M1278 341h-743l-219 -341h-350l941 1419h382l441 -1419h-350zM730 640h458l-126 429h-53z" />
    <glyph glyph-name="B" unicode="B" horiz-adv-x="1794" 
d="M1182 1423q84 0 151.5 -7t137 -27.5t116 -54.5t76 -92t29.5 -135q0 -110 -41 -185t-126 -160q94 -113 94 -224q0 -92 -26 -169.5t-68.5 -132t-102 -97.5t-122.5 -68.5t-133 -42.5t-130.5 -23.5t-119.5 -6.5l-766 2l250 1419zM1148 866q82 0 133.5 46.5t51.5 105.5
q0 45 -34 73.5t-102 28.5l-544 -9l-43 -245h538zM510 292q421 -6 476 -6q49 0 93.5 7.5t90.5 26t73.5 57.5t27.5 94q0 34 -20.5 56.5t-59 32.5t-73.5 13t-83 3h-476z" />
    <glyph glyph-name="C" unicode="C" horiz-adv-x="1762" 
d="M1423 875q-11 73 -50 129.5t-95 89t-117 48.5t-124 16q-81 0 -158 -21t-146.5 -65t-122 -105.5t-83 -148.5t-30.5 -189q0 -172 114.5 -266t303.5 -94q157 0 288.5 91.5t187.5 238.5l235 -115q-32 -114 -96.5 -206t-144.5 -152t-178 -99.5t-194.5 -56.5t-195.5 -17
q-299 0 -478 172.5t-179 450.5q0 193 74 359.5t200 281t298 179.5t365 65q282 0 446.5 -126t178.5 -354z" />
    <glyph glyph-name="D" unicode="D" horiz-adv-x="1802" 
d="M1107 1419q278 0 441 -147t163 -391q0 -182 -69.5 -346t-186 -281t-273.5 -185.5t-327 -68.5h-701l249 1419h704zM804 286q158 0 287 67t204 189.5t75 276.5q0 146 -107.5 222.5t-308.5 76.5h-297l-147 -832h294z" />
    <glyph glyph-name="E" unicode="E" horiz-adv-x="1725" 
d="M1502 0h-1348l249 1419h1310l-53 -303h-1003l-40 -229h823l-55 -311h-824l-49 -275h1041z" />
    <glyph glyph-name="F" unicode="F" horiz-adv-x="1644" 
d="M403 1419h1310l-53 -303h-1003l-49 -271h823l-53 -312h-823l-94 -533h-307z" />
    <glyph glyph-name="G" unicode="G" horiz-adv-x="1828" 
d="M1037 1158q-111 0 -209 -36.5t-171 -103.5t-115.5 -167.5t-42.5 -221.5q0 -172 114.5 -266t303.5 -94q148 0 269.5 70t185.5 199h-438l49 273h760q-19 -189 -94.5 -348t-194.5 -271.5t-282.5 -175.5t-352.5 -63q-299 0 -478 172.5t-179 450.5q0 168 52 312.5t141.5 248.5
t209 178t255.5 110t279 36q91 0 171 -12.5t159.5 -44.5t138.5 -83t100 -132.5t51 -187.5l-298 -101q-50 258 -384 258z" />
    <glyph glyph-name="H" unicode="H" horiz-adv-x="1845" 
d="M1504 0h-307l100 576h-736l-100 -576h-307l249 1419h307l-93 -532h736l93 532h308z" />
    <glyph glyph-name="I" unicode="I" horiz-adv-x="802" 
d="M154 0l249 1419h307l-249 -1419h-307z" />
    <glyph glyph-name="J" unicode="J" horiz-adv-x="1606" 
d="M382 604q-2 -13 -2 -41q0 -47 9 -89t32 -82t58 -68.5t91 -46t128 -17.5q194 0 280.5 80t118.5 259l145 820h307l-158 -894q-48 -265 -241.5 -420.5t-507.5 -155.5q-150 0 -260.5 38t-177.5 109t-99 167t-32 219v26z" />
    <glyph glyph-name="K" unicode="K" horiz-adv-x="1838" 
d="M1122 853q176 -327 300 -461t236 -134q12 0 42 4l-40 -262q-85 -19 -152 -19q-49 0 -92 11.5t-77.5 30t-72 55.5t-66.5 72.5t-70.5 98t-74.5 115.5t-88 140.5t-101 158.5l-335 -249l-72 -414h-308l250 1419h307l-121 -687l923 687h374z" />
    <glyph glyph-name="L" unicode="L" horiz-adv-x="1591" 
d="M1417 0h-1263l249 1419h307l-198 -1118h956z" />
    <glyph glyph-name="M" unicode="M" horiz-adv-x="2097" 
d="M1052 546l565 873h390l-249 -1419h-307l153 879l-582 -881h-139l-271 881l-153 -879h-308l250 1419h390z" />
    <glyph glyph-name="N" unicode="N" horiz-adv-x="1909" 
d="M1568 0h-307l-636 943l-164 -943h-307l249 1419h310l629 -950l168 950h308z" />
    <glyph glyph-name="O" unicode="O" horiz-adv-x="1802" 
d="M800 -49q-296 0 -467 160.5t-171 430.5q0 205 72 381t194.5 295t286.5 186.5t347 67.5q298 0 470.5 -161t172.5 -434q0 -204 -73.5 -379.5t-197.5 -294t-288.5 -185.5t-345.5 -67zM1372 813q0 170 -95 267.5t-266 97.5q-227 0 -372.5 -153.5t-145.5 -412.5
q0 -172 93 -269.5t265 -97.5q160 0 280.5 81t180.5 208.5t60 278.5z" />
    <glyph glyph-name="P" unicode="P" horiz-adv-x="1783" 
d="M461 0h-307l249 1419l854 2q255 0 380 -98t125 -265q0 -60 -23.5 -134t-73.5 -152.5t-118 -142.5t-167 -105.5t-211 -41.5l-625 -4zM655 1111l-56 -315h564q103 0 166.5 58.5t63.5 133.5q0 58 -44 95t-127 37z" />
    <glyph glyph-name="Q" unicode="Q" horiz-adv-x="1800" 
d="M651 -38q-226 44 -357.5 201.5t-131.5 389.5q0 203 73 377t196 291.5t287 184t344 66.5q298 0 470.5 -161t172.5 -434q0 -178 -61 -338.5t-165 -277.5t-240 -196t-288 -106l-27 -279h-344zM1361 689q11 53 11 124q0 170 -95 267.5t-266 97.5q-108 0 -202.5 -38.5
t-164.5 -108.5t-110.5 -175t-40.5 -231q0 -129 57 -222.5t156 -133.5l26 273h343l-70 -277q135 45 231.5 155t124.5 265v4z" />
    <glyph glyph-name="R" unicode="R" horiz-adv-x="1858" 
d="M559 570l-100 -570h-308l250 1419q784 0 918 2h8q214 0 336.5 -96t122.5 -254q0 -173 -109 -300.5t-269 -156.5l34 -249q6 -48 34.5 -70t68.5 -22q53 0 102 28l-51 -301q-141 -43 -233 -43q-240 0 -264 250l-34 363h-506zM1175 838q101 0 160.5 47.5t59.5 121.5
q0 51 -41 80t-121 29l-580 -5l-47 -273h569z" />
    <glyph glyph-name="S" unicode="S" horiz-adv-x="1725" 
d="M599 1013q0 -37 27.5 -62t75 -38t110.5 -23t133.5 -14.5t145.5 -14t145.5 -21t133.5 -36t110.5 -58.5t75 -89t27.5 -126q0 -123 -49 -224t-128.5 -166.5t-186 -110.5t-216.5 -64t-224 -19q-42 0 -68.5 0.5t-82.5 4t-95 10.5t-95 21.5t-96 34.5t-84.5 52t-73 72t-49 96
t-24.5 123l301 147q19 -55 46.5 -96.5t61.5 -67t66.5 -41.5t74 -23t71 -9t70.5 -2q433 0 433 179q0 41 -34.5 66.5t-93 37t-134 17.5t-159 11.5t-167.5 14.5t-159.5 30.5t-134 56t-93 95t-34.5 142.5q0 106 46.5 197t125 155t181.5 109.5t217.5 67.5t231.5 22q123 0 233 -25
t197 -73t138 -125.5t51 -175.5v-28l-269 -98q-11 85 -71.5 143.5t-143 82.5t-180.5 24q-51 0 -113 -10t-125 -30t-104.5 -57.5t-41.5 -84.5z" />
    <glyph glyph-name="T" unicode="T" horiz-adv-x="1655" 
d="M1681 1116h-597l-197 -1116h-307l197 1116h-598l54 303h1501z" />
    <glyph glyph-name="U" unicode="U" horiz-adv-x="1800" 
d="M796 -51q-283 0 -440.5 125.5t-157.5 339.5q0 41 11 111l158 894h307l-145 -820q-8 -45 -8 -93q0 -124 79.5 -185t250.5 -61q199 0 305 83.5t137 255.5l145 820h307l-158 -894q-47 -260 -260 -418t-531 -158z" />
    <glyph glyph-name="V" unicode="V" horiz-adv-x="1870" 
d="M917 350q245 367 704 1069h346l-956 -1419h-339l-457 1419h346q72 -240 149 -492.5t120 -394t55 -182.5h32z" />
    <glyph glyph-name="W" unicode="W" horiz-adv-x="2233" 
d="M1483 555l465 864h367l-760 -1419h-269l-138 730l-389 -730h-268l-261 1419h367l158 -864l427 864h181z" />
    <glyph glyph-name="X" unicode="X" horiz-adv-x="1843" 
d="M343 0h-379l787 755l-486 664h413l318 -453l480 453h414l-721 -664l523 -755h-380l-386 561z" />
    <glyph glyph-name="Y" unicode="Y" horiz-adv-x="1860" 
d="M203 1419h386l384 -645l610 645h386l-896 -943l-83 -476h-307l83 476z" />
    <glyph glyph-name="Z" unicode="Z" horiz-adv-x="1730" 
d="M294 1419h1357l73 -194q-166 -131 -345 -277t-442.5 -364.5t-341.5 -282.5h971l-51 -301h-1372l-83 218l1077 898h-896z" />
    <glyph glyph-name="bracketleft" unicode="[" horiz-adv-x="910" 
d="M1030 1707l-42 -241h-312l-266 -1511h311l-43 -243h-576l352 1995h576z" />
    <glyph glyph-name="backslash" unicode="\" horiz-adv-x="1096" 
d="M990 6l-81 -42l-740 1433l83 43z" />
    <glyph glyph-name="bracketright" unicode="]" horiz-adv-x="910" 
d="M518 -288h-576l43 243h312l266 1511h-311l42 241h576z" />
    <glyph glyph-name="underscore" unicode="_" horiz-adv-x="1888" 
d="M1591 19l-14 -85h-1477l15 85h1476z" />
    <glyph glyph-name="grave" unicode="`" horiz-adv-x="706" 
d="M518 1557l-162 359h365l-21 -359h-182z" />
    <glyph glyph-name="a" unicode="a" horiz-adv-x="1433" 
d="M691 1090q182 0 307 -119l39 96h288l-188 -1067h-288l-4 94q-146 -124 -322 -124q-83 0 -157.5 29.5t-132.5 84.5t-92 140t-34 188q0 126 43 248t118 217.5t186 154t237 58.5zM420 454q0 -94 58 -146t158 -52q69 0 126 32t92.5 83t54.5 111t19 120q0 89 -46 143.5
t-146 54.5q-91 0 -165 -52t-112.5 -131t-38.5 -163z" />
    <glyph glyph-name="b" unicode="b" horiz-adv-x="1431" 
d="M1329 672q0 -97 -28 -197t-82.5 -190t-128 -161t-172.5 -112.5t-208 -41.5q-177 0 -279 124l-34 -94h-288l249 1419h308l-79 -448q161 119 352 119q80 0 149.5 -25.5t124 -75t85.5 -131t31 -186.5zM700 256q130 0 217.5 93.5t87.5 230.5q0 102 -56 161t-158 59
q-70 0 -126.5 -30t-90 -79.5t-51 -107t-17.5 -118.5q0 -91 48 -150t146 -59z" />
    <glyph glyph-name="c" unicode="c" horiz-adv-x="1292" 
d="M1165 256q-95 -144 -245.5 -221.5t-315.5 -77.5q-228 0 -365 123.5t-137 329.5q0 188 90.5 346.5t245.5 250.5t339 92q72 0 136.5 -13t124 -44t102.5 -77.5t69 -117t26 -158.5l-292 -90q0 97 -61.5 152t-154.5 55q-54 0 -107 -21t-98 -61t-72.5 -106t-27.5 -147
q0 -102 58.5 -158.5t174.5 -56.5q72 0 152 33t119 82z" />
    <glyph glyph-name="d" unicode="d" horiz-adv-x="1435" 
d="M691 1090q89 0 170.5 -31t141.5 -90l79 450h305l-250 -1419h-288l-2 96q-145 -126 -324 -126q-83 0 -157.5 29.5t-132.5 84.5t-92 140t-34 188q0 126 43 248t118 217.5t186 154t237 58.5zM420 454q0 -94 58 -146t158 -52q69 0 126 32t92.5 83t54.5 111t19 120
q0 89 -46 143.5t-146 54.5q-91 0 -165 -52t-112.5 -131t-38.5 -163z" />
    <glyph glyph-name="e" unicode="e" horiz-adv-x="1337" 
d="M631 235q222 0 308 126l194 -137q-88 -135 -240 -201t-308 -66q-223 0 -351.5 120t-128.5 324q0 154 54 286t146 221.5t215 140t259 50.5q209 0 342 -117.5t133 -305.5q0 -53 -14 -111t-28.5 -91t-18.5 -32h-786q11 -93 71.5 -150t152.5 -57zM730 821q-82 0 -156 -43.5
t-120 -116.5h512q-17 160 -236 160z" />
    <glyph glyph-name="f" unicode="f" horiz-adv-x="821" 
d="M352 1069q21 116 64.5 192.5t118 120.5t171 61.5t235.5 17.5l-47 -264q-113 0 -158 -24t-70 -106h143l-54 -301h-149l-135 -766h-307l135 766h-150l54 301h149v2z" />
    <glyph glyph-name="g" unicode="g" horiz-adv-x="1440" 
d="M512 -471q-158 0 -276 56t-168 176l263 160q24 -49 91 -82t139 -33q111 0 184.5 75t107.5 238q-145 -123 -330 -123q-111 0 -203.5 47t-150.5 144.5t-58 230.5q0 99 27 197.5t78.5 183.5t121.5 150.5t162 103t193 37.5q185 0 310 -119l38 96h288l-175 -992
q-95 -546 -642 -546zM427 463q0 -89 57 -137.5t143 -48.5q53 0 105.5 20.5t98 59.5t73.5 103t28 142q0 89 -46 143.5t-146 54.5q-134 0 -223.5 -104t-89.5 -233z" />
    <glyph glyph-name="h" unicode="h" horiz-adv-x="1467" 
d="M576 913q90 87 204 132t225 45q150 0 235 -85t85 -233q0 -46 -9 -94l-119 -678h-312l109 623q4 26 4 38q0 65 -43 100t-110 35q-97 0 -194 -69.5t-141 -191.5l-94 -535h-307l249 1419h310z" />
    <glyph glyph-name="i" unicode="i" horiz-adv-x="716" 
d="M465 1203q-76 0 -122 44t-46 114q0 102 71.5 169.5t164.5 67.5q76 0 121.5 -44t45.5 -114q0 -103 -71.5 -170t-163.5 -67zM109 0l188 1067h309l-190 -1067h-307z" />
    <glyph glyph-name="j" unicode="j" horiz-adv-x="718" 
d="M474 1203q-76 0 -122.5 44t-46.5 114q0 102 72 169.5t165 67.5q76 0 121 -44t45 -114q0 -103 -71 -170t-163 -67zM433 75q-48 -269 -197.5 -397t-414.5 -128l51 301q116 0 177 72t92 243l160 901h309z" />
    <glyph glyph-name="k" unicode="k" horiz-adv-x="1469" 
d="M525 627l627 440h382l-604 -425q50 -161 146.5 -269t173.5 -108q57 0 83 6l-47 -271q-93 -17 -157 -17q-77 0 -138 30.5t-113.5 96t-95 152t-91.5 216.5l-220 -156l-55 -322h-309l249 1419h310z" />
    <glyph glyph-name="l" unicode="l" horiz-adv-x="785" 
d="M646 1419l-170 -962q-9 -45 -9 -77q0 -49 22 -68.5t74 -19.5q74 0 126 9l-51 -301q-71 -13 -190 -13q-152 0 -225.5 74t-73.5 227q0 77 15 156l173 975h309z" />
    <glyph glyph-name="m" unicode="m" horiz-adv-x="2254" 
d="M580 913q90 88 202.5 132.5t224.5 44.5q119 0 198.5 -55.5t106.5 -153.5q91 104 222.5 156.5t253.5 52.5q150 0 235 -85t85 -233q0 -46 -9 -94l-119 -678h-312l111 634q2 13 2 36q0 65 -40 98.5t-105 33.5q-98 0 -198.5 -72t-144.5 -197l-94 -533h-312l111 634q3 20 3 36
q0 65 -40.5 98.5t-105.5 33.5q-62 0 -127 -29t-125.5 -91.5t-90.5 -146.5l-94 -535h-307l188 1067h309z" />
    <glyph glyph-name="n" unicode="n" horiz-adv-x="1474" 
d="M580 913q90 88 202.5 132.5t224.5 44.5q150 0 235 -85t85 -233q0 -46 -9 -94l-119 -678h-312l111 634q3 20 3 36q0 65 -40.5 98.5t-105.5 33.5q-62 0 -127 -29t-125.5 -91.5t-90.5 -146.5l-94 -535h-307l188 1067h288z" />
    <glyph glyph-name="o" unicode="o" horiz-adv-x="1369" 
d="M585 -43q-223 0 -351.5 120t-128.5 324q0 154 54 286t146 221.5t215 140t259 50.5q224 0 354 -121.5t130 -326.5q0 -153 -55 -284t-148 -220t-216 -139.5t-259 -50.5zM941 580q0 102 -56 161t-158 59q-130 0 -216 -89t-86 -237q0 -100 56 -159t155 -59q138 0 221.5 92.5
t83.5 231.5z" />
    <glyph glyph-name="p" unicode="p" horiz-adv-x="1435" 
d="M297 1067h288l2 -96q165 119 352 119q80 0 149.5 -25.5t124 -75t85.5 -131t31 -186.5q0 -129 -38 -243.5t-101 -197t-143.5 -142.5t-167 -89.5t-169.5 -29.5q-181 0 -277 124l-96 -544h-309zM700 256q130 0 217.5 93.5t87.5 230.5q0 102 -56 161t-158 59
q-70 0 -126.5 -30t-90 -79.5t-51 -107t-17.5 -118.5q0 -91 48 -150t146 -59z" />
    <glyph glyph-name="q" unicode="q" horiz-adv-x="1433" 
d="M845 94q-143 -124 -322 -124q-83 0 -157.5 29.5t-132.5 84.5t-92 140t-34 188q0 126 43 248t118 217.5t186 154t237 58.5q182 0 307 -119l39 96h288l-269 -1517h-307zM420 454q0 -94 58 -146t158 -52q69 0 126 32t92.5 83t54.5 111t19 120q0 89 -46 143.5t-146 54.5
q-91 0 -165 -52t-112.5 -131t-38.5 -163z" />
    <glyph glyph-name="r" unicode="r" horiz-adv-x="962" 
d="M951 781q-88 0 -184.5 -31t-170 -87.5t-84.5 -120.5l-94 -542h-307l188 1067h266l-12 -184q82 82 220 146.5t234 64.5z" />
    <glyph glyph-name="s" unicode="s" horiz-adv-x="1294" 
d="M971 710q-21 71 -103 108t-181 37q-88 0 -146.5 -27.5t-58.5 -72.5q0 -38 37.5 -59t97.5 -29t132 -13t144.5 -17t132.5 -35t97.5 -73.5t37.5 -125.5q0 -88 -36 -163t-93.5 -125.5t-131.5 -86.5t-148.5 -52.5t-145.5 -16.5q-480 0 -555 314l258 111q34 -80 134 -123
t206 -43q81 0 136.5 28t55.5 87q0 32 -37 49t-96 23t-130.5 11t-143 18.5t-130.5 38.5t-96 78t-37 130q0 95 38 170t96.5 120.5t137 75.5t151 41t146.5 11q117 0 214.5 -31t166 -97t89.5 -158z" />
    <glyph glyph-name="t" unicode="t" horiz-adv-x="896" 
d="M395 1419h309l-62 -352h169l-54 -301h-170l-56 -309q0 -1 -8 -75q0 -50 23 -70t75 -20q74 0 126 9l-52 -301q-71 -13 -189 -13q-152 0 -225.5 74t-73.5 227q0 77 15 156l57 322h-149l53 301h150z" />
    <glyph glyph-name="u" unicode="u" horiz-adv-x="1472" 
d="M890 151q-90 -86 -202 -130t-223 -44q-150 0 -235 84t-85 229q0 47 9 98l119 679h312l-114 -634q-4 -26 -4 -36q0 -65 40.5 -98.5t106.5 -33.5q98 0 198.5 70.5t145.5 193.5l96 538h307l-188 -1067h-288z" />
    <glyph glyph-name="v" unicode="v" horiz-adv-x="1450" 
d="M689 329l499 738h327l-736 -1067h-295l-360 1067h326z" />
    <glyph glyph-name="w" unicode="w" horiz-adv-x="2112" 
d="M1860 1067h301l-608 -1067h-307l-158 717l-410 -717h-307l-232 1067h300l150 -726l394 726h333l139 -726z" />
    <glyph glyph-name="x" unicode="x" horiz-adv-x="1373" 
d="M1408 1067l-491 -534l314 -533h-378l-198 371l-324 -371h-378l523 533l-325 534h367l197 -372l326 372h367z" />
    <glyph glyph-name="y" unicode="y" horiz-adv-x="1469" 
d="M128 1067h316l234 -756l542 756h314l-1088 -1517h-314l344 480z" />
    <glyph glyph-name="z" unicode="z" horiz-adv-x="1299" 
d="M28 0l45 258l693 529h-578l49 280h1017l-42 -237l-721 -551h646l-49 -279h-1060z" />
    <glyph glyph-name="braceleft" unicode="{" horiz-adv-x="861" 
d="M134 836q69 0 106.5 8.5t66.5 39.5t44 79.5t31 139.5l38 220q13 71 23 117t28 90t35 68.5t50 47t67 32.5t92.5 18t119 9.5t153.5 1.5l-37 -203q-60 0 -94 -2t-65.5 -13.5t-47 -25.5t-31 -48.5t-23.5 -72t-20 -105.5l-51 -286q-23 -124 -49.5 -174t-83.5 -69
q34 -13 48 -37t14 -69q0 -56 -66 -421q-19 -99 -19 -155q0 -72 41.5 -91.5t165.5 -19.5l-34 -203q-96 0 -157.5 2.5t-117 9.5t-86.5 19.5t-54 34.5t-31.5 52t-8.5 74q0 76 22 192q57 315 57 369q0 71 -36 94t-134 23h-5l45 254h4z" />
    <glyph glyph-name="bar" unicode="|" horiz-adv-x="584" 
d="M542 1696l-348 -1969h-87l341 1969h94z" />
    <glyph glyph-name="braceright" unicode="}" horiz-adv-x="864" 
d="M791 582q-69 0 -106.5 -8t-66 -39.5t-43 -78.5t-31.5 -140l-41 -220q-11 -58 -19 -96t-20.5 -78t-23.5 -64t-31 -48.5t-39.5 -37t-52.5 -25.5t-65.5 -18.5t-84 -10t-103 -5.5t-126.5 -1l34 203q59 0 93 2t65.5 13t46.5 25.5t31 48.5t25 72t21 105l51 286q22 122 48 172
t84 69q-34 13 -49 37t-15 70t17 136q71 393 71 442q0 72 -41.5 91.5t-165.5 19.5l36 203q115 0 184 -3.5t127 -14.5t86.5 -32.5t43 -54.5t14.5 -85q0 -68 -24 -194q-55 -319 -55 -369q0 -71 36 -94.5t134 -23.5h5l-45 -254h-5z" />
    <glyph glyph-name="asciitilde" unicode="~" horiz-adv-x="1092" 
d="M461 875q68 0 132.5 -19.5t113 -39.5t78.5 -20q36 0 53.5 12t27.5 58h117q-10 -59 -30 -108t-52.5 -90.5t-83 -64.5t-115.5 -23q-67 0 -131 19t-112.5 38.5t-78.5 19.5q-24 0 -37 -3.5t-26 -19t-20 -47.5h-116q51 288 280 288z" />
    <glyph glyph-name="exclamdown" unicode="&#xa1;" horiz-adv-x="729" 
d="M516 1419q78 0 123.5 -43.5t45.5 -114.5q0 -106 -70.5 -173.5t-166.5 -67.5q-79 0 -125 42t-46 113q0 107 70.5 175.5t168.5 68.5zM467 -36h-397l54 303l200 657h222l-25 -657z" />
    <glyph glyph-name="cent" unicode="&#xa2;" horiz-adv-x="1433" 
d="M1039 1483l-30 -175q94 -13 137 -27q234 -75 247 -321l-254 -83q-5 52 -27 89.5t-50 57t-69 31t-71.5 14t-70.5 2.5q-185 0 -311 -117.5t-126 -313.5q0 -138 93 -214t246 -76q128 0 234.5 74.5t153.5 194.5l188 -96q-28 -97 -83 -174t-128 -126.5t-152.5 -79
t-167.5 -41.5l-30 -166h-226l30 164q-199 28 -314 161.5t-115 333.5q0 153 52.5 281.5t142.5 216.5t204 143t243 72l30 175h224z" />
    <glyph glyph-name="sterling" unicode="&#xa3;" horiz-adv-x="1856" 
d="M474 845q10 160 64.5 280t145 192.5t207 108t259.5 35.5q34 0 56 -0.5t67.5 -4.5t78 -10.5t79 -21t80.5 -34.5t72.5 -51.5t65 -71t48.5 -95.5t31 -122l-307 -131q-8 267 -278 267q-112 0 -200 -43.5t-102 -118.5q-11 -50 -11 -124q0 -8 1 -26.5t1 -28.5h273l-34 -203
h-237q-2 -9 -3 -29t-3 -31q-33 -175 -177 -264q271 -85 388 -85q97 0 173 25t118.5 59t72 79.5t40 76t14.5 58.5l4 19h303q1 -11 -2 -40.5t-19.5 -87t-45.5 -116t-89.5 -123t-141.5 -113.5t-211.5 -81t-290.5 -32q-92 0 -292.5 50.5t-261.5 62.5q-116 -79 -199 -79
q-94 0 -141 48t-47 121q0 102 76 188.5t189 86.5q78 0 162 -49q32 37 32 126q0 18 -2 61t-2 69h-218l34 203h180z" />
    <glyph glyph-name="yen" unicode="&#xa5;" horiz-adv-x="1943" 
d="M1141 629h506l-36 -202h-500l-74 -427h-307l74 427h-510l37 202h505l-62 66h-433l37 203h241l-421 521h397l429 -576l636 576h397l-604 -521h241l-36 -203h-436z" />
    <glyph glyph-name="brokenbar" unicode="&#xa6;" horiz-adv-x="522" 
d="M512 1696l-139 -785h-87l132 785h94zM303 512l-139 -785h-87l132 785h94z" />
    <glyph glyph-name="section" unicode="&#xa7;" horiz-adv-x="1418" 
d="M864 1457q110 0 193 -21t136 -59.5t84.5 -85.5t49.5 -107l-228 -77q-45 135 -286 135q-72 0 -129 -10t-97.5 -37.5t-40.5 -70.5q0 -38 41.5 -60t107.5 -31.5t145.5 -17t159.5 -21t146 -37.5t107.5 -74.5t41.5 -123.5q0 -134 -96 -258q32 -43 32 -104q0 -83 -28.5 -152.5
t-77.5 -116t-109.5 -81t-131 -53.5t-135.5 -28t-128 -9q-41 0 -66.5 0.5t-78 6.5t-89 16.5t-84.5 32.5t-81.5 53t-63.5 79.5t-45 110.5l235 68q100 -123 290 -123q328 0 328 134q0 32 -33 53t-86.5 29t-122.5 15.5t-140.5 13.5t-140.5 23.5t-122.5 43t-86.5 74.5t-33 117
q0 140 110 243q-44 50 -44 122t28 132.5t76 101.5t108 72t128.5 48t132 25.5t124.5 8.5zM1033 708q0 31 -26.5 52t-79.5 32.5t-105 18t-132 15.5t-131 17q-37 -16 -58 -47.5t-21 -61.5q0 -29 32 -48.5t90 -30t117.5 -16.5t135 -14t122.5 -17q47 39 56 87v13z" />
    <glyph glyph-name="dieresis" unicode="&#xa8;" horiz-adv-x="1102" 
d="M523 1570q-63 0 -101 35.5t-38 92.5q0 85 58.5 142t135.5 57q63 0 101 -35.5t38 -92.5q0 -85 -58.5 -142t-135.5 -57zM949 1570q-63 0 -100.5 35.5t-37.5 92.5q0 85 58.5 142t135.5 57q63 0 100.5 -35.5t37.5 -92.5q0 -85 -58.5 -142t-135.5 -57z" />
    <glyph glyph-name="copyright" unicode="&#xa9;" horiz-adv-x="1934" 
d="M866 -49q-330 0 -521 163.5t-191 440.5q0 203 77.5 376t209.5 290.5t310 184t378 66.5q331 0 522.5 -165t191.5 -443q0 -201 -78 -373.5t-211 -290t-311.5 -183.5t-376.5 -66zM1638 828q0 229 -141 359.5t-396 130.5q-163 0 -300 -50t-235 -142.5t-153 -229t-55 -303.5
q0 -229 139.5 -358.5t394.5 -129.5q165 0 305 55t236.5 151t150.5 229.5t54 287.5zM1239 800q-8 65 -58 98.5t-121 33.5q-108 0 -197 -70t-89 -186q0 -81 58 -128t141 -47q75 0 139 40t95 118l126 -57q-66 -127 -174 -193t-225 -66q-136 0 -230 82t-94 221q0 100 43 184
t111 137t150 82.5t163 29.5q111 0 193.5 -51t109.5 -151z" />
    <glyph glyph-name="ordfeminine" unicode="&#xaa;" horiz-adv-x="1021" 
d="M386 841l-181 -274h-207l561 852h218l260 -852h-207l-83 274h-361zM621 1210q-21 -31 -60.5 -95t-59.5 -95h194q-10 31 -27.5 95t-27.5 95h-19z" />
    <glyph glyph-name="guillemotleft" unicode="&#xab;" horiz-adv-x="1134" 
d="M111 636l514 390l38 -36l-294 -391l160 -390l-53 -36l-378 388zM553 629l450 354l38 -36l-245 -348l123 -347l-53 -37l-326 352z" />
    <glyph glyph-name="registered" unicode="&#xae;" horiz-adv-x="1934" 
d="M866 -49q-330 0 -521 163.5t-191 440.5q0 203 77.5 376t209.5 290.5t310 184t378 66.5q331 0 522.5 -165t191.5 -443q0 -201 -78 -373.5t-211 -290t-311.5 -183.5t-376.5 -66zM1626 683q12 68 12 145q0 229 -141 359.5t-396 130.5q-163 0 -300 -50t-235 -142.5t-153 -229
t-55 -303.5q0 -229 139.5 -358.5t394.5 -129.5q292 0 489 153t245 425zM830 672l-49 -275h-150l122 682h418q115 0 180.5 -44.5t65.5 -121.5q0 -82 -52.5 -145.5t-127.5 -74.5l15 -123q5 -45 51 -45q25 0 47 10l-25 -138q-66 -22 -111 -22q-118 0 -128 120l-15 173zM853 806
l269 -4q48 0 77.5 22.5t29.5 58.5q0 25 -21.5 39.5t-61.5 14.5l-269 -5z" />
    <glyph glyph-name="macron" unicode="&#xaf;" horiz-adv-x="1222" 
d="M1210 1630h-811l36 203h811z" />
    <glyph glyph-name="degree" unicode="&#xb0;" horiz-adv-x="881" 
d="M516 945q-97 0 -152 51.5t-55 138.5q0 129 84.5 211.5t203.5 82.5q95 0 149 -50t54 -135q0 -133 -82.5 -216t-201.5 -83zM681 1212q0 50 -27 78t-78 28q-65 0 -107 -42.5t-42 -114.5q0 -50 27.5 -77.5t78.5 -27.5q68 0 108 46t40 110z" />
    <glyph glyph-name="uni00B2" unicode="&#xb2;" horiz-adv-x="1152" 
d="M599 1045q9 2 51.5 6.5t76.5 11t73.5 19t62 36.5t22.5 57q0 42 -43.5 63t-114.5 21q-110 0 -222 -43t-151 -113l-77 151q85 101 217.5 154t271.5 53q155 0 262 -65t107 -180q0 -57 -17 -104.5t-44 -81.5t-70.5 -62t-86 -46t-100.5 -33t-104 -23.5t-107 -16.5
q-156 -21 -233 -160h664l-34 -196h-894l10 64q35 202 158 326.5t322 161.5z" />
    <glyph glyph-name="uni00B3" unicode="&#xb3;" horiz-adv-x="1166" 
d="M969 971q47 -22 72.5 -70t25.5 -105q0 -62 -19 -113.5t-50.5 -87t-76 -63.5t-90.5 -44t-98.5 -26.5t-96.5 -14t-88 -3.5q-430 0 -435 294l192 75q14 -54 59.5 -88t97.5 -45.5t114 -11.5q252 0 252 115q0 18 -10.5 32.5t-31 23t-41 14t-49.5 8t-47.5 3.5t-44 1.5
t-30.5 0.5l32 184h68q31 0 55.5 2t55 8.5t50.5 18.5t34 34t14 52q0 47 -44 72.5t-116 25.5q-95 0 -203 -44.5t-187 -126.5l-75 137q87 111 227 168.5t289 57.5t247.5 -63.5t98.5 -179.5q0 -75 -43 -141.5t-108 -99.5z" />
    <glyph glyph-name="acute" unicode="&#xb4;" horiz-adv-x="710" 
d="M841 1916l-291 -359h-181l107 359h365z" />
    <glyph glyph-name="paragraph" unicode="&#xb6;" horiz-adv-x="1757" 
d="M587 580q-104 2 -187.5 34t-135.5 85t-79 118t-27 137q0 221 174 350.5t483 129.5h853l-345 -1965h-308l291 1645h-184l-290 -1645h-307l194 1111h-132z" />
    <glyph glyph-name="periodcentered" unicode="&#xb7;" horiz-adv-x="806" 
d="M378 388q-96 0 -151.5 52.5t-55.5 139.5q0 131 85 216t205 85q96 0 152.5 -53.5t56.5 -140.5q0 -131 -86 -215t-206 -84z" />
    <glyph glyph-name="cedilla" unicode="&#xb8;" horiz-adv-x="706" 
d="M309 -19l-44 -86q89 -9 133 -51.5t44 -103.5q0 -103 -98 -193.5t-239 -90.5q-81 0 -158 32l66 147q48 -21 92 -21q45 0 71.5 23t26.5 52q0 26 -23.5 43.5t-68.5 17.5q-13 0 -43 -4l118 267z" />
    <glyph glyph-name="uni00B9" unicode="&#xb9;" horiz-adv-x="661" 
d="M247 495l128 725h-153l36 199h354l-164 -924h-201z" />
    <glyph glyph-name="ordmasculine" unicode="&#xba;" horiz-adv-x="1049" 
d="M525 523q-179 0 -281.5 96t-102.5 260q0 163 74.5 291t197.5 196t268 68q178 0 281 -97t103 -260q0 -122 -43.5 -227t-117.5 -176t-172.5 -111t-206.5 -40zM853 1033q0 98 -54.5 154.5t-152.5 56.5q-129 0 -212.5 -88t-83.5 -234q0 -98 53.5 -153.5t151.5 -55.5
q134 0 216 95.5t82 224.5z" />
    <glyph glyph-name="guillemotright" unicode="&#xbb;" horiz-adv-x="1139" 
d="M495 209l296 390l-157 391l51 36l377 -390l-12 -75l-515 -388zM117 252l248 347l-122 348l51 36l327 -354l-13 -62l-450 -352z" />
    <glyph glyph-name="onequarter" unicode="&#xbc;" horiz-adv-x="2045" 
d="M384 -36l-68 42l1075 1434l66 -43zM262 495l128 725h-153l36 199h354l-164 -924h-201zM1805 930l-160 47l-775 -580l47 -147h568l-43 -250h201l42 250h214l34 189h-214zM1566 706l-47 -267h-290z" />
    <glyph glyph-name="onehalf" unicode="&#xbd;" horiz-adv-x="2167" 
d="M384 -36l-68 42l1075 1434l66 -43zM262 495l128 725h-153l36 199h354l-164 -924h-201zM1798 683q0 42 -43 62.5t-114 20.5q-111 0 -223 -43t-151 -113l-77 152q85 101 218.5 154t272.5 53q155 0 261 -65.5t106 -180.5q0 -61 -17.5 -111.5t-47.5 -85.5t-71 -62t-87 -44
t-96 -29t-98 -19.5t-94 -13.5q-12 -1 -18 -2q-156 -22 -230 -160h663l-34 -196h-894q26 230 150 371.5t339 181.5q14 2 56 6t73.5 9t68 16t59.5 33t28 53v13z" />
    <glyph glyph-name="threequarters" unicode="&#xbe;" horiz-adv-x="2389" 
d="M994 971q47 -22 72.5 -70t25.5 -105q0 -62 -19 -113.5t-50.5 -87t-75.5 -63t-90 -44t-98.5 -27t-96.5 -14t-88 -3.5q-430 0 -435 294l192 75q14 -54 59.5 -88t97.5 -45.5t114 -11.5q251 0 251 115q0 18 -10.5 32.5t-31 23t-41 14t-49.5 8t-47.5 3.5t-44 1.5t-30.5 0.5
l32 184h69q31 0 55.5 2t55 8.5t50.5 18.5t34 34t14 52q0 47 -44 72.5t-116 25.5q-95 0 -203.5 -44.5t-187.5 -126.5l-74 137q87 111 227 168.5t289 57.5t247.5 -63.5t98.5 -179.5q0 -75 -43.5 -141.5t-108.5 -99.5zM723 -36l-68 42l1075 1434l66 -43zM2240 250h-213
l-43 -250h-201l43 250h-567l-47 147l774 580l160 -47l-85 -491h213zM1907 706l-337 -267h290z" />
    <glyph glyph-name="questiondown" unicode="&#xbf;" horiz-adv-x="1433" 
d="M977 1455q78 0 123.5 -43.5t45.5 -114.5q0 -106 -70.5 -173.5t-166.5 -67.5q-78 0 -124.5 42.5t-46.5 113.5q0 107 70.5 175t168.5 68zM1033 862q-11 -63 -53 -109.5t-99.5 -72.5t-124.5 -46t-131.5 -38.5t-118 -41.5t-86 -63t-32.5 -96q0 -72 86 -118.5t209 -46.5
q86 0 168.5 23.5t161 79.5t126.5 138l250 -96q-72 -143 -206 -244.5t-285 -147t-309 -45.5q-154 0 -281.5 43.5t-207 132t-79.5 206.5q0 97 38 174.5t99 126.5t135 87.5t150 65.5t139.5 51.5t107 55t50.5 66.5l2 13h308z" />
    <glyph glyph-name="Agrave" unicode="&#xc0;" horiz-adv-x="1879" 
d="M1103 1557l-162 359h365l-22 -359h-181zM1278 341h-743l-219 -341h-350l941 1419h382l441 -1419h-350zM730 640h458l-126 429h-53z" />
    <glyph glyph-name="Aacute" unicode="&#xc1;" horiz-adv-x="1879" 
d="M1485 1916l-290 -359h-182l107 359h365zM1278 341h-743l-219 -341h-350l941 1419h382l441 -1419h-350zM730 640h458l-126 429h-53z" />
    <glyph glyph-name="Acircumflex" unicode="&#xc2;" horiz-adv-x="1879" 
d="M1350 1557l-181 197l-247 -197h-203l320 359h322l192 -359h-203zM1278 341h-743l-219 -341h-350l941 1419h382l441 -1419h-350zM730 640h458l-126 429h-53z" />
    <glyph glyph-name="Atilde" unicode="&#xc3;" horiz-adv-x="1879" 
d="M1033 1888q68 0 132.5 -20t113 -39.5t78.5 -19.5q36 0 53.5 12t27.5 58h117q-22 -126 -89.5 -205.5t-191.5 -79.5q-67 0 -131.5 19t-113 38t-78.5 19q-24 0 -37 -3.5t-26 -19t-20 -47.5h-115q51 288 280 288zM1278 341h-743l-219 -341h-350l941 1419h382l441 -1419h-350z
M730 640h458l-126 429h-53z" />
    <glyph glyph-name="Adieresis" unicode="&#xc4;" horiz-adv-x="1879" 
d="M905 1570q-63 0 -101 35.5t-38 92.5q0 85 58.5 142t135.5 57q63 0 101 -35.5t38 -92.5q0 -85 -58.5 -142t-135.5 -57zM1331 1570q-63 0 -100.5 35.5t-37.5 92.5q0 85 58.5 142t135.5 57q63 0 100.5 -35.5t37.5 -92.5q0 -85 -58.5 -142t-135.5 -57zM1278 341h-743
l-219 -341h-350l941 1419h382l441 -1419h-350zM730 640h458l-126 429h-53z" />
    <glyph glyph-name="Aring" unicode="&#xc5;" horiz-adv-x="1879" 
d="M1116 1513q-97 0 -152 50.5t-55 136.5q0 131 84.5 214t203.5 83q95 0 148.5 -50t53.5 -136q0 -132 -83 -215t-200 -83zM1280 1779q0 50 -27.5 78.5t-77.5 28.5q-65 0 -107 -43t-42 -115q0 -50 28 -77.5t79 -27.5q68 0 107.5 46t39.5 110zM1278 341h-743l-219 -341h-350
l941 1419h382l441 -1419h-350zM730 640h458l-126 429h-53z" />
    <glyph glyph-name="AE" unicode="&#xc6;" horiz-adv-x="2848" 
d="M1280 0l60 341h-687l-329 -341h-367l1374 1419h1508l-53 -303h-1003l-40 -229h823l-55 -311h-824l-49 -275h1041l-51 -301h-1348zM941 640h450l85 474h-74z" />
    <glyph glyph-name="Ccedilla" unicode="&#xc7;" horiz-adv-x="1753" 
d="M1035 1158q-111 0 -209 -36.5t-171 -103.5t-115.5 -167.5t-42.5 -221.5q0 -172 114.5 -266t303.5 -94q157 0 288.5 91.5t187.5 238.5l235 -115q-32 -114 -96.5 -206t-144.5 -152t-178 -99.5t-194.5 -56.5t-195.5 -17q-5 0 -14 1t-14 1l-30 -60q89 -9 133.5 -51.5
t44.5 -103.5q0 -103 -98.5 -193.5t-239.5 -90.5q-80 0 -157 32l66 147q48 -21 91 -21q45 0 72 23t27 52q0 26 -23.5 43.5t-68.5 17.5q-13 0 -43 -4l96 222q-232 41 -365.5 204.5t-133.5 401.5q0 168 52 313.5t141.5 249t209 178t255.5 110.5t279 36q282 0 446.5 -126
t178.5 -354l-299 -106q-11 73 -50 129.5t-95 89t-117.5 48.5t-125.5 16z" />
    <glyph glyph-name="Egrave" unicode="&#xc8;" horiz-adv-x="1721" 
d="M1058 1557l-162 359h365l-22 -359h-181zM1500 0h-1349l250 1419h1310l-53 -303h-1003l-41 -229h824l-56 -311h-823l-49 -275h1041z" />
    <glyph glyph-name="Eacute" unicode="&#xc9;" horiz-adv-x="1721" 
d="M1463 1916l-290 -359h-181l107 359h364zM1500 0h-1349l250 1419h1310l-53 -303h-1003l-41 -229h824l-56 -311h-823l-49 -275h1041z" />
    <glyph glyph-name="Ecircumflex" unicode="&#xca;" horiz-adv-x="1721" 
d="M1316 1559l-181 197l-248 -197h-202l320 359h322l192 -359h-203zM1500 0h-1349l250 1419h1310l-53 -303h-1003l-41 -229h824l-56 -311h-823l-49 -275h1041z" />
    <glyph glyph-name="Edieresis" unicode="&#xcb;" horiz-adv-x="1721" 
d="M875 1570q-63 0 -101 35.5t-38 92.5q0 85 58.5 142t135.5 57q63 0 101 -35.5t38 -92.5q0 -85 -58.5 -142t-135.5 -57zM1301 1570q-63 0 -100.5 35.5t-37.5 92.5q0 85 58.5 142t135.5 57q63 0 100.5 -35.5t37.5 -92.5q0 -85 -58.5 -142t-135.5 -57zM1500 0h-1349l250 1419
h1310l-53 -303h-1003l-41 -229h824l-56 -311h-823l-49 -275h1041z" />
    <glyph glyph-name="Igrave" unicode="&#xcc;" horiz-adv-x="821" 
d="M553 1557l-163 359h365l-21 -359h-181zM175 0l250 1419h307l-250 -1419h-307z" />
    <glyph glyph-name="Iacute" unicode="&#xcd;" horiz-adv-x="821" 
d="M922 1916l-291 -359h-181l107 359h365zM151 0l250 1419h307l-249 -1419h-308z" />
    <glyph glyph-name="Icircumflex" unicode="&#xce;" horiz-adv-x="825" 
d="M823 1557l-181 197l-247 -197h-203l320 359h322l192 -359h-203zM166 0l250 1419h307l-249 -1419h-308z" />
    <glyph glyph-name="Idieresis" unicode="&#xcf;" horiz-adv-x="795" 
d="M380 1570q-63 0 -101 35.5t-38 92.5q0 85 58.5 142t135.5 57q63 0 101 -35.5t38 -92.5q0 -85 -58.5 -142t-135.5 -57zM806 1570q-63 0 -100.5 35.5t-37.5 92.5q0 85 58.5 142t135.5 57q63 0 101 -35.5t38 -92.5q0 -85 -58.5 -142t-136.5 -57zM151 0l250 1419h307
l-249 -1419h-308z" />
    <glyph glyph-name="Eth" unicode="&#xd0;" horiz-adv-x="1832" 
d="M1137 1419q278 0 441 -147t163 -391q0 -182 -69.5 -346t-186 -281t-273.5 -185.5t-327 -68.5h-702l114 642h-156l34 203h156l102 574h704zM834 286q158 0 287 67t203.5 189.5t74.5 276.5q0 146 -107.5 222.5t-308.5 76.5h-296l-49 -273h305l-34 -203h-305l-64 -356h294z
" />
    <glyph glyph-name="Ntilde" unicode="&#xd1;" horiz-adv-x="1905" 
d="M1056 1888q68 0 132.5 -20t113 -39.5t78.5 -19.5q36 0 53.5 12t27.5 58h118q-10 -59 -30 -108t-53 -90t-83.5 -64t-115.5 -23q-67 0 -131 19t-112.5 38t-78.5 19q-24 0 -37 -3.5t-26 -19t-20 -47.5h-115q51 288 279 288zM1566 0h-307l-636 943l-164 -943h-308l250 1419
h309l630 -950l168 950h307z" />
    <glyph glyph-name="Ograve" unicode="&#xd2;" horiz-adv-x="1802" 
d="M1105 1557l-162 359h365l-22 -359h-181zM800 -49q181 0 345.5 67t288.5 185.5t197.5 294t73.5 379.5q0 273 -172.5 434t-470.5 161q-183 0 -347 -67.5t-286.5 -186.5t-194.5 -295t-72 -381q0 -270 171 -430.5t467 -160.5zM1372 813q0 -151 -60 -278.5t-180.5 -208.5
t-280.5 -81q-172 0 -265 97.5t-93 269.5q0 259 145.5 412.5t372.5 153.5q171 0 266 -97.5t95 -267.5z" />
    <glyph glyph-name="Oacute" unicode="&#xd3;" horiz-adv-x="1802" 
d="M1519 1916l-290 -359h-182l107 359h365zM800 -49q181 0 345.5 67t288.5 185.5t197.5 294t73.5 379.5q0 273 -172.5 434t-470.5 161q-183 0 -347 -67.5t-286.5 -186.5t-194.5 -295t-72 -381q0 -270 171 -430.5t467 -160.5zM1372 813q0 -151 -60 -278.5t-180.5 -208.5
t-280.5 -81q-172 0 -265 97.5t-93 269.5q0 259 145.5 412.5t372.5 153.5q171 0 266 -97.5t95 -267.5z" />
    <glyph glyph-name="Ocircumflex" unicode="&#xd4;" horiz-adv-x="1802" 
d="M1303 1557l-181 197l-247 -197h-203l320 359h322l192 -359h-203zM800 -49q181 0 345.5 67t288.5 185.5t197.5 294t73.5 379.5q0 273 -172.5 434t-470.5 161q-183 0 -347 -67.5t-286.5 -186.5t-194.5 -295t-72 -381q0 -270 171 -430.5t467 -160.5zM1372 813
q0 -151 -60 -278.5t-180.5 -208.5t-280.5 -81q-172 0 -265 97.5t-93 269.5q0 259 145.5 412.5t372.5 153.5q171 0 266 -97.5t95 -267.5z" />
    <glyph glyph-name="Otilde" unicode="&#xd5;" horiz-adv-x="1802" 
d="M994 1888q68 0 132.5 -20t113 -39.5t78.5 -19.5q36 0 53.5 12t27.5 58h118q-10 -59 -30 -108t-53 -90t-83.5 -64t-115.5 -23q-67 0 -131 19t-112.5 38t-78.5 19q-24 0 -37 -3.5t-26 -19t-20 -47.5h-115q51 288 279 288zM800 -49q181 0 345.5 67t288.5 185.5t197.5 294
t73.5 379.5q0 273 -172.5 434t-470.5 161q-183 0 -347 -67.5t-286.5 -186.5t-194.5 -295t-72 -381q0 -270 171 -430.5t467 -160.5zM1372 813q0 -151 -60 -278.5t-180.5 -208.5t-280.5 -81q-172 0 -265 97.5t-93 269.5q0 259 145.5 412.5t372.5 153.5q171 0 266 -97.5
t95 -267.5z" />
    <glyph glyph-name="Odieresis" unicode="&#xd6;" horiz-adv-x="1802" 
d="M879 1570q-63 0 -101 35.5t-38 92.5q0 85 58.5 142t135.5 57q63 0 101 -35.5t38 -92.5q0 -85 -58.5 -142t-135.5 -57zM1306 1570q-63 0 -101 35.5t-38 92.5q0 85 58.5 142t135.5 57q63 0 101 -35.5t38 -92.5q0 -85 -58.5 -142t-135.5 -57zM800 -49q-296 0 -467 160.5
t-171 430.5q0 205 72 381t194.5 295t286.5 186.5t347 67.5q298 0 470.5 -161t172.5 -434q0 -204 -73.5 -379.5t-197.5 -294t-288.5 -185.5t-345.5 -67zM1372 813q0 170 -95 267.5t-266 97.5q-227 0 -372.5 -153.5t-145.5 -412.5q0 -172 93 -269.5t265 -97.5q160 0 280.5 81
t180.5 208.5t60 278.5z" />
    <glyph glyph-name="multiply" unicode="&#xd7;" horiz-adv-x="994" 
d="M585 687l292 -354l-71 -62l-294 354l-416 -354l-49 62l416 354l-292 356l72 60l290 -356l421 356l51 -60z" />
    <glyph glyph-name="Oslash" unicode="&#xd8;" horiz-adv-x="1802" 
d="M800 -49q-231 0 -390 100l-75 -87l-68 42l81 92q-186 164 -186 446q0 205 72.5 380t195 294.5t287 186.5t345.5 67q227 0 391 -100l60 68l66 -43l-64 -72q190 -164 190 -448q0 -204 -73.5 -379.5t-197.5 -294t-288.5 -185.5t-345.5 -67zM1011 1178q-227 0 -372.5 -154.5
t-145.5 -415.5q0 -158 79 -250l659 760q-92 60 -220 60zM1372 811q0 160 -83 254l-660 -760q92 -60 222 -60q119 0 219.5 48t165 127.5t100.5 180.5t36 210z" />
    <glyph glyph-name="Ugrave" unicode="&#xd9;" horiz-adv-x="1798" 
d="M1043 1557l-162 359h365l-21 -359h-182zM796 -51q318 0 531 158t260 418l158 894h-307l-145 -820q-31 -172 -137 -255.5t-305 -83.5q-171 0 -250.5 61t-79.5 185q0 48 8 93l145 820h-307l-158 -894q-11 -70 -11 -111q0 -214 157.5 -339.5t440.5 -125.5z" />
    <glyph glyph-name="Uacute" unicode="&#xda;" horiz-adv-x="1798" 
d="M1466 1916l-291 -359h-181l107 359h365zM796 -51q318 0 531 158t260 418l158 894h-307l-145 -820q-31 -172 -137 -255.5t-305 -83.5q-171 0 -250.5 61t-79.5 185q0 48 8 93l145 820h-307l-158 -894q-11 -70 -11 -111q0 -214 157.5 -339.5t440.5 -125.5z" />
    <glyph glyph-name="Ucircumflex" unicode="&#xdb;" horiz-adv-x="1798" 
d="M1297 1557l-181 197l-248 -197h-202l320 359h322l192 -359h-203zM796 -51q318 0 531 158t260 418l158 894h-307l-145 -820q-31 -172 -137 -255.5t-305 -83.5q-171 0 -250.5 61t-79.5 185q0 48 8 93l145 820h-307l-158 -894q-11 -70 -11 -111q0 -214 157.5 -339.5
t440.5 -125.5z" />
    <glyph glyph-name="Udieresis" unicode="&#xdc;" horiz-adv-x="1798" 
d="M873 1570q-63 0 -101 35.5t-38 92.5q0 85 58.5 142t135.5 57q63 0 101 -35.5t38 -92.5q0 -85 -58.5 -142t-135.5 -57zM1299 1570q-63 0 -100.5 35.5t-37.5 92.5q0 85 58.5 142t135.5 57q63 0 100.5 -35.5t37.5 -92.5q0 -85 -58.5 -142t-135.5 -57zM796 -51
q-283 0 -440.5 125.5t-157.5 339.5q0 41 11 111l158 894h307l-145 -820q-8 -45 -8 -93q0 -124 79.5 -185t250.5 -61q199 0 305 83.5t137 255.5l145 820h307l-158 -894q-47 -260 -260 -418t-531 -158z" />
    <glyph glyph-name="Yacute" unicode="&#xdd;" horiz-adv-x="1860" 
d="M1472 1916l-290 -359h-181l106 359h365zM203 1419h386l384 -645l610 645h386l-896 -943l-83 -476h-307l83 476z" />
    <glyph glyph-name="Thorn" unicode="&#xde;" horiz-adv-x="1796" 
d="M672 1210q69 1 220.5 3.5t273 4.5t140.5 2q120 0 214.5 -40.5t152 -125.5t57.5 -203q0 -115 -36 -210t-94 -157t-135 -105t-156.5 -61.5t-160.5 -18.5h-636l-51 -299h-307l249 1419h307zM1195 954l-570 -17l-68 -382h565q25 0 53 5t65.5 20.5t66 40.5t49 70.5t20.5 104.5
q0 44 -18.5 76.5t-47.5 49.5t-58 24.5t-57 7.5z" />
    <glyph glyph-name="germandbls" unicode="&#xdf;" horiz-adv-x="1363" 
d="M832 1216q-82 0 -151 -49t-84 -137l-181 -1030h-307l177 1003q19 110 78 201.5t140 150t175.5 90t190.5 31.5q201 0 302.5 -89t101.5 -224q0 -131 -89.5 -250.5t-237.5 -167.5q143 -26 217.5 -109.5t74.5 -200.5q0 -33 -9.5 -77t-29.5 -99t-56.5 -107t-84 -96t-119 -70.5
t-155.5 -26.5q-178 0 -275 99l49 277q38 -45 92.5 -75t110.5 -30q77 0 128 54.5t51 125.5q0 79 -65 134t-195 55h-54l43 242q46 0 93 11.5t93.5 36t76 71.5t29.5 109t-35 104.5t-95 42.5z" />
    <glyph glyph-name="agrave" unicode="&#xe0;" horiz-adv-x="1433" 
d="M826 1239l-163 359h365l-21 -359h-181zM691 1090q-126 0 -237 -58.5t-186 -154t-118 -217.5t-43 -248q0 -103 34 -188t92 -140t132.5 -84.5t157.5 -29.5q176 0 322 124l4 -94h288l188 1067h-288l-39 -96q-125 119 -307 119zM420 454q0 84 38.5 163t112.5 131t165 52
q100 0 146 -54.5t46 -143.5q0 -60 -19 -120t-54.5 -111t-92.5 -83t-126 -32q-100 0 -158 52t-58 146z" />
    <glyph glyph-name="aacute" unicode="&#xe1;" horiz-adv-x="1433" 
d="M1175 1596l-290 -359h-181l107 359h364zM691 1090q-126 0 -237 -58.5t-186 -154t-118 -217.5t-43 -248q0 -103 34 -188t92 -140t132.5 -84.5t157.5 -29.5q176 0 322 124l4 -94h288l188 1067h-288l-39 -96q-125 119 -307 119zM420 454q0 84 38.5 163t112.5 131t165 52
q100 0 146 -54.5t46 -143.5q0 -60 -19 -120t-54.5 -111t-92.5 -83t-126 -32q-100 0 -158 52t-58 146z" />
    <glyph glyph-name="acircumflex" unicode="&#xe2;" horiz-adv-x="1433" 
d="M1082 1244l-182 196l-247 -196h-203l320 358h322l192 -358h-202zM691 1090q-126 0 -237 -58.5t-186 -154t-118 -217.5t-43 -248q0 -103 34 -188t92 -140t132.5 -84.5t157.5 -29.5q176 0 322 124l4 -94h288l188 1067h-288l-39 -96q-125 119 -307 119zM420 454
q0 84 38.5 163t112.5 131t165 52q100 0 146 -54.5t46 -143.5q0 -60 -19 -120t-54.5 -111t-92.5 -83t-126 -32q-100 0 -158 52t-58 146z" />
    <glyph glyph-name="atilde" unicode="&#xe3;" horiz-adv-x="1433" 
d="M751 1566q68 0 132.5 -20t113 -39.5t78.5 -19.5q36 0 53.5 12t27.5 58h118q-22 -126 -90 -206t-192 -80q-67 0 -131 19.5t-112.5 38.5t-78.5 19q-24 0 -37 -3.5t-26 -19t-20 -47.5h-116q51 288 280 288zM691 1090q-126 0 -237 -58.5t-186 -154t-118 -217.5t-43 -248
q0 -103 34 -188t92 -140t132.5 -84.5t157.5 -29.5q176 0 322 124l4 -94h288l188 1067h-288l-39 -96q-125 119 -307 119zM420 454q0 84 38.5 163t112.5 131t165 52q100 0 146 -54.5t46 -143.5q0 -60 -19 -120t-54.5 -111t-92.5 -83t-126 -32q-100 0 -158 52t-58 146z" />
    <glyph glyph-name="adieresis" unicode="&#xe4;" horiz-adv-x="1433" 
d="M642 1259q-63 0 -101 35.5t-38 92.5q0 85 58.5 141.5t136.5 56.5q63 0 100.5 -35.5t37.5 -92.5q0 -85 -58 -141.5t-136 -56.5zM1069 1259q-63 0 -101 35.5t-38 92.5q0 85 58 141.5t136 56.5q63 0 101 -35.5t38 -92.5q0 -85 -58 -141.5t-136 -56.5zM691 1090
q182 0 307 -119l39 96h288l-188 -1067h-288l-4 94q-146 -124 -322 -124q-83 0 -157.5 29.5t-132.5 84.5t-92 140t-34 188q0 126 43 248t118 217.5t186 154t237 58.5zM420 454q0 -94 58 -146t158 -52q69 0 126 32t92.5 83t54.5 111t19 120q0 89 -46 143.5t-146 54.5
q-91 0 -165 -52t-112.5 -131t-38.5 -163z" />
    <glyph glyph-name="aring" unicode="&#xe5;" horiz-adv-x="1433" 
d="M843 1186q-97 0 -152 51t-55 137q0 131 84.5 213.5t203.5 82.5q95 0 148.5 -49.5t53.5 -135.5q0 -132 -83 -215.5t-200 -83.5zM1007 1453q0 50 -27 78t-78 28q-65 0 -107 -42.5t-42 -114.5q0 -50 28 -77.5t79 -27.5q68 0 107.5 46t39.5 110zM691 1090q182 0 307 -119
l39 96h288l-188 -1067h-288l-4 94q-146 -124 -322 -124q-83 0 -157.5 29.5t-132.5 84.5t-92 140t-34 188q0 126 43 248t118 217.5t186 154t237 58.5zM420 454q0 -94 58 -146t158 -52q69 0 126 32t92.5 83t54.5 111t19 120q0 89 -46 143.5t-146 54.5q-91 0 -165 -52
t-112.5 -131t-38.5 -163z" />
    <glyph glyph-name="ae" unicode="&#xe6;" horiz-adv-x="2116" 
d="M1911 224q-90 -132 -243 -199.5t-305 -67.5q-142 0 -249 92l-20 -49h-245l-4 94q-146 -124 -322 -124q-83 0 -157.5 29.5t-132.5 84.5t-92 140t-34 188q0 101 26.5 200t78.5 184.5t121.5 151.5t161.5 104t194 38q184 0 309 -119l39 96h245l2 -62q135 94 273 94
q209 0 342.5 -117.5t133.5 -305.5q0 -53 -14.5 -111t-29 -91t-18.5 -32h-785q11 -93 71.5 -150t152.5 -57q221 0 307 126zM1508 821q-82 0 -155.5 -43.5t-119.5 -116.5h512q-17 160 -237 160zM420 454q0 -94 58 -146t158 -52q69 0 126 32t92.5 83t54.5 111t19 120
q0 89 -46 143.5t-146 54.5q-91 0 -165 -52t-112.5 -131t-38.5 -163z" />
    <glyph glyph-name="ccedilla" unicode="&#xe7;" horiz-adv-x="1297" 
d="M1165 256q-92 -141 -237 -217.5t-307 -81.5l-32 -62q89 -9 133 -51.5t44 -103.5q0 -103 -98 -193.5t-239 -90.5q-81 0 -158 32l66 147q48 -21 92 -21q45 0 71.5 23t26.5 52q0 26 -23.5 43.5t-68.5 17.5q-12 0 -42 -4l96 222q-179 29 -283 146.5t-104 295.5
q0 188 90.5 346.5t245.5 250.5t339 92q72 0 136.5 -13t124 -44t102.5 -77.5t69 -117t26 -158.5l-292 -90q0 97 -61.5 152t-154.5 55q-54 0 -107 -21t-98 -61t-72.5 -106t-27.5 -147q0 -102 58.5 -158.5t174.5 -56.5q72 0 152 33t119 82z" />
    <glyph glyph-name="egrave" unicode="&#xe8;" horiz-adv-x="1329" 
d="M798 1237l-162 359h365l-22 -359h-181zM627 235q-92 0 -152.5 57t-71.5 150h785q4 -1 18.5 32t29 91t14.5 111q0 188 -133.5 305.5t-342.5 117.5q-136 0 -259 -50.5t-215 -140t-146 -221.5t-54 -286q0 -204 128.5 -324t351.5 -120q157 0 309 66t240 201l-195 137
q-86 -126 -307 -126zM725 821q220 0 237 -160h-512q46 73 119.5 116.5t155.5 43.5z" />
    <glyph glyph-name="eacute" unicode="&#xe9;" horiz-adv-x="1329" 
d="M1165 1594l-290 -359h-182l107 359h365zM627 235q-92 0 -152.5 57t-71.5 150h785q4 -1 18.5 32t29 91t14.5 111q0 188 -133.5 305.5t-342.5 117.5q-136 0 -259 -50.5t-215 -140t-146 -221.5t-54 -286q0 -204 128.5 -324t351.5 -120q157 0 309 66t240 201l-195 137
q-86 -126 -307 -126zM725 821q220 0 237 -160h-512q46 73 119.5 116.5t155.5 43.5z" />
    <glyph glyph-name="ecircumflex" unicode="&#xea;" horiz-adv-x="1329" 
d="M1030 1235l-181 196l-247 -196h-203l320 359h322l192 -359h-203zM627 235q-92 0 -152.5 57t-71.5 150h785q4 -1 18.5 32t29 91t14.5 111q0 188 -133.5 305.5t-342.5 117.5q-136 0 -259 -50.5t-215 -140t-146 -221.5t-54 -286q0 -204 128.5 -324t351.5 -120q157 0 309 66
t240 201l-195 137q-86 -126 -307 -126zM725 821q220 0 237 -160h-512q46 73 119.5 116.5t155.5 43.5z" />
    <glyph glyph-name="edieresis" unicode="&#xeb;" horiz-adv-x="1329" 
d="M578 1248q-63 0 -101 35.5t-38 92.5q0 85 58.5 141.5t136.5 56.5q63 0 100.5 -35.5t37.5 -92.5q0 -85 -58 -141.5t-136 -56.5zM1005 1248q-63 0 -101 35.5t-38 92.5q0 85 58 141.5t136 56.5q63 0 101 -35.5t38 -92.5q0 -85 -58 -141.5t-136 -56.5zM627 235q221 0 307 126
l195 -137q-88 -135 -240 -201t-309 -66q-223 0 -351.5 120t-128.5 324q0 154 54 286t146 221.5t215 140t259 50.5q209 0 342.5 -117.5t133.5 -305.5q0 -53 -14.5 -111t-29 -91t-18.5 -32h-785q11 -93 71.5 -150t152.5 -57zM725 821q-82 0 -155.5 -43.5t-119.5 -116.5h512
q-17 160 -237 160z" />
    <glyph glyph-name="igrave" unicode="&#xec;" horiz-adv-x="729" 
d="M459 1239l-162 359h364l-21 -359h-181zM122 0l187 1067h310l-190 -1067h-307z" />
    <glyph glyph-name="iacute" unicode="&#xed;" horiz-adv-x="725" 
d="M806 1594l-290 -359h-181l107 359h364zM111 0l188 1067h309l-190 -1067h-307z" />
    <glyph glyph-name="icircumflex" unicode="&#xee;" horiz-adv-x="774" 
d="M730 1239l-182 197l-247 -197h-203l320 359h322l192 -359h-202zM139 0l187 1067h310l-190 -1067h-307z" />
    <glyph glyph-name="idieresis" unicode="&#xef;" horiz-adv-x="718" 
d="M273 1254q-63 0 -101 35.5t-38 92.5q0 85 58.5 142t136.5 57q63 0 100.5 -35.5t37.5 -92.5q0 -85 -58.5 -142t-135.5 -57zM700 1254q-63 0 -101 35.5t-38 92.5q0 85 58.5 142t135.5 57q63 0 101 -35.5t38 -92.5q0 -85 -58.5 -142t-135.5 -57zM111 0l188 1067h309
l-190 -1067h-307z" />
    <glyph glyph-name="eth" unicode="&#xf0;" horiz-adv-x="1376" 
d="M439 1158l116 107q-65 18 -182 36l160 190q120 0 231 -32l121 113l145 -64l-115 -106q167 -85 265 -238t98 -355q0 -110 -28.5 -227t-87.5 -229t-140.5 -200t-198 -142t-249.5 -54q-223 0 -351.5 120t-128.5 324q0 138 54 263.5t140.5 212t197.5 137.5t224 51
q131 0 235 -64q-42 127 -232 209l-116 -109zM717 800q-130 0 -216.5 -89.5t-86.5 -236.5q0 -100 56 -159t155 -59q70 0 129 29t96.5 76.5t58.5 104t21 114.5q0 93 -54.5 156.5t-158.5 63.5z" />
    <glyph glyph-name="ntilde" unicode="&#xf1;" horiz-adv-x="1469" 
d="M798 1564q68 0 132.5 -20t113 -39.5t78.5 -19.5q36 0 53.5 12t27.5 58h118q-22 -126 -90 -206t-192 -80q-67 0 -131 19.5t-112.5 38.5t-78.5 19q-24 0 -37 -3.5t-26 -19t-20 -47.5h-116q51 288 280 288zM580 913q90 88 202.5 132.5t224.5 44.5q150 0 235 -85t85 -233
q0 -46 -9 -94l-119 -678h-312l111 634q3 20 3 36q0 65 -40.5 98.5t-105.5 33.5q-62 0 -127 -29t-125.5 -91.5t-90.5 -146.5l-94 -535h-307l188 1067h288z" />
    <glyph glyph-name="ograve" unicode="&#xf2;" horiz-adv-x="1361" 
d="M802 1242l-162 358h365l-22 -358h-181zM580 -43q182 0 336 85t248.5 245.5t94.5 363.5q0 205 -130.5 326.5t-354.5 121.5q-136 0 -259 -50.5t-215 -140t-146 -221.5t-54 -286q0 -204 128.5 -324t351.5 -120zM937 580q0 -139 -84 -231.5t-222 -92.5q-99 0 -155 59t-56 159
q0 147 86.5 236.5t216.5 89.5q102 0 158 -59t56 -161z" />
    <glyph glyph-name="oacute" unicode="&#xf3;" horiz-adv-x="1361" 
d="M1163 1596l-290 -359h-182l107 359h365zM580 -43q182 0 336 85t248.5 245.5t94.5 363.5q0 205 -130.5 326.5t-354.5 121.5q-136 0 -259 -50.5t-215 -140t-146 -221.5t-54 -286q0 -204 128.5 -324t351.5 -120zM937 580q0 -139 -84 -231.5t-222 -92.5q-99 0 -155 59
t-56 159q0 147 86.5 236.5t216.5 89.5q102 0 158 -59t56 -161z" />
    <glyph glyph-name="ocircumflex" unicode="&#xf4;" horiz-adv-x="1361" 
d="M1020 1237l-182 197l-247 -197h-203l320 359h322l192 -359h-202zM580 -43q182 0 336 85t248.5 245.5t94.5 363.5q0 205 -130.5 326.5t-354.5 121.5q-136 0 -259 -50.5t-215 -140t-146 -221.5t-54 -286q0 -204 128.5 -324t351.5 -120zM937 580q0 -139 -84 -231.5
t-222 -92.5q-99 0 -155 59t-56 159q0 147 86.5 236.5t216.5 89.5q102 0 158 -59t56 -161z" />
    <glyph glyph-name="otilde" unicode="&#xf5;" horiz-adv-x="1361" 
d="M717 1566q68 0 132.5 -20t113 -39.5t78.5 -19.5q36 0 53.5 12t27.5 58h117q-10 -59 -30 -108t-52.5 -90.5t-83 -64.5t-115.5 -23q-67 0 -131 19.5t-112.5 38.5t-78.5 19q-24 0 -37 -3.5t-26 -19t-20 -47.5h-116q51 288 280 288zM580 -43q182 0 336 85t248.5 245.5
t94.5 363.5q0 205 -130.5 326.5t-354.5 121.5q-136 0 -259 -50.5t-215 -140t-146 -221.5t-54 -286q0 -204 128.5 -324t351.5 -120zM937 580q0 -139 -84 -231.5t-222 -92.5q-99 0 -155 59t-56 159q0 147 86.5 236.5t216.5 89.5q102 0 158 -59t56 -161z" />
    <glyph glyph-name="odieresis" unicode="&#xf6;" horiz-adv-x="1361" 
d="M597 1263q-63 0 -100.5 35.5t-37.5 92.5q0 85 58 141.5t136 56.5q63 0 100.5 -35.5t37.5 -92.5q0 -85 -58 -141.5t-136 -56.5zM1024 1263q-63 0 -101 35.5t-38 92.5q0 85 58 141.5t136 56.5q63 0 101 -35.5t38 -92.5q0 -85 -58 -141.5t-136 -56.5zM580 -43
q-223 0 -351.5 120t-128.5 324q0 154 54 286t146 221.5t215 140t259 50.5q224 0 354.5 -121.5t130.5 -326.5q0 -203 -94.5 -363.5t-248.5 -245.5t-336 -85zM937 580q0 102 -56 161t-158 59q-130 0 -216.5 -89.5t-86.5 -236.5q0 -100 56 -159t155 -59q138 0 222 92.5
t84 231.5z" />
    <glyph glyph-name="divide" unicode="&#xf7;" horiz-adv-x="1141" 
d="M634 898q-62 0 -98.5 33.5t-36.5 88.5q0 84 55.5 139t132.5 55q62 0 98 -33.5t36 -90.5q0 -83 -55.5 -137.5t-131.5 -54.5zM1150 732l-15 -86h-1090l15 86h1090zM503 158q-62 0 -98 34t-36 92q0 81 56 135.5t132 54.5q61 0 97.5 -35.5t36.5 -92.5q0 -82 -56 -135
t-132 -53z" />
    <glyph glyph-name="oslash" unicode="&#xf8;" horiz-adv-x="1384" 
d="M591 -43q-164 0 -282 66l-138 -160l-66 43l140 164q-136 120 -136 327q0 154 54 287t146 223t215.5 141t260.5 51q172 0 290 -75l137 156l66 -43l-139 -160q130 -124 130 -328q0 -152 -55.5 -283t-148.5 -219.5t-216 -139t-258 -50.5zM734 800q-130 0 -216.5 -89.5
t-86.5 -236.5q0 -88 43 -143l379 439q-51 30 -119 30zM947 578q0 79 -34 137l-380 -436q41 -23 109 -23q136 0 220.5 96t84.5 226z" />
    <glyph glyph-name="ugrave" unicode="&#xf9;" horiz-adv-x="1467" 
d="M823 1235l-162 359h365l-21 -359h-182zM887 151q-90 -86 -202 -130t-222 -44q-150 0 -235 84t-85 229q0 53 8 98l120 679h311l-113 -634q-4 -26 -4 -36q0 -65 40.5 -98.5t106.5 -33.5q98 0 198.5 70.5t145.5 193.5l96 538h307l-188 -1067h-288z" />
    <glyph glyph-name="uacute" unicode="&#xfa;" horiz-adv-x="1467" 
d="M1175 1596l-290 -359h-181l107 359h364zM887 151q-90 -86 -202 -130t-222 -44q-150 0 -235 84t-85 229q0 53 8 98l120 679h311l-113 -634q-4 -26 -4 -36q0 -65 40.5 -98.5t106.5 -33.5q98 0 198.5 70.5t145.5 193.5l96 538h307l-188 -1067h-288z" />
    <glyph glyph-name="ucircumflex" unicode="&#xfb;" horiz-adv-x="1467" 
d="M1060 1235l-181 196l-248 -196h-202l320 359h322l192 -359h-203zM887 151q-90 -86 -202 -130t-222 -44q-150 0 -235 84t-85 229q0 53 8 98l120 679h311l-113 -634q-4 -26 -4 -36q0 -65 40.5 -98.5t106.5 -33.5q98 0 198.5 70.5t145.5 193.5l96 538h307l-188 -1067h-288z
" />
    <glyph glyph-name="udieresis" unicode="&#xfc;" horiz-adv-x="1467" 
d="M621 1254q-63 0 -101 35.5t-38 92.5q0 85 58.5 142t135.5 57q63 0 101 -35.5t38 -92.5q0 -85 -58.5 -142t-135.5 -57zM1047 1254q-63 0 -100.5 35.5t-37.5 92.5q0 85 58.5 142t135.5 57q63 0 101 -35.5t38 -92.5q0 -85 -58.5 -142t-136.5 -57zM887 151q-90 -86 -202 -130
t-222 -44q-150 0 -235 84t-85 229q0 53 8 98l120 679h311l-113 -634q-4 -26 -4 -36q0 -65 40.5 -98.5t106.5 -33.5q98 0 198.5 70.5t145.5 193.5l96 538h307l-188 -1067h-288z" />
    <glyph glyph-name="yacute" unicode="&#xfd;" horiz-adv-x="1467" 
d="M1227 1598l-290 -359h-182l107 359h365zM126 1067h316l234 -756l542 756h314l-1088 -1517h-314l344 480z" />
    <glyph glyph-name="thorn" unicode="&#xfe;" horiz-adv-x="1437" 
d="M589 971q165 119 352 119q80 0 149.5 -25.5t124 -75t85.5 -131t31 -186.5q0 -129 -38 -243.5t-100.5 -197t-143 -142.5t-167 -89.5t-169.5 -29.5q-178 0 -280 124l-96 -544h-307l331 1869h309zM702 256q130 0 217.5 93.5t87.5 230.5q0 102 -56 161t-157 59
q-70 0 -126.5 -30t-90.5 -79.5t-51.5 -107.5t-17.5 -118q0 -91 48 -150t146 -59z" />
    <glyph glyph-name="ydieresis" unicode="&#xff;" horiz-adv-x="1467" 
d="M653 1252q-63 0 -101 35.5t-38 92.5q0 85 58.5 142t135.5 57q63 0 101 -35.5t38 -92.5q0 -85 -58.5 -142t-135.5 -57zM1079 1252q-63 0 -100.5 35.5t-37.5 92.5q0 85 58.5 142t135.5 57q63 0 101 -35.5t38 -92.5q0 -85 -58.5 -142t-136.5 -57zM126 1067h316l234 -756
l542 756h314l-1088 -1517h-314l344 480z" />
    <glyph glyph-name="Amacron" unicode="&#x100;" horiz-adv-x="1879" 
d="M1519 1551h-811l37 203h810zM1278 341h-743l-219 -341h-350l941 1419h382l441 -1419h-350zM730 640h458l-126 429h-53z" />
    <glyph glyph-name="amacron" unicode="&#x101;" horiz-adv-x="1433" 
d="M1278 1321h-811l36 202h811zM691 1090q-126 0 -237 -58.5t-186 -154t-118 -217.5t-43 -248q0 -103 34 -188t92 -140t132.5 -84.5t157.5 -29.5q176 0 322 124l4 -94h288l188 1067h-288l-39 -96q-125 119 -307 119zM420 454q0 84 38.5 163t112.5 131t165 52
q100 0 146 -54.5t46 -143.5q0 -60 -19 -120t-54.5 -111t-92.5 -83t-126 -32q-100 0 -158 52t-58 146z" />
    <glyph glyph-name="Abreve" unicode="&#x102;" horiz-adv-x="1879" 
d="M1133 1722q90 0 143 153l151 -17q-22 -122 -114 -217.5t-208 -95.5q-101 0 -159.5 73t-58.5 178q0 25 7 62l156 17q0 -75 18 -114t65 -39zM1278 341h-743l-219 -341h-350l941 1419h382l441 -1419h-350zM730 640h458l-126 429h-53z" />
    <glyph glyph-name="abreve" unicode="&#x103;" horiz-adv-x="1433" 
d="M890 1417q90 0 143 153l151 -17q-22 -122 -114 -218t-208 -96q-101 0 -159.5 73.5t-58.5 178.5q0 25 7 62l155 17q0 -75 18.5 -114t65.5 -39zM691 1090q182 0 307 -119l39 96h288l-188 -1067h-288l-4 94q-146 -124 -322 -124q-83 0 -157.5 29.5t-132.5 84.5t-92 140
t-34 188q0 126 43 248t118 217.5t186 154t237 58.5zM420 454q0 -94 58 -146t158 -52q69 0 126 32t92.5 83t54.5 111t19 120q0 89 -46 143.5t-146 54.5q-91 0 -165 -52t-112.5 -131t-38.5 -163z" />
    <glyph glyph-name="Aogonek" unicode="&#x104;" horiz-adv-x="1885" 
d="M1376 6q-5 13 -100 335h-738l-222 -341h-350l941 1419h382l441 -1419h-96q-69 -8 -121 -68t-52 -122q0 -42 30.5 -69t91.5 -27q80 0 200 47l11 -209q-163 -58 -292 -58q-151 0 -232.5 70.5t-81.5 170.5q0 39 16.5 85t61 99t110.5 87zM1009 1069l-279 -429h458l-126 429
h-53z" />
    <glyph glyph-name="aogonek" unicode="&#x105;" horiz-adv-x="1440" 
d="M119 533q24 139 83 248.5t138 175t168.5 99.5t182.5 34q185 0 310 -119l38 96h288l-188 -1067h-21q-69 0 -124 -63t-55 -127q0 -42 30 -69t91 -27q81 0 201 47l10 -209q-163 -58 -292 -58q-151 0 -232 70t-81 171q0 66 45 142.5t138 126.5l-2 90q-146 -124 -322 -124
q-83 0 -157.5 29.5t-132.5 84.5t-92 140t-34 188q0 73 10 121zM429 512q-7 -37 -7 -58q0 -94 58 -146t158 -52q69 0 126 32t92.5 83t54.5 111t19 120q0 89 -46 143.5t-146 54.5q-118 0 -202 -79t-107 -209z" />
    <glyph glyph-name="Cacute" unicode="&#x106;" horiz-adv-x="1762" 
d="M1410 1918l-290 -359h-181l106 359h365zM1722 981q-14 228 -178.5 354t-446.5 126q-193 0 -365 -65t-298 -179.5t-200 -281t-74 -359.5q0 -278 179 -450.5t478 -172.5q99 0 195.5 17t194.5 56.5t178 99.5t144.5 152t96.5 206l-235 115q-56 -147 -187.5 -238.5
t-288.5 -91.5q-189 0 -303.5 94t-114.5 266q0 102 30.5 189t83 148.5t122 105.5t146.5 65t158 21q63 0 124 -16t117 -48.5t95 -89t50 -129.5z" />
    <glyph glyph-name="cacute" unicode="&#x107;" horiz-adv-x="1284" 
d="M1143 1587l-290 -358h-181l107 358h364zM1161 256q-95 -144 -246 -221.5t-316 -77.5q-227 0 -364 123.5t-137 329.5q0 141 53.5 268.5t143.5 219.5t215 146.5t262 54.5q72 0 136.5 -13t124.5 -44t103 -77.5t69 -117t26 -158.5l-292 -90q0 97 -61.5 152t-154.5 55
q-54 0 -107 -21t-98 -61t-72.5 -106t-27.5 -147q0 -102 58.5 -158.5t174.5 -56.5q72 0 152 33t119 82z" />
    <glyph glyph-name="Ccircumflex" unicode="&#x108;" horiz-adv-x="1762" 
d="M1291 1549l-182 196l-247 -196h-203l320 358h322l192 -358h-202zM1722 981q-14 228 -178.5 354t-446.5 126q-193 0 -365 -65t-298 -179.5t-200 -281t-74 -359.5q0 -278 179 -450.5t478 -172.5q99 0 195.5 17t194.5 56.5t178 99.5t144.5 152t96.5 206l-235 115
q-56 -147 -187.5 -238.5t-288.5 -91.5q-189 0 -303.5 94t-114.5 266q0 102 30.5 189t83 148.5t122 105.5t146.5 65t158 21q63 0 124 -16t117 -48.5t95 -89t50 -129.5z" />
    <glyph glyph-name="ccircumflex" unicode="&#x109;" horiz-adv-x="1284" 
d="M1007 1229l-181 196l-248 -196h-203l320 358h323l192 -358h-203zM1161 256q-95 -144 -246 -221.5t-316 -77.5q-227 0 -364 123.5t-137 329.5q0 141 53.5 268.5t143.5 219.5t215 146.5t262 54.5q72 0 136.5 -13t124.5 -44t103 -77.5t69 -117t26 -158.5l-292 -90
q0 97 -61.5 152t-154.5 55q-54 0 -107 -21t-98 -61t-72.5 -106t-27.5 -147q0 -102 58.5 -158.5t174.5 -56.5q72 0 152 33t119 82z" />
    <glyph glyph-name="Cdotaccent" unicode="&#x10a;" horiz-adv-x="1762" 
d="M1065 1551q-63 0 -101 35.5t-38 92.5q0 85 58 141.5t136 56.5q63 0 101 -35.5t38 -92.5q0 -85 -58 -141.5t-136 -56.5zM1423 875q-11 73 -50 129.5t-95 89t-117 48.5t-124 16q-81 0 -158 -21t-146.5 -65t-122 -105.5t-83 -148.5t-30.5 -189q0 -172 114.5 -266t303.5 -94
q157 0 288.5 91.5t187.5 238.5l235 -115q-32 -114 -96.5 -206t-144.5 -152t-178 -99.5t-194.5 -56.5t-195.5 -17q-299 0 -478 172.5t-179 450.5q0 193 74 359.5t200 281t298 179.5t365 65q282 0 446.5 -126t178.5 -354z" />
    <glyph glyph-name="cdotaccent" unicode="&#x10b;" horiz-adv-x="1284" 
d="M791 1250q-63 0 -100.5 35.5t-37.5 92.5q0 85 58.5 142t135.5 57q63 0 101 -35.5t38 -92.5q0 -85 -58.5 -142t-136.5 -57zM1161 256q-95 -144 -246 -221.5t-316 -77.5q-227 0 -364 123.5t-137 329.5q0 141 53.5 268.5t143.5 219.5t215 146.5t262 54.5q72 0 136.5 -13
t124.5 -44t103 -77.5t69 -117t26 -158.5l-292 -90q0 97 -61.5 152t-154.5 55q-54 0 -107 -21t-98 -61t-72.5 -106t-27.5 -147q0 -102 58.5 -158.5t174.5 -56.5q72 0 152 33t119 82z" />
    <glyph glyph-name="Ccaron" unicode="&#x10c;" horiz-adv-x="1762" 
d="M913 1926l181 -196l248 196h203l-320 -358h-323l-192 358h203zM1722 981q-14 228 -178.5 354t-446.5 126q-193 0 -365 -65t-298 -179.5t-200 -281t-74 -359.5q0 -278 179 -450.5t478 -172.5q99 0 195.5 17t194.5 56.5t178 99.5t144.5 152t96.5 206l-235 115
q-56 -147 -187.5 -238.5t-288.5 -91.5q-189 0 -303.5 94t-114.5 266q0 102 30.5 189t83 148.5t122 105.5t146.5 65t158 21q63 0 124 -16t117 -48.5t95 -89t50 -129.5z" />
    <glyph glyph-name="ccaron" unicode="&#x10d;" horiz-adv-x="1284" 
d="M640 1587l181 -196l248 196h202l-320 -358h-322l-192 358h203zM1161 256q-95 -144 -246 -221.5t-316 -77.5q-227 0 -364 123.5t-137 329.5q0 141 53.5 268.5t143.5 219.5t215 146.5t262 54.5q72 0 136.5 -13t124.5 -44t103 -77.5t69 -117t26 -158.5l-292 -90
q0 97 -61.5 152t-154.5 55q-54 0 -107 -21t-98 -61t-72.5 -106t-27.5 -147q0 -102 58.5 -158.5t174.5 -56.5q72 0 152 33t119 82z" />
    <glyph glyph-name="Dcaron" unicode="&#x10e;" horiz-adv-x="1798" 
d="M847 1909l181 -196l248 196h202l-320 -358h-322l-192 358h203zM151 0h702q170 0 327 68.5t273.5 185.5t186 281t69.5 346q0 244 -163 391t-441 147h-704zM951 1118q201 0 308.5 -76.5t107.5 -222.5q0 -154 -74.5 -276.5t-203.5 -189.5t-287 -67h-294l147 832h296z" />
    <glyph glyph-name="dcaron" unicode="&#x10f;" horiz-adv-x="1574" 
d="M1926 1463q-32 -186 -290 -422q-1 -1 -24.5 17.5t-46.5 37.5l-23 18q10 8 25.5 22t51.5 56.5t58 83.5q-79 0 -126 44.5t-47 117.5q0 112 74 184t176 72q84 0 130.5 -51t46.5 -130q0 -7 -5 -50zM691 1090q89 0 170.5 -31t141.5 -90l79 450h305l-250 -1419h-288l-2 96
q-145 -126 -324 -126q-83 0 -157.5 29.5t-132.5 84.5t-92 140t-34 188q0 126 43 248t118 217.5t186 154t237 58.5zM420 454q0 -94 58 -146t158 -52q69 0 126 32t92.5 83t54.5 111t19 120q0 89 -46 143.5t-146 54.5q-91 0 -165 -52t-112.5 -131t-38.5 -163z" />
    <glyph glyph-name="Dcroat" unicode="&#x110;" horiz-adv-x="1832" 
d="M1137 1419q278 0 441 -147t163 -391q0 -182 -69.5 -346t-186 -281t-273.5 -185.5t-327 -68.5h-702l114 642h-156l34 203h156l102 574h704zM834 286q158 0 287 67t203.5 189.5t74.5 276.5q0 146 -107.5 222.5t-308.5 76.5h-296l-49 -273h305l-34 -203h-305l-64 -356h294z
" />
    <glyph glyph-name="dcroat" unicode="&#x111;" horiz-adv-x="1437" 
d="M119 533q19 112 62 205t99.5 157.5t125.5 109t141 65t146 20.5q188 0 312 -121l28 162h-146l35 192h145l17 96h305l-17 -96h151l-34 -192h-151l-199 -1131h-288l-2 96q-145 -126 -324 -126q-83 0 -157.5 29.5t-132.5 84.5t-92 140t-34 188q0 73 10 121zM429 512
q-7 -37 -7 -58q0 -94 58 -146t158 -52q69 0 126 32t92.5 83t54.5 111t19 120q0 89 -46 143.5t-146 54.5q-118 0 -202 -79t-107 -209z" />
    <glyph glyph-name="Emacron" unicode="&#x112;" horiz-adv-x="1721" 
d="M1519 1555h-811l37 203h810zM1500 0h-1349l250 1419h1310l-53 -303h-1003l-41 -229h824l-56 -311h-823l-49 -275h1041z" />
    <glyph glyph-name="emacron" unicode="&#x113;" horiz-adv-x="1329" 
d="M1216 1310h-811l37 203h810zM627 235q-92 0 -152.5 57t-71.5 150h785q4 -1 18.5 32t29 91t14.5 111q0 188 -133.5 305.5t-342.5 117.5q-136 0 -259 -50.5t-215 -140t-146 -221.5t-54 -286q0 -204 128.5 -324t351.5 -120q157 0 309 66t240 201l-195 137
q-86 -126 -307 -126zM725 821q220 0 237 -160h-512q46 73 119.5 116.5t155.5 43.5z" />
    <glyph glyph-name="Ebreve" unicode="&#x114;" horiz-adv-x="1721" 
d="M1124 1730q89 0 143 154l152 -17q-22 -122 -114 -218t-208 -96q-101 0 -159.5 73.5t-58.5 178.5q0 31 6 62l156 17q0 -75 18 -114.5t65 -39.5zM1500 0h-1349l250 1419h1310l-53 -303h-1003l-41 -229h824l-56 -311h-823l-49 -275h1041z" />
    <glyph glyph-name="ebreve" unicode="&#x115;" horiz-adv-x="1329" 
d="M841 1408q48 0 82 40t60 114l152 -17q-22 -122 -114 -218t-208 -96q-101 0 -159.5 73.5t-58.5 178.5q0 25 7 62l155 17q0 -75 18.5 -114.5t65.5 -39.5zM627 235q221 0 307 126l195 -137q-88 -135 -240 -201t-309 -66q-223 0 -351.5 120t-128.5 324q0 154 54 286
t146 221.5t215 140t259 50.5q209 0 342.5 -117.5t133.5 -305.5q0 -53 -14.5 -111t-29 -91t-18.5 -32h-785q11 -93 71.5 -150t152.5 -57zM725 821q-82 0 -155.5 -43.5t-119.5 -116.5h512q-17 160 -237 160z" />
    <glyph glyph-name="Edotaccent" unicode="&#x116;" horiz-adv-x="1721" 
d="M1090 1540q-63 0 -101 35.5t-38 92.5q0 85 58.5 142t136.5 57q63 0 100.5 -35.5t37.5 -92.5q0 -85 -58.5 -142t-135.5 -57zM1500 0h-1349l250 1419h1310l-53 -303h-1003l-41 -229h824l-56 -311h-823l-49 -275h1041z" />
    <glyph glyph-name="edotaccent" unicode="&#x117;" horiz-adv-x="1329" 
d="M806 1252q-63 0 -100.5 35.5t-37.5 92.5q0 85 58.5 142t135.5 57q63 0 101 -35.5t38 -92.5q0 -85 -58.5 -142t-136.5 -57zM627 235q221 0 307 126l195 -137q-88 -135 -240 -201t-309 -66q-223 0 -351.5 120t-128.5 324q0 154 54 286t146 221.5t215 140t259 50.5
q209 0 342.5 -117.5t133.5 -305.5q0 -53 -14.5 -111t-29 -91t-18.5 -32h-785q11 -93 71.5 -150t152.5 -57zM725 821q-82 0 -155.5 -43.5t-119.5 -116.5h512q-17 160 -237 160z" />
    <glyph glyph-name="Eogonek" unicode="&#x118;" horiz-adv-x="1728" 
d="M1500 0h-231q-66 -12 -113 -69.5t-47 -118.5q0 -42 30.5 -69t91.5 -27q80 0 200 47l13 -209q-163 -57 -294 -57q-151 0 -232.5 70.5t-81.5 170.5q0 63 42.5 136t130.5 126h-858l250 1419h1310l-53 -303h-1003l-41 -229h824l-56 -311h-823l-49 -275h1041z" />
    <glyph glyph-name="eogonek" unicode="&#x119;" horiz-adv-x="1348" 
d="M1135 226q-40 -56 -89 -101.5t-94 -71.5t-78.5 -40t-56.5 -19q-36 -30 -56.5 -71.5t-20.5 -80.5q0 -41 30 -67.5t92 -26.5q80 0 200 47l11 -209q-160 -57 -292 -57q-150 0 -232 69t-82 169t81 192q-206 11 -322.5 129.5t-116.5 312.5q0 154 54 286t146 221.5t215 140
t259 50.5q209 0 342.5 -117.5t133.5 -305.5q0 -21 -2 -42.5t-5.5 -40t-8 -36.5t-9 -33t-10 -28.5t-10 -23.5t-8 -17t-6 -10.5t-3.5 -2.5h-785q11 -93 71.5 -150t152.5 -57q221 0 307 126zM734 821q-82 0 -155.5 -43.5t-119.5 -116.5h512q-17 160 -237 160z" />
    <glyph glyph-name="Ecaron" unicode="&#x11a;" horiz-adv-x="1721" 
d="M945 1916l181 -197l248 197h203l-320 -359h-323l-192 359h203zM1500 0h-1349l250 1419h1310l-53 -303h-1003l-41 -229h824l-56 -311h-823l-49 -275h1041z" />
    <glyph glyph-name="ecaron" unicode="&#x11b;" horiz-adv-x="1329" 
d="M670 1602l181 -196l248 196h202l-320 -358h-322l-192 358h203zM627 235q-92 0 -152.5 57t-71.5 150h785q4 -1 18.5 32t29 91t14.5 111q0 188 -133.5 305.5t-342.5 117.5q-136 0 -259 -50.5t-215 -140t-146 -221.5t-54 -286q0 -204 128.5 -324t351.5 -120q157 0 309 66
t240 201l-195 137q-86 -126 -307 -126zM725 821q220 0 237 -160h-512q46 73 119.5 116.5t155.5 43.5z" />
    <glyph glyph-name="Gcircumflex" unicode="&#x11c;" horiz-adv-x="1828" 
d="M1323 1553l-182 196l-247 -196h-203l320 358h322l192 -358h-202zM1037 1158q334 0 384 -258l298 101q-10 106 -51 187.5t-100 132.5t-138.5 83t-159.5 44.5t-171 12.5q-143 0 -279 -36t-255.5 -110t-209 -178t-141.5 -248.5t-52 -312.5q0 -278 179 -450.5t478 -172.5
q189 0 352.5 63t282.5 175.5t194.5 271.5t94.5 348h-760l-49 -273h438q-64 -129 -185.5 -199t-269.5 -70q-189 0 -303.5 94t-114.5 266q0 121 42.5 221.5t115.5 167.5t171 103.5t209 36.5z" />
    <glyph glyph-name="gcircumflex" unicode="&#x11d;" horiz-adv-x="1435" 
d="M1065 1239l-182 197l-247 -197h-203l320 359h322l192 -359h-202zM508 -471q547 0 642 546l175 992h-288l-39 -96q-125 119 -309 119q-101 0 -193 -37.5t-162 -103t-121.5 -150.5t-78.5 -183.5t-27 -197.5q0 -133 58 -230.5t150 -144.5t203 -47q186 0 331 123
q-34 -163 -107.5 -238t-184.5 -75q-72 0 -139.5 33t-91.5 82l-262 -160q50 -120 168 -176t276 -56zM422 463q0 129 90 233t224 104q100 0 146 -54.5t46 -143.5q0 -78 -28 -142t-73.5 -103t-98 -59.5t-105.5 -20.5q-86 0 -143.5 48.5t-57.5 137.5z" />
    <glyph glyph-name="Gbreve" unicode="&#x11e;" horiz-adv-x="1828" 
d="M1133 1722q90 0 143 153l151 -17q-22 -122 -114 -217.5t-208 -95.5q-101 0 -159.5 73t-58.5 178q0 25 7 62l156 17q0 -75 18 -114t65 -39zM1037 1158q-111 0 -209 -36.5t-171 -103.5t-115.5 -167.5t-42.5 -221.5q0 -172 114.5 -266t303.5 -94q148 0 269.5 70t185.5 199
h-438l49 273h760q-19 -189 -94.5 -348t-194.5 -271.5t-282.5 -175.5t-352.5 -63q-299 0 -478 172.5t-179 450.5q0 168 52 312.5t141.5 248.5t209 178t255.5 110t279 36q91 0 171 -12.5t159.5 -44.5t138.5 -83t100 -132.5t51 -187.5l-298 -101q-50 258 -384 258z" />
    <glyph glyph-name="gbreve" unicode="&#x11f;" horiz-adv-x="1435" 
d="M858 1410q89 0 143 154l151 -17q-22 -122 -114 -218t-208 -96q-101 0 -159.5 73.5t-58.5 178.5q0 25 7 62l155 17q0 -75 18.5 -114.5t65.5 -39.5zM508 -471q-158 0 -276 56t-168 176l262 160q24 -49 91.5 -82t139.5 -33q111 0 184.5 75t107.5 238q-145 -123 -331 -123
q-111 0 -203 47t-150 144.5t-58 230.5q0 99 27 197.5t78.5 183.5t121.5 150.5t162 103t193 37.5q184 0 309 -119l39 96h288l-175 -992q-95 -546 -642 -546zM422 463q0 -89 57.5 -137.5t143.5 -48.5q53 0 105.5 20.5t98 59.5t73.5 103t28 142q0 89 -46 143.5t-146 54.5
q-134 0 -224 -104t-90 -233z" />
    <glyph glyph-name="Gdotaccent" unicode="&#x120;" horiz-adv-x="1819" 
d="M1126 1555q-63 0 -100.5 35.5t-37.5 92.5q0 85 58.5 142t135.5 57q63 0 101 -35.5t38 -92.5q0 -85 -58.5 -142t-136.5 -57zM1035 1163q-111 0 -209 -36.5t-171 -103.5t-115.5 -167.5t-42.5 -221.5q0 -172 114.5 -266.5t303.5 -94.5q148 0 269.5 70t185.5 199h-438l49 273
h760q-19 -189 -94.5 -348t-194.5 -271.5t-282.5 -175.5t-352.5 -63q-299 0 -478 172.5t-179 450.5q0 168 52 312.5t141.5 248.5t209 178.5t255.5 110.5t279 36q91 0 171.5 -12.5t159.5 -45t138 -83t100 -132.5t51 -188l-298 -100q-50 258 -384 258z" />
    <glyph glyph-name="gdotaccent" unicode="&#x121;" horiz-adv-x="1435" 
d="M870 1252q-63 0 -100.5 35.5t-37.5 92.5q0 85 58.5 142t135.5 57q63 0 101 -35.5t38 -92.5q0 -85 -58.5 -142t-136.5 -57zM508 -471q-158 0 -276 56t-168 176l262 160q24 -49 91.5 -82t139.5 -33q111 0 184.5 75t107.5 238q-145 -123 -331 -123q-111 0 -203 47
t-150 144.5t-58 230.5q0 99 27 197.5t78.5 183.5t121.5 150.5t162 103t193 37.5q184 0 309 -119l39 96h288l-175 -992q-95 -546 -642 -546zM422 463q0 -89 57.5 -137.5t143.5 -48.5q53 0 105.5 20.5t98 59.5t73.5 103t28 142q0 89 -46 143.5t-146 54.5q-134 0 -224 -104
t-90 -233z" />
    <glyph glyph-name="uni0122" unicode="&#x122;" horiz-adv-x="1828" 
d="M1037 1158q-111 0 -209 -36.5t-171 -103.5t-115.5 -167.5t-42.5 -221.5q0 -172 114.5 -266t303.5 -94q148 0 269.5 70t185.5 199h-438l49 273h760q-19 -189 -94.5 -348t-194.5 -271.5t-282.5 -175.5t-352.5 -63q-299 0 -478 172.5t-179 450.5q0 168 52 312.5t141.5 248.5
t209 178t255.5 110t279 36q91 0 171 -12.5t159.5 -44.5t138.5 -83t100 -132.5t51 -187.5l-298 -101q-50 258 -384 258zM949 -407q-33 -182 -279 -404q0 -1 -22 17l-44 36l-22 18q9 7 24 20.5t49.5 53.5t54.5 79q-76 0 -120 42.5t-44 113.5q0 107 69.5 175t167.5 68
q81 0 126 -49.5t45 -125.5q0 -7 -5 -44z" />
    <glyph glyph-name="uni0123" unicode="&#x123;" horiz-adv-x="1435" 
d="M695 1436q32 179 278 403q1 1 23 -16.5t44 -35.5l22 -18q-9 -8 -24 -21.5t-49.5 -53.5t-54.5 -79q76 0 119.5 -42.5t43.5 -113.5q0 -107 -69 -175t-166 -68q-80 0 -125.5 49t-45.5 124q0 17 4 47zM508 -471q-158 0 -276 56t-168 176l262 160q24 -49 91.5 -82t139.5 -33
q111 0 184.5 75t107.5 238q-145 -123 -331 -123q-111 0 -203 47t-150 144.5t-58 230.5q0 99 27 197.5t78.5 183.5t121.5 150.5t162 103t193 37.5q184 0 309 -119l39 96h288l-175 -992q-95 -546 -642 -546zM422 463q0 -89 57.5 -137.5t143.5 -48.5q53 0 105.5 20.5t98 59.5
t73.5 103t28 142q0 89 -46 143.5t-146 54.5q-134 0 -224 -104t-90 -233z" />
    <glyph glyph-name="Hcircumflex" unicode="&#x124;" horiz-adv-x="1841" 
d="M1310 1553l-181 196l-248 -196h-203l320 358h323l192 -358h-203zM1502 0h-307l100 576h-736l-100 -576h-308l250 1419h307l-94 -532h736l94 532h307z" />
    <glyph glyph-name="hcircumflex" unicode="&#x125;" horiz-adv-x="1469" 
d="M766 1536l-181 196l-248 -196h-203l320 358h323l192 -358h-203zM578 913q90 87 204 132t225 45q150 0 235 -85t85 -233q0 -46 -9 -94l-119 -678h-312l109 623q5 32 5 38q0 65 -43.5 100t-110.5 35q-97 0 -194 -69.5t-141 -191.5l-94 -535h-307l250 1419h309z" />
    <glyph glyph-name="Hbar" unicode="&#x126;" horiz-adv-x="1873" 
d="M1715 1124h75l-34 -202h-75l-162 -922h-307l89 510h-736l-89 -510h-307l162 922h-81l34 202h81l53 295h307l-53 -295h736l53 295h308zM1374 922h-736l-30 -165h736z" />
    <glyph glyph-name="hbar" unicode="&#x127;" horiz-adv-x="1469" 
d="M361 1419h309l-15 -79h168l-36 -203h-170l-39 -224q90 87 204 132t225 45q150 0 235 -85t85 -233q0 -46 -9 -94l-119 -678h-312l109 623q5 32 5 38q0 65 -43.5 100t-110.5 35q-97 0 -194 -69.5t-141 -191.5l-94 -535h-307l198 1137h-151l36 203h152z" />
    <glyph glyph-name="Itilde" unicode="&#x128;" horiz-adv-x="797" 
d="M425 1837q68 0 132.5 -19.5t113 -39.5t78.5 -20q36 0 53.5 12t27.5 58h117q-10 -59 -30 -108t-52.5 -90.5t-83 -64.5t-115.5 -23q-53 0 -105.5 12t-86 26.5t-70 26.5t-61.5 12q-24 0 -37 -3.5t-26 -19t-20 -47.5h-115q51 288 280 288zM151 0l250 1419h307l-249 -1419
h-308z" />
    <glyph glyph-name="itilde" unicode="&#x129;" horiz-adv-x="718" 
d="M367 1549q68 0 132.5 -19.5t113 -39.5t78.5 -20q36 0 53.5 12t27.5 58h118q-22 -126 -90 -206t-192 -80q-67 0 -131 19t-112.5 38.5t-78.5 19.5q-24 0 -37 -3.5t-26 -19t-20 -47.5h-116q51 288 280 288zM111 0l188 1067h309l-190 -1067h-307z" />
    <glyph glyph-name="Imacron" unicode="&#x12a;" horiz-adv-x="795" 
d="M962 1542h-811l37 203h810zM149 0l250 1419h307l-249 -1419h-308z" />
    <glyph glyph-name="imacron" unicode="&#x12b;" horiz-adv-x="718" 
d="M905 1316h-811l36 203h811zM111 0l188 1067h309l-190 -1067h-307z" />
    <glyph glyph-name="Ibreve" unicode="&#x12c;" horiz-adv-x="797" 
d="M604 1728q89 0 143 154l151 -17q-22 -122 -114 -218t-208 -96q-101 0 -159.5 73.5t-58.5 178.5q0 25 7 62l156 17q0 -75 18 -114.5t65 -39.5zM151 0l250 1419h307l-249 -1419h-308z" />
    <glyph glyph-name="ibreve" unicode="&#x12d;" horiz-adv-x="718" 
d="M521 1423q48 0 82 40t60 114l152 -18q-22 -122 -114 -217.5t-208 -95.5q-101 0 -159.5 73.5t-58.5 178.5q0 24 7 61l155 18q0 -75 18.5 -114.5t65.5 -39.5zM111 0l188 1067h309l-190 -1067h-307z" />
    <glyph glyph-name="Iogonek" unicode="&#x12e;" horiz-adv-x="804" 
d="M431 0q-69 0 -124 -63t-55 -127q0 -42 30 -69t91 -27q81 0 201 47l11 -209q-163 -58 -293 -58q-151 0 -232 70t-81 171q0 62 43 137t132 128l249 1419h307l-249 -1419h-30z" />
    <glyph glyph-name="iogonek" unicode="&#x12f;" horiz-adv-x="718" 
d="M471 1203q-76 0 -122 44t-46 114q0 102 72 169.5t165 67.5q76 0 121 -44t45 -114q0 -103 -71.5 -170t-163.5 -67zM407 0q-72 0 -128.5 -62t-56.5 -128q0 -42 30 -69t91 -27q81 0 201 47l11 -209q-163 -58 -293 -58q-151 0 -232 70t-81 171q0 62 43 137t132 128h-13
l188 1067h309l-190 -1067h-11z" />
    <glyph glyph-name="Idotaccent" unicode="&#x130;" horiz-adv-x="797" 
d="M589 1540q-63 0 -101 35.5t-38 92.5q0 85 58.5 142t135.5 57q63 0 101 -35.5t38 -92.5q0 -85 -58.5 -142t-135.5 -57zM151 0l250 1419h307l-249 -1419h-308z" />
    <glyph glyph-name="dotlessi" unicode="&#x131;" horiz-adv-x="718" 
d="M111 0l188 1067h309l-190 -1067h-307z" />
    <glyph glyph-name="IJ" unicode="&#x132;" horiz-adv-x="2365" 
d="M151 0l250 1419h307l-249 -1419h-308zM832 482q0 -123 32.5 -219t99.5 -167t177.5 -109t260.5 -38q314 0 507 155.5t241 420.5l158 894h-307l-145 -820q-32 -179 -119 -259t-280 -80q-72 0 -128 17.5t-91 46t-58 68.5t-32 82t-9 89q0 28 2 41l-309 -96v-26z" />
    <glyph glyph-name="ij" unicode="&#x133;" horiz-adv-x="1489" 
d="M465 1203q-76 0 -122 44t-46 114q0 102 71.5 169.5t164.5 67.5q76 0 121.5 -44t45.5 -114q0 -103 -71.5 -170t-163.5 -67zM1244 1203q-76 0 -122.5 44t-46.5 114q0 102 72 169.5t165 67.5q76 0 121 -44t45 -114q0 -103 -71 -170t-163 -67zM109 0l188 1067h309l-190 -1067
h-307zM1203 75q-48 -269 -197.5 -397t-414.5 -128l51 301q116 0 177 72t92 243l160 901h309z" />
    <glyph glyph-name="Jcircumflex" unicode="&#x134;" horiz-adv-x="1614" 
d="M1630 1551l-181 196l-248 -196h-203l320 358h323l192 -358h-203zM68 482q0 -123 32.5 -219t99.5 -167t177.5 -109t260.5 -38q314 0 507.5 155.5t241.5 420.5l158 894h-308l-145 -820q-32 -179 -119 -259t-280 -80q-72 0 -128 17.5t-91 46t-58 68.5t-32 82t-9 89
q0 21 3 41l-310 -96v-26z" />
    <glyph glyph-name="jcircumflex" unicode="&#x135;" horiz-adv-x="759" 
d="M713 1227l-182 196l-247 -196h-203l320 358h322l192 -358h-202zM452 75q-48 -269 -197.5 -397t-414.5 -128l51 301q116 0 177 72t92 243l160 901h309z" />
    <glyph glyph-name="uni0136" unicode="&#x136;" horiz-adv-x="1838" 
d="M1122 853q176 -327 300 -461t236 -134q12 0 42 4l-40 -262q-85 -19 -152 -19q-49 0 -92 11.5t-77.5 30t-72 55.5t-66.5 72.5t-70.5 98t-74.5 115.5t-88 140.5t-101 158.5l-335 -249l-72 -414h-308l250 1419h307l-121 -687l923 687h374zM945 -407q-33 -182 -279 -404
q0 -1 -22 17l-44 36l-22 18q9 7 24 20.5t49.5 53.5t54.5 79q-76 0 -120 42.5t-44 113.5q0 107 69.5 175t167.5 68q81 0 125.5 -49t44.5 -126q0 -14 -4 -44z" />
    <glyph glyph-name="uni0137" unicode="&#x137;" horiz-adv-x="1469" 
d="M525 627l627 440h382l-604 -425q50 -161 146.5 -269t173.5 -108q57 0 83 6l-47 -271q-93 -17 -157 -17q-77 0 -138 30.5t-113.5 96t-95 152t-91.5 216.5l-220 -156l-55 -322h-309l249 1419h310zM702 -386q4 30 4 43q0 77 -45.5 127t-125.5 50q-98 0 -167 -69t-69 -177
q0 -71 44 -112t120 -41q-20 -39 -52 -77.5t-54 -57.5l-22 -19q6 -5 15 -12t28 -23t31.5 -26t12.5 -9q248 224 280 403z" />
    <glyph glyph-name="kgreenlandic" unicode="&#x138;" horiz-adv-x="1553" 
d="M465 262l-45 -262h-309l188 1067h309l-90 -500l713 500h382l-604 -423l405 -644h-354l-296 471z" />
    <glyph glyph-name="Lacute" unicode="&#x139;" horiz-adv-x="1587" 
d="M905 1903l-291 -358h-181l107 358h365zM1414 0h-1263l250 1419h307l-198 -1118h956z" />
    <glyph glyph-name="lacute" unicode="&#x13a;" horiz-adv-x="785" 
d="M847 1916l-290 -359h-182l107 359h365zM646 1419l-170 -962q-9 -45 -9 -77q0 -49 22 -68.5t74 -19.5q74 0 126 9l-51 -301q-71 -13 -190 -13q-152 0 -225.5 74t-73.5 227q0 77 15 156l173 975h309z" />
    <glyph glyph-name="uni013B" unicode="&#x13b;" horiz-adv-x="1587" 
d="M1414 0h-1263l250 1419h307l-198 -1118h956zM943 -407q4 30 4 44q0 77 -44.5 126t-125.5 49q-98 0 -167.5 -68t-69.5 -175q0 -71 44 -113.5t120 -42.5q-20 -39 -52 -77t-54 -57l-22 -19l15 -12.5t28 -23t31.5 -26t12.5 -9.5q247 223 280 404z" />
    <glyph glyph-name="uni013C" unicode="&#x13c;" horiz-adv-x="787" 
d="M646 1419l-170 -962q-9 -45 -9 -77q0 -49 22 -68.5t74 -19.5q74 0 126 9l-51 -301q-71 -13 -190 -13q-152 0 -225.5 74t-73.5 227q0 77 15 156l173 975h309zM474 -386q4 30 4 43q0 77 -45.5 127t-125.5 50q-98 0 -167.5 -69t-69.5 -177q0 -71 44.5 -112t120.5 -41
q-20 -39 -52 -77.5t-54 -57.5l-22 -19q6 -5 15 -12t28 -23t31.5 -26t12.5 -9q248 224 280 403z" />
    <glyph glyph-name="Lcaron" unicode="&#x13d;" horiz-adv-x="1608" 
d="M1566 1434q-36 -219 -341 -497q0 -1 -27.5 20.5t-55.5 42.5l-28 22q11 9 30 26t61.5 66.5t68.5 97.5q-95 1 -149 53t-54 139q0 131 86 216t206 85q99 0 153 -60.5t54 -153.5q0 -19 -4 -57zM1414 0h-1263l250 1419h307l-198 -1118h956z" />
    <glyph glyph-name="lcaron" unicode="&#x13e;" horiz-adv-x="923" 
d="M1246 1463q-32 -186 -290 -422q-1 -1 -24.5 17.5t-46.5 37.5l-23 18q10 8 25 22t51 56.5t58 83.5q-79 0 -126 44.5t-47 117.5q0 112 74 184t176 72q84 0 130.5 -51t46.5 -130q0 -16 -4 -50zM646 1419l-170 -962q-9 -45 -9 -77q0 -49 22 -68.5t74 -19.5q74 0 126 9
l-51 -301q-71 -13 -190 -13q-152 0 -225.5 74t-73.5 227q0 77 15 156l173 975h309z" />
    <glyph glyph-name="Ldot" unicode="&#x13f;" horiz-adv-x="1591" 
d="M1417 0h-1263l249 1419h307l-198 -1118h956zM1069 644q75 0 134.5 55.5t59.5 138.5q0 59 -38 96t-101 37q-78 0 -137 -57t-59 -142q0 -57 39 -92.5t102 -35.5z" />
    <glyph glyph-name="ldot" unicode="&#x140;" horiz-adv-x="1164" 
d="M646 1419l-170 -962q-9 -45 -9 -77q0 -49 22 -68.5t74 -19.5q74 0 126 9l-51 -301q-71 -13 -190 -13q-152 0 -225.5 74t-73.5 227q0 77 15 156l173 975h309zM951 474q77 0 134.5 56.5t57.5 141.5q0 57 -37 92.5t-99 35.5q-78 0 -137 -56.5t-59 -141.5q0 -57 38.5 -92.5
t101.5 -35.5z" />
    <glyph glyph-name="Lslash" unicode="&#x141;" horiz-adv-x="1623" 
d="M1449 0h-1263l87 499l-81 -30l-60 182l179 68l124 700h307l-100 -570l267 105l60 -182l-365 -143l-60 -328h956z" />
    <glyph glyph-name="lslash" unicode="&#x142;" horiz-adv-x="874" 
d="M73 471l40 220l160 62l117 666h310l-96 -536l160 62l-41 -220l-158 -62l-36 -206q-8 -40 -8 -77q0 -49 22 -68.5t74 -19.5q73 0 125 9l-51 -301q-71 -13 -190 -13q-152 0 -225 74t-73 227q0 77 15 156l17 89z" />
    <glyph glyph-name="Nacute" unicode="&#x143;" horiz-adv-x="1905" 
d="M1574 1897l-290 -359h-181l107 359h364zM1566 0h-307l-636 943l-164 -943h-308l250 1419h309l630 -950l168 950h307z" />
    <glyph glyph-name="nacute" unicode="&#x144;" horiz-adv-x="1469" 
d="M1246 1598l-290 -359h-182l107 359h365zM580 913q90 88 202.5 132.5t224.5 44.5q150 0 235 -85t85 -233q0 -46 -9 -94l-119 -678h-312l111 634q3 20 3 36q0 65 -40.5 98.5t-105.5 33.5q-62 0 -127 -29t-125.5 -91.5t-90.5 -146.5l-94 -535h-307l188 1067h288z" />
    <glyph glyph-name="uni0145" unicode="&#x145;" horiz-adv-x="1905" 
d="M1566 0h-307l-636 943l-164 -943h-308l250 1419h309l630 -950l168 950h307zM1022 -407q4 30 4 44q0 76 -45 125.5t-126 49.5q-98 0 -167 -68t-69 -175q0 -71 44 -113.5t120 -42.5q-20 -39 -52 -77t-54 -57l-22 -19l15 -12.5t28 -23t31.5 -26t12.5 -9.5q247 223 280 404z
" />
    <glyph glyph-name="uni0146" unicode="&#x146;" horiz-adv-x="1467" 
d="M578 913q90 88 202.5 132.5t224.5 44.5q150 0 235 -85t85 -233q0 -46 -9 -94l-119 -678h-312l111 634q2 13 2 36q0 65 -40 98.5t-105 33.5q-62 0 -127 -29t-125.5 -91.5t-90.5 -146.5l-94 -535h-307l188 1067h288zM794 -386q4 30 4 43q0 77 -45.5 127t-125.5 50
q-98 0 -167.5 -69t-69.5 -177q0 -71 44.5 -112t120.5 -41q-20 -39 -52 -77.5t-54 -57.5l-22 -19q6 -5 15 -12t28 -23t31.5 -26t12.5 -9q248 224 280 403z" />
    <glyph glyph-name="Ncaron" unicode="&#x147;" horiz-adv-x="1905" 
d="M977 1897l181 -197l248 197h203l-320 -359h-323l-192 359h203zM1566 0h-307l-636 943l-164 -943h-308l250 1419h309l630 -950l168 950h307z" />
    <glyph glyph-name="ncaron" unicode="&#x148;" horiz-adv-x="1469" 
d="M749 1604l181 -196l248 196h202l-320 -358h-322l-192 358h203zM580 913q90 88 202.5 132.5t224.5 44.5q150 0 235 -85t85 -233q0 -46 -9 -94l-119 -678h-312l111 634q3 20 3 36q0 65 -40.5 98.5t-105.5 33.5q-62 0 -127 -29t-125.5 -91.5t-90.5 -146.5l-94 -535h-307
l188 1067h288z" />
    <glyph glyph-name="napostrophe" unicode="&#x149;" horiz-adv-x="1550" 
d="M122 1658h311l-43 -239l-123 -325h-175l-13 325zM661 913q90 88 202.5 132.5t224.5 44.5q150 0 235 -85t85 -233q0 -46 -9 -94l-119 -678h-311l110 634q3 20 3 36q0 65 -40 98.5t-105 33.5q-62 0 -127.5 -29t-126 -91.5t-90.5 -146.5l-94 -535h-307l188 1067h288z" />
    <glyph glyph-name="Eng" unicode="&#x14a;" horiz-adv-x="1907" 
d="M1564 -4q-46 -265 -239 -420.5t-508 -155.5q-223 0 -392 145l196 262q78 -96 249 -96q100 0 170.5 20.5t116 65t71.5 105t41 148.5l30 165l-676 708l-164 -943h-308l250 1419h309l664 -758l134 760l307 -2z" />
    <glyph glyph-name="eng" unicode="&#x14b;" horiz-adv-x="1469" 
d="M1207 75q-48 -268 -199 -396.5t-417 -128.5l53 301q116 0 177 72t92 243l83 468q2 13 2 36q0 65 -40 98.5t-105 33.5q-62 0 -127 -29t-125.5 -91.5t-90.5 -146.5l-94 -535h-307l188 1067h288l-7 -154q90 88 202.5 132.5t224.5 44.5q150 0 235 -85t85 -233q0 -46 -9 -94z
" />
    <glyph glyph-name="Omacron" unicode="&#x14c;" horiz-adv-x="1802" 
d="M1498 1570h-811l36 203h811zM800 -49q181 0 345.5 67t288.5 185.5t197.5 294t73.5 379.5q0 273 -172.5 434t-470.5 161q-183 0 -347 -67.5t-286.5 -186.5t-194.5 -295t-72 -381q0 -270 171 -430.5t467 -160.5zM1372 813q0 -151 -60 -278.5t-180.5 -208.5t-280.5 -81
q-172 0 -265 97.5t-93 269.5q0 259 145.5 412.5t372.5 153.5q171 0 266 -97.5t95 -267.5z" />
    <glyph glyph-name="omacron" unicode="&#x14d;" horiz-adv-x="1361" 
d="M1222 1303h-810l36 203h811zM580 -43q182 0 336 85t248.5 245.5t94.5 363.5q0 205 -130.5 326.5t-354.5 121.5q-136 0 -259 -50.5t-215 -140t-146 -221.5t-54 -286q0 -204 128.5 -324t351.5 -120zM937 580q0 -139 -84 -231.5t-222 -92.5q-99 0 -155 59t-56 159
q0 147 86.5 236.5t216.5 89.5q102 0 158 -59t56 -161z" />
    <glyph glyph-name="Obreve" unicode="&#x14e;" horiz-adv-x="1802" 
d="M1101 1730q89 0 143 154l151 -17q-22 -122 -114 -218t-208 -96q-101 0 -159.5 73.5t-58.5 178.5q0 25 7 62l156 17q0 -75 18 -114.5t65 -39.5zM800 -49q-296 0 -467 160.5t-171 430.5q0 205 72 381t194.5 295t286.5 186.5t347 67.5q298 0 470.5 -161t172.5 -434
q0 -204 -73.5 -379.5t-197.5 -294t-288.5 -185.5t-345.5 -67zM1372 813q0 170 -95 267.5t-266 97.5q-227 0 -372.5 -153.5t-145.5 -412.5q0 -172 93 -269.5t265 -97.5q160 0 280.5 81t180.5 208.5t60 278.5z" />
    <glyph glyph-name="obreve" unicode="&#x14f;" horiz-adv-x="1361" 
d="M836 1429q89 0 143 154l152 -17q-22 -122 -114 -218t-208 -96q-101 0 -159.5 73.5t-58.5 178.5q0 30 6 62l156 17q0 -75 18 -114.5t65 -39.5zM580 -43q-223 0 -351.5 120t-128.5 324q0 154 54 286t146 221.5t215 140t259 50.5q224 0 354.5 -121.5t130.5 -326.5
q0 -203 -94.5 -363.5t-248.5 -245.5t-336 -85zM937 580q0 102 -56 161t-158 59q-130 0 -216.5 -89.5t-86.5 -236.5q0 -100 56 -159t155 -59q138 0 222 92.5t84 231.5z" />
    <glyph glyph-name="Ohungarumlaut" unicode="&#x150;" horiz-adv-x="1802" 
d="M1143 1903l-290 -358h-181l107 358h364zM1617 1903l-290 -358h-181l106 358h365zM800 -49q181 0 345.5 67t288.5 185.5t197.5 294t73.5 379.5q0 273 -172.5 434t-470.5 161q-183 0 -347 -67.5t-286.5 -186.5t-194.5 -295t-72 -381q0 -270 171 -430.5t467 -160.5z
M1372 813q0 -151 -60 -278.5t-180.5 -208.5t-280.5 -81q-172 0 -265 97.5t-93 269.5q0 259 145.5 412.5t372.5 153.5q171 0 266 -97.5t95 -267.5z" />
    <glyph glyph-name="ohungarumlaut" unicode="&#x151;" horiz-adv-x="1361" 
d="M877 1600l-290 -358h-182l107 358h365zM1350 1600l-290 -358h-181l107 358h364zM580 -43q182 0 336 85t248.5 245.5t94.5 363.5q0 205 -130.5 326.5t-354.5 121.5q-136 0 -259 -50.5t-215 -140t-146 -221.5t-54 -286q0 -204 128.5 -324t351.5 -120zM937 580
q0 -139 -84 -231.5t-222 -92.5q-99 0 -155 59t-56 159q0 147 86.5 236.5t216.5 89.5q102 0 158 -59t56 -161z" />
    <glyph glyph-name="OE" unicode="&#x152;" horiz-adv-x="2833" 
d="M800 -49q-296 0 -467 160.5t-171 430.5q0 205 72 381t194.5 295t286.5 186.5t347 67.5q166 0 299 -53h1464l-54 -303h-1022l-40 -229h823l-55 -311h-824l-47 -273h1065l-53 -303h-1513q-147 -49 -305 -49zM1361 689q11 53 11 124q0 170 -95 267.5t-266 97.5
q-227 0 -372.5 -153.5t-145.5 -412.5q0 -172 93 -269.5t265 -97.5q200 0 337 116t173 324v4z" />
    <glyph glyph-name="oe" unicode="&#x153;" horiz-adv-x="2156" 
d="M1952 224q-90 -133 -242.5 -200t-305.5 -67q-257 0 -384 154q-184 -154 -435 -154q-223 0 -351.5 120t-128.5 324q0 154 54 286t146 221.5t215 140t259 50.5q125 0 223.5 -40.5t160.5 -115.5q183 156 435 156q209 0 342.5 -117.5t133.5 -305.5q0 -53 -14.5 -111t-29 -91
t-18.5 -32h-783l-2 -9q15 -89 74.5 -143.5t149.5 -54.5q221 0 307 126zM1549 821q-82 0 -155.5 -43.5t-119.5 -116.5h512q-17 160 -237 160zM727 800q-130 0 -216 -89t-86 -237q0 -100 56 -159t155 -59q79 0 146.5 35t113 112.5t45.5 185.5q0 100 -58.5 155.5t-155.5 55.5z
" />
    <glyph glyph-name="Racute" unicode="&#x154;" horiz-adv-x="1856" 
d="M1429 1918l-290 -359h-181l107 359h364zM559 570l-100 -570h-308l250 1419q784 0 918 2h8q214 0 336.5 -96t122.5 -254q0 -173 -109 -300.5t-269 -156.5l34 -249q6 -48 34.5 -70t68.5 -22q53 0 102 28l-51 -301q-141 -43 -233 -43q-240 0 -264 250l-34 363h-506z
M1175 838q101 0 160.5 47.5t59.5 121.5q0 51 -41 80t-121 29l-580 -5l-47 -273h569z" />
    <glyph glyph-name="racute" unicode="&#x155;" horiz-adv-x="960" 
d="M973 1594l-290 -359h-182l107 359h365zM951 781q-88 0 -184.5 -31t-170 -87.5t-84.5 -120.5l-94 -542h-307l188 1067h266l-12 -184q82 82 220 146.5t234 64.5z" />
    <glyph glyph-name="uni0156" unicode="&#x156;" horiz-adv-x="1860" 
d="M559 570l-100 -570h-308l250 1419q784 0 918 2h8q214 0 336.5 -96t122.5 -254q0 -173 -109 -300.5t-269 -156.5l34 -249q6 -48 34.5 -70t68.5 -22q53 0 102 28l-51 -301q-141 -43 -233 -43q-240 0 -264 250l-34 363h-506zM1175 838q101 0 160.5 47.5t59.5 121.5
q0 51 -41 80t-121 29l-580 -5l-47 -273h569zM986 -407q4 30 4 44q0 76 -45 125.5t-126 49.5q-98 0 -167.5 -68t-69.5 -175q0 -71 44.5 -113.5t120.5 -42.5q-20 -39 -52 -77t-54 -57l-22 -19l15 -12.5t28 -23t31.5 -26t12.5 -9.5q247 223 280 404z" />
    <glyph glyph-name="uni0157" unicode="&#x157;" horiz-adv-x="962" 
d="M949 781q-88 0 -184.5 -31t-170 -87.5t-84.5 -120.5l-94 -542h-307l188 1067h266l-13 -184q82 82 220.5 146.5t234.5 64.5zM482 -386q4 30 4 43q0 77 -45 127t-125 50q-98 0 -167.5 -69t-69.5 -177q0 -71 44 -112t120 -41q-20 -39 -52 -77.5t-54 -57.5l-22 -19
q6 -5 15 -12t28 -23t32 -26t13 -9q246 222 279 403z" />
    <glyph glyph-name="Rcaron" unicode="&#x158;" horiz-adv-x="1856" 
d="M937 1918l181 -196l247 196h203l-320 -359h-322l-192 359h203zM559 570l-100 -570h-308l250 1419q784 0 918 2h8q214 0 336.5 -96t122.5 -254q0 -173 -109 -300.5t-269 -156.5l34 -249q6 -48 34.5 -70t68.5 -22q53 0 102 28l-51 -301q-141 -43 -233 -43q-240 0 -264 250
l-34 363h-506zM1175 838q101 0 160.5 47.5t59.5 121.5q0 51 -41 80t-121 29l-580 -5l-47 -273h569z" />
    <glyph glyph-name="rcaron" unicode="&#x159;" horiz-adv-x="996" 
d="M557 1606l181 -196l248 196h202l-320 -358h-322l-192 358h203zM971 781q-88 0 -185 -31t-170.5 -87.5t-84.5 -120.5l-94 -542h-307l188 1067h267l-13 -184q82 82 220 146.5t234 64.5z" />
    <glyph glyph-name="Sacute" unicode="&#x15a;" horiz-adv-x="1725" 
d="M1425 1918l-290 -359h-181l106 359h365zM599 1013q0 47 41.5 84.5t104.5 57.5t125 30t113 10q98 0 180.5 -24t143 -82.5t71.5 -143.5l269 98v28q0 98 -51 175.5t-138 125.5t-197 73t-233 25q-117 0 -231.5 -22t-217.5 -67.5t-181.5 -109.5t-125 -155t-46.5 -197
q0 -82 34.5 -142.5t93 -95t134 -56t159 -30.5t167.5 -14.5t159.5 -11.5t134 -17.5t93 -37t34.5 -66.5q0 -179 -433 -179q-41 0 -70.5 2t-71 9t-74 23t-66.5 41.5t-61.5 67t-46.5 96.5l-301 -147q4 -67 24.5 -123t49 -96t73 -72t84.5 -52t96 -34.5t95 -21.5t95 -10.5t82.5 -4
t68.5 -0.5q114 0 224 19t216.5 64t186 110.5t128.5 166.5t49 224q0 71 -27.5 126t-75 89t-110.5 58.5t-133.5 36t-145.5 21t-145.5 14t-133.5 14.5t-110.5 23t-75 38t-27.5 62z" />
    <glyph glyph-name="sacute" unicode="&#x15b;" horiz-adv-x="1294" 
d="M1126 1596l-290 -359h-181l107 359h364zM1210 813q-21 92 -89.5 158t-166 97t-214.5 31q-74 0 -146.5 -11t-151 -41t-137 -75.5t-96.5 -120.5t-38 -170q0 -77 37 -130t96 -78t130.5 -38.5t143 -18.5t130.5 -11t96 -23t37 -49q0 -59 -55.5 -87t-136.5 -28q-106 0 -206 43
t-134 123l-258 -111q75 -314 555 -314q71 0 145.5 16.5t148.5 52.5t131.5 86.5t93.5 125.5t36 163q0 75 -37.5 125.5t-97.5 73.5t-132 35t-144.5 17t-132.5 13t-97.5 29t-37.5 59q0 45 58.5 72.5t146.5 27.5q99 0 181 -37t103 -108z" />
    <glyph glyph-name="Scircumflex" unicode="&#x15c;" horiz-adv-x="1725" 
d="M1282 1545l-181 196l-248 -196h-202l320 358h322l192 -358h-203zM599 1013q0 47 41.5 84.5t104.5 57.5t125 30t113 10q98 0 180.5 -24t143 -82.5t71.5 -143.5l269 98v28q0 98 -51 175.5t-138 125.5t-197 73t-233 25q-117 0 -231.5 -22t-217.5 -67.5t-181.5 -109.5
t-125 -155t-46.5 -197q0 -82 34.5 -142.5t93 -95t134 -56t159 -30.5t167.5 -14.5t159.5 -11.5t134 -17.5t93 -37t34.5 -66.5q0 -179 -433 -179q-41 0 -70.5 2t-71 9t-74 23t-66.5 41.5t-61.5 67t-46.5 96.5l-301 -147q4 -67 24.5 -123t49 -96t73 -72t84.5 -52t96 -34.5
t95 -21.5t95 -10.5t82.5 -4t68.5 -0.5q114 0 224 19t216.5 64t186 110.5t128.5 166.5t49 224q0 71 -27.5 126t-75 89t-110.5 58.5t-133.5 36t-145.5 21t-145.5 14t-133.5 14.5t-110.5 23t-75 38t-27.5 62z" />
    <glyph glyph-name="scircumflex" unicode="&#x15d;" horiz-adv-x="1294" 
d="M973 1216l-182 196l-247 -196h-203l320 358h322l192 -358h-202zM971 710q-21 71 -103 108t-181 37q-88 0 -146.5 -27.5t-58.5 -72.5q0 -38 37.5 -59t97.5 -29t132 -13t144.5 -17t132.5 -35t97.5 -73.5t37.5 -125.5q0 -88 -36 -163t-93.5 -125.5t-131.5 -86.5
t-148.5 -52.5t-145.5 -16.5q-480 0 -555 314l258 111q34 -80 134 -123t206 -43q81 0 136.5 28t55.5 87q0 32 -37 49t-96 23t-130.5 11t-143 18.5t-130.5 38.5t-96 78t-37 130q0 95 38 170t96.5 120.5t137 75.5t151 41t146.5 11q117 0 214.5 -31t166 -97t89.5 -158z" />
    <glyph glyph-name="Scedilla" unicode="&#x15e;" horiz-adv-x="1792" 
d="M1730 1440l-79 -448h-284v113q-37 25 -147 44.5t-228 19.5q-71 0 -131 -8t-110.5 -25.5t-79.5 -49t-29 -73.5q0 -37 27.5 -62t75 -38t110.5 -23t133.5 -14.5t145.5 -14t145.5 -21t133.5 -36t110.5 -58.5t75 -89t27.5 -126q0 -93 -27.5 -173.5t-73.5 -138.5t-110 -105
t-134 -77.5t-148.5 -50.5t-150 -29t-141.5 -10l-26 -52q89 -9 133 -51.5t44 -103.5q0 -103 -98 -193.5t-239 -90.5q-81 0 -158 32l66 147q48 -21 92 -21q45 0 71.5 23t26.5 52q0 26 -23.5 43.5t-68.5 17.5q-12 0 -42 -4l89 207q-177 19 -298 96l-9 -49h-309l87 506
q102 2 275 2l13 -139q137 -100 378 -100q433 0 433 179q0 41 -34.5 66.5t-93 37t-134 17.5t-159 11.5t-167.5 14.5t-159.5 30.5t-134 56t-93 95t-34.5 142.5q0 89 29 165t77.5 130t115.5 96.5t138 69t150 44t147.5 24.5t133.5 7q244 0 365 -70l41 55h264z" />
    <glyph glyph-name="scedilla" unicode="&#x15f;" horiz-adv-x="1290" 
d="M969 710q-21 71 -103 108t-181 37q-88 0 -146.5 -27.5t-58.5 -72.5q0 -38 37.5 -59t97 -29t132 -13t145 -17t132 -35t97 -73.5t37.5 -125.5q0 -109 -54 -197t-138.5 -140t-178 -79.5t-183.5 -27.5h-9l-32 -64q89 -9 133 -51.5t44 -103.5q0 -103 -98 -193.5t-239 -90.5
q-81 0 -158 32l66 147q48 -21 92 -21q45 0 71.5 23t26.5 52q0 26 -23 43.5t-68 17.5q-13 0 -43 -4l94 220q-51 6 -97.5 16.5t-98.5 34t-93 55.5t-74.5 84t-48.5 117l258 111q34 -80 133.5 -123t205.5 -43q81 0 136.5 28t55.5 87q0 32 -37 49t-96 23t-130 11t-142.5 18.5
t-130.5 38.5t-96 78t-37 130q0 95 38 170t96.5 120.5t137 75.5t151 41t146.5 11q117 0 214 -31t165.5 -97t89.5 -158z" />
    <glyph glyph-name="Scaron" unicode="&#x160;" horiz-adv-x="1725" 
d="M896 1916l181 -197l248 197h202l-320 -359h-322l-192 359h203zM599 1013q0 47 41.5 84.5t104.5 57.5t125 30t113 10q98 0 180.5 -24t143 -82.5t71.5 -143.5l269 98v28q0 98 -51 175.5t-138 125.5t-197 73t-233 25q-117 0 -231.5 -22t-217.5 -67.5t-181.5 -109.5
t-125 -155t-46.5 -197q0 -82 34.5 -142.5t93 -95t134 -56t159 -30.5t167.5 -14.5t159.5 -11.5t134 -17.5t93 -37t34.5 -66.5q0 -179 -433 -179q-41 0 -70.5 2t-71 9t-74 23t-66.5 41.5t-61.5 67t-46.5 96.5l-301 -147q4 -67 24.5 -123t49 -96t73 -72t84.5 -52t96 -34.5
t95 -21.5t95 -10.5t82.5 -4t68.5 -0.5q114 0 224 19t216.5 64t186 110.5t128.5 166.5t49 224q0 71 -27.5 126t-75 89t-110.5 58.5t-133.5 36t-145.5 21t-145.5 14t-133.5 14.5t-110.5 23t-75 38t-27.5 62z" />
    <glyph glyph-name="scaron" unicode="&#x161;" horiz-adv-x="1294" 
d="M636 1602l181 -196l248 196h202l-320 -358h-322l-192 358h203zM1210 813q-21 92 -89.5 158t-166 97t-214.5 31q-74 0 -146.5 -11t-151 -41t-137 -75.5t-96.5 -120.5t-38 -170q0 -77 37 -130t96 -78t130.5 -38.5t143 -18.5t130.5 -11t96 -23t37 -49q0 -59 -55.5 -87
t-136.5 -28q-106 0 -206 43t-134 123l-258 -111q75 -314 555 -314q71 0 145.5 16.5t148.5 52.5t131.5 86.5t93.5 125.5t36 163q0 75 -37.5 125.5t-97.5 73.5t-132 35t-144.5 17t-132.5 13t-97.5 29t-37.5 59q0 45 58.5 72.5t146.5 27.5q99 0 181 -37t103 -108z" />
    <glyph glyph-name="uni0162" unicode="&#x162;" horiz-adv-x="1646" 
d="M1677 1116h-598l-196 -1116h-307l196 1116h-597l53 303h1502zM860 -405q4 30 4 44q0 76 -45 125.5t-126 49.5q-96 0 -166 -68t-70 -175q0 -71 44 -113.5t120 -42.5q-20 -39 -52 -77t-54 -57l-22 -19l89 -71q245 224 278 404z" />
    <glyph glyph-name="uni0163" unicode="&#x163;" horiz-adv-x="902" 
d="M397 1419h309l-62 -352h169l-54 -301h-170l-56 -309q0 -1 -8 -75q0 -50 23 -70t75 -20q74 0 126 9l-51 -301q-71 -13 -190 -13q-152 0 -225.5 74t-73.5 227q0 77 15 156l58 322h-150l54 301h149zM495 -407q4 30 4 44q0 77 -44.5 126t-125.5 49q-98 0 -167.5 -68
t-69.5 -175q0 -71 44 -113.5t120 -42.5q-20 -39 -52 -77t-54 -57l-22 -19l15 -12.5t28 -23t31.5 -26t12.5 -9.5q247 223 280 404z" />
    <glyph glyph-name="Tcaron" unicode="&#x164;" horiz-adv-x="1651" 
d="M845 1899l181 -197l248 197h202l-320 -359h-322l-192 359h203zM1679 1116h-597l-197 -1116h-307l196 1116h-597l53 303h1502z" />
    <glyph glyph-name="tcaron" unicode="&#x165;" horiz-adv-x="1062" 
d="M1399 1463q-32 -186 -290 -422q-1 -1 -24.5 17.5t-46.5 37.5l-23 18q10 8 25.5 22t51.5 56.5t58 83.5q-79 0 -126 44.5t-47 117.5q0 112 74 184t176 72q84 0 130.5 -51t46.5 -130q0 -7 -5 -50zM395 1419h309l-62 -352h169l-54 -301h-170l-56 -309q0 -1 -8 -75
q0 -50 23 -70t75 -20q74 0 126 9l-52 -301q-71 -13 -189 -13q-152 0 -225.5 74t-73.5 227q0 77 15 156l57 322h-149l53 301h150z" />
    <glyph glyph-name="Tbar" unicode="&#x166;" horiz-adv-x="1655" 
d="M777 1116h-598l54 303h1501l-53 -303h-597l-69 -382h252l-36 -203h-252l-92 -531h-307l92 531h-252l37 203h251z" />
    <glyph glyph-name="tbar" unicode="&#x167;" horiz-adv-x="955" 
d="M845 1067l-49 -280h-171l-21 -111h173l-35 -202h-172l-5 -17q-8 -60 -8 -75q0 -48 22 -69t76 -21q56 0 104 9l-51 -301q-79 -13 -168 -13q-301 0 -301 295q0 90 17 162l6 30h-147l34 202h148l21 111h-149l49 280h149l62 352h309l-64 -352h171z" />
    <glyph glyph-name="Utilde" unicode="&#x168;" horiz-adv-x="1798" 
d="M992 1833q68 0 132.5 -19.5t113 -39.5t78.5 -20q36 0 53.5 12t27.5 58h118q-22 -126 -90 -206t-192 -80q-67 0 -131 19t-112.5 38.5t-78.5 19.5q-24 0 -37 -3.5t-26 -19t-20 -47.5h-115q51 288 279 288zM796 -51q318 0 531 158t260 418l158 894h-307l-145 -820
q-31 -172 -137 -255.5t-305 -83.5q-171 0 -250.5 61t-79.5 185q0 48 8 93l145 820h-307l-158 -894q-11 -70 -11 -111q0 -214 157.5 -339.5t440.5 -125.5z" />
    <glyph glyph-name="utilde" unicode="&#x169;" horiz-adv-x="1467" 
d="M738 1555q68 0 132.5 -19.5t113 -39.5t78.5 -20q35 0 53 12.5t28 58.5h118q-22 -126 -90 -206t-192 -80q-67 0 -131 19.5t-112.5 38.5t-78.5 19q-36 0 -54.5 -13t-28.5 -58h-115q51 288 279 288zM887 151q-90 -86 -202 -130t-222 -44q-150 0 -235 84t-85 229q0 53 8 98
l120 679h311l-113 -634q-4 -26 -4 -36q0 -65 40.5 -98.5t106.5 -33.5q98 0 198.5 70.5t145.5 193.5l96 538h307l-188 -1067h-288z" />
    <glyph glyph-name="Umacron" unicode="&#x16a;" horiz-adv-x="1798" 
d="M1491 1553h-810l36 203h810zM796 -51q318 0 531 158t260 418l158 894h-307l-145 -820q-31 -172 -137 -255.5t-305 -83.5q-171 0 -250.5 61t-79.5 185q0 48 8 93l145 820h-307l-158 -894q-11 -70 -11 -111q0 -214 157.5 -339.5t440.5 -125.5z" />
    <glyph glyph-name="umacron" unicode="&#x16b;" horiz-adv-x="1467" 
d="M1261 1325h-811l36 202h811zM887 151q-90 -86 -202 -130t-222 -44q-150 0 -235 84t-85 229q0 53 8 98l120 679h311l-113 -634q-4 -26 -4 -36q0 -65 40.5 -98.5t106.5 -33.5q98 0 198.5 70.5t145.5 193.5l96 538h307l-188 -1067h-288z" />
    <glyph glyph-name="Ubreve" unicode="&#x16c;" horiz-adv-x="1798" 
d="M1099 1715q89 0 143 154l151 -17q-22 -122 -114 -218t-208 -96q-101 0 -159.5 73.5t-58.5 178.5q0 25 7 62l155 17q0 -75 18.5 -114.5t65.5 -39.5zM796 -51q-283 0 -440.5 125.5t-157.5 339.5q0 41 11 111l158 894h307l-145 -820q-8 -45 -8 -93q0 -124 79.5 -185
t250.5 -61q199 0 305 83.5t137 255.5l145 820h307l-158 -894q-47 -260 -260 -418t-531 -158z" />
    <glyph glyph-name="ubreve" unicode="&#x16d;" horiz-adv-x="1467" 
d="M864 1431q89 0 143 154l151 -17q-22 -122 -114 -218t-208 -96q-101 0 -159 73.5t-58 178.5q0 30 6 62l156 17q0 -75 18 -114.5t65 -39.5zM887 151q-90 -86 -202 -130t-222 -44q-150 0 -235 84t-85 229q0 53 8 98l120 679h311l-113 -634q-4 -26 -4 -36q0 -65 40.5 -98.5
t106.5 -33.5q98 0 198.5 70.5t145.5 193.5l96 538h307l-188 -1067h-288z" />
    <glyph glyph-name="Uring" unicode="&#x16e;" horiz-adv-x="1798" 
d="M1090 1538q-97 0 -152 51t-55 137q0 131 84.5 213.5t203.5 82.5q95 0 149 -50t54 -135q0 -132 -83.5 -215.5t-200.5 -83.5zM1254 1805q0 50 -27 78t-77 28q-65 0 -107 -42.5t-42 -114.5q0 -50 27.5 -77.5t78.5 -27.5q68 0 107.5 46t39.5 110zM796 -51
q-283 0 -440.5 125.5t-157.5 339.5q0 41 11 111l158 894h307l-145 -820q-8 -45 -8 -93q0 -124 79.5 -185t250.5 -61q199 0 305 83.5t137 255.5l145 820h307l-158 -894q-47 -260 -260 -418t-531 -158z" />
    <glyph glyph-name="uring" unicode="&#x16f;" horiz-adv-x="1467" 
d="M836 1210q-97 0 -152 50.5t-55 136.5q0 131 84.5 214t203.5 83q95 0 149 -50t54 -136q0 -132 -83.5 -215t-200.5 -83zM1001 1476q0 50 -27.5 78.5t-77.5 28.5q-65 0 -107 -43t-42 -115q0 -50 27.5 -77t78.5 -27q68 0 108 45.5t40 109.5zM887 151q-90 -86 -202 -130
t-222 -44q-150 0 -235 84t-85 229q0 53 8 98l120 679h311l-113 -634q-4 -26 -4 -36q0 -65 40.5 -98.5t106.5 -33.5q98 0 198.5 70.5t145.5 193.5l96 538h307l-188 -1067h-288z" />
    <glyph glyph-name="Uhungarumlaut" unicode="&#x170;" horiz-adv-x="1798" 
d="M1220 1901l-290 -359h-181l106 359h365zM1694 1901l-290 -359h-182l107 359h365zM796 -51q318 0 531 158t260 418l158 894h-307l-145 -820q-31 -172 -137 -255.5t-305 -83.5q-171 0 -250.5 61t-79.5 185q0 48 8 93l145 820h-307l-158 -894q-11 -70 -11 -111
q0 -214 157.5 -339.5t440.5 -125.5z" />
    <glyph glyph-name="uhungarumlaut" unicode="&#x171;" horiz-adv-x="1467" 
d="M964 1585l-290 -358h-181l106 358h365zM1438 1585l-290 -358h-182l107 358h365zM887 151q-90 -86 -202 -130t-222 -44q-150 0 -235 84t-85 229q0 53 8 98l120 679h311l-113 -634q-4 -26 -4 -36q0 -65 40.5 -98.5t106.5 -33.5q98 0 198.5 70.5t145.5 193.5l96 538h307
l-188 -1067h-288z" />
    <glyph glyph-name="Uogonek" unicode="&#x172;" horiz-adv-x="1800" 
d="M367 1419h307l-145 -820q-8 -45 -8 -93q0 -124 79.5 -185t250.5 -61q199 0 305 83.5t137 255.5l145 820h307l-158 -894q-40 -226 -206.5 -374.5t-426.5 -188.5q-53 -21 -92 -73.5t-39 -103.5q0 -43 31 -71t93 -28q81 0 199 47l12 -209q-160 -57 -294 -57
q-150 0 -230.5 69.5t-80.5 169.5q0 58 35.5 126.5t111.5 122.5q-240 24 -371 145t-131 316q0 39 11 109z" />
    <glyph glyph-name="uogonek" unicode="&#x173;" horiz-adv-x="1476" 
d="M887 151q-90 -86 -202 -130t-222 -44q-150 0 -235 84t-85 229q0 53 8 98l120 679h311l-113 -634q-4 -26 -4 -36q0 -65 40.5 -98.5t106.5 -33.5q98 0 198.5 70.5t145.5 193.5l96 538h307l-188 -1067h-47q-62 -15 -106.5 -72t-44.5 -114q0 -42 30 -69t91 -27q81 0 201 47
l13 -209q-163 -57 -295 -57q-151 0 -232 70t-81 171q0 61 41 134t127 126h-6z" />
    <glyph glyph-name="Wcircumflex" unicode="&#x174;" horiz-adv-x="2233" 
d="M1502 1547l-181 196l-248 -196h-203l320 358h323l192 -358h-203zM755 555l-158 864h-367l261 -1419h268l389 730l138 -730h269l760 1419h-367l-465 -864l-120 864h-181z" />
    <glyph glyph-name="wcircumflex" unicode="&#x175;" horiz-adv-x="2109" 
d="M1395 1231l-181 196l-248 -196h-202l320 358h322l192 -358h-203zM1858 1067h301l-608 -1067h-307l-158 717l-410 -717h-307l-232 1067h300l150 -726l394 726h333l139 -726z" />
    <glyph glyph-name="Ycircumflex" unicode="&#x176;" horiz-adv-x="1860" 
d="M1323 1540l-182 197l-247 -197h-203l320 359h322l192 -359h-202zM203 1419h386l384 -645l610 645h386l-896 -943l-83 -476h-307l83 476z" />
    <glyph glyph-name="ycircumflex" unicode="&#x177;" horiz-adv-x="1467" 
d="M1056 1237l-181 197l-248 -197h-202l320 359h322l192 -359h-203zM126 1067h316l234 -756l542 756h314l-1088 -1517h-314l344 480z" />
    <glyph glyph-name="Ydieresis" unicode="&#x178;" horiz-adv-x="1860" 
d="M898 1570q-63 0 -101 35.5t-38 92.5q0 85 58.5 142t136.5 57q63 0 100.5 -35.5t37.5 -92.5q0 -85 -58.5 -142t-135.5 -57zM1325 1570q-63 0 -101 35.5t-38 92.5q0 85 58.5 142t135.5 57q63 0 101 -35.5t38 -92.5q0 -85 -58.5 -142t-135.5 -57zM203 1419h386l384 -645
l610 645h386l-896 -943l-83 -476h-307l83 476z" />
    <glyph glyph-name="Zacute" unicode="&#x179;" horiz-adv-x="1728" 
d="M1446 1907l-290 -358h-181l107 358h364zM60 218l83 -218h1372l51 301h-971q78 64 341.5 282.5t442.5 364.5t345 277l-73 194h-1357l-53 -303h896z" />
    <glyph glyph-name="zacute" unicode="&#x17a;" horiz-adv-x="1297" 
d="M1124 1594l-290 -359h-181l106 359h365zM28 0l45 258l693 529h-578l49 280h1017l-42 -237l-721 -551h646l-49 -279h-1060z" />
    <glyph glyph-name="Zdotaccent" unicode="&#x17b;" horiz-adv-x="1728" 
d="M1052 1547q-63 0 -101 35.5t-38 92.5q0 85 58 141.5t136 56.5q63 0 101 -35.5t38 -92.5q0 -85 -58 -141.5t-136 -56.5zM294 1419h1357l73 -194q-166 -131 -345 -277t-442.5 -364.5t-341.5 -282.5h971l-51 -301h-1372l-83 218l1077 898h-896z" />
    <glyph glyph-name="zdotaccent" unicode="&#x17c;" horiz-adv-x="1297" 
d="M806 1254q-63 0 -100.5 35.5t-37.5 92.5q0 85 58.5 142t135.5 57q63 0 101 -35.5t38 -92.5q0 -85 -58.5 -142t-136.5 -57zM28 0l45 258l693 529h-578l49 280h1017l-42 -237l-721 -551h646l-49 -279h-1060z" />
    <glyph glyph-name="Zcaron" unicode="&#x17d;" horiz-adv-x="1728" 
d="M928 1916l181 -197l248 197h202l-320 -359h-322l-192 359h203zM60 218l83 -218h1372l51 301h-971q78 64 341.5 282.5t442.5 364.5t345 277l-73 194h-1357l-53 -303h896z" />
    <glyph glyph-name="zcaron" unicode="&#x17e;" horiz-adv-x="1297" 
d="M636 1600l181 -196l248 196h202l-320 -358h-322l-192 358h203zM28 0l45 258l693 529h-578l49 280h1017l-42 -237l-721 -551h646l-49 -279h-1060z" />
    <glyph glyph-name="uni01D3" unicode="&#x1d3;" horiz-adv-x="1800" 
d="M922 1916l181 -197l247 197h203l-320 -359h-322l-192 359h203zM796 -51q-283 0 -440.5 125.5t-157.5 339.5q0 41 11 111l158 894h307l-145 -820q-8 -45 -8 -93q0 -124 79.5 -185t250.5 -61q199 0 305 83.5t137 255.5l145 820h307l-158 -894q-47 -260 -260 -418t-531 -158
z" />
    <glyph glyph-name="uni01D4" unicode="&#x1d4;" horiz-adv-x="1472" 
d="M676 1574l182 -196l247 196h203l-320 -358h-322l-192 358h202zM890 151q-90 -86 -202 -130t-223 -44q-150 0 -235 84t-85 229q0 47 9 98l119 679h312l-114 -634q-4 -26 -4 -36q0 -65 40.5 -98.5t106.5 -33.5q98 0 198.5 70.5t145.5 193.5l96 538h307l-188 -1067h-288z
" />
    <glyph glyph-name="uni01EA" unicode="&#x1ea;" horiz-adv-x="1802" 
d="M896 -45q-58 -19 -98.5 -73t-40.5 -108q0 -42 30.5 -69t91.5 -27q80 0 200 47l11 -209q-163 -58 -292 -58q-151 0 -232.5 70.5t-81.5 170.5q0 59 43 135.5t128 127.5q-232 38 -362.5 191.5t-130.5 388.5q0 205 72 381t194.5 295t286.5 186.5t347 67.5q298 0 470.5 -161
t172.5 -434q0 -191 -64 -357.5t-174.5 -283.5t-257.5 -190.5t-313 -90.5zM493 612q0 -172 93 -269.5t265 -97.5q160 0 280.5 81t180.5 208.5t60 278.5q0 170 -95 267.5t-266 97.5q-227 0 -372.5 -153.5t-145.5 -412.5z" />
    <glyph glyph-name="uni01EB" unicode="&#x1eb;" horiz-adv-x="1369" 
d="M700 -34q-39 -27 -64.5 -71.5t-25.5 -84.5q0 -42 30.5 -69t91.5 -27q80 0 200 47l11 -209q-163 -58 -292 -58q-151 0 -232.5 70.5t-81.5 170.5q0 50 32.5 115.5t95.5 117.5q-170 31 -265 145t-95 288q0 154 54 286t146 221.5t215 140t259 50.5q224 0 354 -121.5
t130 -326.5q0 -181 -76.5 -330t-203 -239t-283.5 -116zM727 800q-130 0 -216 -89t-86 -237q0 -100 56 -159t155 -59q138 0 221.5 92.5t83.5 231.5q0 102 -56 161t-158 59z" />
    <glyph glyph-name="AEacute" unicode="&#x1fc;" horiz-adv-x="2841" 
d="M2270 1894l-290 -358h-182l107 358h365zM1280 0l60 341h-687l-329 -341h-367l1374 1419h1508l-53 -303h-1003l-40 -229h823l-55 -311h-824l-49 -275h1041l-51 -301h-1348zM941 640h450l85 474h-74z" />
    <glyph glyph-name="aeacute" unicode="&#x1fd;" horiz-adv-x="2107" 
d="M1534 1598l-290 -359h-182l107 359h365zM1713 361q-86 -126 -307 -126q-92 0 -152.5 57t-71.5 150h785q4 -1 18.5 32t29 91t14.5 111q0 188 -133.5 305.5t-342.5 117.5q-138 0 -273 -94l-2 62h-245l-39 -96q-125 119 -309 119q-126 0 -237 -58.5t-185.5 -154
t-117.5 -217.5t-43 -248q0 -103 34 -188t92 -140t132.5 -84.5t157.5 -29.5q177 0 323 124l4 -94h245l19 49q107 -92 250 -92q152 0 305 67.5t243 199.5zM1504 821q220 0 237 -160h-512q46 73 119.5 116.5t155.5 43.5zM416 454q0 84 38.5 163t112.5 131t165 52
q100 0 146 -54.5t46 -143.5q0 -82 -32 -159t-101 -132t-160 -55q-100 0 -157.5 52t-57.5 146z" />
    <glyph glyph-name="Oslashacute" unicode="&#x1fe;" horiz-adv-x="1802" 
d="M1442 1922l-290 -358h-181l106 358h365zM800 -49q181 0 345.5 67t288.5 185.5t197.5 294t73.5 379.5q0 284 -190 448l64 72l-66 43l-60 -68q-164 100 -391 100q-181 0 -345.5 -67t-287 -186.5t-195 -294.5t-72.5 -380q0 -282 186 -446l-81 -92l68 -42l75 87
q159 -100 390 -100zM1011 1178q128 0 220 -60l-659 -760q-79 92 -79 250q0 261 145.5 415.5t372.5 154.5zM1361 689q-37 -208 -173.5 -326t-336.5 -118q-130 0 -222 60l660 760q83 -94 83 -254q0 -69 -11 -122z" />
    <glyph glyph-name="oslashacute" unicode="&#x1ff;" horiz-adv-x="1384" 
d="M1165 1591l-290 -358h-182l107 358h365zM591 -43q135 0 258 50.5t216 139t148.5 219.5t55.5 283q0 204 -130 328l139 160l-66 43l-137 -156q-118 75 -290 75q-137 0 -260.5 -51t-215.5 -141t-146 -223t-54 -287q0 -207 136 -327l-140 -164l66 -43l138 160
q118 -66 282 -66zM734 800q68 0 119 -30l-379 -439q-43 55 -43 143q0 147 86.5 236.5t216.5 89.5zM947 578q0 -130 -84.5 -226t-220.5 -96q-68 0 -109 23l380 436q34 -58 34 -137z" />
    <glyph glyph-name="uni0218" unicode="&#x218;" horiz-adv-x="1725" 
d="M599 1013q0 -37 27.5 -62t75 -38t110.5 -23t133.5 -14.5t145.5 -14t145.5 -21t133.5 -36t110.5 -58.5t75 -89t27.5 -126q0 -123 -49 -224t-128.5 -166.5t-186 -110.5t-216.5 -64t-224 -19q-42 0 -68.5 0.5t-82.5 4t-95 10.5t-95 21.5t-96 34.5t-84.5 52t-73 72t-49 96
t-24.5 123l301 147q19 -55 46.5 -96.5t61.5 -67t66.5 -41.5t74 -23t71 -9t70.5 -2q433 0 433 179q0 41 -34.5 66.5t-93 37t-134 17.5t-159 11.5t-167.5 14.5t-159.5 30.5t-134 56t-93 95t-34.5 142.5q0 106 46.5 197t125 155t181.5 109.5t217.5 67.5t231.5 22q123 0 233 -25
t197 -73t138 -125.5t51 -175.5v-28l-269 -98q-11 85 -71.5 143.5t-143 82.5t-180.5 24q-51 0 -113 -10t-125 -30t-104.5 -57.5t-41.5 -84.5zM979 -386q4 30 4 43q0 77 -45 127t-125 50q-98 0 -167.5 -69t-69.5 -177q0 -71 44 -112t120 -41q-20 -39 -52 -77.5t-54 -57.5
l-22 -19q6 -5 15 -12t28 -23t32 -26t13 -9q246 222 279 403z" />
    <glyph glyph-name="uni0219" unicode="&#x219;" horiz-adv-x="1294" 
d="M971 710q-21 71 -103 108t-181 37q-88 0 -146.5 -27.5t-58.5 -72.5q0 -38 37.5 -59t97.5 -29t132 -13t144.5 -17t132.5 -35t97.5 -73.5t37.5 -125.5q0 -88 -36 -163t-93.5 -125.5t-131.5 -86.5t-148.5 -52.5t-145.5 -16.5q-480 0 -555 314l258 111q34 -80 134 -123
t206 -43q81 0 136.5 28t55.5 87q0 32 -37 49t-96 23t-130.5 11t-143 18.5t-130.5 38.5t-96 78t-37 130q0 95 38 170t96.5 120.5t137 75.5t151 41t146.5 11q117 0 214.5 -31t166 -97t89.5 -158zM751 -386q4 30 4 43q0 77 -45 127t-125 50q-98 0 -167.5 -69t-69.5 -177
q0 -71 44 -112t120 -41q-20 -39 -52 -77.5t-54 -57.5l-22 -19q6 -5 15 -12t28 -23t31.5 -26t12.5 -9q248 224 280 403z" />
    <glyph glyph-name="uni0237" unicode="&#x237;" horiz-adv-x="718" 
d="M433 75q-48 -269 -197.5 -397t-414.5 -128l51 301q116 0 177 72t92 243l160 901h309z" />
    <glyph glyph-name="circumflex" unicode="&#x2c6;" horiz-adv-x="1026" 
d="M909 1557l-182 197l-247 -197h-203l320 359h322l192 -359h-202z" />
    <glyph glyph-name="caron" unicode="&#x2c7;" horiz-adv-x="1036" 
d="M548 1916l182 -197l247 197h203l-320 -359h-322l-192 359h202z" />
    <glyph glyph-name="breve" unicode="&#x2d8;" horiz-adv-x="840" 
d="M625 1715q89 0 143 154l151 -17q-22 -122 -114 -218t-208 -96q-101 0 -159 73.5t-58 178.5q0 30 6 62l156 17q0 -75 18 -114.5t65 -39.5z" />
    <glyph glyph-name="dotaccent" unicode="&#x2d9;" horiz-adv-x="676" 
d="M523 1570q-63 0 -101 35.5t-38 92.5q0 85 58.5 142t135.5 57q63 0 101 -35.5t38 -92.5q0 -85 -58.5 -142t-135.5 -57z" />
    <glyph glyph-name="ring" unicode="&#x2da;" horiz-adv-x="800" 
d="M576 1513q-97 0 -152 50.5t-55 136.5q0 131 84.5 214t203.5 83q95 0 149 -50t54 -136q0 -132 -83.5 -215t-200.5 -83zM740 1779q0 50 -27 78.5t-77 28.5q-65 0 -107.5 -43t-42.5 -115q0 -50 28 -77.5t79 -27.5q68 0 107.5 46t39.5 110z" />
    <glyph glyph-name="ogonek" unicode="&#x2db;" horiz-adv-x="870" 
d="M454 0q-72 0 -128.5 -62t-56.5 -128q0 -42 30 -69t91 -27q81 0 201 47l11 -209q-163 -58 -293 -58q-151 0 -232 70t-81 171q0 33 13 72.5t45 85.5t78.5 83t121.5 61.5t166 24.5q34 0 49 -2z" />
    <glyph glyph-name="tilde" unicode="&#x2dc;" horiz-adv-x="1094" 
d="M640 1888q68 0 132.5 -20t113 -39.5t78.5 -19.5q36 0 53.5 12t27.5 58h118q-10 -59 -30 -108t-53 -90t-83.5 -64t-115.5 -23q-67 0 -131 19t-112.5 38t-78.5 19q-24 0 -37 -3.5t-26 -19t-20 -47.5h-115q51 288 279 288z" />
    <glyph glyph-name="hungarumlaut" unicode="&#x2dd;" horiz-adv-x="1184" 
d="M841 1916l-291 -359h-181l107 359h365zM1314 1916l-290 -359h-181l106 359h365z" />
    <glyph glyph-name="gravecomb" unicode="&#x300;" 
d="M-188 1557l-162 359h365l-21 -359h-182z" />
    <glyph glyph-name="acutecomb" unicode="&#x301;" 
d="M130 1916l-290 -359h-181l106 359h365z" />
    <glyph glyph-name="uni0302" unicode="&#x302;" 
d="M-117 1557l-182 197l-247 -197h-203l320 359h322l192 -359h-202z" />
    <glyph glyph-name="tildecomb" unicode="&#x303;" 
d="M-454 1888q68 0 132.5 -20t113 -39.5t78.5 -19.5q36 0 53.5 12t27.5 58h117q-22 -126 -89.5 -205.5t-191.5 -79.5q-67 0 -131 19t-112.5 38t-78.5 19q-24 0 -37.5 -3.5t-26.5 -19.5t-20 -47h-115q51 288 280 288z" />
    <glyph glyph-name="uni0304" unicode="&#x304;" 
d="M-13 1630h-810l36 203h810z" />
    <glyph glyph-name="uni0306" unicode="&#x306;" 
d="M-215 1715q48 0 82 40t60 114l152 -17q-22 -122 -114 -218t-208 -96q-101 0 -159.5 73.5t-58.5 178.5q0 25 7 62l155 17q0 -75 18.5 -114.5t65.5 -39.5z" />
    <glyph glyph-name="uni0307" unicode="&#x307;" 
d="M-154 1570q-63 0 -100.5 35.5t-37.5 92.5q0 85 58.5 142t135.5 57q63 0 101 -35.5t38 -92.5q0 -85 -58.5 -142t-136.5 -57z" />
    <glyph glyph-name="uni0308" unicode="&#x308;" 
d="M-580 1570q-63 0 -101 35.5t-38 92.5q0 85 58.5 142t135.5 57q63 0 101 -35.5t38 -92.5q0 -85 -58.5 -142t-135.5 -57zM-154 1570q-63 0 -100.5 35.5t-37.5 92.5q0 85 58.5 142t135.5 57q63 0 101 -35.5t38 -92.5q0 -85 -58.5 -142t-136.5 -57z" />
    <glyph glyph-name="uni030A" unicode="&#x30a;" 
d="M-224 1513q-97 0 -152 50.5t-55 136.5q0 131 84.5 214t203.5 83q95 0 149 -50t54 -136q0 -132 -83.5 -215t-200.5 -83zM-60 1779q0 50 -27 78.5t-77 28.5q-65 0 -107.5 -43t-42.5 -115q0 -50 28 -77.5t79 -27.5q68 0 107.5 46t39.5 110z" />
    <glyph glyph-name="uni030B" unicode="&#x30b;" 
d="M-343 1916l-291 -359h-181l107 359h365zM130 1916l-290 -359h-181l106 359h365z" />
    <glyph glyph-name="uni030C" unicode="&#x30c;" 
d="M-489 1916l182 -197l247 197h203l-320 -359h-322l-192 359h202z" />
    <glyph glyph-name="uni0312" unicode="&#x312;" 
d="M-371 1436q33 180 277 403q1 1 23.5 -16.5t44.5 -35.5l22 -18q-9 -8 -24 -21.5t-49.5 -53.5t-54.5 -79q76 0 119 -42.5t43 -113.5q0 -107 -69 -175t-166 -68q-80 0 -125 49t-45 124q0 17 4 47z" />
    <glyph glyph-name="uni0326" unicode="&#x326;" 
d="M-273 -386q4 30 4 43q0 77 -45 127t-125 50q-98 0 -167.5 -69t-69.5 -177q0 -71 44 -112t120 -41q-20 -39 -52 -77.5t-54 -57.5l-22 -19q6 -5 15 -12t28 -23t31.5 -26t12.5 -9q248 224 280 403z" />
    <glyph glyph-name="uni0327" unicode="&#x327;" 
d="M-397 -19l-45 -86q89 -9 133 -51.5t44 -103.5q0 -103 -98 -193.5t-239 -90.5q-80 0 -157 32l66 147q48 -21 91 -21q45 0 72 23t27 52q0 26 -23.5 43.5t-68.5 17.5q-13 0 -43 -4l117 267z" />
    <glyph glyph-name="uni0328" unicode="&#x328;" 
d="M-416 0q-72 0 -129 -62t-57 -128q0 -42 30.5 -69t91.5 -27q81 0 201 47l10 -209q-163 -58 -292 -58q-151 0 -232.5 70.5t-81.5 170.5q0 33 13 72.5t45.5 85.5t79 83t121.5 61.5t166 24.5q34 0 49 -2z" />
    <glyph glyph-name="Wgrave" unicode="&#x1e80;" horiz-adv-x="2233" 
d="M1276 1553l-162 358h364l-21 -358h-181zM755 555l-158 864h-367l261 -1419h268l389 730l138 -730h269l760 1419h-367l-465 -864l-120 864h-181z" />
    <glyph glyph-name="wgrave" unicode="&#x1e81;" horiz-adv-x="2109" 
d="M1152 1239l-162 359h365l-22 -359h-181zM1858 1067h301l-608 -1067h-307l-158 717l-410 -717h-307l-232 1067h300l150 -726l394 726h333l139 -726z" />
    <glyph glyph-name="Wacute" unicode="&#x1e82;" horiz-adv-x="2233" 
d="M1666 1905l-290 -358h-181l106 358h365zM755 555l-158 864h-367l261 -1419h268l389 730l138 -730h269l760 1419h-367l-465 -864l-120 864h-181z" />
    <glyph glyph-name="wacute" unicode="&#x1e83;" horiz-adv-x="2109" 
d="M1532 1596l-290 -359h-182l107 359h365zM1858 1067h301l-608 -1067h-307l-158 717l-410 -717h-307l-232 1067h300l150 -726l394 726h333l139 -726z" />
    <glyph glyph-name="Wdieresis" unicode="&#x1e84;" horiz-adv-x="2233" 
d="M1084 1549q-63 0 -101 35.5t-38 92.5q0 85 58 141.5t136 56.5q63 0 101 -35.5t38 -92.5q0 -85 -58 -141.5t-136 -56.5zM1510 1549q-63 0 -100.5 35.5t-37.5 92.5q0 85 58 141.5t136 56.5q63 0 101 -35.5t38 -92.5q0 -85 -58.5 -141.5t-136.5 -56.5zM1483 555l465 864h367
l-760 -1419h-269l-138 730l-389 -730h-268l-261 1419h367l158 -864l427 864h181z" />
    <glyph glyph-name="wdieresis" unicode="&#x1e85;" horiz-adv-x="2109" 
d="M966 1239q-63 0 -100.5 35.5t-37.5 92.5q0 85 58.5 142t135.5 57q63 0 101 -35.5t38 -92.5q0 -85 -58.5 -142t-136.5 -57zM1393 1239q-63 0 -101 35.5t-38 92.5q0 85 58.5 142t136.5 57q63 0 100.5 -35.5t37.5 -92.5q0 -85 -58.5 -142t-135.5 -57zM1858 1067h301
l-608 -1067h-307l-158 717l-410 -717h-307l-232 1067h300l150 -726l394 726h333l139 -726z" />
    <glyph glyph-name="Ygrave" unicode="&#x1ef2;" horiz-adv-x="1860" 
d="M1075 1557l-162 359h365l-21 -359h-182zM203 1419h386l384 -645l610 645h386l-896 -943l-83 -476h-307l83 476z" />
    <glyph glyph-name="ygrave" unicode="&#x1ef3;" horiz-adv-x="1467" 
d="M817 1227l-162 358h365l-22 -358h-181zM126 1067h316l234 -756l542 756h314l-1088 -1517h-314l344 480z" />
    <glyph glyph-name="endash" unicode="&#x2013;" horiz-adv-x="1448" 
d="M1278 732l-15 -86h-1039l15 86h1039z" />
    <glyph glyph-name="emdash" unicode="&#x2014;" horiz-adv-x="2318" 
d="M2148 732l-15 -86h-1909l15 86h1909z" />
    <glyph glyph-name="quoteleft" unicode="&#x2018;" horiz-adv-x="819" 
d="M243 956q40 220 344 497q0 1 27.5 -20.5t55.5 -43.5l28 -22q-11 -9 -30 -25.5t-61.5 -66t-68.5 -97.5q94 -1 148 -53t54 -139q0 -131 -86 -216t-206 -85q-101 0 -155 60.5t-54 156.5q0 35 4 54z" />
    <glyph glyph-name="quoteright" unicode="&#x2019;" horiz-adv-x="819" 
d="M764 1184q-36 -218 -342 -497q0 -1 -28 20.5t-56 42.5l-27 22q11 9 30 26t61.5 66.5t68.5 97.5q-95 1 -148.5 53t-53.5 139q0 131 86 216t206 85q99 0 153 -60t54 -153q0 -20 -4 -58z" />
    <glyph glyph-name="quotesinglbase" unicode="&#x201a;" horiz-adv-x="817" 
d="M587 186q-41 -222 -342 -497q0 -1 -27.5 20.5t-55.5 42.5l-28 22q11 9 30 26t61.5 66.5t68.5 97.5q-95 1 -148.5 53t-53.5 139q0 132 84.5 216.5t205.5 84.5q99 0 154 -61.5t55 -154.5q0 -17 -4 -55z" />
    <glyph glyph-name="quotedblleft" unicode="&#x201c;" horiz-adv-x="1395" 
d="M243 956q40 220 344 497q0 1 27.5 -20.5t55.5 -43.5l28 -22q-11 -9 -30 -25.5t-61.5 -66t-68.5 -97.5q94 -1 148 -53t54 -139q0 -131 -86 -216t-206 -85q-101 0 -155 60.5t-54 156.5q0 35 4 54zM819 956q40 220 344 497q0 1 27.5 -20.5t55.5 -43.5l28 -22
q-11 -9 -30 -25.5t-61.5 -66t-68.5 -97.5q94 -1 148 -53t54 -139q0 -131 -86 -216t-206 -85q-101 0 -155 60.5t-54 156.5q0 35 4 54z" />
    <glyph glyph-name="quotedblright" unicode="&#x201d;" horiz-adv-x="1395" 
d="M764 1184q-36 -218 -342 -497q0 -1 -28 20.5t-56 42.5l-27 22q11 9 30 26t61.5 66.5t68.5 97.5q-95 1 -148.5 53t-53.5 139q0 131 86 216t206 85q99 0 153 -60t54 -153q0 -20 -4 -58zM1340 1184q-36 -218 -342 -497q0 -1 -28 20.5t-56 42.5l-27 22q11 9 30 26t61.5 66.5
t68.5 97.5q-95 1 -148.5 53t-53.5 139q0 131 86 216t206 85q99 0 153 -60t54 -153q0 -20 -4 -58z" />
    <glyph glyph-name="quotedblbase" unicode="&#x201e;" horiz-adv-x="1393" 
d="M587 186q-41 -222 -342 -497q0 -1 -27.5 20.5t-55.5 42.5l-28 22q11 9 30 26t61.5 66.5t68.5 97.5q-95 1 -148.5 53t-53.5 139q0 132 84.5 216.5t205.5 84.5q99 0 154 -61.5t55 -154.5q0 -17 -4 -55zM1163 186q-41 -222 -342 -497q0 -1 -27.5 20.5t-55.5 42.5l-28 22
q11 9 30 26t61.5 66.5t68.5 97.5q-95 1 -148.5 53t-53.5 139q0 132 84.5 216.5t205.5 84.5q99 0 154 -61.5t55 -154.5q0 -17 -4 -55z" />
    <glyph glyph-name="dagger" unicode="&#x2020;" horiz-adv-x="953" 
d="M582 1135q-5 0 -21 32t-31.5 83.5t-15.5 93.5q0 10 6 31t19.5 49t42.5 48.5t67 20.5q42 0 64.5 -33.5t22.5 -72.5q0 -41 -37.5 -104t-73.5 -105.5t-40 -42.5h-3zM521 1079q-1 -6 -45 -31.5t-108 -51t-106 -25.5q-34 0 -68 26t-34 68q0 54 50 89.5t91 35.5q42 0 97 -25.5
t89.5 -51t33.5 -31.5v-3zM627 1082q1 6 44.5 31.5t107.5 51t106 25.5q33 0 68 -25.5t35 -67.5q0 -54 -50 -90t-91 -36q-42 0 -97 25.5t-89.5 51t-33.5 31.5v3zM565 1028q2 0 7.5 -62t10 -168t4.5 -201q0 -65 -0.5 -102.5t-4 -87t-10.5 -76.5t-19 -58t-30 -46t-44 -25
t-61 -10q-51 0 -82 23t-31 69q0 78 66 264.5t129 333.5l63 146h2z" />
    <glyph glyph-name="bullet" unicode="&#x2022;" horiz-adv-x="887" 
d="M414 354q-118 0 -186 64.5t-68 172.5q0 158 105 260.5t251 102.5q117 0 184.5 -64.5t67.5 -172.5q0 -158 -104 -260.5t-250 -102.5z" />
    <glyph glyph-name="ellipsis" unicode="&#x2026;" horiz-adv-x="2598" 
d="M303 -36q-96 0 -151.5 52.5t-55.5 139.5q0 131 85 216t205 85q96 0 152.5 -54t56.5 -141q0 -131 -86 -214.5t-206 -83.5zM1199 -36q-96 0 -151.5 52.5t-55.5 139.5q0 131 85 216t205 85q96 0 152.5 -54t56.5 -141q0 -131 -86 -214.5t-206 -83.5zM2095 -36
q-96 0 -151.5 52.5t-55.5 139.5q0 131 85 216t205 85q96 0 152.5 -54t56.5 -141q0 -131 -86 -214.5t-206 -83.5z" />
    <glyph glyph-name="perthousand" unicode="&#x2030;" horiz-adv-x="3136" 
d="M602 -36l-69 42l1076 1434l66 -43zM518 493q146 0 269 68.5t197 197.5t74 293q0 161 -102 256.5t-280 95.5q-108 0 -207 -40t-173 -111t-118 -176.5t-44 -227.5q0 -164 102.5 -260t281.5 -96zM836 1001q0 -123 -78.5 -214.5t-204.5 -91.5q-92 0 -143.5 53.5t-51.5 145.5
q0 140 79.5 223.5t202.5 83.5q93 0 144.5 -53.5t51.5 -146.5zM1523 -17q145 0 268 68t197.5 196t74.5 291q0 162 -103 259t-281 97q-145 0 -268 -68t-197.5 -196t-74.5 -291q0 -164 102.5 -260t281.5 -96zM2519 -17q145 0 268 68t197.5 196t74.5 291q0 162 -103 259t-281 97
q-145 0 -268 -68t-197.5 -196t-74.5 -291q0 -164 102.5 -260t281.5 -96zM1841 491q0 -123 -79 -214t-205 -91q-92 0 -143 52t-51 144q0 141 79 225t203 84q93 0 144.5 -53.5t51.5 -146.5zM2837 491q0 -123 -78.5 -214t-204.5 -91q-93 0 -144 52t-51 144q0 141 79 225t203 84
q93 0 144.5 -53.5t51.5 -146.5z" />
    <glyph glyph-name="guilsinglleft" unicode="&#x2039;" horiz-adv-x="736" 
d="M111 636l514 390l38 -36l-294 -391l160 -390l-53 -36l-378 388z" />
    <glyph glyph-name="guilsinglright" unicode="&#x203a;" horiz-adv-x="738" 
d="M94 209l296 390l-157 391l51 36l377 -390l-12 -75l-515 -388z" />
    <glyph glyph-name="fraction" unicode="&#x2044;" horiz-adv-x="981" 
d="M111 -36l-68 42l1075 1434l66 -43z" />
    <glyph glyph-name="Euro" unicode="&#x20ac;" horiz-adv-x="1600" 
d="M877 766h-265l-8 -34q-5 -27 -5 -32h265l-34 -203h-222q24 -109 94 -173t185 -64q125 0 234.5 92t158.5 239l205 -115q-29 -114 -86 -206.5t-126.5 -151.5t-152.5 -99t-162.5 -57t-159.5 -17q-123 0 -220 43.5t-157.5 120t-93.5 174.5t-37 214h-185l34 203h164l6 30
q3 16 9 36h-167l37 203h198q100 223 279 364t414 141q32 0 53 -0.5t66.5 -6.5t79.5 -17t81 -34t83.5 -55t74.5 -83t66 -115l-258 -194q-27 100 -103.5 152t-176.5 52q-101 0 -196 -53t-154 -151h218z" />
    <glyph glyph-name="trademark" unicode="&#x2122;" horiz-adv-x="2060" 
d="M969 1267h-299l-98 -557h-154l98 557h-298l27 152h751zM1513 1090l264 329h194l-126 -709h-153l89 502l-256 -293h-89l-150 293l-89 -502h-154l126 709h194z" />
    <glyph glyph-name="minus" unicode="&#x2212;" horiz-adv-x="1499" 
d="M1329 732l-15 -86h-1090l15 86h1090z" />
    <glyph glyph-name="notequal" unicode="&#x2260;" horiz-adv-x="1233" 
d="M902 924h329l-15 -86h-388l-261 -298h596l-15 -86h-655l-241 -277l-66 43l202 234h-330l15 86h390l262 298h-599l15 86h659l241 277l66 -43z" />
    <glyph glyph-name="uniF8FF" unicode="&#xf8ff;" horiz-adv-x="1749" 
d="M858 1299q-24 31 -69.5 84.5t-78.5 91.5l-34 38l17 14q60 -43 104 -71t59 -35l14 -7h9q43 17 177 113l19 -14q-128 -144 -183 -214h-34zM875 -79q-180 0 -332 88t-241 240.5t-89 332.5q0 134 52.5 255.5t141 209.5t211.5 140t257 52q180 0 332 -88t240.5 -239t88.5 -330
q0 -135 -52.5 -257.5t-141 -211t-210.5 -140.5t-257 -52zM862 119q54 0 104 15.5t91.5 45.5t66 79.5t24.5 111.5q0 52 -23 96.5t-59.5 76.5t-80.5 61t-88 56t-80.5 55.5t-59.5 65.5t-23 80q0 58 41 96t106 38q80 0 120.5 -54.5t71.5 -175.5l19 2q0 164 22 269l-20 4
q-1 -4 -3 -10t-15.5 -16t-34.5 -10q-22 0 -71.5 9.5t-90.5 9.5q-115 0 -181.5 -61.5t-66.5 -141.5q0 -54 22.5 -99.5t58.5 -78t79.5 -61.5t87 -57t79.5 -57t58.5 -68t22.5 -84q0 -78 -46 -122.5t-112 -44.5q-78 0 -137 58.5t-59 161.5q0 62 23 111l-17 9q-85 -67 -85 -167
q0 -94 76 -148.5t180 -54.5z" />
    </font>
</defs>
</svg>
