<?xml version="1.0" standalone="no"?>
<!DOCTYPE svg PUBLIC "-//W3C//DTD SVG 1.1//EN" "http://www.w3.org/Graphics/SVG/1.1/DTD/svg11.dtd" >
<svg xmlns="http://www.w3.org/2000/svg" xmlns:xlink="http://www.w3.org/1999/xlink" version="1.1">
<metadata>
Created by FontForge 20201107 at Mon Nov 11 12:04:45 2024
 By 
Copyright (c) 2016-2020 by Alejandro Paul. All rights reserved. www.sudtipos.com, with Reserved Font Name "Henderson Sans"
</metadata>
<defs>
<font id="HendersonSansBasic-Bold" horiz-adv-x="1800" >
  <font-face 
    font-family="Henderson Sans Basic"
    font-weight="700"
    font-stretch="normal"
    units-per-em="2048"
    panose-1="2 0 5 5 3 0 0 2 0 4"
    ascent="1638"
    descent="-410"
    x-height="1067"
    cap-height="1419"
    bbox="-1015 -811.087 3066 2022"
    underline-thickness="106"
    underline-position="-213"
    unicode-range="U+0020-FB02"
  />
<missing-glyph horiz-adv-x="1066" 
d="M875 1647v-2133h-677v2133h677zM710 1504h-352v-70h139v-79h-141v-71h354v71h-140v79h140v70zM570 1229h-214v-222h354v72h-140v150zM497 1156v-77h-70v77h70zM710 949h-354v-70h141v-79h-141v-70h214v149h140v70zM710 821h-70v-140h-284v-73h354v213zM710 561h-213v-119
h73v49h70v-101h-213v171h-71v-241h354v241zM710 192h-354v-241h354v241zM640 122v-101h-213v101h213zM710 -98h-354v-71h150l-150 -100v-70h354v70h-217l149 100h68v71z" />
    <glyph glyph-name="fi" unicode="fi" horiz-adv-x="1689" 
d="M1327 1203q-86 0 -142 55t-56 139q0 90 55 145.5t141 55.5t142 -55t56 -139q0 -90 -55 -145.5t-141 -55.5zM1178 0v809h-613v-809h-307v766h-149v301h149v2q0 116 30.5 192.5t97.5 120.5t160.5 61.5t232.5 17.5v-264q-113 0 -154.5 -24t-52.5 -106h915l-2 -1067h-307z
" />
    <glyph glyph-name="fl" unicode="fl" horiz-adv-x="1708" 
d="M777 1199q-113 0 -154.5 -25t-52.5 -107h143v-301h-150v-766h-307v766h-149v301h149v2q0 115 30 191.5t96.5 121.5t159.5 63t232 18h638v-1006q0 -95 24 -130t91 -35q74 0 126 9v-301q-68 -13 -185 -13q-185 0 -274 112.5t-89 344.5v755h-328z" />
    <glyph glyph-name=".notdef" horiz-adv-x="1066" 
d="M875 1647v-2133h-677v2133h677zM710 1504h-352v-70h139v-79h-141v-71h354v71h-140v79h140v70zM570 1229h-214v-222h354v72h-140v150zM497 1156v-77h-70v77h70zM710 949h-354v-70h141v-79h-141v-70h214v149h140v70zM710 821h-70v-140h-284v-73h354v213zM710 561h-213v-119
h73v49h70v-101h-213v171h-71v-241h354v241zM710 192h-354v-241h354v241zM640 122v-101h-213v101h213zM710 -98h-354v-71h150l-150 -100v-70h354v70h-217l149 100h68v71z" />
    <glyph glyph-name=".null" horiz-adv-x="0" 
 />
    <glyph glyph-name="nonmarkingreturn" horiz-adv-x="682" 
 />
    <glyph glyph-name="space" unicode=" " horiz-adv-x="682" 
 />
    <glyph glyph-name="exclam" unicode="!" horiz-adv-x="727" 
d="M162 1419h397v-303l-85 -657h-222l-90 657v303zM369 -36q89 0 143.5 55t54.5 147q0 87 -55.5 142t-144.5 55q-88 0 -143 -55.5t-55 -147.5q0 -87 55.5 -141.5t144.5 -54.5z" />
    <glyph glyph-name="quotedbl" unicode="&#x22;" horiz-adv-x="1329" 
d="M181 1419h397v-303l-85 -414h-222l-90 414v303zM751 1419h397v-303l-86 -414h-221l-90 414v303z" />
    <glyph glyph-name="numbersign" unicode="#" horiz-adv-x="1339" 
d="M561 924l179 309h86l-180 -309h299l179 309h86l-180 -309h263v-86h-312l-172 -298h334v-86h-384l-179 -311h-85l179 311h-299l-179 -311h-85l179 311h-237v86h286l173 298h-309v86h358zM723 540l173 298h-299l-172 -298h298z" />
    <glyph glyph-name="dollar" unicode="$" horiz-adv-x="1393" 
d="M335 506q34 -71 143 -111.5t211 -40.5q322 0 322 128q0 49 -48.5 75t-126 34t-171 12.5t-187.5 19.5t-171.5 45.5t-126 100t-48.5 174.5q0 72 28.5 132.5t74.5 101t108.5 71t124.5 47t129 23.5v165h224v-173q148 -23 266.5 -92t162.5 -179l-220 -102q-23 48 -86 80.5
t-130 45t-133 12.5q-72 0 -128 -10t-94.5 -35t-38.5 -64t29.5 -63.5t79.5 -36.5t114.5 -18.5t136 -13t143 -16t136 -31.5t114.5 -55.5t79.5 -91.5t29.5 -137q0 -80 -26.5 -146.5t-70 -112.5t-103.5 -80t-124 -53t-135 -28v-147h-226v145q-370 31 -482 322z" />
    <glyph glyph-name="percent" unicode="%" horiz-adv-x="2139" 
d="M700 -36l-75 42l821 1434l75 -43zM525 493q204 0 327 125t123 336q0 202 -125 326t-329 124t-327.5 -125t-123.5 -336q0 -202 125 -326t330 -124zM757 937q0 -113 -63 -177.5t-171 -64.5t-171.5 72t-63.5 193q0 113 62.5 177t170.5 64t172 -72t64 -192zM1619 -17
q204 0 327 125t123 336q0 202 -125 326t-329 124t-327 -125t-123 -336q0 -202 125 -326t329 -124zM1852 427q0 -112 -63.5 -176.5t-171.5 -64.5t-171.5 71.5t-63.5 192.5q0 113 62.5 177t170.5 64q109 0 173 -72t64 -192z" />
    <glyph glyph-name="ampersand" unicode="&#x26;" horiz-adv-x="1909" 
d="M817 1481q96 0 193 -25t183 -73t140 -130t54 -184q0 -192 -139 -331q87 -59 126 -111q73 57 177 108.5t179 51.5q3 -14 25.5 -117.5t27.5 -159.5q-76 -20 -131.5 -59t-55.5 -101q0 -19 8 -35t23.5 -26.5t31 -18t39.5 -12.5t38.5 -7.5t38.5 -5.5q-2 -27 -5 -84t-6 -100.5
t-8 -83.5q-42 -9 -79 -9q-180 0 -335 171q-174 -120 -281 -156t-310 -36q-165 0 -304.5 56t-224.5 161.5t-85 240.5q0 103 55 194t143 152q-63 82 -91.5 144t-28.5 140q0 93 37 169.5t97.5 127t140 85t161.5 49.5t166 15zM572 1047q0 -44 26 -76t67.5 -47.5t80.5 -22.5
t77 -7q55 0 105 10.5t92 43t42 82.5q0 44 -27.5 74.5t-72 43.5t-82.5 18t-78 5q-35 0 -71.5 -6t-74 -19.5t-61 -39t-23.5 -59.5zM465 422q0 -42 24 -73t58 -47.5t82 -26.5t83.5 -12.5t74.5 -2.5q38 0 89 9.5t104.5 27t90 50.5t36.5 73q0 38 -49.5 80t-124.5 69.5t-144 27.5
q-39 0 -78 -4t-85 -15.5t-80.5 -30t-57.5 -51t-23 -74.5z" />
    <glyph glyph-name="quotesingle" unicode="'" horiz-adv-x="759" 
d="M181 1419h397v-303l-85 -414h-222l-90 414v303z" />
    <glyph glyph-name="parenleft" unicode="(" horiz-adv-x="787" 
d="M719 1707q-151 -208 -229 -466t-78 -531t78 -532t229 -470h-162q-207 198 -313.5 454t-106.5 533t106.5 539.5t313.5 472.5h162z" />
    <glyph glyph-name="parenright" unicode=")" horiz-adv-x="787" 
d="M230 1707q207 -210 314 -472.5t107 -539.5t-107 -533t-314 -454h-162q151 211 229 470t78 532t-78 531t-229 466h162z" />
    <glyph glyph-name="asterisk" unicode="*" horiz-adv-x="966" 
d="M482 1135q-6 0 -32 39t-51.5 98.5t-25.5 101.5q0 38 30.5 78.5t80.5 40.5q48 0 78.5 -41t30.5 -78q0 -42 -25.5 -101.5t-51.5 -98.5t-32 -39h-2zM437 1107q-6 -6 -85 -6q-237 0 -237 138q0 42 30.5 70.5t76.5 28.5q69 0 128 -69t87 -160v-2zM529 1109q15 65 78.5 145.5
t134.5 80.5q43 0 77 -26t34 -70q0 -138 -239 -138q-83 0 -83 6zM437 1054q-28 -91 -87 -159.5t-128 -68.5q-46 0 -76.5 28t-30.5 70q0 138 237 138q79 0 85 -6v-2zM531 1056q0 6 83 6q239 0 239 -138q0 -44 -34 -70t-77 -26q-71 0 -134.5 80.5t-78.5 145.5zM484 1028
q6 0 32 -39t51.5 -98.5t25.5 -101.5q0 -37 -30.5 -78t-78.5 -41q-50 0 -80.5 40.5t-30.5 78.5q0 42 25.5 101.5t51.5 98.5t32 39h2z" />
    <glyph glyph-name="plus" unicode="+" horiz-adv-x="1132" 
d="M523 732v501h85v-501h503v-86h-503v-503h-85v503h-502v86h502z" />
    <glyph glyph-name="comma" unicode="," horiz-adv-x="736" 
d="M608 186q0 -222 -254 -497q0 -1 -31.5 20.5t-62.5 42.5l-32 22q10 9 25.5 26t49.5 66.5t51 97.5q-109 1 -175 68.5t-66 174.5q0 113 67 181.5t176 68.5q115 0 183.5 -79t68.5 -192z" />
    <glyph glyph-name="hyphen" unicode="-" horiz-adv-x="1457" 
d="M1252 774v-192h-1047v192h1047z" />
    <glyph glyph-name="period" unicode="." horiz-adv-x="806" 
d="M403 -36q-110 0 -177.5 67.5t-67.5 175.5q0 113 67 181.5t176 68.5q110 0 179 -68t69 -176q0 -113 -68.5 -181t-177.5 -68z" />
    <glyph glyph-name="slash" unicode="/" horiz-adv-x="1096" 
d="M87 -36l-74 42l992 1434l74 -43z" />
    <glyph glyph-name="zero" unicode="0" horiz-adv-x="1838" 
d="M922 -49q-225 0 -397 94t-266.5 265t-94.5 394q0 174 54 317.5t151.5 242.5t237.5 153.5t308 54.5q225 0 397.5 -94t267.5 -265t95 -394q0 -350 -206.5 -559t-546.5 -209zM1353 689q0 224 -118 356.5t-320 132.5q-200 0 -314.5 -118t-114.5 -326q0 -224 115.5 -356.5
t317.5 -132.5q200 0 317 118t117 326z" />
    <glyph glyph-name="one" unicode="1" horiz-adv-x="904" 
d="M331 0v1116h-235v303h542v-1419h-307z" />
    <glyph glyph-name="two" unicode="2" horiz-adv-x="1725" 
d="M919 1481q117 0 225.5 -26t199.5 -76.5t146 -135t55 -191.5q0 -102 -33.5 -182t-91 -131.5t-131.5 -90.5t-157 -63t-167 -44.5t-161.5 -40.5t-139 -44.5t-102 -63.5t-48.5 -91h1026v-301h-1380q-4 64 -4 98q0 134 27.5 240t78 183.5t128 134t171 92t213.5 58.5q5 1 16 3
q40 7 63 12t68 16t74 22t65.5 29t58 38t37 47.5t15.5 59.5q0 112 -177 139.5t-358.5 -41t-191.5 -190.5l-273 92q174 448 748 448z" />
    <glyph glyph-name="three" unicode="3" horiz-adv-x="1760" 
d="M139 1033q175 450 744 450q246 0 435 -96q231 -117 231 -352q0 -94 -50 -178t-125 -121q93 -38 150 -133.5t57 -195.5q0 -84 -24 -154t-63.5 -119t-97 -86.5t-119 -60.5t-134.5 -37t-138 -19.5t-135 -5.5q-660 0 -751 455l276 115q28 -64 79.5 -110.5t115.5 -70.5
t127.5 -34.5t133.5 -10.5q33 0 57 0.5t64 4t69.5 9t64 17.5t56 28t36 41.5t14.5 57.5q0 30 -12 54t-28 39t-46 26t-51.5 16.5t-59 8.5t-55.5 3.5t-53 1.5h-154v282h154q45 0 79.5 2.5t75.5 11t68 23.5t45 43t18 67q0 82 -93 126t-230 44q-165 0 -273 -49.5t-185 -184.5z" />
    <glyph glyph-name="four" unicode="4" horiz-adv-x="1798" 
d="M1705 386h-329v-386h-307v386h-873l-113 224l1033 892l260 -73v-753h329v-290zM1069 1086l-446 -410h446v410z" />
    <glyph glyph-name="five" unicode="5" horiz-adv-x="1838" 
d="M1581 1116h-1041v-243q193 53 441 53q106 0 203 -14t189.5 -47t160 -82t108.5 -126t41 -173q0 -98 -30 -180.5t-84 -140.5t-123.5 -101.5t-153 -69t-168 -38t-173.5 -12.5q-91 0 -176 7t-181.5 28t-174 54t-143 90t-99.5 131l250 177q87 -95 211.5 -129.5t289.5 -34.5
q60 0 122 7.5t128.5 25t108.5 53.5t42 86q0 57 -59 100t-150 63.5t-198 20.5q-152 0 -284 -30.5t-171 -78.5q-48 23 -135.5 77.5t-96.5 59.5v770h1344z" />
    <glyph glyph-name="six" unicode="6" horiz-adv-x="1838" 
d="M521 794q111 66 223 88.5t252 22.5q657 0 657 -480q0 -217 -184.5 -346.5t-495.5 -129.5q-395 0 -598.5 186t-203.5 546q0 201 57 354.5t164.5 250.5t255.5 146t335 49q120 0 229.5 -24.5t207 -75t168 -137.5t99.5 -201l-275 -102q-59 107 -184 166.5t-268 59.5
q-85 0 -162 -23t-139 -67t-99.5 -117t-38.5 -166zM574 446q15 -39 42.5 -69t64.5 -48.5t74.5 -30.5t84 -17.5t81.5 -7.5t77 -2q40 0 77 2.5t88 11.5t87 25t62 46t26 71q0 55 -53 99t-135 66t-175 22q-142 0 -262 -48.5t-139 -119.5z" />
    <glyph glyph-name="seven" unicode="7" horiz-adv-x="1674" 
d="M1585 1203q-562 -590 -796 -1261l-324 58q40 144 106.5 290t163 300t169.5 258.5t193 267.5h-999v303h1355z" />
    <glyph glyph-name="eight" unicode="8" horiz-adv-x="1875" 
d="M164 446q0 58 14 107t42 89t55 68t68 62q-43 46 -76.5 136.5t-33.5 149.5q0 103 60 187t160 136t223.5 80t257.5 28q136 0 261.5 -28t226 -80t161 -136t60.5 -187q0 -59 -34 -149.5t-77 -136.5q41 -34 68 -62t55 -68t42 -89t14 -107q0 -102 -43.5 -187.5t-117.5 -144.5
t-174 -99.5t-210.5 -59.5t-228.5 -19q-118 1 -228.5 20t-210 59.5t-173.5 99t-117.5 144t-43.5 187.5zM922 866q55 0 111 8t113 25.5t92.5 53.5t35.5 84q0 42 -37.5 71.5t-95.5 42.5t-107.5 18.5t-94.5 5.5t-94.5 -5.5t-108.5 -18.5t-96.5 -42.5t-37.5 -71.5
q0 -45 30.5 -79.5t80.5 -53t102.5 -28t106.5 -10.5zM913 262h46t55.5 2t64 4.5t63.5 9t63.5 14.5t55 21.5t46.5 30.5t29.5 41t11.5 52q0 50 -42.5 86.5t-109.5 54t-129.5 25t-123.5 7.5t-125 -7.5t-133.5 -25t-113.5 -54t-44 -86.5q0 -169 386 -175z" />
    <glyph glyph-name="nine" unicode="9" horiz-adv-x="1762" 
d="M1585 730q0 -798 -742 -798q-264 0 -441.5 97.5t-239.5 269.5l239 181q43 -104 165.5 -163t267.5 -59q106 0 193.5 31t145.5 100.5t58 167.5q0 5 -1 16t-1 16q-172 -107 -369 -107q-313 0 -502 143t-189 373q0 105 59 197.5t156 155.5t222 99.5t256 36.5q111 0 213 -25.5
t196 -84t163 -144.5t110 -215t41 -288zM529 1001q0 -88 93 -150t242 -62q145 0 232.5 55.5t87.5 138.5q0 90 -93.5 138t-226.5 48t-234 -46t-101 -122z" />
    <glyph glyph-name="colon" unicode=":" horiz-adv-x="710" 
d="M356 855q-110 0 -177.5 68t-67.5 176q0 113 67 181t176 68q110 0 179 -68t69 -175q0 -113 -68.5 -181.5t-177.5 -68.5zM356 -36q-110 0 -177.5 67.5t-67.5 175.5q0 113 67 181.5t176 68.5q110 0 179 -68t69 -176q0 -113 -68 -181t-178 -68z" />
    <glyph glyph-name="semicolon" unicode=";" horiz-adv-x="697" 
d="M343 855q-110 0 -177.5 68t-67.5 176q0 113 67 181t176 68q110 0 179 -68t69 -175q0 -113 -68.5 -181.5t-177.5 -68.5zM593 186q0 -222 -254 -497q0 -1 -31.5 20.5t-63.5 42.5l-31 22q10 9 25.5 26t49.5 66.5t51 97.5q-109 1 -175 68.5t-66 174.5q0 113 67 181.5
t176 68.5q115 0 183.5 -79t68.5 -192z" />
    <glyph glyph-name="less" unicode="&#x3c;" horiz-adv-x="793" 
d="M738 1225v-86l-648 -450l648 -450v-85l-708 492v86z" />
    <glyph glyph-name="equal" unicode="=" horiz-adv-x="1384" 
d="M1237 924v-86h-1090v86h1090zM1237 540v-86h-1090v86h1090z" />
    <glyph glyph-name="greater" unicode="&#x3e;" horiz-adv-x="793" 
d="M55 154v85l649 450l-649 450v86l709 -493v-86z" />
    <glyph glyph-name="question" unicode="?" horiz-adv-x="1431" 
d="M461 557q0 63 31 108.5t80.5 71.5t109.5 45.5t120.5 36.5t110 38.5t80.5 58.5t31 89q0 80 -96 131.5t-228 51.5q-86 0 -165 -23.5t-148.5 -79.5t-102.5 -138l-265 96q36 109 110.5 194t173 137.5t209.5 79.5t228 27q125 0 239 -30t204 -85t143.5 -141t53.5 -190
q0 -88 -34 -157.5t-87.5 -112.5t-119 -75.5t-131 -56t-119 -45t-87.5 -51t-34 -66.5v-12h-307v98zM621 -36q-89 0 -145 55t-56 141q0 92 55 147.5t144 55.5t144.5 -55t55.5 -142q0 -92 -54.5 -147t-143.5 -55z" />
    <glyph glyph-name="at" unicode="@" horiz-adv-x="1926" 
d="M951 909q137 0 235 -98l19 70h130v-331q0 -82 13.5 -144t34.5 -94t42 -47t41 -15q67 0 114.5 88t47.5 210q0 76 -20 149t-68.5 145t-121 125.5t-188 87t-259.5 33.5q-149 0 -270.5 -50t-197.5 -133.5t-116.5 -186.5t-40.5 -215q0 -114 42 -218.5t122 -189t210 -135
t293 -50.5q241 0 465 96l99 -168q-205 -130 -602 -130q-166 0 -306 43t-238 117t-167 172.5t-101.5 209t-32.5 228.5q0 120 34 234.5t104 216.5t168 178.5t236.5 121.5t300.5 45q172 0 314 -43.5t237 -116t160.5 -167.5t95 -195.5t29.5 -203.5q0 -124 -41.5 -227
t-123.5 -167t-189 -64q-39 0 -80.5 15t-80.5 51t-55 85q-104 -151 -281 -151q-99 0 -180 35t-131 94t-76.5 132t-26.5 152q0 78 26 149.5t74.5 129.5t128 92.5t178.5 34.5zM1182 489q0 118 -61 187t-170 69q-103 0 -158 -70t-55 -169q0 -102 58.5 -178t159.5 -76
q106 0 166 61.5t60 175.5z" />
    <glyph glyph-name="A" unicode="A" horiz-adv-x="1883" 
d="M1312 341h-742q-96 -211 -160 -341h-350l691 1419h382l691 -1419h-350zM915 1069q-4 -7 -202 -429h458l-202 429h-54z" />
    <glyph glyph-name="B" unicode="B" horiz-adv-x="1792" 
d="M1026 1423q65 0 121 -4t116 -16t108 -31t91.5 -50.5t73 -73.5t47 -101t17.5 -132q0 -71 -28.5 -127t-84.5 -126q139 -139 139 -282q0 -85 -20.5 -155.5t-55 -119.5t-84 -86.5t-102.5 -60t-116 -36.5t-118.5 -19t-116.5 -5l-768 2v1419zM1090 866q75 0 117.5 39.5
t42.5 92.5q0 51 -40 86.5t-116 35.5l-541 -9v-245h537zM553 292q422 -6 477 -6q254 0 254 166q0 40 -22.5 66.5t-64 38t-79.5 15.5t-90 4h-475v-284z" />
    <glyph glyph-name="C" unicode="C" horiz-adv-x="1753" 
d="M1359 875q-24 73 -73 129.5t-110 89t-125 48.5t-127 16q-126 0 -227.5 -47.5t-164.5 -148t-63 -239.5q0 -214 137 -334t352 -120q156 0 271.5 91.5t146.5 238.5l254 -115q-12 -114 -60 -206t-117.5 -152t-160.5 -99.5t-184.5 -56.5t-192.5 -17q-168 0 -313 58t-247 160
t-160 245t-58 307q0 334 217 536t576 202q282 0 467.5 -126t240.5 -354z" />
    <glyph glyph-name="D" unicode="D" horiz-adv-x="1802" 
d="M951 1419q209 0 370.5 -83.5t251 -236t89.5 -348.5q0 -215 -87 -385t-250.5 -268t-375.5 -98h-702v1419h704zM849 286q224 0 351 124t127 330q0 184 -124 281t-352 97h-296v-832h294z" />
    <glyph glyph-name="E" unicode="E" horiz-adv-x="1730" 
d="M1596 0h-1349v1419h1310v-303h-1002v-229h823v-311h-823v-275h1041v-301z" />
    <glyph glyph-name="F" unicode="F" horiz-adv-x="1644" 
d="M247 1419h1310v-303h-1002v-271h823v-312h-823v-533h-308v1419z" />
    <glyph glyph-name="G" unicode="G" horiz-adv-x="1824" 
d="M924 1158q-208 0 -330.5 -115.5t-122.5 -319.5q0 -214 137 -334t352 -120q148 0 257 70t150 199h-437v273h760q19 -253 -68 -447t-270 -302.5t-435 -108.5q-168 0 -313 58t-247 160t-160 245t-58 307q0 176 61 317.5t168.5 233t251.5 139.5t312 48q91 0 173.5 -12.5
t168 -44.5t153 -83t123 -132.5t84.5 -187.5l-281 -101q-96 258 -429 258z" />
    <glyph glyph-name="H" unicode="H" horiz-adv-x="1845" 
d="M1598 0h-307v576h-736v-576h-308v1419h308v-532h736v532h307v-1419z" />
    <glyph glyph-name="I" unicode="I" horiz-adv-x="802" 
d="M247 0v1419h308v-1419h-308z" />
    <glyph glyph-name="J" unicode="J" horiz-adv-x="1606" 
d="M369 604q6 -66 28 -123t64 -109t115 -82t169 -30q100 0 166.5 20.5t104 65t53 104.5t15.5 149v820h307v-894q0 -265 -165.5 -420.5t-480.5 -155.5q-154 0 -273.5 40t-199.5 114.5t-128 175.5t-67 229z" />
    <glyph glyph-name="K" unicode="K" horiz-adv-x="1838" 
d="M1067 853q174 -244 299.5 -379t213.5 -181.5t169 -30.5l5 -262q-57 -14 -106 -17t-91 0t-84 21t-76 37.5t-76 59t-75.5 74t-83.5 95.5t-90.5 111.5t-106 132.5t-120.5 149l-292 -249v-414h-308v1419h308v-687l802 687h373z" />
    <glyph glyph-name="L" unicode="L" horiz-adv-x="1591" 
d="M1510 0h-1263v1419h308v-1118h955v-301z" />
    <glyph glyph-name="M" unicode="M" horiz-adv-x="2097" 
d="M1050 546l411 873h391v-1419h-307v879l-427 -881h-139l-426 881v-879h-308v1419h391z" />
    <glyph glyph-name="N" unicode="N" horiz-adv-x="1909" 
d="M1662 0h-307l-800 943v-943h-308v1419h310l798 -950v950h307v-1419z" />
    <glyph glyph-name="O" unicode="O" 
d="M902 -49q-225 0 -397 94t-266 265t-94 394q0 174 54 317.5t151.5 242.5t237.5 153.5t308 54.5q225 0 397.5 -94t267 -265t94.5 -394q0 -350 -206.5 -559t-546.5 -209zM1333 689q0 224 -117.5 356.5t-319.5 132.5q-200 0 -314.5 -118t-114.5 -326q0 -224 115.5 -356.5
t317.5 -132.5q200 0 316.5 118t116.5 326z" />
    <glyph glyph-name="P" unicode="P" horiz-adv-x="1785" 
d="M555 0h-308v1419l854 2q147 0 259.5 -34.5t181 -96.5t103 -143.5t34.5 -180.5q0 -61 -21 -127.5t-63.5 -130t-101 -114t-140 -81.5t-173.5 -31l-625 -4v-478zM555 1111v-315h563q94 0 146 48.5t52 117.5q0 66 -51.5 112t-144.5 46z" />
    <glyph glyph-name="Q" unicode="Q" horiz-adv-x="1796" 
d="M749 -38q-272 50 -439 251.5t-167 490.5q0 174 54 317.5t151.5 242.5t237.5 153.5t308 54.5q225 0 397.5 -94t267 -265t94.5 -394q0 -301 -166.5 -505.5t-436.5 -254.5l21 -279h-344zM1331 689q0 224 -117.5 356.5t-319.5 132.5q-200 0 -314.5 -118t-114.5 -326
q0 -167 78.5 -291.5t205.5 -173.5l-22 273h344l-21 -277q126 45 203.5 155t77.5 265v4z" />
    <glyph glyph-name="R" unicode="R" horiz-adv-x="1860" 
d="M553 570v-570h-308v1419q784 0 918 2h8q239 0 383 -118.5t144 -304.5q0 -151 -81 -254t-222 -130l77 -249q13 -48 45.5 -70t73.5 -22q56 0 99 28v-301q-131 -43 -224 -43q-241 0 -310 250l-98 363h-505zM1122 838q93 0 142.5 40t49.5 105q0 62 -46.5 97.5t-136.5 35.5
l-578 -5v-273h569z" />
    <glyph glyph-name="S" unicode="S" horiz-adv-x="1723" 
d="M512 1033q0 -48 37 -78.5t99 -45.5t143 -23.5t170.5 -16.5t178.5 -20.5t170 -40t143 -69.5t99 -114.5t37 -170.5q0 -114 -44 -204.5t-114 -146t-165 -92t-189.5 -50.5t-195.5 -14q-42 0 -69 0.5t-83 4t-96.5 10.5t-99 21.5t-102 34.5t-93.5 52t-85 72t-65.5 96t-46.5 123
l275 147q28 -55 62.5 -96.5t73 -67t73.5 -41.5t78.5 -23t73 -9t70.5 -2q403 0 403 160q0 45 -29 73.5t-93 43t-121 21t-157 12.5q-70 4 -107.5 7t-106 10.5t-108 16.5t-98 25.5t-92.5 37.5t-74.5 52.5t-61.5 70t-36 90.5t-15 114q0 90 40 167t108.5 131.5t159.5 93t193.5 57
t209.5 18.5q128 0 245.5 -27t214.5 -78t159.5 -134.5t73.5 -187.5l-252 -98q-25 85 -95.5 143.5t-157 82.5t-184.5 24q-91 0 -172 -20.5t-131.5 -58t-50.5 -83.5z" />
    <glyph glyph-name="T" unicode="T" horiz-adv-x="1655" 
d="M1579 1116h-598v-1116h-307v1116h-597v303h1502v-303z" />
    <glyph glyph-name="U" unicode="U" 
d="M900 -51q-320 0 -504.5 158t-184.5 418v894h307v-820q0 -172 91.5 -255.5t290.5 -83.5t290.5 83.5t91.5 255.5v820h307v-894q0 -260 -184.5 -418t-504.5 -158z" />
    <glyph glyph-name="V" unicode="V" horiz-adv-x="1870" 
d="M951 350q9 20 87 180t193 399t235 490h345l-706 -1419h-339l-706 1419h345q120 -252 234 -488.5t194 -402t86 -178.5h32z" />
    <glyph glyph-name="W" unicode="W" horiz-adv-x="2233" 
d="M1481 555l311 864h367l-510 -1419h-269l-266 730l-261 -730h-268l-510 1419h367l311 -864l273 864h181z" />
    <glyph glyph-name="X" unicode="X" horiz-adv-x="1843" 
d="M437 0h-379l655 755l-604 664h414l399 -453l399 453h413l-603 -664l655 -755h-380l-484 561z" />
    <glyph glyph-name="Y" unicode="Y" horiz-adv-x="1860" 
d="M47 1419h386l497 -645l497 645h386l-729 -943v-476h-307v476z" />
    <glyph glyph-name="Z" unicode="Z" horiz-adv-x="1730" 
d="M139 1419h1356l107 -194q-144 -131 -292.5 -272.5t-385.5 -373t-286 -278.5h971v-301h-1372l-120 218l918 898h-896v303z" />
    <glyph glyph-name="bracketleft" unicode="[" horiz-adv-x="910" 
d="M823 1707v-241h-311v-1511h311v-243h-576v1995h576z" />
    <glyph glyph-name="backslash" unicode="\" horiz-adv-x="1096" 
d="M1084 6l-75 -42l-992 1433l75 43z" />
    <glyph glyph-name="bracketright" unicode="]" horiz-adv-x="910" 
d="M663 -288h-576v243h312v1511h-312v241h576v-1995z" />
    <glyph glyph-name="underscore" unicode="_" horiz-adv-x="1885" 
d="M1681 19v-85h-1476v85h1476z" />
    <glyph glyph-name="grave" unicode="`" horiz-adv-x="708" 
d="M339 1557l-226 359h365l43 -359h-182z" />
    <glyph glyph-name="a" unicode="a" horiz-adv-x="1431" 
d="M115 533q0 112 26.5 205t71.5 157.5t106 109t129.5 65t142.5 20.5q183 0 328 -119l22 96h288v-1067h-288l-19 94q-124 -124 -301 -124q-94 0 -183.5 38t-162 107.5t-116.5 178.5t-44 239zM429 512q0 -119 69.5 -187.5t184.5 -68.5q116 0 176 82t60 197q0 112 -57 188.5
t-175 76.5t-188 -79t-70 -209z" />
    <glyph glyph-name="b" unicode="b" horiz-adv-x="1431" 
d="M1318 533q0 -130 -44 -239t-116 -178.5t-161.5 -107.5t-183.5 -38q-177 0 -301 124l-19 -94h-288v1419h307v-448q142 119 331 119q93 0 176.5 -34t151 -100t107.5 -175t40 -248zM1005 512q0 130 -70 209t-188 79t-175.5 -76.5t-57.5 -188.5q0 -73 23.5 -134.5t79 -103
t134.5 -41.5q115 0 184.5 68.5t69.5 187.5z" />
    <glyph glyph-name="c" unicode="c" horiz-adv-x="1280" 
d="M1205 256q-69 -144 -205.5 -221.5t-301.5 -77.5q-258 0 -424.5 157t-166.5 409q0 164 68.5 294.5t197.5 206t297 75.5q90 0 173 -22t158.5 -68.5t128.5 -128.5t71 -191l-277 -90q-14 96 -86.5 151.5t-165.5 55.5q-103 0 -177.5 -68.5t-74.5 -193.5q0 -134 69.5 -211
t205.5 -77q72 0 146 33t106 82z" />
    <glyph glyph-name="d" unicode="d" horiz-adv-x="1431" 
d="M113 533q0 112 26.5 205t71.5 157.5t106 109t129.5 65t142.5 20.5q89 0 176 -31t157 -90v450h305v-1419h-288l-17 96q-123 -126 -303 -126q-94 0 -183.5 38t-162 107.5t-116.5 178.5t-44 239zM427 512q0 -119 69.5 -187.5t184.5 -68.5q116 0 176 82t60 197
q0 112 -57 188.5t-175 76.5t-188 -79t-70 -209z" />
    <glyph glyph-name="e" unicode="e" horiz-adv-x="1331" 
d="M678 235q221 0 286 126l218 -137q-33 -70 -90 -123t-126 -83.5t-140.5 -45.5t-144.5 -15q-256 0 -413 156t-157 410q0 263 154 419.5t409 156.5q153 0 280.5 -65t202 -183.5t74.5 -265.5q0 -36 -7 -72t-14 -53l-7 -18h-785q27 -93 97.5 -150t162.5 -57zM674 821
q-82 0 -148 -43.5t-99 -116.5h512q-47 160 -265 160z" />
    <glyph glyph-name="f" unicode="f" horiz-adv-x="823" 
d="M258 1069q0 116 30.5 192.5t97.5 120.5t160.5 61.5t232.5 17.5v-264q-113 0 -154.5 -24t-52.5 -106h143v-301h-150v-766h-307v766h-149v301h149v2z" />
    <glyph glyph-name="g" unicode="g" horiz-adv-x="1431" 
d="M681 -471q-158 0 -286 56t-199 176l235 160q32 -49 106 -82t146 -33q111 0 170 74.5t66 238.5q-123 -123 -309 -123q-93 0 -181 35.5t-159 101.5t-114 170t-43 230q0 112 26 205t71 157.5t106 109t129 65t142 20.5q185 0 330 -119l22 96h288v-992q0 -279 -137.5 -412.5
t-408.5 -133.5zM427 512q0 -111 70.5 -173t168.5 -62q101 0 176 68t75 190q0 112 -57 188.5t-175 76.5t-188 -79t-70 -209z" />
    <glyph glyph-name="h" unicode="h" horiz-adv-x="1469" 
d="M512 913q74 86 180 131.5t217 45.5q175 0 279.5 -112.5t104.5 -299.5v-678h-312v623q0 82 -51.5 127.5t-127.5 45.5q-97 0 -182 -69.5t-108 -191.5v-535h-307v1419h309z" />
    <glyph glyph-name="i" unicode="i" horiz-adv-x="716" 
d="M350 1203q-86 0 -142.5 55.5t-56.5 138.5q0 90 55.5 145.5t141.5 55.5t142 -55t56 -139q0 -90 -55 -145.5t-141 -55.5zM205 0v1067h307v-1067h-307z" />
    <glyph glyph-name="j" unicode="j" horiz-adv-x="718" 
d="M356 1203q-86 0 -142 55t-56 139q0 90 55 145.5t141 55.5t142.5 -55.5t56.5 -138.5q0 -90 -55.5 -145.5t-141.5 -55.5zM514 75q0 -269 -126.5 -397t-393.5 -128v301q115 0 164 72.5t49 242.5v901h309z" />
    <glyph glyph-name="k" unicode="k" horiz-adv-x="1476" 
d="M514 627l548 440h382l-529 -425q80 -161 195.5 -269t192.5 -108q59 0 82 6v-271q-90 -17 -154 -17q-148 0 -265 117t-260 378l-192 -156v-322h-309v1419h309v-792z" />
    <glyph glyph-name="l" unicode="l" horiz-adv-x="821" 
d="M508 1419v-962q0 -95 24 -130t91 -35q74 0 126 9v-301q-68 -13 -186 -13q-185 0 -275 112.5t-90 344.5v975h310z" />
    <glyph glyph-name="m" unicode="m" horiz-adv-x="2252" 
d="M514 913q74 88 178.5 132.5t216.5 44.5q119 0 208.5 -55t134.5 -154q71 104 193 156.5t245 52.5q175 0 279.5 -112.5t104.5 -299.5v-678h-312v634q0 81 -49 124.5t-124 43.5q-97 0 -185 -72t-111 -197v-533h-312v634q0 81 -48.5 124.5t-123.5 43.5q-97 0 -185 -71
t-112 -196v-535h-307v1067h309v-154z" />
    <glyph glyph-name="n" unicode="n" horiz-adv-x="1472" 
d="M514 913q74 88 178.5 132.5t216.5 44.5q175 0 279.5 -112.5t104.5 -299.5v-678h-312v634q0 81 -48.5 124.5t-123.5 43.5q-97 0 -185 -71t-112 -196v-535h-307v1067h288z" />
    <glyph glyph-name="o" unicode="o" horiz-adv-x="1356" 
d="M681 -43q-256 0 -413 156t-157 410q0 263 154 419.5t409 156.5q256 0 414 -156t158 -410q0 -263 -155 -419.5t-410 -156.5zM932 512q0 130 -70 209t-188 79q-114 0 -181.5 -68.5t-67.5 -187.5q0 -131 68.5 -209.5t184.5 -78.5q115 0 184.5 68.5t69.5 187.5z" />
    <glyph glyph-name="p" unicode="p" horiz-adv-x="1433" 
d="M205 1067h288l19 -96q145 119 331 119q93 0 176.5 -34t151 -100t107.5 -175t40 -248q0 -130 -44 -239t-116 -178.5t-161.5 -107.5t-183.5 -38q-181 0 -299 124v-544h-309v1517zM1005 512q0 130 -70 209t-188 79t-175.5 -76.5t-57.5 -188.5q0 -73 23.5 -134.5t79 -103
t134.5 -41.5q115 0 184.5 68.5t69.5 187.5z" />
    <glyph glyph-name="q" unicode="q" horiz-adv-x="1433" 
d="M922 94q-121 -124 -301 -124q-94 0 -183.5 38t-162 107.5t-116.5 178.5t-44 239q0 112 26.5 205t71.5 157.5t106 109t129.5 65t142.5 20.5q183 0 328 -119l22 96h288v-1517h-307v544zM429 512q0 -119 69.5 -187.5t184.5 -68.5q116 0 176 82t60 197q0 112 -57 188.5
t-175 76.5t-188 -79t-70 -209z" />
    <glyph glyph-name="r" unicode="r" horiz-adv-x="953" 
d="M909 781q-88 0 -179 -31t-154.5 -87.5t-63.5 -120.5v-542h-307v1067h266l22 -184q68 82 194.5 146.5t221.5 64.5v-313z" />
    <glyph glyph-name="s" unicode="s" horiz-adv-x="1288" 
d="M939 710q-34 71 -122.5 108t-187.5 37q-79 0 -133 -23t-54 -62q0 -45 41 -69.5t106.5 -33t145 -13.5t159 -20t145 -43.5t106.5 -91.5t41 -158q0 -94 -44 -169.5t-115 -120.5t-153.5 -68.5t-167.5 -23.5q-480 0 -610 314l239 111q47 -80 155 -123t214 -43q173 0 173 104
q0 38 -41 57.5t-106 26t-144 12t-158 22t-144 48t-106 98.5t-41 165q0 78 32.5 140.5t83.5 100.5t119.5 63t134 34.5t133.5 9.5q117 0 219.5 -31t182.5 -97t116 -158z" />
    <glyph glyph-name="t" unicode="t" horiz-adv-x="932" 
d="M258 1419h309v-352h169v-301h-171v-309q0 -94 25 -129.5t93 -35.5q74 0 126 9v-301q-68 -13 -186 -13q-185 0 -275 112.5t-90 344.5v322h-149v301h149v352z" />
    <glyph glyph-name="u" unicode="u" horiz-adv-x="1472" 
d="M958 151q-74 -86 -179 -130t-216 -44q-175 0 -279.5 112t-104.5 299v679h312v-634q0 -81 48.5 -124.5t123.5 -43.5q97 0 185 70.5t112 193.5v538h307v-1067h-288z" />
    <glyph glyph-name="v" unicode="v" horiz-adv-x="1429" 
d="M715 329l369 738h326l-548 -1067h-295l-548 1067h327z" />
    <glyph glyph-name="w" unicode="w" horiz-adv-x="2094" 
d="M1758 1067h301l-421 -1067h-307l-284 717l-283 -717h-307l-421 1067h301l277 -726l267 726h333l267 -726z" />
    <glyph glyph-name="x" unicode="x" horiz-adv-x="1356" 
d="M1306 1067l-397 -534l407 -533h-377l-263 371l-260 -371h-378l429 533l-418 534h367l262 -372l261 372h367z" />
    <glyph glyph-name="y" unicode="y" horiz-adv-x="1437" 
d="M17 1067h316l369 -756l407 756h314l-819 -1517h-314l258 480z" />
    <glyph glyph-name="z" unicode="z" horiz-adv-x="1301" 
d="M124 0v258l599 529h-578v280h1018v-237l-625 -551h646v-279h-1060z" />
    <glyph glyph-name="braceleft" unicode="{" horiz-adv-x="861" 
d="M81 836q46 0 75.5 3.5t53.5 15t36.5 28.5t21.5 49t11.5 71t2.5 100v220q0 57 1.5 96t7 78t12.5 63.5t23 48.5t33.5 37.5t48.5 26t63.5 18t82.5 10t101.5 5.5t125.5 1v-203q-44 0 -72 -1t-55 -6.5t-42 -12t-29 -22t-20 -33t-10.5 -48t-5.5 -62.5t-1 -82v-286
q0 -124 -17 -174t-72 -69q55 -19 72 -68.5t17 -172.5v-286q0 -50 1 -82t5.5 -62.5t10.5 -47.5t20 -32.5t29 -22t42 -12t55 -6.5t72 -1v-203q-74 0 -125.5 1t-101.5 5.5t-82.5 10t-63.5 18t-48.5 26t-33.5 37.5t-23 48.5t-12.5 63.5t-7 78t-1.5 96v220q0 61 -2.5 100
t-11.5 71t-21.5 48.5t-36.5 28t-53.5 15t-75.5 3.5h-4v254h4z" />
    <glyph glyph-name="bar" unicode="|" horiz-adv-x="584" 
d="M337 1696v-1969h-87l-7 1969h94z" />
    <glyph glyph-name="braceright" unicode="}" horiz-adv-x="861" 
d="M781 582q-46 0 -75.5 -3.5t-53.5 -15t-36.5 -28t-21.5 -48.5t-11.5 -71t-2.5 -100v-220q0 -57 -1.5 -96t-7 -78t-12.5 -63.5t-23 -48.5t-33.5 -37.5t-48.5 -26t-63.5 -18t-82.5 -10t-101.5 -5.5t-125.5 -1v203q44 0 72 1t55 6.5t42 12t29 22t20 32.5t10.5 47.5t5.5 62.5
t1 82v286q0 123 17 172.5t72 68.5q-55 19 -72 69t-17 174v286q0 50 -1 82t-5.5 62.5t-10.5 48t-20 33t-29 22t-42 12t-55 6.5t-72 1v203q74 0 125.5 -1t101.5 -5.5t82.5 -10t63.5 -18t48.5 -26t33.5 -37.5t23 -48.5t12.5 -63.5t7 -78t1.5 -96v-220q0 -61 2.5 -100t11.5 -71
t21.5 -49t36.5 -28.5t53.5 -15t75.5 -3.5h4v-254h-4z" />
    <glyph glyph-name="asciitilde" unicode="~" horiz-adv-x="1094" 
d="M401 875q68 0 136 -19.5t120.5 -39.5t82.5 -20q24 0 36.5 3.5t22 19t10.5 47.5h117q0 -59 -11.5 -108t-36.5 -90.5t-71.5 -64.5t-111.5 -23q-67 0 -135 19t-120 38.5t-82 19.5q-24 0 -36.5 -3.5t-22 -19t-11.5 -47.5h-115q0 288 228 288z" />
    <glyph glyph-name="exclamdown" unicode="&#xa1;" horiz-adv-x="727" 
d="M358 1419q89 0 145 -55t56 -142q0 -92 -54.5 -147t-143.5 -55t-145 55t-56 141q0 92 55 147.5t143 55.5zM565 -36h-396v303l85 657h222l89 -657v-303z" />
    <glyph glyph-name="cent" unicode="&#xa2;" horiz-adv-x="1431" 
d="M870 1483v-175q99 -13 147 -28q243 -76 299 -320l-239 -83q-12 44 -33 77.5t-49 53.5t-56.5 33.5t-64 19.5t-61.5 8t-58 2q-168 0 -267.5 -94t-99.5 -260q0 -173 111.5 -270t285.5 -97q128 0 221.5 74.5t117.5 194.5l205 -96q-10 -97 -51.5 -174t-105.5 -126.5
t-138.5 -79t-160.5 -41.5v-166h-227v164q-234 34 -380.5 204.5t-146.5 412.5q0 252 145 405.5t382 185.5v175h224z" />
    <glyph glyph-name="sterling" unicode="&#xa3;" horiz-adv-x="1853" 
d="M418 845q-6 51 -6 109q0 258 153 382.5t421 124.5q45 0 75 -1t92.5 -9t108.5 -22.5t107.5 -45t107 -72.5t89 -109.5t70.5 -151.5l-283 -131q-57 267 -327 267q-112 0 -192.5 -43.5t-80.5 -118.5q0 -65 24 -179h273v-203h-237q0 -8 2 -28t2 -32q0 -173 -130 -264
q284 -85 403 -85q70 0 127.5 13t94.5 33.5t65 49t43 55.5t24 57.5t11 50.5t2 39v19h303q4 -25 4 -66q0 -39 -5 -78t-23 -93.5t-47 -101t-83 -95t-125 -82.5t-178 -55.5t-238 -21.5q-70 0 -157.5 18t-209 48.5t-207.5 46.5q-105 -79 -186 -79q-107 0 -163.5 62t-56.5 150
q0 92 60 162t160 70q79 0 171 -49q15 23 15 64q0 38 -34 192h-218v203h179z" />
    <glyph glyph-name="yen" unicode="&#xa5;" horiz-adv-x="1943" 
d="M1124 629h506v-202h-499v-427h-308v427h-509v202h505l-72 66h-433v203h241l-512 521h396l532 -576l533 576h397l-512 -521h241v-203h-435z" />
    <glyph glyph-name="brokenbar" unicode="&#xa6;" horiz-adv-x="522" 
d="M307 1696v-785h-87l-7 785h94zM307 512v-785h-87l-7 785h94z" />
    <glyph glyph-name="section" unicode="&#xa7;" horiz-adv-x="1414" 
d="M166 1116q0 66 25 120.5t68.5 90.5t96.5 62.5t115 40.5t118 20.5t111 6.5q110 0 196.5 -21t146.5 -60t100 -85t69 -107l-216 -77q-68 135 -309 135q-107 0 -176 -25t-69 -80q0 -50 59 -75q45 -17 115 -28t137.5 -17.5t143 -15.5t138 -28.5t114.5 -51.5t81 -88.5
t29 -134.5q0 -110 -56 -197q56 -59 56 -158q0 -87 -33.5 -156t-86.5 -111t-125 -70t-144 -38.5t-149 -10.5q-31 0 -50 0.5t-59 3t-68 7.5t-69.5 15.5t-73 25t-69 37.5t-66.5 52t-57.5 69.5t-48.5 88.5l224 68q121 -123 311 -123q308 0 308 121q0 34 -28.5 56t-77 33
t-111.5 17.5t-132.5 13.5t-138.5 17t-132 31.5t-111.5 54t-77 88t-28.5 129.5q0 107 71 185q-71 68 -71 169zM1003 695q0 35 -27.5 58t-83.5 36t-110 20t-139.5 16t-139.5 18q-28 -14 -44.5 -40t-16.5 -52q0 -57 59 -75q64 -23 233.5 -40t227.5 -28q41 41 41 87z" />
    <glyph glyph-name="dieresis" unicode="&#xa8;" horiz-adv-x="1102" 
d="M339 1570q-72 0 -118 45.5t-46 114.5q0 74 45.5 120.5t116.5 46.5q72 0 118 -45.5t46 -114.5q0 -74 -45.5 -120.5t-116.5 -46.5zM766 1570q-72 0 -118 45.5t-46 114.5q0 74 45.5 120.5t116.5 46.5q72 0 118 -45.5t46 -114.5q0 -74 -45.5 -120.5t-116.5 -46.5z" />
    <glyph glyph-name="copyright" unicode="&#xa9;" horiz-adv-x="1930" 
d="M969 -49q-247 0 -436 94t-292.5 265t-103.5 394q0 232 102.5 406.5t289 268t433.5 93.5t436.5 -94t293.5 -265t104 -394q0 -350 -226.5 -559t-600.5 -209zM1598 683q0 292 -170.5 463.5t-465.5 171.5q-294 0 -461.5 -152.5t-167.5 -425.5q0 -293 168.5 -464t464.5 -171
q292 0 462 153t170 425zM1190 800q-19 64 -74.5 98t-127.5 34q-62 0 -116 -23.5t-90.5 -73.5t-36.5 -116q0 -100 69.5 -159t162.5 -59q75 0 133 40t74 118l137 -57q-45 -127 -141.5 -193t-213.5 -66q-98 0 -184.5 43.5t-143 131t-56.5 201.5q0 84 34.5 154t91 114t126.5 68
t145 24q112 0 203 -51t136 -151z" />
    <glyph glyph-name="ordfeminine" unicode="&#xaa;" horiz-adv-x="1021" 
d="M331 841l-133 -274h-207l410 852h218l411 -852h-207l-132 274h-360zM501 1210q-15 -31 -43.5 -95t-43.5 -95h194q-15 31 -43.5 95t-43.5 95h-20z" />
    <glyph glyph-name="guillemotleft" unicode="&#xab;" horiz-adv-x="1137" 
d="M94 636l446 390l45 -36l-227 -391l229 -390l-47 -36l-446 388v75zM535 629l389 354l45 -36l-184 -348l186 -347l-47 -37l-389 352v62z" />
    <glyph glyph-name="registered" unicode="&#xae;" horiz-adv-x="1930" 
d="M969 -49q-247 0 -436 94t-292.5 265t-103.5 394q0 232 102.5 406.5t289 268t433.5 93.5t436.5 -94t293.5 -265t104 -394q0 -350 -226.5 -559t-600.5 -209zM1598 683q0 292 -170.5 463.5t-465.5 171.5q-294 0 -461.5 -152.5t-167.5 -425.5q0 -293 168.5 -464t464.5 -171
q292 0 462 153t170 425zM804 672v-275h-149v682h418q129 0 204.5 -53.5t75.5 -146.5q0 -73 -39.5 -124t-106.5 -62l37 -123q15 -45 59 -45q27 0 45 10v-138q-63 -22 -109 -22q-117 0 -147 120l-47 173zM804 806l269 -4q45 0 69.5 19.5t24.5 51.5q0 29 -24.5 46.5t-69.5 17.5
l-269 -5v-126z" />
    <glyph glyph-name="macron" unicode="&#xaf;" horiz-adv-x="1220" 
d="M1015 1630h-810v203h810v-203z" />
    <glyph glyph-name="degree" unicode="&#xb0;" horiz-adv-x="881" 
d="M444 945q-110 0 -176.5 65.5t-66.5 171.5q0 113 64.5 180t173.5 67q110 0 176 -65t66 -171q0 -113 -65 -180.5t-172 -67.5zM565 1178q0 65 -33.5 102.5t-92.5 37.5q-58 0 -90.5 -31.5t-32.5 -89.5q0 -66 33.5 -103.5t92.5 -37.5q58 0 90.5 32t32.5 90z" />
    <glyph glyph-name="uni00B2" unicode="&#xb2;" horiz-adv-x="1152" 
d="M774 1163q0 47 -49 71.5t-126 24.5q-110 0 -214 -43t-131 -113l-103 151q67 101 190.5 154t262.5 53q109 0 201.5 -32t152.5 -98.5t60 -155.5q0 -54 -15.5 -98.5t-36 -74.5t-61 -54.5t-70.5 -38t-86.5 -26.5t-86.5 -17.5t-91 -13.5l-21 -3q-151 -22 -202 -160h663v-196
h-894q0 9 -1 31t-1 33q0 202 101.5 327.5t293.5 160.5q15 3 55 7t71.5 9.5t65.5 16t53 32.5t19 53z" />
    <glyph glyph-name="uni00B3" unicode="&#xb3;" horiz-adv-x="1166" 
d="M1005 1165q0 -61 -32 -115.5t-81 -78.5q60 -25 97 -87t37 -127q0 -76 -30 -134t-75.5 -91t-109.5 -53.5t-122 -27.5t-124 -7q-429 0 -488 294l179 75q35 -79 117 -112t180 -33q41 0 70.5 2.5t72.5 11t67 31t24 57.5q0 21 -11.5 37.5t-33.5 26t-43.5 16.5t-53.5 10t-50 4
t-47.5 1.5t-31.5 0.5v184h69q37 0 65.5 3t59 12t47.5 29.5t17 51.5q0 56 -50 86.5t-129 30.5q-95 0 -194.5 -44.5t-165.5 -126.5l-98 137q67 111 196.5 168.5t278.5 57.5q106 0 193 -31t143.5 -98.5t56.5 -160.5z" />
    <glyph glyph-name="acute" unicode="&#xb4;" horiz-adv-x="708" 
d="M595 1916l-226 -359h-181l42 359h365z" />
    <glyph glyph-name="paragraph" unicode="&#xb6;" horiz-adv-x="1755" 
d="M576 582q-115 0 -211.5 39t-158 101.5t-95.5 138t-34 152.5q0 200 142.5 310.5t435.5 110.5h853v-1965h-307v1645h-183v-1645h-308v1111z" />
    <glyph glyph-name="periodcentered" unicode="&#xb7;" horiz-adv-x="806" 
d="M403 388q-110 0 -177.5 67.5t-67.5 175.5q0 113 67 181.5t176 68.5q110 0 179 -68t69 -175q0 -113 -68.5 -181.5t-177.5 -68.5z" />
    <glyph glyph-name="cedilla" unicode="&#xb8;" horiz-adv-x="706" 
d="M405 -19l-30 -86q104 -11 157 -63.5t53 -125.5q0 -96 -82 -173t-211 -77q-79 0 -162 32l41 147q50 -21 94 -21q41 0 64 19t23 45q0 29 -27.5 50.5t-77.5 21.5q-12 0 -42 -4l70 267z" />
    <glyph glyph-name="uni00B9" unicode="&#xb9;" horiz-adv-x="659" 
d="M254 495v725h-154v199h354v-924h-200z" />
    <glyph glyph-name="ordmasculine" unicode="&#xba;" horiz-adv-x="1045" 
d="M525 523q-205 0 -330 124t-125 326q0 211 123.5 336t327.5 125t329 -124.5t125 -326.5q0 -211 -123 -335.5t-327 -124.5zM770 964q0 129 -67 204.5t-182 75.5q-114 0 -180 -67t-66 -185q0 -129 66.5 -204t181.5 -75q113 0 180 67t67 184z" />
    <glyph glyph-name="guillemotright" unicode="&#xbb;" horiz-adv-x="1137" 
d="M550 209l229 390l-226 391l44 36l446 -390v-75l-446 -388zM166 252l186 347l-183 348l44 36l389 -354v-62l-389 -352z" />
    <glyph glyph-name="onequarter" unicode="&#xbc;" horiz-adv-x="2043" 
d="M482 -36l-75 42l822 1434l74 -43zM269 495v725h-154v199h354v-924h-200zM1734 930l-168 47l-672 -580l72 -147h568v-250h200v250h214v189h-214v491zM1534 706v-267h-290z" />
    <glyph glyph-name="onehalf" unicode="&#xbd;" horiz-adv-x="2163" 
d="M482 -36l-75 42l822 1434l74 -43zM269 495v725h-154v199h354v-924h-200zM1773 670q0 47 -49 71.5t-126 24.5q-110 0 -214.5 -43t-131.5 -113l-102 152q68 101 190.5 154t261.5 53q109 0 201.5 -32t152.5 -98.5t60 -155.5q0 -75 -30 -131.5t-64.5 -87t-110 -54.5
t-114.5 -31t-129 -20q-13 -2 -19 -3q-152 -22 -203 -160h664v-196h-894q0 9 -1 31t-1 33q0 202 101 328t293 161q15 3 55 7t71.5 9t65.5 15.5t53.5 32.5t19.5 53z" />
    <glyph glyph-name="threequarters" unicode="&#xbe;" horiz-adv-x="2389" 
d="M1030 1165q0 -61 -32 -115.5t-81 -78.5q60 -25 97.5 -87t37.5 -127q0 -76 -30 -134t-75.5 -91t-109.5 -53.5t-122 -27.5t-124 -7q-430 0 -489 294l180 75q35 -79 116.5 -112t179.5 -33q41 0 70.5 2.5t73 11t67.5 31t24 57.5q0 21 -11.5 37.5t-33.5 26t-43.5 16.5
t-53.5 10t-50 4t-47.5 1.5t-31.5 0.5v184h68q37 0 65.5 3t59.5 12t48 29.5t17 51.5q0 56 -50 86.5t-129 30.5q-95 0 -195 -44.5t-166 -126.5l-98 137q67 111 197 168.5t279 57.5q164 0 278 -76t114 -214zM823 -36l-74 42l821 1434l75 -43zM2291 250h-213v-250h-201v250h-567
l-73 147l672 580l169 -47v-491h213v-189zM1877 706l-290 -267h290v267z" />
    <glyph glyph-name="questiondown" unicode="&#xbf;" horiz-adv-x="1431" 
d="M813 1455q89 0 144.5 -54.5t55.5 -141.5q0 -92 -55 -147.5t-143 -55.5q-89 0 -145 55t-56 141q0 92 55 147.5t144 55.5zM973 862q0 -63 -31 -108.5t-80.5 -71.5t-109.5 -45.5t-120.5 -36.5t-110 -38.5t-80.5 -58.5t-31 -89q0 -80 96 -132t228 -52q86 0 165 23.5
t148.5 79.5t102.5 138l264 -96q-36 -109 -110.5 -194t-173 -137t-209.5 -79t-228 -27q-125 0 -239 30t-204 85t-143.5 141t-53.5 190q0 88 34 157.5t88 112t119 75.5t130.5 56t119.5 44.5t88 51t34 66.5v13h307v-98z" />
    <glyph glyph-name="Agrave" unicode="&#xc0;" horiz-adv-x="1879" 
d="M924 1557l-226 359h364l43 -359h-181zM1312 341h-742q-96 -211 -160 -341h-350l691 1419h382l691 -1419h-350zM915 1069q-4 -7 -202 -429h458l-202 429h-54z" />
    <glyph glyph-name="Aacute" unicode="&#xc1;" horiz-adv-x="1879" 
d="M1222 1916l-226 -359h-181l43 359h364zM1312 341h-742q-96 -211 -160 -341h-350l691 1419h382l691 -1419h-350zM915 1069q-4 -7 -202 -429h458l-202 429h-54z" />
    <glyph glyph-name="Acircumflex" unicode="&#xc2;" horiz-adv-x="1879" 
d="M1171 1557l-215 197l-214 -197h-202l256 359h322l256 -359h-203zM1312 341h-742q-96 -211 -160 -341h-350l691 1419h382l691 -1419h-350zM915 1069q-4 -7 -202 -429h458l-202 429h-54z" />
    <glyph glyph-name="Atilde" unicode="&#xc3;" horiz-adv-x="1879" 
d="M794 1888q68 0 136 -20t120.5 -39.5t82.5 -19.5q18 0 28 2t20 8.5t14.5 21t5.5 38.5h117q0 -60 -11 -108t-36.5 -89.5t-71.5 -64.5t-111 -23q-67 0 -135 19t-120 38t-82 19q-24 0 -36.5 -3.5t-22 -19t-11.5 -47.5h-116q0 288 229 288zM1312 341h-742q-96 -211 -160 -341
h-350l691 1419h382l691 -1419h-350zM915 1069q-4 -7 -202 -429h458l-202 429h-54z" />
    <glyph glyph-name="Adieresis" unicode="&#xc4;" horiz-adv-x="1879" 
d="M723 1570q-72 0 -118 45.5t-46 114.5q0 74 45.5 120.5t116.5 46.5q72 0 118 -45.5t46 -114.5q0 -74 -45.5 -120.5t-116.5 -46.5zM1150 1570q-72 0 -118 45.5t-46 114.5q0 74 45.5 120.5t116.5 46.5q72 0 118 -45.5t46 -114.5q0 -74 -45.5 -120.5t-116.5 -46.5zM1312 341
h-742q-96 -211 -160 -341h-350l691 1419h382l691 -1419h-350zM915 1069q-4 -7 -202 -429h458l-202 429h-54z" />
    <glyph glyph-name="Aring" unicode="&#xc5;" horiz-adv-x="1879" 
d="M943 1513q-110 0 -176.5 65t-66.5 171q0 113 65 180.5t174 67.5q110 0 175.5 -65.5t65.5 -171.5q0 -113 -64.5 -180t-172.5 -67zM1065 1745q0 66 -33.5 103.5t-92.5 37.5q-58 0 -91 -32t-33 -90q0 -66 33.5 -103.5t92.5 -37.5q58 0 91 32t33 90zM1312 341h-742
q-96 -211 -160 -341h-350l691 1419h382l691 -1419h-350zM915 1069q-4 -7 -202 -429h458l-202 429h-54z" />
    <glyph glyph-name="AE" unicode="&#xc6;" horiz-adv-x="2848" 
d="M1370 0v341h-687l-269 -341h-367l1124 1419h1508v-303h-1002v-229h823v-311h-823v-275h1041v-301h-1348zM919 640h451v474h-75z" />
    <glyph glyph-name="Ccedilla" unicode="&#xc7;" horiz-adv-x="1749" 
d="M922 1158q-208 0 -330.5 -115.5t-122.5 -319.5q0 -214 137 -334t352 -120q156 0 271.5 91.5t146.5 238.5l254 -115q-12 -114 -60 -206t-117.5 -152t-160.5 -99.5t-184.5 -56.5t-192.5 -17q-5 0 -14 1t-14 1l-19 -60q104 -11 156.5 -63t52.5 -126q0 -96 -81.5 -173
t-210.5 -77q-79 0 -162 32l40 147q50 -21 94 -21q41 0 64.5 19t23.5 45q0 29 -27.5 50.5t-77.5 21.5q-12 0 -42 -4l57 222q-277 48 -447.5 255.5t-170.5 499.5q0 176 61 317.5t168.5 233t251.5 139.5t312 48q282 0 467.5 -126t240.5 -354l-279 -106q-24 73 -73 129.5
t-110.5 89t-125.5 48.5t-128 16z" />
    <glyph glyph-name="Egrave" unicode="&#xc8;" horiz-adv-x="1723" 
d="M924 1557l-226 359h364l43 -359h-181zM1594 0h-1349v1419h1310v-303h-1002v-229h823v-311h-823v-275h1041v-301z" />
    <glyph glyph-name="Eacute" unicode="&#xc9;" horiz-adv-x="1723" 
d="M1220 1916l-226 -359h-181l42 359h365zM1594 0h-1349v1419h1310v-303h-1002v-229h823v-311h-823v-275h1041v-301z" />
    <glyph glyph-name="Ecircumflex" unicode="&#xca;" horiz-adv-x="1723" 
d="M1180 1559l-216 197l-213 -197h-203l256 359h322l256 -359h-202zM1594 0h-1349v1419h1310v-303h-1002v-229h823v-311h-823v-275h1041v-301z" />
    <glyph glyph-name="Edieresis" unicode="&#xcb;" horiz-adv-x="1723" 
d="M730 1570q-72 0 -118.5 45.5t-46.5 114.5q0 74 45.5 120.5t116.5 46.5q72 0 118.5 -45.5t46.5 -114.5q0 -74 -45.5 -120.5t-116.5 -46.5zM1156 1570q-72 0 -118 45.5t-46 114.5q0 74 45.5 120.5t116.5 46.5q72 0 118 -45.5t46 -114.5q0 -74 -45.5 -120.5t-116.5 -46.5z
M1594 0h-1349v1419h1310v-303h-1002v-229h823v-311h-823v-275h1041v-301z" />
    <glyph glyph-name="Igrave" unicode="&#xcc;" horiz-adv-x="821" 
d="M354 1557l-226 359h365l42 -359h-181zM269 0v1419h307v-1419h-307z" />
    <glyph glyph-name="Iacute" unicode="&#xcd;" horiz-adv-x="821" 
d="M693 1916l-226 -359h-181l43 359h364zM245 0v1419h308v-1419h-308z" />
    <glyph glyph-name="Icircumflex" unicode="&#xce;" horiz-adv-x="827" 
d="M621 1557l-216 197l-213 -197h-203l256 359h322l256 -359h-202zM260 0v1419h307v-1419h-307z" />
    <glyph glyph-name="Idieresis" unicode="&#xcf;" horiz-adv-x="797" 
d="M188 1570q-72 0 -118.5 45.5t-46.5 114.5q0 74 46 120.5t117 46.5q72 0 118 -45.5t46 -114.5q0 -74 -45.5 -120.5t-116.5 -46.5zM614 1570q-72 0 -118 45.5t-46 114.5q0 74 45.5 120.5t116.5 46.5q72 0 118.5 -45.5t46.5 -114.5q0 -74 -46 -120.5t-117 -46.5zM245 0v1419
h308v-1419h-308z" />
    <glyph glyph-name="Eth" unicode="&#xd0;" horiz-adv-x="1830" 
d="M979 1419q209 0 370.5 -83.5t251 -236t89.5 -348.5q0 -215 -87 -385t-250.5 -268t-375.5 -98h-702v642h-156v203h156v574h704zM877 286q224 0 351 124t127 330q0 184 -124 281t-352 97h-297v-273h305v-203h-305v-356h295z" />
    <glyph glyph-name="Ntilde" unicode="&#xd1;" horiz-adv-x="1905" 
d="M817 1888q68 0 136 -20t120.5 -39.5t82.5 -19.5q24 0 36.5 3.5t22 19t10.5 47.5h117q0 -59 -11.5 -108t-36.5 -90t-71.5 -64t-111.5 -23q-67 0 -135 19t-120 38t-82 19q-24 0 -36.5 -3.5t-22 -19t-11.5 -47.5h-115q0 288 228 288zM1660 0h-307l-800 943v-943h-308v1419
h310l798 -950v950h307v-1419z" />
    <glyph glyph-name="Ograve" unicode="&#xd2;" 
d="M875 1557l-226 359h364l43 -359h-181zM902 -49q340 0 546.5 209t206.5 559q0 223 -94.5 394t-267 265t-397.5 94q-168 0 -308 -54.5t-237.5 -153.5t-151.5 -242.5t-54 -317.5q0 -223 94 -394t266 -265t397 -94zM1333 689q0 -208 -116.5 -326t-316.5 -118
q-202 0 -317.5 132.5t-115.5 356.5q0 208 114.5 326t314.5 118q202 0 319.5 -132.5t117.5 -356.5z" />
    <glyph glyph-name="Oacute" unicode="&#xd3;" 
d="M1188 1916l-226 -359h-181l42 359h365zM902 -49q340 0 546.5 209t206.5 559q0 223 -94.5 394t-267 265t-397.5 94q-168 0 -308 -54.5t-237.5 -153.5t-151.5 -242.5t-54 -317.5q0 -223 94 -394t266 -265t397 -94zM1333 689q0 -208 -116.5 -326t-316.5 -118
q-202 0 -317.5 132.5t-115.5 356.5q0 208 114.5 326t314.5 118q202 0 319.5 -132.5t117.5 -356.5z" />
    <glyph glyph-name="Ocircumflex" unicode="&#xd4;" 
d="M1101 1557l-216 197l-213 -197h-203l256 359h322l256 -359h-202zM902 -49q340 0 546.5 209t206.5 559q0 223 -94.5 394t-267 265t-397.5 94q-168 0 -308 -54.5t-237.5 -153.5t-151.5 -242.5t-54 -317.5q0 -223 94 -394t266 -265t397 -94zM1333 689q0 -208 -116.5 -326
t-316.5 -118q-202 0 -317.5 132.5t-115.5 356.5q0 208 114.5 326t314.5 118q202 0 319.5 -132.5t117.5 -356.5z" />
    <glyph glyph-name="Otilde" unicode="&#xd5;" 
d="M753 1888q68 0 136 -20t120.5 -39.5t82.5 -19.5q24 0 36.5 3.5t22 19t10.5 47.5h117q0 -59 -11.5 -108t-36.5 -90t-71.5 -64t-111.5 -23q-67 0 -135 19t-120 38t-82 19q-24 0 -36.5 -3.5t-22 -19t-11.5 -47.5h-115q0 288 228 288zM902 -49q340 0 546.5 209t206.5 559
q0 223 -94.5 394t-267 265t-397.5 94q-168 0 -308 -54.5t-237.5 -153.5t-151.5 -242.5t-54 -317.5q0 -223 94 -394t266 -265t397 -94zM1333 689q0 -208 -116.5 -326t-316.5 -118q-202 0 -317.5 132.5t-115.5 356.5q0 208 114.5 326t314.5 118q202 0 319.5 -132.5
t117.5 -356.5z" />
    <glyph glyph-name="Odieresis" unicode="&#xd6;" 
d="M695 1570q-72 0 -118 45.5t-46 114.5q0 74 45.5 120.5t116.5 46.5q72 0 118.5 -45.5t46.5 -114.5q0 -74 -46 -120.5t-117 -46.5zM1122 1570q-72 0 -118 45.5t-46 114.5q0 74 45.5 120.5t116.5 46.5q72 0 118 -45.5t46 -114.5q0 -74 -45.5 -120.5t-116.5 -46.5zM902 -49
q-225 0 -397 94t-266 265t-94 394q0 174 54 317.5t151.5 242.5t237.5 153.5t308 54.5q225 0 397.5 -94t267 -265t94.5 -394q0 -350 -206.5 -559t-546.5 -209zM1333 689q0 224 -117.5 356.5t-319.5 132.5q-200 0 -314.5 -118t-114.5 -326q0 -224 115.5 -356.5t317.5 -132.5
q200 0 316.5 118t116.5 326z" />
    <glyph glyph-name="multiply" unicode="&#xd7;" horiz-adv-x="996" 
d="M559 687l354 -354l-60 -62l-356 354l-354 -354l-60 62l354 354l-356 356l62 60l354 -356l356 356l62 -60z" />
    <glyph glyph-name="Oslash" unicode="&#xd8;" horiz-adv-x="1798" 
d="M902 -49q-229 0 -409 100l-60 -87l-75 42l64 92q-133 100 -205 256t-72 350q0 174 54 317.5t151.5 242.5t237.5 153.5t308 54.5q227 0 407 -100l47 68l75 -43l-51 -72q134 -100 207.5 -256t73.5 -350q0 -350 -206.5 -559t-546.5 -209zM896 1178q-200 0 -314.5 -118
t-114.5 -326q0 -244 135 -376l524 760q-101 60 -230 60zM1333 689q0 246 -138 376l-527 -760q101 -60 232 -60q200 0 316.5 118t116.5 326z" />
    <glyph glyph-name="Ugrave" unicode="&#xd9;" 
d="M885 1557l-226 359h365l43 -359h-182zM900 -51q320 0 504.5 158t184.5 418v894h-307v-820q0 -172 -91.5 -255.5t-290.5 -83.5t-290.5 83.5t-91.5 255.5v820h-307v-894q0 -260 184.5 -418t504.5 -158z" />
    <glyph glyph-name="Uacute" unicode="&#xda;" 
d="M1184 1916l-226 -359h-181l42 359h365zM900 -51q320 0 504.5 158t184.5 418v894h-307v-820q0 -172 -91.5 -255.5t-290.5 -83.5t-290.5 83.5t-91.5 255.5v820h-307v-894q0 -260 184.5 -418t504.5 -158z" />
    <glyph glyph-name="Ucircumflex" unicode="&#xdb;" 
d="M1133 1557l-216 197l-213 -197h-203l256 359h322l256 -359h-202zM900 -51q320 0 504.5 158t184.5 418v894h-307v-820q0 -172 -91.5 -255.5t-290.5 -83.5t-290.5 83.5t-91.5 255.5v820h-307v-894q0 -260 184.5 -418t504.5 -158z" />
    <glyph glyph-name="Udieresis" unicode="&#xdc;" 
d="M691 1570q-72 0 -118 45.5t-46 114.5q0 74 45.5 120.5t116.5 46.5q72 0 118 -45.5t46 -114.5q0 -74 -45.5 -120.5t-116.5 -46.5zM1118 1570q-72 0 -118 45.5t-46 114.5q0 74 45.5 120.5t116.5 46.5q72 0 118 -45.5t46 -114.5q0 -74 -45.5 -120.5t-116.5 -46.5zM900 -51
q-320 0 -504.5 158t-184.5 418v894h307v-820q0 -172 91.5 -255.5t290.5 -83.5t290.5 83.5t91.5 255.5v820h307v-894q0 -260 -184.5 -418t-504.5 -158z" />
    <glyph glyph-name="Yacute" unicode="&#xdd;" horiz-adv-x="1860" 
d="M1229 1916l-226 -359h-182l43 359h365zM47 1419h386l497 -645l497 645h386l-729 -943v-476h-307v476z" />
    <glyph glyph-name="Thorn" unicode="&#xde;" horiz-adv-x="1794" 
d="M555 1210q68 1 219 3.5t272 4.5t140 2q100 0 188.5 -30t158 -86.5t110 -145.5t40.5 -199q0 -96 -27 -174.5t-73 -131t-109.5 -88t-134.5 -51t-149 -15.5h-635v-299h-308v1419h308v-209zM1122 954l-567 -17v-382h565q32 0 64 8t68 27.5t58.5 62t22.5 102.5q0 45 -15 81
t-38 57.5t-52.5 35.5t-55.5 19.5t-50 5.5z" />
    <glyph glyph-name="germandbls" unicode="&#xdf;" horiz-adv-x="1373" 
d="M713 1216q-81 0 -141 -49t-60 -137v-1030h-307v1003q0 110 42.5 201.5t113.5 150t160 90t185 31.5q116 0 207 -30.5t145.5 -82.5t82.5 -116t28 -136q0 -114 -68.5 -216t-189.5 -150q171 -30 261.5 -133.5t90.5 -242.5q0 -49 -10 -100t-36.5 -107.5t-67.5 -100
t-108.5 -72.5t-153.5 -30q-177 0 -292 99v277q47 -45 106.5 -75t115.5 -30q69 0 109 43.5t40 106.5q0 86 -76 152.5t-220 66.5h-53v242q44 0 86.5 10t82 31.5t63.5 61.5t24 93q0 72 -45 125.5t-115 53.5z" />
    <glyph glyph-name="agrave" unicode="&#xe0;" horiz-adv-x="1435" 
d="M706 1239l-226 359h365l42 -359h-181zM119 533q0 -130 44 -239t116.5 -178.5t162 -107.5t183.5 -38q177 0 301 124l19 -94h288v1067h-288l-21 -96q-70 57 -156 88t-173 31q-74 0 -142.5 -20.5t-129.5 -65t-106 -109t-71.5 -157.5t-26.5 -205zM433 512q0 130 70 209
t188 79t175.5 -76.5t57.5 -188.5q0 -73 -23.5 -134.5t-79 -103t-134.5 -41.5q-115 0 -184.5 68.5t-69.5 187.5z" />
    <glyph glyph-name="aacute" unicode="&#xe1;" horiz-adv-x="1435" 
d="M992 1596l-226 -359h-181l42 359h365zM119 533q0 -130 44 -239t116.5 -178.5t162 -107.5t183.5 -38q177 0 301 124l19 -94h288v1067h-288l-21 -96q-70 57 -156 88t-173 31q-74 0 -142.5 -20.5t-129.5 -65t-106 -109t-71.5 -157.5t-26.5 -205zM433 512q0 130 70 209
t188 79t175.5 -76.5t57.5 -188.5q0 -73 -23.5 -134.5t-79 -103t-134.5 -41.5q-115 0 -184.5 68.5t-69.5 187.5z" />
    <glyph glyph-name="acircumflex" unicode="&#xe2;" horiz-adv-x="1435" 
d="M958 1244l-216 196l-213 -196h-203l256 358h323l256 -358h-203zM119 533q0 -130 44 -239t116.5 -178.5t162 -107.5t183.5 -38q177 0 301 124l19 -94h288v1067h-288l-21 -96q-70 57 -156 88t-173 31q-74 0 -142.5 -20.5t-129.5 -65t-106 -109t-71.5 -157.5t-26.5 -205z
M433 512q0 130 70 209t188 79t175.5 -76.5t57.5 -188.5q0 -73 -23.5 -134.5t-79 -103t-134.5 -41.5q-115 0 -184.5 68.5t-69.5 187.5z" />
    <glyph glyph-name="atilde" unicode="&#xe3;" horiz-adv-x="1435" 
d="M570 1566q68 0 136 -20t120.5 -39.5t82.5 -19.5q18 0 28 2t20 8.5t14.5 21t5.5 38.5h117q0 -60 -11 -108.5t-36.5 -90t-71.5 -64.5t-111 -23q-67 0 -135 19.5t-120 38.5t-82 19q-24 0 -36.5 -3.5t-22 -19t-11.5 -47.5h-116q0 288 229 288zM119 533q0 -130 44 -239
t116.5 -178.5t162 -107.5t183.5 -38q177 0 301 124l19 -94h288v1067h-288l-21 -96q-70 57 -156 88t-173 31q-74 0 -142.5 -20.5t-129.5 -65t-106 -109t-71.5 -157.5t-26.5 -205zM433 512q0 130 70 209t188 79t175.5 -76.5t57.5 -188.5q0 -73 -23.5 -134.5t-79 -103
t-134.5 -41.5q-115 0 -184.5 68.5t-69.5 187.5z" />
    <glyph glyph-name="adieresis" unicode="&#xe4;" horiz-adv-x="1435" 
d="M518 1259q-72 0 -118 45.5t-46 114.5q0 74 45.5 120t116.5 46q72 0 118.5 -45.5t46.5 -114.5q0 -74 -46 -120t-117 -46zM945 1259q-72 0 -118 45.5t-46 114.5q0 74 45.5 120t116.5 46q72 0 118 -45.5t46 -114.5q0 -74 -45.5 -120t-116.5 -46zM119 533q0 112 26.5 205
t71.5 157.5t106 109t129.5 65t142.5 20.5q87 0 173 -31t156 -88l21 96h288v-1067h-288l-19 94q-124 -124 -301 -124q-94 0 -183.5 38t-162 107.5t-116.5 178.5t-44 239zM433 512q0 -119 69.5 -187.5t184.5 -68.5q79 0 134.5 41.5t79 103t23.5 134.5q0 112 -57.5 188.5
t-175.5 76.5t-188 -79t-70 -209z" />
    <glyph glyph-name="aring" unicode="&#xe5;" horiz-adv-x="1435" 
d="M727 1186q-110 0 -176.5 65.5t-66.5 171.5q0 113 65 180t174 67q110 0 175.5 -65t65.5 -171q0 -113 -65 -180.5t-172 -67.5zM849 1419q0 65 -33.5 102.5t-92.5 37.5q-58 0 -91 -32t-33 -89q0 -66 33.5 -103.5t92.5 -37.5q58 0 91 32t33 90zM119 533q0 112 26.5 205
t71.5 157.5t106 109t129.5 65t142.5 20.5q87 0 173 -31t156 -88l21 96h288v-1067h-288l-19 94q-124 -124 -301 -124q-94 0 -183.5 38t-162 107.5t-116.5 178.5t-44 239zM433 512q0 -119 69.5 -187.5t184.5 -68.5q79 0 134.5 41.5t79 103t23.5 134.5q0 112 -57.5 188.5
t-175.5 76.5t-188 -79t-70 -209z" />
    <glyph glyph-name="ae" unicode="&#xe6;" horiz-adv-x="2118" 
d="M1969 224q-34 -68 -91.5 -120.5t-126 -84t-140.5 -47t-143 -15.5q-142 0 -267 92l-11 -49h-245l-19 94q-124 -124 -301 -124q-94 0 -183.5 38t-162 107.5t-116.5 178.5t-44 239q0 112 26 205t71 157.5t106 109t129 65t142 20.5q186 0 331 -119l21 96h245l13 -62
q122 94 258 94q153 0 280.5 -65t202 -183.5t74.5 -265.5q0 -36 -7 -72t-14 -53l-7 -18h-785q27 -93 98 -150t163 -57q220 0 285 126zM1461 821q-82 0 -148 -43.5t-99 -116.5h512q-47 160 -265 160zM433 512q0 -119 69.5 -187.5t184.5 -68.5q79 0 134.5 41.5t79 103
t23.5 134.5q0 112 -57.5 188.5t-175.5 76.5t-188 -79t-70 -209z" />
    <glyph glyph-name="ccedilla" unicode="&#xe7;" horiz-adv-x="1294" 
d="M1212 256q-67 -141 -198.5 -217.5t-292.5 -81.5l-21 -62q104 -11 156.5 -63t52.5 -126q0 -96 -81.5 -173t-210.5 -77q-80 0 -163 32l41 147q50 -21 94 -21q41 0 64 19t23 45q0 29 -27 50.5t-77 21.5q-13 0 -43 -4l58 222q-212 34 -343 184t-131 371q0 164 68.5 294.5
t197.5 206t297 75.5q90 0 173 -22t158.5 -68.5t128.5 -128.5t71 -191l-277 -90q-14 96 -86.5 151.5t-165.5 55.5q-103 0 -177 -68.5t-74 -193.5q0 -134 69.5 -211t205.5 -77q72 0 146 33t106 82z" />
    <glyph glyph-name="egrave" unicode="&#xe8;" horiz-adv-x="1329" 
d="M674 1237l-226 359h365l42 -359h-181zM678 235q-92 0 -162.5 57t-97.5 150h785q28 62 28 143q0 147 -74.5 265.5t-202 183.5t-280.5 65q-255 0 -409 -156.5t-154 -419.5q0 -254 157 -410t413 -156q73 0 144.5 15t140.5 45.5t126 83.5t90 123l-218 137q-65 -126 -286 -126
zM674 821q218 0 265 -160h-512q33 73 99 116.5t148 43.5z" />
    <glyph glyph-name="eacute" unicode="&#xe9;" horiz-adv-x="1329" 
d="M977 1594l-226 -359h-181l42 359h365zM678 235q-92 0 -162.5 57t-97.5 150h785q28 62 28 143q0 147 -74.5 265.5t-202 183.5t-280.5 65q-255 0 -409 -156.5t-154 -419.5q0 -254 157 -410t413 -156q73 0 144.5 15t140.5 45.5t126 83.5t90 123l-218 137q-65 -126 -286 -126
zM674 821q218 0 265 -160h-512q33 73 99 116.5t148 43.5z" />
    <glyph glyph-name="ecircumflex" unicode="&#xea;" horiz-adv-x="1329" 
d="M905 1235l-216 196l-213 -196h-203l256 359h322l256 -359h-202zM678 235q-92 0 -162.5 57t-97.5 150h785q28 62 28 143q0 147 -74.5 265.5t-202 183.5t-280.5 65q-255 0 -409 -156.5t-154 -419.5q0 -254 157 -410t413 -156q73 0 144.5 15t140.5 45.5t126 83.5t90 123
l-218 137q-65 -126 -286 -126zM674 821q218 0 265 -160h-512q33 73 99 116.5t148 43.5z" />
    <glyph glyph-name="edieresis" unicode="&#xeb;" horiz-adv-x="1329" 
d="M450 1248q-72 0 -118 45.5t-46 114.5q0 74 45.5 120t116.5 46q72 0 118 -45.5t46 -114.5q0 -74 -45.5 -120t-116.5 -46zM877 1248q-72 0 -118 45.5t-46 114.5q0 74 45.5 120t116.5 46q72 0 118 -45.5t46 -114.5q0 -74 -45.5 -120t-116.5 -46zM678 235q221 0 286 126
l218 -137q-33 -70 -90 -123t-126 -83.5t-140.5 -45.5t-144.5 -15q-256 0 -413 156t-157 410q0 263 154 419.5t409 156.5q153 0 280.5 -65t202 -183.5t74.5 -265.5q0 -36 -7 -72t-14 -53l-7 -18h-785q27 -93 97.5 -150t162.5 -57zM674 821q-82 0 -148 -43.5t-99 -116.5h512
q-47 160 -265 160z" />
    <glyph glyph-name="igrave" unicode="&#xec;" horiz-adv-x="727" 
d="M335 1239l-226 359h365l42 -359h-181zM215 0v1067h310l-2 -1067h-308z" />
    <glyph glyph-name="iacute" unicode="&#xed;" horiz-adv-x="725" 
d="M619 1594l-226 -359h-182l43 359h365zM205 0v1067h309l-2 -1067h-307z" />
    <glyph glyph-name="icircumflex" unicode="&#xee;" horiz-adv-x="772" 
d="M606 1239l-216 197l-213 -197h-203l256 359h323l256 -359h-203zM233 0v1067h309l-2 -1067h-307z" />
    <glyph glyph-name="idieresis" unicode="&#xef;" horiz-adv-x="716" 
d="M147 1254q-72 0 -118 45.5t-46 114.5q0 74 45.5 120.5t116.5 46.5q72 0 118 -45.5t46 -114.5q0 -74 -45.5 -120.5t-116.5 -46.5zM574 1254q-72 0 -118 45.5t-46 114.5q0 74 45.5 120.5t116.5 46.5q72 0 118 -45.5t46 -114.5q0 -74 -45.5 -120.5t-116.5 -46.5zM205 0v1067
h309l-2 -1067h-307z" />
    <glyph glyph-name="eth" unicode="&#xf0;" horiz-adv-x="1376" 
d="M331 1158l96 107q-68 19 -188 36l126 190q120 0 237 -32l102 113l156 -64l-96 -106q216 -101 348 -295.5t132 -453.5q0 -102 -20.5 -199.5t-65 -188t-109.5 -158.5t-161 -109t-212 -41q-256 0 -412.5 156t-156.5 410q0 116 42.5 218.5t112.5 172.5t163.5 110.5
t193.5 40.5q130 0 245 -64q-67 128 -269 209l-96 -109zM670 800q-114 0 -182 -68.5t-68 -187.5q0 -130 69 -209t185 -79q121 0 187.5 80t66.5 189q0 111 -68.5 193t-189.5 82z" />
    <glyph glyph-name="ntilde" unicode="&#xf1;" horiz-adv-x="1469" 
d="M614 1564q68 0 136.5 -20t121 -39.5t82.5 -19.5q18 0 28 2t20 8.5t14.5 21t5.5 38.5h117q0 -60 -11 -108.5t-36.5 -90t-71.5 -64.5t-111 -23q-67 0 -135 19.5t-120 38.5t-82 19q-18 0 -28 -2t-20.5 -8.5t-16 -21t-6.5 -38.5h-115q0 288 228 288zM514 913
q74 88 178.5 132.5t216.5 44.5q175 0 279.5 -112.5t104.5 -299.5v-678h-312v634q0 81 -48.5 124.5t-123.5 43.5q-97 0 -185 -71t-112 -196v-535h-307v1067h288z" />
    <glyph glyph-name="ograve" unicode="&#xf2;" horiz-adv-x="1356" 
d="M678 1242l-226 358h365l43 -358h-182zM681 -43q255 0 410 156.5t155 419.5q0 254 -158 410t-414 156q-255 0 -409 -156.5t-154 -419.5q0 -254 157 -410t413 -156zM932 512q0 -119 -69.5 -187.5t-184.5 -68.5q-116 0 -184.5 78.5t-68.5 209.5q0 119 67.5 187.5t181.5 68.5
q118 0 188 -79t70 -209z" />
    <glyph glyph-name="oacute" unicode="&#xf3;" horiz-adv-x="1356" 
d="M975 1596l-226 -359h-182l43 359h365zM681 -43q255 0 410 156.5t155 419.5q0 254 -158 410t-414 156q-255 0 -409 -156.5t-154 -419.5q0 -254 157 -410t413 -156zM932 512q0 -119 -69.5 -187.5t-184.5 -68.5q-116 0 -184.5 78.5t-68.5 209.5q0 119 67.5 187.5t181.5 68.5
q118 0 188 -79t70 -209z" />
    <glyph glyph-name="ocircumflex" unicode="&#xf4;" horiz-adv-x="1356" 
d="M894 1237l-216 197l-213 -197h-203l256 359h323l256 -359h-203zM681 -43q255 0 410 156.5t155 419.5q0 254 -158 410t-414 156q-255 0 -409 -156.5t-154 -419.5q0 -254 157 -410t413 -156zM932 512q0 -119 -69.5 -187.5t-184.5 -68.5q-116 0 -184.5 78.5t-68.5 209.5
q0 119 67.5 187.5t181.5 68.5q118 0 188 -79t70 -209z" />
    <glyph glyph-name="otilde" unicode="&#xf5;" horiz-adv-x="1356" 
d="M531 1566q68 0 136 -20t120.5 -39.5t82.5 -19.5q24 0 36.5 3.5t22 19t10.5 47.5h117q0 -60 -11 -108.5t-36.5 -90t-71.5 -64.5t-111 -23q-67 0 -135 19.5t-120 38.5t-82 19q-18 0 -28 -2t-20.5 -8.5t-16 -21t-6.5 -38.5h-115q0 288 228 288zM681 -43q255 0 410 156.5
t155 419.5q0 254 -158 410t-414 156q-255 0 -409 -156.5t-154 -419.5q0 -254 157 -410t413 -156zM932 512q0 -119 -69.5 -187.5t-184.5 -68.5q-116 0 -184.5 78.5t-68.5 209.5q0 119 67.5 187.5t181.5 68.5q118 0 188 -79t70 -209z" />
    <glyph glyph-name="odieresis" unicode="&#xf6;" horiz-adv-x="1356" 
d="M469 1263q-72 0 -118 45.5t-46 114.5q0 74 45.5 120t116.5 46q72 0 118 -45.5t46 -114.5q0 -74 -45.5 -120t-116.5 -46zM896 1263q-72 0 -118 45.5t-46 114.5q0 74 45.5 120t116.5 46q72 0 118 -45.5t46 -114.5q0 -74 -45.5 -120t-116.5 -46zM681 -43q-256 0 -413 156
t-157 410q0 263 154 419.5t409 156.5q256 0 414 -156t158 -410q0 -263 -155 -419.5t-410 -156.5zM932 512q0 130 -70 209t-188 79q-114 0 -181.5 -68.5t-67.5 -187.5q0 -131 68.5 -209.5t184.5 -78.5q115 0 184.5 68.5t69.5 187.5z" />
    <glyph glyph-name="divide" unicode="&#xf7;" horiz-adv-x="1141" 
d="M570 898q-70 0 -114 43.5t-44 112.5q0 72 43 116t112 44q71 0 115.5 -43.5t44.5 -112.5q0 -72 -44 -116t-113 -44zM1116 732v-86h-1090v86h1090zM570 158q-71 0 -114.5 43t-43.5 113q0 72 43 116t112 44q70 0 115 -44.5t45 -113.5q0 -71 -43.5 -114.5t-113.5 -43.5z" />
    <glyph glyph-name="oslash" unicode="&#xf8;" horiz-adv-x="1380" 
d="M691 -43q-165 0 -292 66l-111 -160l-75 43l113 164q-98 74 -151 190.5t-53 262.5q0 263 154 419.5t409 156.5q173 0 303 -75l109 156l74 -43l-111 -160q94 -76 145.5 -189.5t51.5 -254.5q0 -263 -155.5 -419.5t-410.5 -156.5zM685 800q-114 0 -182 -68.5t-68 -187.5
q0 -137 73 -213l303 439q-57 30 -126 30zM943 512q0 123 -64 203l-303 -436q46 -23 113 -23q115 0 184.5 68.5t69.5 187.5z" />
    <glyph glyph-name="ugrave" unicode="&#xf9;" horiz-adv-x="1467" 
d="M702 1235l-226 359h365l42 -359h-181zM956 151q-74 -86 -179 -130t-216 -44q-175 0 -279.5 112t-104.5 299v679h312v-634q0 -81 48.5 -124.5t123.5 -43.5q97 0 185 70.5t112 193.5v538h307v-1067h-288z" />
    <glyph glyph-name="uacute" unicode="&#xfa;" horiz-adv-x="1467" 
d="M990 1596l-226 -359h-182l43 359h365zM956 151q-74 -86 -179 -130t-216 -44q-175 0 -279.5 112t-104.5 299v679h312v-634q0 -81 48.5 -124.5t123.5 -43.5q97 0 185 70.5t112 193.5v538h307v-1067h-288z" />
    <glyph glyph-name="ucircumflex" unicode="&#xfb;" horiz-adv-x="1467" 
d="M937 1235l-216 196l-213 -196h-203l256 359h322l256 -359h-202zM956 151q-74 -86 -179 -130t-216 -44q-175 0 -279.5 112t-104.5 299v679h312v-634q0 -81 48.5 -124.5t123.5 -43.5q97 0 185 70.5t112 193.5v538h307v-1067h-288z" />
    <glyph glyph-name="udieresis" unicode="&#xfc;" horiz-adv-x="1467" 
d="M497 1254q-72 0 -118 45.5t-46 114.5q0 74 45.5 120.5t116.5 46.5q72 0 118 -45.5t46 -114.5q0 -74 -45.5 -120.5t-116.5 -46.5zM924 1254q-72 0 -118.5 45.5t-46.5 114.5q0 74 46 120.5t117 46.5q72 0 118 -45.5t46 -114.5q0 -74 -45.5 -120.5t-116.5 -46.5zM956 151
q-74 -86 -179 -130t-216 -44q-175 0 -279.5 112t-104.5 299v679h312v-634q0 -81 48.5 -124.5t123.5 -43.5q97 0 185 70.5t112 193.5v538h307v-1067h-288z" />
    <glyph glyph-name="yacute" unicode="&#xfd;" horiz-adv-x="1467" 
d="M1041 1598l-226 -359h-181l42 359h365zM32 1067h316l369 -756l407 756h314l-819 -1517h-314l258 480z" />
    <glyph glyph-name="thorn" unicode="&#xfe;" horiz-adv-x="1437" 
d="M512 971q145 119 331 119q93 0 176.5 -34t151 -100t107.5 -175t40 -248q0 -130 -44 -239t-116 -178.5t-161.5 -107.5t-183.5 -38q-177 0 -301 124v-544h-307v1869h309zM1005 512q0 130 -70 209t-188 79t-175.5 -76.5t-57.5 -188.5q0 -73 23.5 -134.5t79 -103t134.5 -41.5
q115 0 184.5 68.5t69.5 187.5z" />
    <glyph glyph-name="ydieresis" unicode="&#xff;" horiz-adv-x="1467" 
d="M529 1252q-72 0 -118 45.5t-46 114.5q0 74 45.5 120.5t116.5 46.5q72 0 118 -45.5t46 -114.5q0 -74 -45.5 -120.5t-116.5 -46.5zM956 1252q-72 0 -118.5 45.5t-46.5 114.5q0 74 46 120.5t117 46.5q72 0 118 -45.5t46 -114.5q0 -74 -45.5 -120.5t-116.5 -46.5zM32 1067
h316l369 -756l407 756h314l-819 -1517h-314l258 480z" />
    <glyph glyph-name="Amacron" unicode="&#x100;" horiz-adv-x="1879" 
d="M1340 1551h-811v203h811v-203zM1312 341h-742q-96 -211 -160 -341h-350l691 1419h382l691 -1419h-350zM915 1069q-4 -7 -202 -429h458l-202 429h-54z" />
    <glyph glyph-name="amacron" unicode="&#x101;" horiz-adv-x="1435" 
d="M1141 1321h-810v202h810v-202zM119 533q0 -130 44 -239t116.5 -178.5t162 -107.5t183.5 -38q177 0 301 124l19 -94h288v1067h-288l-21 -96q-70 57 -156 88t-173 31q-74 0 -142.5 -20.5t-129.5 -65t-106 -109t-71.5 -157.5t-26.5 -205zM433 512q0 130 70 209t188 79
t175.5 -76.5t57.5 -188.5q0 -73 -23.5 -134.5t-79 -103t-134.5 -41.5q-115 0 -184.5 68.5t-69.5 187.5z" />
    <glyph glyph-name="Abreve" unicode="&#x102;" horiz-adv-x="1879" 
d="M924 1722q90 0 115 153l154 -17q0 -122 -75.5 -217.5t-191.5 -95.5t-191.5 95.5t-75.5 217.5l154 17q25 -153 111 -153zM1312 341h-742q-96 -211 -160 -341h-350l691 1419h382l691 -1419h-350zM915 1069q-4 -7 -202 -429h458l-202 429h-54z" />
    <glyph glyph-name="abreve" unicode="&#x103;" horiz-adv-x="1435" 
d="M736 1417q90 0 115 153l154 -17q0 -122 -75.5 -218t-191.5 -96t-191.5 96t-75.5 218l154 17q25 -153 111 -153zM119 533q0 112 26.5 205t71.5 157.5t106 109t129.5 65t142.5 20.5q87 0 173 -31t156 -88l21 96h288v-1067h-288l-19 94q-124 -124 -301 -124q-94 0 -183.5 38
t-162 107.5t-116.5 178.5t-44 239zM433 512q0 -119 69.5 -187.5t184.5 -68.5q79 0 134.5 41.5t79 103t23.5 134.5q0 112 -57.5 188.5t-175.5 76.5t-188 -79t-70 -209z" />
    <glyph glyph-name="Aogonek" unicode="&#x104;" horiz-adv-x="1885" 
d="M1470 6q-74 151 -160 335h-740l-160 -341h-350l691 1419h382l691 -1419h-96q-61 -6 -101 -56.5t-40 -109.5q0 -51 35.5 -85.5t105.5 -34.5q80 0 192 47l49 -209q-154 -58 -284 -58q-85 0 -154.5 24.5t-113 64.5t-67 90t-23.5 103q0 60 35 124.5t108 105.5zM713 640h456
l-200 429h-54z" />
    <glyph glyph-name="aogonek" unicode="&#x105;" horiz-adv-x="1442" 
d="M119 533q0 112 26 205t71 157.5t106 109t129 65t142 20.5q186 0 331 -119l21 96h288v-1067h-21q-62 0 -104.5 -52t-42.5 -114q0 -51 35 -85.5t105 -34.5q80 0 192 47l49 -209q-154 -58 -283 -58q-85 0 -154.5 24.5t-113.5 64.5t-67.5 90t-23.5 103q0 59 34.5 122.5
t104.5 105.5l-17 90q-124 -124 -301 -124q-94 0 -183.5 38t-162 107.5t-116.5 178.5t-44 239zM433 512q0 -119 69.5 -187.5t184.5 -68.5q79 0 134.5 41.5t79 103t23.5 134.5q0 112 -57.5 188.5t-175.5 76.5t-188 -79t-70 -209z" />
    <glyph glyph-name="Cacute" unicode="&#x106;" horiz-adv-x="1760" 
d="M1165 1918l-226 -359h-182l43 359h365zM1641 981q-55 228 -241 354t-468 126q-359 0 -576 -202t-217 -536q0 -164 58 -307t160 -245t247 -160t313 -58q99 0 192.5 17t184.5 56.5t160.5 99.5t117.5 152t60 206l-254 115q-31 -147 -146.5 -238.5t-271.5 -91.5
q-215 0 -352 120t-137 334q0 139 63 239.5t164.5 148t227.5 47.5q63 0 127 -16t125 -48.5t110 -89t73 -129.5z" />
    <glyph glyph-name="cacute" unicode="&#x107;" horiz-adv-x="1284" 
d="M958 1587l-226 -358h-182l43 358h365zM1207 256q-69 -144 -205.5 -221.5t-301.5 -77.5q-258 0 -424.5 157t-166.5 409q0 164 68.5 294.5t197.5 206t297 75.5q90 0 173 -22t158.5 -68.5t128.5 -128.5t71 -191l-277 -90q-14 96 -86.5 151.5t-165.5 55.5
q-103 0 -177.5 -68.5t-74.5 -193.5q0 -134 70 -211t206 -77q72 0 145.5 33t105.5 82z" />
    <glyph glyph-name="Ccircumflex" unicode="&#x108;" horiz-adv-x="1760" 
d="M1109 1549l-215 196l-213 -196h-203l256 358h322l256 -358h-203zM1641 981q-55 228 -241 354t-468 126q-359 0 -576 -202t-217 -536q0 -164 58 -307t160 -245t247 -160t313 -58q99 0 192.5 17t184.5 56.5t160.5 99.5t117.5 152t60 206l-254 115q-31 -147 -146.5 -238.5
t-271.5 -91.5q-215 0 -352 120t-137 334q0 139 63 239.5t164.5 148t227.5 47.5q63 0 127 -16t125 -48.5t110 -89t73 -129.5z" />
    <glyph glyph-name="ccircumflex" unicode="&#x109;" horiz-adv-x="1284" 
d="M883 1229l-215 196l-214 -196h-202l256 358h322l256 -358h-203zM1207 256q-69 -144 -205.5 -221.5t-301.5 -77.5q-258 0 -424.5 157t-166.5 409q0 164 68.5 294.5t197.5 206t297 75.5q90 0 173 -22t158.5 -68.5t128.5 -128.5t71 -191l-277 -90q-14 96 -86.5 151.5
t-165.5 55.5q-103 0 -177.5 -68.5t-74.5 -193.5q0 -134 70 -211t206 -77q72 0 145.5 33t105.5 82z" />
    <glyph glyph-name="Cdotaccent" unicode="&#x10a;" horiz-adv-x="1760" 
d="M885 1551q-72 0 -118 45.5t-46 114.5q0 74 45.5 120t116.5 46q72 0 118 -45.5t46 -114.5q0 -74 -45.5 -120t-116.5 -46zM1361 875q-24 73 -73 129.5t-110 89t-125 48.5t-127 16q-126 0 -227.5 -47.5t-164.5 -148t-63 -239.5q0 -214 137 -334t352 -120q156 0 271.5 91.5
t146.5 238.5l254 -115q-12 -114 -60 -206t-117.5 -152t-160.5 -99.5t-184.5 -56.5t-192.5 -17q-168 0 -313 58t-247 160t-160 245t-58 307q0 334 217 536t576 202q282 0 468 -126t241 -354z" />
    <glyph glyph-name="cdotaccent" unicode="&#x10b;" horiz-adv-x="1284" 
d="M666 1250q-72 0 -118.5 45.5t-46.5 114.5q0 74 45.5 120.5t116.5 46.5q72 0 118.5 -45.5t46.5 -114.5q0 -74 -45.5 -120.5t-116.5 -46.5zM1207 256q-69 -144 -205.5 -221.5t-301.5 -77.5q-258 0 -424.5 157t-166.5 409q0 164 68.5 294.5t197.5 206t297 75.5q90 0 173 -22
t158.5 -68.5t128.5 -128.5t71 -191l-277 -90q-14 96 -86.5 151.5t-165.5 55.5q-103 0 -177.5 -68.5t-74.5 -193.5q0 -134 70 -211t206 -77q72 0 145.5 33t105.5 82z" />
    <glyph glyph-name="Ccaron" unicode="&#x10c;" horiz-adv-x="1760" 
d="M666 1926l215 -196l213 196h203l-256 -358h-322l-256 358h203zM1641 981q-55 228 -241 354t-468 126q-359 0 -576 -202t-217 -536q0 -164 58 -307t160 -245t247 -160t313 -58q99 0 192.5 17t184.5 56.5t160.5 99.5t117.5 152t60 206l-254 115q-31 -147 -146.5 -238.5
t-271.5 -91.5q-215 0 -352 120t-137 334q0 139 63 239.5t164.5 148t227.5 47.5q63 0 127 -16t125 -48.5t110 -89t73 -129.5z" />
    <glyph glyph-name="ccaron" unicode="&#x10d;" horiz-adv-x="1284" 
d="M452 1587l216 -196l213 196h203l-256 -358h-322l-256 358h202zM1207 256q-69 -144 -205.5 -221.5t-301.5 -77.5q-258 0 -424.5 157t-166.5 409q0 164 68.5 294.5t197.5 206t297 75.5q90 0 173 -22t158.5 -68.5t128.5 -128.5t71 -191l-277 -90q-14 96 -86.5 151.5
t-165.5 55.5q-103 0 -177.5 -68.5t-74.5 -193.5q0 -134 70 -211t206 -77q72 0 145.5 33t105.5 82z" />
    <glyph glyph-name="Dcaron" unicode="&#x10e;" horiz-adv-x="1796" 
d="M604 1909l215 -196l214 196h202l-256 -358h-322l-256 358h203zM245 0h702q212 0 375.5 98t250.5 268t87 385q0 196 -89.5 348.5t-251 236t-370.5 83.5h-704v-1419zM849 1118q228 0 352 -97t124 -281q0 -206 -127 -330t-351 -124h-294v832h296z" />
    <glyph glyph-name="dcaron" unicode="&#x10f;" horiz-adv-x="1578" 
d="M1766 1463q0 -186 -217 -422q0 -1 -26.5 17.5t-53.5 37.5l-27 18q8 8 21.5 22t42.5 56.5t43 83.5q-91 0 -148 57.5t-57 147.5q0 97 57 155t150 58q97 0 156 -67t59 -164zM119 533q0 112 26.5 205t71.5 157.5t106 109t129.5 65t142.5 20.5q89 0 176 -31t157 -90v450h305
v-1419h-288l-17 96q-123 -126 -303 -126q-94 0 -183.5 38t-162 107.5t-116.5 178.5t-44 239zM433 512q0 -119 69.5 -187.5t184.5 -68.5q79 0 134.5 41.5t79 103t23.5 134.5q0 112 -57.5 188.5t-175.5 76.5t-188 -79t-70 -209z" />
    <glyph glyph-name="Dcroat" unicode="&#x110;" horiz-adv-x="1830" 
d="M979 1419q209 0 370.5 -83.5t251 -236t89.5 -348.5q0 -215 -87 -385t-250.5 -268t-375.5 -98h-702v642h-156v203h156v574h704zM877 286q224 0 351 124t127 330q0 184 -124 281t-352 97h-297v-273h305v-203h-305v-356h295z" />
    <glyph glyph-name="dcroat" unicode="&#x111;" horiz-adv-x="1437" 
d="M119 533q0 112 26.5 205t71.5 157.5t106 109t129.5 65t142.5 20.5q189 0 333 -121v162h-145v192h145v96h305v-96h152v-192h-152v-1131h-288l-17 96q-123 -126 -303 -126q-94 0 -183.5 38t-162 107.5t-116.5 178.5t-44 239zM433 512q0 -119 69.5 -187.5t184.5 -68.5
q79 0 134.5 41.5t79 103t23.5 134.5q0 112 -57.5 188.5t-175.5 76.5t-188 -79t-70 -209z" />
    <glyph glyph-name="Emacron" unicode="&#x112;" horiz-adv-x="1723" 
d="M1340 1555h-811v203h811v-203zM1594 0h-1349v1419h1310v-303h-1002v-229h823v-311h-823v-275h1041v-301z" />
    <glyph glyph-name="emacron" unicode="&#x113;" horiz-adv-x="1329" 
d="M1077 1310h-810v203h810v-203zM678 235q-92 0 -162.5 57t-97.5 150h785q28 62 28 143q0 147 -74.5 265.5t-202 183.5t-280.5 65q-255 0 -409 -156.5t-154 -419.5q0 -254 157 -410t413 -156q73 0 144.5 15t140.5 45.5t126 83.5t90 123l-218 137q-65 -126 -286 -126z
M674 821q218 0 265 -160h-512q33 73 99 116.5t148 43.5z" />
    <glyph glyph-name="Ebreve" unicode="&#x114;" horiz-adv-x="1723" 
d="M913 1730q90 0 115 154l154 -17q0 -122 -75.5 -218t-191.5 -96t-191 96t-75 218l153 17q25 -154 111 -154zM1594 0h-1349v1419h1310v-303h-1002v-229h823v-311h-823v-275h1041v-301z" />
    <glyph glyph-name="ebreve" unicode="&#x115;" horiz-adv-x="1329" 
d="M685 1408q90 0 115 154l154 -17q0 -122 -75.5 -218t-191.5 -96t-191.5 96t-75.5 218l154 17q25 -154 111 -154zM678 235q221 0 286 126l218 -137q-33 -70 -90 -123t-126 -83.5t-140.5 -45.5t-144.5 -15q-256 0 -413 156t-157 410q0 263 154 419.5t409 156.5
q153 0 280.5 -65t202 -183.5t74.5 -265.5q0 -36 -7 -72t-14 -53l-7 -18h-785q27 -93 97.5 -150t162.5 -57zM674 821q-82 0 -148 -43.5t-99 -116.5h512q-47 160 -265 160z" />
    <glyph glyph-name="Edotaccent" unicode="&#x116;" horiz-adv-x="1723" 
d="M915 1540q-72 0 -118 45.5t-46 114.5q0 74 45.5 120.5t116.5 46.5q72 0 118 -45.5t46 -114.5q0 -74 -45.5 -120.5t-116.5 -46.5zM1594 0h-1349v1419h1310v-303h-1002v-229h823v-311h-823v-275h1041v-301z" />
    <glyph glyph-name="edotaccent" unicode="&#x117;" horiz-adv-x="1329" 
d="M681 1252q-72 0 -118.5 45.5t-46.5 114.5q0 74 45.5 120.5t116.5 46.5q72 0 118.5 -45.5t46.5 -114.5q0 -74 -45.5 -120.5t-116.5 -46.5zM678 235q221 0 286 126l218 -137q-33 -70 -90 -123t-126 -83.5t-140.5 -45.5t-144.5 -15q-256 0 -413 156t-157 410
q0 263 154 419.5t409 156.5q153 0 280.5 -65t202 -183.5t74.5 -265.5q0 -36 -7 -72t-14 -53l-7 -18h-785q27 -93 97.5 -150t162.5 -57zM674 821q-82 0 -148 -43.5t-99 -116.5h512q-47 160 -265 160z" />
    <glyph glyph-name="Eogonek" unicode="&#x118;" horiz-adv-x="1728" 
d="M1594 0h-231q-56 -11 -92 -59t-36 -105q0 -51 35.5 -85.5t105.5 -34.5q80 0 192 47l49 -209q-152 -57 -284 -57q-85 0 -154.5 24t-113 64.5t-67 90t-23.5 102.5q0 57 32 118t96 104h-858v1419h1310v-303h-1002v-229h823v-311h-823v-275h1041v-301z" />
    <glyph glyph-name="eogonek" unicode="&#x119;" horiz-adv-x="1346" 
d="M1190 226q-30 -56 -71.5 -101.5t-81.5 -71.5t-71 -40t-53 -19q-53 -53 -53 -126q0 -51 35.5 -85.5t105.5 -34.5q80 0 192 47l49 -209q-152 -57 -284 -57q-85 0 -154.5 24t-113.5 64.5t-67.5 90t-23.5 102.5q0 75 52 149q-240 13 -384.5 166.5t-144.5 397.5
q0 263 154 419.5t409 156.5q153 0 280.5 -65t202 -183.5t74.5 -265.5q0 -39 -7 -74.5t-14 -52.5l-7 -16h-785q27 -93 97.5 -150t162.5 -57q221 0 286 126zM685 821q-82 0 -148.5 -43.5t-99.5 -116.5h512q-47 160 -264 160z" />
    <glyph glyph-name="Ecaron" unicode="&#x11a;" horiz-adv-x="1723" 
d="M702 1916l215 -197l214 197h202l-256 -359h-322l-256 359h203zM1594 0h-1349v1419h1310v-303h-1002v-229h823v-311h-823v-275h1041v-301z" />
    <glyph glyph-name="ecaron" unicode="&#x11b;" horiz-adv-x="1329" 
d="M478 1602l215 -196l214 196h202l-256 -358h-322l-256 358h203zM678 235q-92 0 -162.5 57t-97.5 150h785q28 62 28 143q0 147 -74.5 265.5t-202 183.5t-280.5 65q-255 0 -409 -156.5t-154 -419.5q0 -254 157 -410t413 -156q73 0 144.5 15t140.5 45.5t126 83.5t90 123
l-218 137q-65 -126 -286 -126zM674 821q218 0 265 -160h-512q33 73 99 116.5t148 43.5z" />
    <glyph glyph-name="Gcircumflex" unicode="&#x11c;" horiz-adv-x="1824" 
d="M1141 1553l-215 196l-213 -196h-203l256 358h322l256 -358h-203zM924 1158q333 0 429 -258l281 101q-29 106 -84.5 187.5t-123 132.5t-153 83t-168 44.5t-173.5 12.5q-168 0 -312 -48t-251.5 -139.5t-168.5 -233t-61 -317.5q0 -164 58 -307t160 -245t247 -160t313 -58
q252 0 435 108.5t270 302.5t68 447h-760v-273h437q-41 -129 -150 -199t-257 -70q-215 0 -352 120t-137 334q0 204 122.5 319.5t330.5 115.5z" />
    <glyph glyph-name="gcircumflex" unicode="&#x11d;" horiz-adv-x="1435" 
d="M941 1239l-216 197l-213 -197h-203l256 359h322l256 -359h-202zM685 -471q271 0 408.5 133.5t137.5 412.5v992h-288l-21 -96q-145 119 -331 119q-74 0 -142 -20.5t-129 -65t-106 -109t-71 -157.5t-26 -205q0 -126 43 -230t114 -170t159 -101.5t181 -35.5q187 0 310 123
q-7 -163 -66.5 -238t-170.5 -75q-72 0 -146 33t-106 82l-234 -160q71 -120 198.5 -176t285.5 -56zM431 512q0 130 70 209t188 79t175.5 -76.5t57.5 -188.5q0 -122 -75.5 -190t-176.5 -68q-98 0 -168.5 62t-70.5 173z" />
    <glyph glyph-name="Gbreve" unicode="&#x11e;" horiz-adv-x="1824" 
d="M919 1722q91 0 116 153l153 -17q0 -122 -75 -217.5t-191 -95.5t-191.5 95.5t-75.5 217.5l154 17q25 -153 110 -153zM924 1158q-208 0 -330.5 -115.5t-122.5 -319.5q0 -214 137 -334t352 -120q148 0 257 70t150 199h-437v273h760q19 -253 -68 -447t-270 -302.5
t-435 -108.5q-168 0 -313 58t-247 160t-160 245t-58 307q0 176 61 317.5t168.5 233t251.5 139.5t312 48q91 0 173.5 -12.5t168 -44.5t153 -83t123 -132.5t84.5 -187.5l-281 -101q-96 258 -429 258z" />
    <glyph glyph-name="gbreve" unicode="&#x11f;" horiz-adv-x="1435" 
d="M704 1410q90 0 115 154l154 -17q0 -122 -75.5 -218t-191.5 -96t-191.5 96t-75.5 218l154 17q25 -154 111 -154zM685 -471q-158 0 -285.5 56t-198.5 176l234 160q32 -49 106 -82t146 -33q111 0 170.5 75t66.5 238q-123 -123 -310 -123q-93 0 -181 35.5t-159 101.5
t-114 170t-43 230q0 112 26 205t71 157.5t106 109t129 65t142 20.5q186 0 331 -119l21 96h288v-992q0 -279 -137.5 -412.5t-408.5 -133.5zM431 512q0 -111 70.5 -173t168.5 -62q101 0 176.5 68t75.5 190q0 112 -57.5 188.5t-175.5 76.5t-188 -79t-70 -209z" />
    <glyph glyph-name="Gdotaccent" unicode="&#x120;" horiz-adv-x="1819" 
d="M945 1555q-72 0 -118 45.5t-46 114.5q0 74 45.5 120.5t116.5 46.5q72 0 118 -45.5t46 -114.5q0 -74 -45.5 -120.5t-116.5 -46.5zM922 1163q-208 0 -330.5 -116t-122.5 -320q0 -214 137 -334t352 -120q148 0 257 70t150 199h-437v273h759q19 -253 -68 -447t-269.5 -302.5
t-434.5 -108.5q-168 0 -313 58t-247 160t-160 245t-58 307q0 176 61 318t168.5 233t251.5 139.5t312 48.5q91 0 173.5 -12.5t168 -45t153 -83t123 -132.5t84.5 -188l-282 -100q-96 258 -428 258z" />
    <glyph glyph-name="gdotaccent" unicode="&#x121;" horiz-adv-x="1435" 
d="M747 1252q-72 0 -118.5 45.5t-46.5 114.5q0 74 46 120.5t117 46.5q72 0 118 -45.5t46 -114.5q0 -74 -45.5 -120.5t-116.5 -46.5zM685 -471q-158 0 -285.5 56t-198.5 176l234 160q32 -49 106 -82t146 -33q111 0 170.5 75t66.5 238q-123 -123 -310 -123q-93 0 -181 35.5
t-159 101.5t-114 170t-43 230q0 112 26 205t71 157.5t106 109t129 65t142 20.5q186 0 331 -119l21 96h288v-992q0 -279 -137.5 -412.5t-408.5 -133.5zM431 512q0 -111 70.5 -173t168.5 -62q101 0 176.5 68t75.5 190q0 112 -57.5 188.5t-175.5 76.5t-188 -79t-70 -209z" />
    <glyph glyph-name="uni0122" unicode="&#x122;" horiz-adv-x="1826" 
d="M924 1158q-208 0 -330.5 -115.5t-122.5 -319.5q0 -214 137 -334t352 -120q148 0 257 70t150 199h-437v273h760q19 -253 -68 -447t-270 -302.5t-435 -108.5q-168 0 -313 58t-247 160t-160 245t-58 307q0 176 61 317.5t168.5 233t251.5 139.5t312 48q91 0 173.5 -12.5
t168 -44.5t153 -83t123 -132.5t84.5 -187.5l-281 -101q-96 258 -429 258zM1111 -407q0 -182 -206 -404q0 -1 -25.5 17t-50.5 36l-25 18q8 7 20.5 20.5t40 53.5t40.5 79q-88 0 -141.5 54.5t-53.5 142.5q0 92 54.5 147t142.5 55q93 0 148.5 -64t55.5 -155z" />
    <glyph glyph-name="uni0123" unicode="&#x123;" horiz-adv-x="1435" 
d="M538 1436q0 180 207 403q0 1 25 -16.5t50 -35.5l25 -18q-8 -8 -20.5 -21.5t-39.5 -53.5t-40 -79q88 0 141 -54t53 -142q0 -92 -54.5 -147.5t-142.5 -55.5q-93 0 -148.5 64t-55.5 156zM685 -471q-158 0 -285.5 56t-198.5 176l234 160q32 -49 106 -82t146 -33
q111 0 170.5 75t66.5 238q-123 -123 -310 -123q-93 0 -181 35.5t-159 101.5t-114 170t-43 230q0 112 26 205t71 157.5t106 109t129 65t142 20.5q186 0 331 -119l21 96h288v-992q0 -279 -137.5 -412.5t-408.5 -133.5zM431 512q0 -111 70.5 -173t168.5 -62q101 0 176.5 68
t75.5 190q0 112 -57.5 188.5t-175.5 76.5t-188 -79t-70 -209z" />
    <glyph glyph-name="Hcircumflex" unicode="&#x124;" horiz-adv-x="1841" 
d="M1133 1553l-216 196l-213 -196h-203l256 358h322l256 -358h-202zM1596 0h-307v576h-736v-576h-308v1419h308v-532h736v532h307v-1419z" />
    <glyph glyph-name="hcircumflex" unicode="&#x125;" horiz-adv-x="1469" 
d="M589 1536l-216 196l-213 -196h-203l256 358h322l256 -358h-202zM512 913q74 86 180 131.5t217 45.5q175 0 279.5 -112.5t104.5 -299.5v-678h-312v623q0 82 -51.5 127.5t-127.5 45.5q-97 0 -182 -69.5t-108 -191.5v-535h-307v1419h309z" />
    <glyph glyph-name="Hbar" unicode="&#x126;" horiz-adv-x="1873" 
d="M1613 1124h74v-202h-74v-922h-307v510h-736v-510h-308v922h-81v202h81v295h308v-295h736v295h307v-295zM1306 922h-736v-165h736v165z" />
    <glyph glyph-name="hbar" unicode="&#x127;" horiz-adv-x="1469" 
d="M205 1419h309v-79h169v-203h-171v-224q74 86 180 131.5t217 45.5q175 0 279.5 -112.5t104.5 -299.5v-678h-312v623q0 82 -51.5 127.5t-127.5 45.5q-97 0 -182 -69.5t-108 -191.5v-535h-307v1137h-152v203h152v79z" />
    <glyph glyph-name="Itilde" unicode="&#x128;" horiz-adv-x="797" 
d="M194 1837q68 0 136 -19.5t120.5 -39.5t82.5 -20q24 0 36.5 3.5t22 19t10.5 47.5h117q0 -60 -11 -108.5t-36.5 -90t-71.5 -64.5t-111 -23q-67 0 -135 19t-120.5 38.5t-82.5 19.5q-24 0 -36.5 -3.5t-22 -19t-11.5 -47.5h-115q0 288 228 288zM245 0v1419h308v-1419h-308z
" />
    <glyph glyph-name="itilde" unicode="&#x129;" horiz-adv-x="716" 
d="M188 1549q68 0 136 -19.5t120.5 -39.5t82.5 -20q18 0 28 2t20 8.5t14.5 21t5.5 38.5h118q0 -59 -11.5 -108t-36.5 -90.5t-71.5 -64.5t-111.5 -23q-67 0 -135 19t-120 38.5t-82 19.5q-24 0 -36.5 -3.5t-22 -19t-11.5 -47.5h-116q0 288 229 288zM205 0v1067h309l-2 -1067
h-307z" />
    <glyph glyph-name="Imacron" unicode="&#x12a;" horiz-adv-x="797" 
d="M787 1542h-810v203h810v-203zM245 0v1419h308v-1419h-308z" />
    <glyph glyph-name="imacron" unicode="&#x12b;" horiz-adv-x="716" 
d="M768 1316h-811v203h811v-203zM205 0v1067h309l-2 -1067h-307z" />
    <glyph glyph-name="Ibreve" unicode="&#x12c;" horiz-adv-x="797" 
d="M393 1728q90 0 115 154l153 -17q0 -122 -75 -218t-191 -96t-191.5 96t-75.5 218l154 17q25 -154 111 -154zM245 0v1419h308v-1419h-308z" />
    <glyph glyph-name="ibreve" unicode="&#x12d;" horiz-adv-x="716" 
d="M365 1423q90 0 115 154l154 -18q0 -122 -75.5 -217.5t-191.5 -95.5t-191.5 95.5t-75.5 217.5l154 18q25 -154 111 -154zM205 0v1067h309l-2 -1067h-307z" />
    <glyph glyph-name="Iogonek" unicode="&#x12e;" horiz-adv-x="806" 
d="M525 0q-62 0 -104.5 -52t-42.5 -114q0 -51 35 -85.5t105 -34.5q80 0 192 47l49 -209q-154 -58 -283 -58q-85 0 -154.5 24.5t-113.5 64.5t-67.5 90t-23.5 103q0 57 32 119t98 105v1419h308v-1419h-30z" />
    <glyph glyph-name="iogonek" unicode="&#x12f;" horiz-adv-x="721" 
d="M354 1203q-86 0 -142 55t-56 139q0 90 55 145.5t141 55.5t142 -55t56 -139q0 -90 -55 -145.5t-141 -55.5zM501 0q-65 0 -109 -51.5t-44 -114.5q0 -51 35.5 -85.5t105.5 -34.5q80 0 192 47l49 -209q-154 -58 -284 -58q-85 0 -154.5 24.5t-113.5 64.5t-67.5 90t-23.5 103
q0 57 32.5 119t98.5 105h-13v1067h309l-2 -1067h-11z" />
    <glyph glyph-name="Idotaccent" unicode="&#x130;" horiz-adv-x="797" 
d="M412 1540q-72 0 -118.5 45.5t-46.5 114.5q0 74 46 120.5t117 46.5q72 0 118 -45.5t46 -114.5q0 -74 -45.5 -120.5t-116.5 -46.5zM245 0v1419h308v-1419h-308z" />
    <glyph glyph-name="dotlessi" unicode="&#x131;" horiz-adv-x="716" 
d="M205 0v1067h307v-1067h-307z" />
    <glyph glyph-name="IJ" unicode="&#x132;" horiz-adv-x="2368" 
d="M245 0v1419h308v-1419h-308zM838 508q19 -128 67 -229t128 -175.5t199.5 -114.5t273.5 -40q315 0 481 155.5t166 420.5v894h-308v-820q0 -89 -15.5 -149t-53 -104.5t-104 -65t-166.5 -20.5q-78 0 -140.5 20.5t-103.5 53.5t-69.5 79t-42.5 92.5t-19 98.5z" />
    <glyph glyph-name="ij" unicode="&#x133;" horiz-adv-x="1489" 
d="M348 1203q-86 0 -142.5 55.5t-56.5 138.5q0 90 55.5 145.5t141.5 55.5t142 -55t56 -139q0 -90 -55 -145.5t-141 -55.5zM1126 1203q-86 0 -142 55t-56 139q0 90 55 145.5t141 55.5t142.5 -55.5t56.5 -138.5q0 -90 -55.5 -145.5t-141.5 -55.5zM203 0v1067h309l-2 -1067
h-307zM1284 75q0 -269 -126.5 -397t-393.5 -128v301q115 0 164 72.5t49 242.5v901h309z" />
    <glyph glyph-name="Jcircumflex" unicode="&#x134;" horiz-adv-x="1612" 
d="M1451 1551l-216 196l-213 -196h-203l256 358h322l256 -358h-202zM73 508q39 -264 202.5 -411.5t464.5 -147.5q315 0 481 155.5t166 420.5v894h-308v-820q0 -89 -15.5 -149t-53 -104.5t-104 -65t-166.5 -20.5q-78 0 -140.5 20.5t-103.5 53.5t-69.5 79t-42.5 92.5t-19 98.5
z" />
    <glyph glyph-name="jcircumflex" unicode="&#x135;" horiz-adv-x="757" 
d="M591 1227l-216 196l-213 -196h-203l256 358h323l256 -358h-203zM533 75q0 -269 -126.5 -397t-393.5 -128v301q115 0 164 72.5t49 242.5v901h309z" />
    <glyph glyph-name="uni0136" unicode="&#x136;" horiz-adv-x="1838" 
d="M1067 853q174 -244 299.5 -379t213.5 -181.5t169 -30.5l5 -262q-57 -14 -106 -17t-91 0t-84 21t-76 37.5t-76 59t-75.5 74t-83.5 95.5t-90.5 111.5t-106 132.5t-120.5 149l-292 -249v-414h-308v1419h308v-687l802 687h373zM1111 -407q0 -182 -206 -404q0 -1 -25.5 17
t-50.5 36l-25 18q8 7 20.5 20.5t40 53.5t40.5 79q-88 0 -141.5 54.5t-53.5 142.5q0 92 54.5 147t142.5 55q93 0 148.5 -64t55.5 -155z" />
    <glyph glyph-name="uni0137" unicode="&#x137;" horiz-adv-x="1476" 
d="M514 627l548 440h382l-529 -425q80 -161 195.5 -269t192.5 -108q59 0 82 6v-271q-90 -17 -154 -17q-148 0 -265 117t-260 378l-192 -156v-322h-309v1419h309v-792zM866 -386q0 91 -56 155.5t-149 64.5q-88 0 -142 -55.5t-54 -147.5q0 -88 53 -142t141 -54
q-13 -39 -38 -77.5t-43 -57.5l-19 -19q6 -5 16.5 -12t32.5 -23t36.5 -26t14.5 -9q207 223 207 403z" />
    <glyph glyph-name="kgreenlandic" unicode="&#x138;" horiz-adv-x="1553" 
d="M514 262v-262h-309v1067h309v-500l623 500h382l-529 -423l518 -644h-354l-377 471z" />
    <glyph glyph-name="Lacute" unicode="&#x139;" horiz-adv-x="1587" 
d="M663 1903l-226 -358h-181l43 358h364zM1508 0h-1263v1419h308v-1118h955v-301z" />
    <glyph glyph-name="lacute" unicode="&#x13a;" horiz-adv-x="821" 
d="M621 1916l-226 -359h-182l43 359h365zM508 1419v-962q0 -95 24 -130t91 -35q74 0 126 9v-301q-68 -13 -186 -13q-185 0 -275 112.5t-90 344.5v975h310z" />
    <glyph glyph-name="uni013B" unicode="&#x13b;" horiz-adv-x="1589" 
d="M1508 0h-1263v1419h308v-1118h955v-301zM1109 -407q0 91 -55.5 155t-148.5 64q-88 0 -142.5 -55t-54.5 -147q0 -88 53.5 -142.5t140.5 -54.5q-13 -39 -38 -77t-44 -57l-18 -19q6 -5 16.5 -12.5t32.5 -23t36.5 -26t14.5 -9.5q207 223 207 404z" />
    <glyph glyph-name="uni013C" unicode="&#x13c;" horiz-adv-x="823" 
d="M508 1419v-962q0 -95 24 -130t91 -35q74 0 126 9v-301q-68 -13 -186 -13q-185 0 -275 112.5t-90 344.5v975h310zM653 -386q0 91 -56 155.5t-149 64.5q-88 0 -142 -55.5t-54 -147.5q0 -88 53 -142t141 -54q-13 -39 -38 -77.5t-44 -57.5l-18 -19q6 -5 16.5 -12t32.5 -23
t36.5 -26t14.5 -9q207 223 207 403z" />
    <glyph glyph-name="Lcaron" unicode="&#x13d;" horiz-adv-x="1610" 
d="M1410 1434q0 -222 -254 -497q0 -1 -31.5 20.5t-62.5 42.5l-32 22q10 9 25.5 26t49.5 66.5t51 97.5q-109 1 -175 68.5t-66 174.5q0 113 67 181.5t176 68.5q115 0 183.5 -79t68.5 -192zM1508 0h-1263v1419h308v-1118h955v-301z" />
    <glyph glyph-name="lcaron" unicode="&#x13e;" horiz-adv-x="957" 
d="M1101 1463q0 -185 -218 -422q0 -1 -26.5 17.5t-52.5 37.5l-27 18q8 8 21.5 22t42 56.5t42.5 83.5q-91 0 -148 57.5t-57 147.5q0 97 57 155t150 58q97 0 156.5 -67.5t59.5 -163.5zM508 1419v-962q0 -95 24 -130t91 -35q74 0 126 9v-301q-68 -13 -186 -13
q-185 0 -275 112.5t-90 344.5v975h310z" />
    <glyph glyph-name="Ldot" unicode="&#x13f;" horiz-adv-x="1591" 
d="M1510 0h-1263v1419h308v-1118h955v-301zM1050 644q71 0 116.5 46.5t45.5 120.5q0 69 -46.5 114.5t-118.5 45.5q-71 0 -116.5 -46.5t-45.5 -120.5q0 -69 46.5 -114.5t118.5 -45.5z" />
    <glyph glyph-name="ldot" unicode="&#x140;" horiz-adv-x="1201" 
d="M508 1419v-962q0 -95 24 -130t91 -35q74 0 126 9v-301q-68 -13 -186 -13q-185 0 -275 112.5t-90 344.5v975h310zM979 474q71 0 116.5 46t45.5 120q0 69 -46 114.5t-118 45.5q-71 0 -116.5 -46t-45.5 -120q0 -69 46 -114.5t118 -45.5z" />
    <glyph glyph-name="Lslash" unicode="&#x141;" horiz-adv-x="1621" 
d="M1540 0h-1263v499l-74 -30l-92 182l166 68v700h308v-570l249 105l92 -182l-341 -143v-328h955v-301z" />
    <glyph glyph-name="lslash" unicode="&#x142;" horiz-adv-x="908" 
d="M100 471v220l150 62v666h309v-536l147 62v-220l-147 -62v-206q0 -95 24 -130t91 -35q74 0 126 9v-301q-68 -13 -186 -13q-185 0 -274.5 112.5t-89.5 344.5v89z" />
    <glyph glyph-name="Nacute" unicode="&#x143;" horiz-adv-x="1905" 
d="M1335 1897l-226 -359h-181l43 359h364zM1660 0h-307l-800 943v-943h-308v1419h310l798 -950v950h307v-1419z" />
    <glyph glyph-name="nacute" unicode="&#x144;" horiz-adv-x="1469" 
d="M1060 1598l-226 -359h-181l42 359h365zM514 913q74 88 178.5 132.5t216.5 44.5q175 0 279.5 -112.5t104.5 -299.5v-678h-312v634q0 81 -48.5 124.5t-123.5 43.5q-97 0 -185 -71t-112 -196v-535h-307v1067h288z" />
    <glyph glyph-name="uni0145" unicode="&#x145;" horiz-adv-x="1905" 
d="M1660 0h-307l-800 943v-943h-308v1419h310l798 -950v950h307v-1419zM1188 -407q0 91 -56 155t-149 64q-88 0 -142 -55t-54 -147q0 -88 53.5 -142.5t140.5 -54.5q-13 -39 -38 -77t-43 -57l-19 -19q6 -5 16.5 -12.5t32.5 -23t36.5 -26t14.5 -9.5q207 223 207 404z" />
    <glyph glyph-name="uni0146" unicode="&#x146;" horiz-adv-x="1467" 
d="M512 913q74 88 178.5 132.5t216.5 44.5q175 0 279.5 -112.5t104.5 -299.5v-678h-312v634q0 81 -49 124.5t-124 43.5q-97 0 -184.5 -71t-111.5 -196v-535h-307v1067h288zM956 -386q0 91 -56 155.5t-149 64.5q-88 0 -142 -55.5t-54 -147.5q0 -88 53 -142t141 -54
q-13 -39 -38 -77.5t-43 -57.5l-19 -19q6 -5 16.5 -12t32.5 -23t36.5 -26t14.5 -9q207 223 207 403z" />
    <glyph glyph-name="Ncaron" unicode="&#x147;" horiz-adv-x="1905" 
d="M738 1897l216 -197l213 197h203l-256 -359h-323l-256 359h203zM1660 0h-307l-800 943v-943h-308v1419h310l798 -950v950h307v-1419z" />
    <glyph glyph-name="ncaron" unicode="&#x148;" horiz-adv-x="1469" 
d="M559 1604l215 -196l214 196h202l-256 -358h-322l-256 358h203zM514 913q74 88 178.5 132.5t216.5 44.5q175 0 279.5 -112.5t104.5 -299.5v-678h-312v634q0 81 -48.5 124.5t-123.5 43.5q-97 0 -185 -71t-112 -196v-535h-307v1067h288z" />
    <glyph glyph-name="napostrophe" unicode="&#x149;" horiz-adv-x="1550" 
d="M-77 1658h312v-239l-66 -325h-175l-71 325v239zM595 913q74 88 178.5 132.5t216.5 44.5q175 0 279.5 -112.5t104.5 -299.5v-678h-312v634q0 81 -48.5 124.5t-123.5 43.5q-97 0 -185 -71t-112 -196v-535h-307v1067h288z" />
    <glyph glyph-name="Eng" unicode="&#x14a;" horiz-adv-x="1907" 
d="M1660 -4q0 -265 -166 -420.5t-481 -155.5q-128 0 -227 38.5t-191 106.5l152 262q96 -96 266 -96q100 0 166.5 20.5t104.5 65t53.5 104.5t15.5 149v165l-800 708v-943h-308v1419h310l798 -758v760l307 -2v-1423z" />
    <glyph glyph-name="eng" unicode="&#x14b;" horiz-adv-x="1469" 
d="M1289 75q-2 -269 -129 -397t-394 -128v301q115 0 164 72.5t49 242.5v468q0 81 -49 124.5t-124 43.5q-97 0 -184.5 -71t-111.5 -196v-535h-307v1067h288l21 -154q74 88 178.5 132.5t216.5 44.5q175 0 279.5 -112.5t104.5 -299.5z" />
    <glyph glyph-name="Omacron" unicode="&#x14c;" 
d="M1312 1570h-811v203h811v-203zM902 -49q340 0 546.5 209t206.5 559q0 223 -94.5 394t-267 265t-397.5 94q-168 0 -308 -54.5t-237.5 -153.5t-151.5 -242.5t-54 -317.5q0 -223 94 -394t266 -265t397 -94zM1333 689q0 -208 -116.5 -326t-316.5 -118q-202 0 -317.5 132.5
t-115.5 356.5q0 208 114.5 326t314.5 118q202 0 319.5 -132.5t117.5 -356.5z" />
    <glyph glyph-name="omacron" unicode="&#x14d;" horiz-adv-x="1356" 
d="M1084 1303h-811v203h811v-203zM681 -43q255 0 410 156.5t155 419.5q0 254 -158 410t-414 156q-255 0 -409 -156.5t-154 -419.5q0 -254 157 -410t413 -156zM932 512q0 -119 -69.5 -187.5t-184.5 -68.5q-116 0 -184.5 78.5t-68.5 209.5q0 119 67.5 187.5t181.5 68.5
q118 0 188 -79t70 -209z" />
    <glyph glyph-name="Obreve" unicode="&#x14e;" 
d="M887 1730q91 0 116 154l153 -17q0 -122 -75 -218t-191 -96t-191.5 96t-75.5 218l154 17q25 -154 110 -154zM902 -49q-225 0 -397 94t-266 265t-94 394q0 174 54 317.5t151.5 242.5t237.5 153.5t308 54.5q225 0 397.5 -94t267 -265t94.5 -394q0 -350 -206.5 -559
t-546.5 -209zM1333 689q0 224 -117.5 356.5t-319.5 132.5q-200 0 -314.5 -118t-114.5 -326q0 -224 115.5 -356.5t317.5 -132.5q200 0 316.5 118t116.5 326z" />
    <glyph glyph-name="obreve" unicode="&#x14f;" horiz-adv-x="1356" 
d="M676 1429q90 0 115 154l154 -17q0 -122 -75.5 -218t-191.5 -96t-191 96t-75 218l153 17q25 -154 111 -154zM681 -43q-256 0 -413 156t-157 410q0 263 154 419.5t409 156.5q256 0 414 -156t158 -410q0 -263 -155 -419.5t-410 -156.5zM932 512q0 130 -70 209t-188 79
q-114 0 -181.5 -68.5t-67.5 -187.5q0 -131 68.5 -209.5t184.5 -78.5q115 0 184.5 68.5t69.5 187.5z" />
    <glyph glyph-name="Ohungarumlaut" unicode="&#x150;" 
d="M900 1903l-226 -358h-181l42 358h365zM1374 1903l-226 -358h-182l43 358h365zM902 -49q340 0 546.5 209t206.5 559q0 223 -94.5 394t-267 265t-397.5 94q-168 0 -308 -54.5t-237.5 -153.5t-151.5 -242.5t-54 -317.5q0 -223 94 -394t266 -265t397 -94zM1333 689
q0 -208 -116.5 -326t-316.5 -118q-202 0 -317.5 132.5t-115.5 356.5q0 208 114.5 326t314.5 118q202 0 319.5 -132.5t117.5 -356.5z" />
    <glyph glyph-name="ohungarumlaut" unicode="&#x151;" horiz-adv-x="1356" 
d="M687 1600l-226 -358h-182l43 358h365zM1161 1600l-227 -358h-181l43 358h365zM681 -43q255 0 410 156.5t155 419.5q0 254 -158 410t-414 156q-255 0 -409 -156.5t-154 -419.5q0 -254 157 -410t413 -156zM932 512q0 -119 -69.5 -187.5t-184.5 -68.5q-116 0 -184.5 78.5
t-68.5 209.5q0 119 67.5 187.5t181.5 68.5q118 0 188 -79t70 -209z" />
    <glyph glyph-name="OE" unicode="&#x152;" horiz-adv-x="2830" 
d="M902 -49q-225 0 -397 94t-266 265t-94 394q0 174 54 317.5t151.5 242.5t237.5 153.5t308 54.5q164 0 307 -53h1464v-303h-1022v-229h823v-311h-823v-273h1064v-303h-1512q-138 -49 -295 -49zM1333 689q0 224 -117.5 356.5t-319.5 132.5q-200 0 -314.5 -118t-114.5 -326
q0 -224 115.5 -356.5t317.5 -132.5q200 0 316.5 116.5t116.5 323.5v4z" />
    <glyph glyph-name="oe" unicode="&#x153;" horiz-adv-x="2158" 
d="M2007 224q-34 -69 -91.5 -121.5t-126 -83.5t-140.5 -46.5t-143 -15.5q-258 0 -412 154q-157 -154 -407 -154q-256 0 -413 156t-157 410q0 263 154.5 419.5t409.5 156.5q252 0 411 -156q153 156 408 156q153 0 280.5 -65t202 -183.5t74.5 -265.5q0 -36 -7 -71.5t-14 -53.5
l-7 -18h-783v-9q29 -89 98.5 -143.5t159.5 -54.5q221 0 286 126zM1500 821q-82 0 -148.5 -43.5t-99.5 -116.5h512q-47 160 -264 160zM681 800q-114 0 -182 -68.5t-68 -187.5q0 -130 69 -209t185 -79q113 0 182.5 68t69.5 199q0 130 -71.5 203.5t-184.5 73.5z" />
    <glyph glyph-name="Racute" unicode="&#x154;" horiz-adv-x="1856" 
d="M1186 1918l-226 -359h-181l42 359h365zM553 570v-570h-308v1419q784 0 918 2h8q239 0 383 -118.5t144 -304.5q0 -151 -81 -254t-222 -130l77 -249q13 -48 45.5 -70t73.5 -22q56 0 99 28v-301q-131 -43 -224 -43q-241 0 -310 250l-98 363h-505zM1122 838q93 0 142.5 40
t49.5 105q0 62 -46.5 97.5t-136.5 35.5l-578 -5v-273h569z" />
    <glyph glyph-name="racute" unicode="&#x155;" horiz-adv-x="960" 
d="M787 1594l-226 -359h-181l42 359h365zM909 781q-88 0 -179 -31t-154.5 -87.5t-63.5 -120.5v-542h-307v1067h266l22 -184q68 82 194.5 146.5t221.5 64.5v-313z" />
    <glyph glyph-name="uni0156" unicode="&#x156;" horiz-adv-x="1860" 
d="M553 570v-570h-308v1419q784 0 918 2h8q239 0 383 -118.5t144 -304.5q0 -151 -81 -254t-222 -130l77 -249q13 -48 45.5 -70t73.5 -22q56 0 99 28v-301q-131 -43 -224 -43q-241 0 -310 250l-98 363h-505zM1122 838q93 0 142.5 40t49.5 105q0 62 -46.5 97.5t-136.5 35.5
l-578 -5v-273h569zM1152 -407q0 91 -56 155t-149 64q-88 0 -142 -55t-54 -147q0 -88 53.5 -142.5t140.5 -54.5q-13 -39 -38 -77t-43 -57l-19 -19q6 -5 16.5 -12.5t32.5 -23t36.5 -26t14.5 -9.5q207 223 207 404z" />
    <glyph glyph-name="uni0157" unicode="&#x157;" horiz-adv-x="962" 
d="M907 781q-88 0 -179 -31t-154.5 -87.5t-63.5 -120.5v-542h-307v1067h266l22 -184q68 82 194.5 146.5t221.5 64.5v-313zM644 -386q0 91 -56 155.5t-149 64.5q-88 0 -142 -55.5t-54 -147.5q0 -88 53 -142t141 -54q-13 -39 -38 -77.5t-43 -57.5l-19 -19q6 -5 16.5 -12
t32.5 -23t36.5 -26t14.5 -9q207 223 207 403z" />
    <glyph glyph-name="Rcaron" unicode="&#x158;" horiz-adv-x="1856" 
d="M691 1918l216 -196l213 196h203l-256 -359h-322l-256 359h202zM553 570v-570h-308v1419q784 0 918 2h8q239 0 383 -118.5t144 -304.5q0 -151 -81 -254t-222 -130l77 -249q13 -48 45.5 -70t73.5 -22q56 0 99 28v-301q-131 -43 -224 -43q-241 0 -310 250l-98 363h-505z
M1122 838q93 0 142.5 40t49.5 105q0 62 -46.5 97.5t-136.5 35.5l-578 -5v-273h569z" />
    <glyph glyph-name="rcaron" unicode="&#x159;" horiz-adv-x="998" 
d="M367 1606l215 -196l214 196h202l-256 -358h-322l-256 358h203zM928 781q-88 0 -179 -31t-154.5 -87.5t-63.5 -120.5v-542h-307v1067h267l21 -184q68 82 194.5 146.5t221.5 64.5v-313z" />
    <glyph glyph-name="Sacute" unicode="&#x15a;" horiz-adv-x="1723" 
d="M1180 1918l-226 -359h-182l43 359h365zM512 1033q0 46 50.5 83.5t131.5 58t172 20.5q98 0 184.5 -24t157 -82.5t95.5 -143.5l252 98q-11 104 -73.5 187.5t-159.5 134.5t-214.5 78t-245.5 27q-107 0 -209.5 -18.5t-193.5 -57t-159.5 -93t-108.5 -131.5t-40 -167
q0 -79 25 -142t56 -104.5t98.5 -73.5t110 -48.5t136.5 -29.5t132.5 -16.5t140.5 -9.5q107 -7 158.5 -12.5t118.5 -20.5t95 -43.5t28 -73.5q0 -160 -403 -160q-41 0 -70.5 2t-73 9t-78.5 23t-73.5 41.5t-73 67t-62.5 96.5l-275 -147q16 -67 46.5 -123t65.5 -96t85 -72
t93.5 -52t102 -34.5t99 -21.5t96.5 -10.5t83 -4t69 -0.5q101 0 195.5 14t189.5 50.5t165 92t114 146t44 204.5q0 98 -37 170.5t-99 114.5t-143 69.5t-170.5 40t-178.5 20.5t-170 16.5t-143 23.5t-99 45.5t-37 78.5z" />
    <glyph glyph-name="sacute" unicode="&#x15b;" horiz-adv-x="1294" 
d="M941 1596l-226 -359h-182l43 359h365zM1161 813q-36 92 -116.5 158t-183 97t-219.5 31q-68 0 -133.5 -9.5t-134 -34.5t-119.5 -63t-83.5 -100.5t-32.5 -140.5q0 -98 41 -165t106 -98.5t144 -48t158 -22t144 -12t106 -26t41 -57.5q0 -104 -173 -104q-106 0 -214 43
t-155 123l-239 -111q130 -314 610 -314q85 0 167.5 23.5t153.5 68.5t115 120.5t44 169.5q0 95 -41 158t-106.5 91.5t-145 43.5t-159 20t-145 13.5t-106.5 33t-41 69.5q0 39 54 62t133 23q99 0 187.5 -37t122.5 -108z" />
    <glyph glyph-name="Scircumflex" unicode="&#x15c;" horiz-adv-x="1723" 
d="M1103 1545l-216 196l-213 -196h-203l256 358h323l256 -358h-203zM512 1033q0 46 50.5 83.5t131.5 58t172 20.5q98 0 184.5 -24t157 -82.5t95.5 -143.5l252 98q-11 104 -73.5 187.5t-159.5 134.5t-214.5 78t-245.5 27q-107 0 -209.5 -18.5t-193.5 -57t-159.5 -93
t-108.5 -131.5t-40 -167q0 -79 25 -142t56 -104.5t98.5 -73.5t110 -48.5t136.5 -29.5t132.5 -16.5t140.5 -9.5q107 -7 158.5 -12.5t118.5 -20.5t95 -43.5t28 -73.5q0 -160 -403 -160q-41 0 -70.5 2t-73 9t-78.5 23t-73.5 41.5t-73 67t-62.5 96.5l-275 -147q16 -67 46.5 -123
t65.5 -96t85 -72t93.5 -52t102 -34.5t99 -21.5t96.5 -10.5t83 -4t69 -0.5q101 0 195.5 14t189.5 50.5t165 92t114 146t44 204.5q0 98 -37 170.5t-99 114.5t-143 69.5t-170.5 40t-178.5 20.5t-170 16.5t-143 23.5t-99 45.5t-37 78.5z" />
    <glyph glyph-name="scircumflex" unicode="&#x15d;" horiz-adv-x="1288" 
d="M877 1216l-216 196l-213 -196h-203l256 358h322l256 -358h-202zM939 710q-34 71 -122.5 108t-187.5 37q-79 0 -133 -23t-54 -62q0 -45 41 -69.5t106.5 -33t145 -13.5t159 -20t145 -43.5t106.5 -91.5t41 -158q0 -94 -44 -169.5t-115 -120.5t-153.5 -68.5t-167.5 -23.5
q-480 0 -610 314l239 111q47 -80 155 -123t214 -43q173 0 173 104q0 38 -41 57.5t-106 26t-144 12t-158 22t-144 48t-106 98.5t-41 165q0 78 32.5 140.5t83.5 100.5t119.5 63t134 34.5t133.5 9.5q117 0 219.5 -31t182.5 -97t116 -158z" />
    <glyph glyph-name="Scedilla" unicode="&#x15e;" horiz-adv-x="1792" 
d="M1568 1440q0 -85 1 -225t1 -223h-284l-21 113q-40 25 -154 44.5t-232 19.5q-91 0 -160 -12t-116.5 -43.5t-47.5 -80.5q0 -48 37 -78.5t99 -45.5t143 -23.5t170.5 -16.5t178.5 -20.5t170 -40t143 -69.5t99 -114.5t37 -170.5q0 -112 -42.5 -201t-110 -144.5t-160 -92.5
t-185 -52.5t-191.5 -16.5l-17 -52q104 -11 156.5 -63t52.5 -126q0 -96 -81.5 -173t-210.5 -77q-79 0 -162 32l40 147q50 -21 94 -21q41 0 64 19t23 45q0 29 -27 50.5t-77 21.5q-13 0 -43 -4l54 207q-183 19 -316 96v-49h-310v506q102 2 276 2l36 -139q155 -100 395 -100
q403 0 403 160q0 45 -29 73.5t-93 43t-121 21t-157 12.5q-70 4 -107.5 7t-106 10.5t-108 16.5t-98 25.5t-92.5 37.5t-74.5 52.5t-61.5 70t-36 90.5t-15 114q0 87 33 159t90 120t126.5 83t151.5 54t155.5 27.5t145.5 8.5q244 0 378 -70l29 55h265z" />
    <glyph glyph-name="scedilla" unicode="&#x15f;" horiz-adv-x="1290" 
d="M939 710q-34 71 -122.5 108t-187.5 37q-79 0 -133 -23t-54 -62q0 -45 41 -69.5t106.5 -33t145 -13.5t159 -20t145 -43.5t106.5 -91.5t41 -158q0 -94 -44 -169.5t-115 -120.5t-153.5 -68.5t-167.5 -23.5h-8l-22 -64q104 -11 156.5 -63t52.5 -126q0 -96 -81.5 -173
t-210.5 -77q-79 0 -162 32l40 147q50 -21 94 -21q41 0 64.5 19t23.5 45q0 29 -27.5 50.5t-77.5 21.5q-12 0 -42 -4l55 220q-353 39 -465 307l239 111q47 -80 155 -123t214 -43q173 0 173 104q0 38 -41 57.5t-106 26t-144 12t-158 22t-144 48t-106 98.5t-41 165
q0 78 32.5 140.5t83.5 100.5t119.5 63t134 34.5t133.5 9.5q117 0 219.5 -31t182.5 -97t116 -158z" />
    <glyph glyph-name="Scaron" unicode="&#x160;" horiz-adv-x="1723" 
d="M651 1916l215 -197l213 197h203l-256 -359h-322l-256 359h203zM512 1033q0 46 50.5 83.5t131.5 58t172 20.5q98 0 184.5 -24t157 -82.5t95.5 -143.5l252 98q-11 104 -73.5 187.5t-159.5 134.5t-214.5 78t-245.5 27q-107 0 -209.5 -18.5t-193.5 -57t-159.5 -93
t-108.5 -131.5t-40 -167q0 -79 25 -142t56 -104.5t98.5 -73.5t110 -48.5t136.5 -29.5t132.5 -16.5t140.5 -9.5q107 -7 158.5 -12.5t118.5 -20.5t95 -43.5t28 -73.5q0 -160 -403 -160q-41 0 -70.5 2t-73 9t-78.5 23t-73.5 41.5t-73 67t-62.5 96.5l-275 -147q16 -67 46.5 -123
t65.5 -96t85 -72t93.5 -52t102 -34.5t99 -21.5t96.5 -10.5t83 -4t69 -0.5q101 0 195.5 14t189.5 50.5t165 92t114 146t44 204.5q0 98 -37 170.5t-99 114.5t-143 69.5t-170.5 40t-178.5 20.5t-170 16.5t-143 23.5t-99 45.5t-37 78.5z" />
    <glyph glyph-name="scaron" unicode="&#x161;" horiz-adv-x="1294" 
d="M446 1602l215 -196l214 196h202l-256 -358h-322l-256 358h203zM1161 813q-36 92 -116.5 158t-183 97t-219.5 31q-68 0 -133.5 -9.5t-134 -34.5t-119.5 -63t-83.5 -100.5t-32.5 -140.5q0 -98 41 -165t106 -98.5t144 -48t158 -22t144 -12t106 -26t41 -57.5
q0 -104 -173 -104q-106 0 -214 43t-155 123l-239 -111q130 -314 610 -314q85 0 167.5 23.5t153.5 68.5t115 120.5t44 169.5q0 95 -41 158t-106.5 91.5t-145 43.5t-159 20t-145 13.5t-106.5 33t-41 69.5q0 39 54 62t133 23q99 0 187.5 -37t122.5 -108z" />
    <glyph glyph-name="uni0162" unicode="&#x162;" horiz-adv-x="1646" 
d="M1574 1116h-597v-1116h-307v1116h-597v303h1501v-303zM1026 -405q0 91 -56 155t-149 64q-88 0 -142 -55t-54 -147q0 -88 53.5 -142.5t140.5 -54.5q-13 -39 -38 -77t-43 -57l-19 -19q6 -5 16.5 -12.5t32.5 -23t36.5 -26t14.5 -9.5q207 223 207 404z" />
    <glyph glyph-name="uni0163" unicode="&#x163;" horiz-adv-x="936" 
d="M258 1419h309v-352h169v-301h-171v-309q0 -94 25 -129.5t93 -35.5q74 0 126 9v-301q-68 -13 -186 -13q-185 0 -275 112.5t-90 344.5v322h-149v301h149v352zM678 -407q0 91 -55.5 155t-148.5 64q-88 0 -142.5 -55t-54.5 -147q0 -88 53.5 -142.5t140.5 -54.5
q-13 -39 -38 -77t-43 -57l-19 -19q6 -5 16.5 -12.5t32.5 -23t36.5 -26t14.5 -9.5q207 223 207 404z" />
    <glyph glyph-name="Tcaron" unicode="&#x164;" horiz-adv-x="1651" 
d="M604 1899l215 -197l214 197h202l-256 -359h-322l-256 359h203zM1577 1116h-598v-1116h-307v1116h-597v303h1502v-303z" />
    <glyph glyph-name="tcaron" unicode="&#x165;" horiz-adv-x="1100" 
d="M1257 1463q0 -185 -218 -422q0 -1 -26.5 17.5t-53.5 37.5l-27 18q8 8 21.5 22t42.5 56.5t43 83.5q-91 0 -148 57.5t-57 147.5q0 97 57 155t150 58q97 0 156.5 -67.5t59.5 -163.5zM258 1419h309v-352h169v-301h-171v-309q0 -94 25 -129.5t93 -35.5q74 0 126 9v-301
q-68 -13 -186 -13q-185 0 -275 112.5t-90 344.5v322h-149v301h149v352z" />
    <glyph glyph-name="Tbar" unicode="&#x166;" horiz-adv-x="1655" 
d="M674 1116h-597v303h1502v-303h-598v-382h252v-203h-252v-531h-307v531h-252v203h252v382z" />
    <glyph glyph-name="tbar" unicode="&#x167;" horiz-adv-x="992" 
d="M768 1067v-280h-171v-111h173v-202h-173v-17q0 -90 24 -127.5t94 -37.5q56 0 104 9v-301q-77 -13 -164 -13q-86 0 -150.5 24t-105 64t-65.5 100t-34.5 124.5t-9.5 144.5v30h-147v202h147v111h-149v280h149v352h309l-2 -352h171z" />
    <glyph glyph-name="Utilde" unicode="&#x168;" 
d="M762 1833q68 0 136 -19.5t120.5 -39.5t82.5 -20q18 0 28 2t20 8.5t14.5 21t5.5 38.5h117q0 -60 -11 -108.5t-36.5 -90t-71.5 -64.5t-111 -23q-67 0 -135 19t-120 38.5t-82 19.5q-24 0 -36.5 -3.5t-22 -19t-11.5 -47.5h-116q0 288 229 288zM900 -51q320 0 504.5 158
t184.5 418v894h-307v-820q0 -172 -91.5 -255.5t-290.5 -83.5t-290.5 83.5t-91.5 255.5v820h-307v-894q0 -260 184.5 -418t504.5 -158z" />
    <glyph glyph-name="utilde" unicode="&#x169;" horiz-adv-x="1467" 
d="M557 1555q68 0 136 -19.5t120.5 -39.5t82.5 -20q35 0 51 12.5t17 58.5h118q0 -59 -11.5 -108t-36.5 -90.5t-71.5 -64.5t-111.5 -23q-67 0 -135 19.5t-120 38.5t-82 19q-35 0 -51 -12.5t-19 -58.5h-115q0 288 228 288zM956 151q-74 -86 -179 -130t-216 -44
q-175 0 -279.5 112t-104.5 299v679h312v-634q0 -81 48.5 -124.5t123.5 -43.5q97 0 185 70.5t112 193.5v538h307v-1067h-288z" />
    <glyph glyph-name="Umacron" unicode="&#x16a;" 
d="M1312 1553h-811v203h811v-203zM900 -51q320 0 504.5 158t184.5 418v894h-307v-820q0 -172 -91.5 -255.5t-290.5 -83.5t-290.5 83.5t-91.5 255.5v820h-307v-894q0 -260 184.5 -418t504.5 -158z" />
    <glyph glyph-name="umacron" unicode="&#x16b;" horiz-adv-x="1467" 
d="M1122 1325h-811v202h811v-202zM956 151q-74 -86 -179 -130t-216 -44q-175 0 -279.5 112t-104.5 299v679h312v-634q0 -81 48.5 -124.5t123.5 -43.5q97 0 185 70.5t112 193.5v538h307v-1067h-288z" />
    <glyph glyph-name="Ubreve" unicode="&#x16c;" 
d="M892 1715q90 0 115 154l154 -17q0 -122 -75.5 -218t-191.5 -96t-191.5 96t-75.5 218l154 17q25 -154 111 -154zM900 -51q-320 0 -504.5 158t-184.5 418v894h307v-820q0 -172 91.5 -255.5t290.5 -83.5t290.5 83.5t91.5 255.5v820h307v-894q0 -260 -184.5 -418t-504.5 -158
z" />
    <glyph glyph-name="ubreve" unicode="&#x16d;" horiz-adv-x="1467" 
d="M706 1431q90 0 115 154l154 -17q0 -122 -75.5 -218t-191.5 -96t-191 96t-75 218l153 17q25 -154 111 -154zM956 151q-74 -86 -179 -130t-216 -44q-175 0 -279.5 112t-104.5 299v679h312v-634q0 -81 48.5 -124.5t123.5 -43.5q97 0 185 70.5t112 193.5v538h307v-1067h-288z
" />
    <glyph glyph-name="Uring" unicode="&#x16e;" 
d="M913 1538q-110 0 -176.5 65.5t-66.5 171.5q0 113 65 180t174 67q110 0 175.5 -65t65.5 -171q0 -113 -65 -180.5t-172 -67.5zM1035 1771q0 65 -33.5 102.5t-92.5 37.5q-58 0 -91 -32t-33 -89q0 -66 33.5 -103.5t92.5 -37.5q58 0 91 32t33 90zM900 -51q-320 0 -504.5 158
t-184.5 418v894h307v-820q0 -172 91.5 -255.5t290.5 -83.5t290.5 83.5t91.5 255.5v820h307v-894q0 -260 -184.5 -418t-504.5 -158z" />
    <glyph glyph-name="uring" unicode="&#x16f;" horiz-adv-x="1467" 
d="M717 1210q-110 0 -176.5 65t-66.5 171q0 113 65 180.5t174 67.5q110 0 175.5 -65.5t65.5 -171.5q0 -113 -64.5 -180t-172.5 -67zM838 1442q0 66 -33 103.5t-92 37.5q-58 0 -91 -32t-33 -90q0 -65 33.5 -102.5t92.5 -37.5q58 0 90.5 31.5t32.5 89.5zM956 151
q-74 -86 -179 -130t-216 -44q-175 0 -279.5 112t-104.5 299v679h312v-634q0 -81 48.5 -124.5t123.5 -43.5q97 0 185 70.5t112 193.5v538h307v-1067h-288z" />
    <glyph glyph-name="Uhungarumlaut" unicode="&#x170;" 
d="M979 1901l-226 -359h-181l42 359h365zM1453 1901l-226 -359h-182l43 359h365zM900 -51q320 0 504.5 158t184.5 418v894h-307v-820q0 -172 -91.5 -255.5t-290.5 -83.5t-290.5 83.5t-91.5 255.5v820h-307v-894q0 -260 184.5 -418t504.5 -158z" />
    <glyph glyph-name="uhungarumlaut" unicode="&#x171;" horiz-adv-x="1467" 
d="M779 1585l-226 -358h-182l43 358h365zM1252 1585l-226 -358h-181l42 358h365zM956 151q-74 -86 -179 -130t-216 -44q-175 0 -279.5 112t-104.5 299v679h312v-634q0 -81 48.5 -124.5t123.5 -43.5q97 0 185 70.5t112 193.5v538h307v-1067h-288z" />
    <glyph glyph-name="Uogonek" unicode="&#x172;" 
d="M211 1419h307v-820q0 -172 91.5 -255.5t290.5 -83.5t290.5 83.5t91.5 255.5v820h307v-894q0 -226 -140.5 -374.5t-392.5 -188.5q-44 -19 -72 -63t-28 -93q0 -51 35.5 -85.5t105.5 -34.5q80 0 192 47l49 -209q-152 -57 -284 -57q-85 0 -154.5 24t-113.5 64.5t-67.5 90
t-23.5 102.5q0 51 26.5 107t80.5 100q-277 27 -434 179t-157 391v894z" />
    <glyph glyph-name="uogonek" unicode="&#x173;" horiz-adv-x="1476" 
d="M956 151q-74 -86 -179 -130t-216 -44q-175 0 -279.5 112t-104.5 299v679h312v-634q0 -81 48.5 -124.5t123.5 -43.5q97 0 185 70.5t112 193.5v538h307v-1067h-47q-53 -14 -86 -61.5t-33 -100.5q0 -51 35 -85.5t105 -34.5q80 0 192 47l50 -209q-152 -57 -284 -57
q-85 0 -154.5 24t-113.5 64.5t-67.5 90t-23.5 102.5q0 56 30.5 116.5t93.5 103.5h-6v151z" />
    <glyph glyph-name="Wcircumflex" unicode="&#x174;" horiz-adv-x="2233" 
d="M1325 1547l-216 196l-213 -196h-203l256 358h322l256 -358h-202zM753 555l-311 864h-367l510 -1419h268l261 730l266 -730h269l510 1419h-367l-311 -864l-274 864h-181z" />
    <glyph glyph-name="wcircumflex" unicode="&#x175;" horiz-adv-x="2107" 
d="M1274 1231l-216 196l-213 -196h-203l256 358h322l256 -358h-202zM1764 1067h301l-420 -1067h-307l-284 717l-284 -717h-307l-420 1067h300l278 -726l266 726h333l267 -726z" />
    <glyph glyph-name="Ycircumflex" unicode="&#x176;" horiz-adv-x="1860" 
d="M1146 1540l-216 197l-213 -197h-203l256 359h322l256 -359h-202zM47 1419h386l497 -645l497 645h386l-729 -943v-476h-307v476z" />
    <glyph glyph-name="ycircumflex" unicode="&#x177;" horiz-adv-x="1467" 
d="M932 1237l-215 197l-214 -197h-202l256 359h322l256 -359h-203zM32 1067h316l369 -756l407 756h314l-819 -1517h-314l258 480z" />
    <glyph glyph-name="Ydieresis" unicode="&#x178;" horiz-adv-x="1860" 
d="M717 1570q-72 0 -118 45.5t-46 114.5q0 74 45.5 120.5t116.5 46.5q72 0 118 -45.5t46 -114.5q0 -74 -45.5 -120.5t-116.5 -46.5zM1143 1570q-72 0 -118 45.5t-46 114.5q0 74 45.5 120.5t116.5 46.5q72 0 118.5 -45.5t46.5 -114.5q0 -74 -46 -120.5t-117 -46.5zM47 1419
h386l497 -645l497 645h386l-729 -943v-476h-307v476z" />
    <glyph glyph-name="Zacute" unicode="&#x179;" horiz-adv-x="1725" 
d="M1203 1907l-226 -358h-181l42 358h365zM115 218l120 -218h1371v301h-970q76 74 231 224.5t253 246t233.5 224t246.5 229.5l-107 194h-1356v-303h896z" />
    <glyph glyph-name="zacute" unicode="&#x17a;" horiz-adv-x="1297" 
d="M939 1594l-226 -359h-182l43 359h365zM122 0v258l599 529h-578v280h1018v-237l-626 -551h647v-279h-1060z" />
    <glyph glyph-name="Zdotaccent" unicode="&#x17b;" horiz-adv-x="1725" 
d="M873 1547q-72 0 -118.5 45.5t-46.5 114.5q0 74 45.5 120t116.5 46q72 0 118.5 -45.5t46.5 -114.5q0 -74 -45.5 -120t-116.5 -46zM137 1419h1356l107 -194q-144 -131 -292.5 -272.5t-385.5 -373t-286 -278.5h970v-301h-1371l-120 218l918 898h-896v303z" />
    <glyph glyph-name="zdotaccent" unicode="&#x17c;" horiz-adv-x="1297" 
d="M683 1254q-72 0 -118.5 45.5t-46.5 114.5q0 74 46 120.5t117 46.5q72 0 118 -45.5t46 -114.5q0 -74 -45.5 -120.5t-116.5 -46.5zM122 0v258l599 529h-578v280h1018v-237l-626 -551h647v-279h-1060z" />
    <glyph glyph-name="Zcaron" unicode="&#x17d;" horiz-adv-x="1725" 
d="M683 1916l215 -197l213 197h203l-256 -359h-322l-256 359h203zM115 218l120 -218h1371v301h-970q76 74 231 224.5t253 246t233.5 224t246.5 229.5l-107 194h-1356v-303h896z" />
    <glyph glyph-name="zcaron" unicode="&#x17e;" horiz-adv-x="1297" 
d="M448 1600l215 -196l214 196h202l-256 -358h-322l-256 358h203zM122 0v258l599 529h-578v280h1018v-237l-626 -551h647v-279h-1060z" />
    <glyph glyph-name="uni01D3" unicode="&#x1d3;" 
d="M672 1916l215 -197l214 197h202l-256 -359h-322l-256 359h203zM900 -51q-320 0 -504.5 158t-184.5 418v894h307v-820q0 -172 91.5 -255.5t290.5 -83.5t290.5 83.5t91.5 255.5v820h307v-894q0 -260 -184.5 -418t-504.5 -158z" />
    <glyph glyph-name="uni01D4" unicode="&#x1d4;" horiz-adv-x="1472" 
d="M516 1596l216 -197l213 197h203l-256 -359h-322l-256 359h202zM958 151q-74 -86 -179 -130t-216 -44q-175 0 -279.5 112t-104.5 299v679h312v-634q0 -81 48.5 -124.5t123.5 -43.5q97 0 185 70.5t112 193.5v538h307v-1067h-288z" />
    <glyph glyph-name="uni01EA" unicode="&#x1ea;" 
d="M1655 719q0 -342 -197.5 -550t-525.5 -218q-47 -50 -47 -117q0 -51 35.5 -85.5t105.5 -34.5q80 0 192 47l49 -209q-154 -58 -284 -58q-85 0 -154.5 24.5t-113 64.5t-67 90t-23.5 103q0 48 22.5 100t69.5 94q-264 53 -418 249.5t-154 484.5q0 174 54 317.5t151.5 242.5
t237.5 153.5t308 54.5q225 0 397.5 -94t267 -265t94.5 -394zM467 734q0 -224 115.5 -356.5t317.5 -132.5q200 0 316.5 118t116.5 326q0 224 -117.5 356.5t-319.5 132.5q-200 0 -314.5 -118t-114.5 -326z" />
    <glyph glyph-name="uni01EB" unicode="&#x1eb;" horiz-adv-x="1356" 
d="M855 -286q80 0 192 47l50 -209q-154 -58 -284 -58q-85 0 -154.5 24.5t-113.5 64.5t-67.5 90t-23.5 103q0 48 22.5 100t69.5 94q-200 38 -317.5 186.5t-117.5 366.5q0 263 154 419.5t409 156.5q256 0 414 -156t158 -410q0 -236 -128 -388t-344 -181q-59 -56 -59 -130
q0 -51 35 -85.5t105 -34.5zM425 544q0 -131 68.5 -209.5t184.5 -78.5q115 0 184.5 68.5t69.5 187.5q0 130 -70 209t-188 79q-114 0 -181.5 -68.5t-67.5 -187.5z" />
    <glyph glyph-name="AEacute" unicode="&#x1fc;" horiz-adv-x="2843" 
d="M2031 1894l-226 -358h-182l43 358h365zM1370 0v341h-687l-269 -341h-367l1124 1419h1508v-303h-1002v-229h823v-311h-823v-275h1041v-301h-1348zM919 640h451v474h-75z" />
    <glyph glyph-name="aeacute" unicode="&#x1fd;" horiz-adv-x="2109" 
d="M1350 1598l-226 -359h-181l43 359h364zM1747 361q-65 -126 -286 -126q-92 0 -162.5 57t-97.5 150h785q28 62 28 143q0 147 -74.5 265.5t-202 183.5t-280.5 65q-136 0 -258 -94l-13 62h-245l-22 -96q-145 119 -330 119q-74 0 -142 -20.5t-129 -65t-106 -109t-71 -157.5
t-26 -205q0 -130 44 -239t116.5 -178.5t162 -107.5t183.5 -38q177 0 301 124l19 -94h245l11 49q125 -92 266 -92q71 0 143 15.5t140.5 47t126.5 84t92 120.5zM1457 821q218 0 265 -160h-512q33 73 99 116.5t148 43.5zM429 512q0 130 70 209t188 79t175 -76.5t57 -188.5
q0 -115 -60 -197t-176 -82q-115 0 -184.5 68.5t-69.5 187.5z" />
    <glyph glyph-name="Oslashacute" unicode="&#x1fe;" horiz-adv-x="1798" 
d="M1197 1922l-226 -358h-182l43 358h365zM902 -49q340 0 546.5 209t206.5 559q0 194 -73.5 350t-207.5 256l51 72l-75 43l-47 -68q-180 100 -407 100q-168 0 -308 -54.5t-237.5 -153.5t-151.5 -242.5t-54 -317.5q0 -194 72 -350t205 -256l-64 -92l75 -42l60 87
q180 -100 409 -100zM896 1178q129 0 230 -60l-524 -760q-135 132 -135 376q0 208 114.5 326t314.5 118zM1333 689q0 -208 -116.5 -326t-316.5 -118q-131 0 -232 60l527 760q138 -130 138 -376z" />
    <glyph glyph-name="oslashacute" unicode="&#x1ff;" horiz-adv-x="1380" 
d="M971 1591l-226 -358h-182l43 358h365zM691 -43q255 0 410.5 156.5t155.5 419.5q0 141 -51.5 254.5t-145.5 189.5l111 160l-74 43l-109 -156q-130 75 -303 75q-255 0 -409 -156.5t-154 -419.5q0 -146 53 -262.5t151 -190.5l-113 -164l75 -43l111 160q127 -66 292 -66z
M685 800q69 0 126 -30l-303 -439q-73 76 -73 213q0 119 68 187.5t182 68.5zM943 512q0 -119 -69.5 -187.5t-184.5 -68.5q-67 0 -113 23l303 436q64 -80 64 -203z" />
    <glyph glyph-name="uni0218" unicode="&#x218;" horiz-adv-x="1723" 
d="M512 1033q0 -48 37 -78.5t99 -45.5t143 -23.5t170.5 -16.5t178.5 -20.5t170 -40t143 -69.5t99 -114.5t37 -170.5q0 -114 -44 -204.5t-114 -146t-165 -92t-189.5 -50.5t-195.5 -14q-42 0 -69 0.5t-83 4t-96.5 10.5t-99 21.5t-102 34.5t-93.5 52t-85 72t-65.5 96t-46.5 123
l275 147q28 -55 62.5 -96.5t73 -67t73.5 -41.5t78.5 -23t73 -9t70.5 -2q403 0 403 160q0 45 -29 73.5t-93 43t-121 21t-157 12.5q-70 4 -107.5 7t-106 10.5t-108 16.5t-98 25.5t-92.5 37.5t-74.5 52.5t-61.5 70t-36 90.5t-15 114q0 90 40 167t108.5 131.5t159.5 93t193.5 57
t209.5 18.5q128 0 245.5 -27t214.5 -78t159.5 -134.5t73.5 -187.5l-252 -98q-25 85 -95.5 143.5t-157 82.5t-184.5 24q-91 0 -172 -20.5t-131.5 -58t-50.5 -83.5zM1020 -386q0 91 -56 155.5t-149 64.5q-88 0 -142 -55.5t-54 -147.5q0 -88 53 -142t141 -54q-13 -39 -38 -77.5
t-43 -57.5l-19 -19q6 -5 16.5 -12t32.5 -23t36.5 -26t14.5 -9q207 223 207 403z" />
    <glyph glyph-name="uni0219" unicode="&#x219;" horiz-adv-x="1288" 
d="M939 710q-34 71 -122.5 108t-187.5 37q-79 0 -133 -23t-54 -62q0 -45 41 -69.5t106.5 -33t145 -13.5t159 -20t145 -43.5t106.5 -91.5t41 -158q0 -94 -44 -169.5t-115 -120.5t-153.5 -68.5t-167.5 -23.5q-480 0 -610 314l239 111q47 -80 155 -123t214 -43q173 0 173 104
q0 38 -41 57.5t-106 26t-144 12t-158 22t-144 48t-106 98.5t-41 165q0 78 32.5 140.5t83.5 100.5t119.5 63t134 34.5t133.5 9.5q117 0 219.5 -31t182.5 -97t116 -158zM806 -386q0 92 -55.5 156t-148.5 64q-88 0 -142.5 -55.5t-54.5 -147.5q0 -88 53 -142t141 -54
q-13 -39 -38 -77.5t-43 -57.5l-19 -19q6 -5 16.5 -12t32.5 -23t36.5 -26t14.5 -9q207 223 207 403z" />
    <glyph glyph-name="uni0237" unicode="&#x237;" horiz-adv-x="718" 
d="M514 75q0 -269 -126.5 -397t-393.5 -128v301q115 0 164 72.5t49 242.5v901h309z" />
    <glyph glyph-name="circumflex" unicode="&#x2c6;" horiz-adv-x="1026" 
d="M727 1557l-215 197l-213 -197h-203l256 359h322l256 -359h-203z" />
    <glyph glyph-name="caron" unicode="&#x2c7;" horiz-adv-x="1034" 
d="M303 1916l215 -197l214 197h202l-256 -359h-322l-256 359h203z" />
    <glyph glyph-name="breve" unicode="&#x2d8;" horiz-adv-x="840" 
d="M418 1715q90 0 115 154l154 -17q0 -122 -75.5 -218t-191.5 -96t-191 96t-75 218l153 17q25 -154 111 -154z" />
    <glyph glyph-name="dotaccent" unicode="&#x2d9;" horiz-adv-x="676" 
d="M339 1570q-72 0 -118 45.5t-46 114.5q0 74 45.5 120.5t116.5 46.5q72 0 118 -45.5t46 -114.5q0 -74 -45.5 -120.5t-116.5 -46.5z" />
    <glyph glyph-name="ring" unicode="&#x2da;" horiz-adv-x="800" 
d="M403 1513q-110 0 -176.5 65t-66.5 171q0 113 65 180.5t174 67.5q110 0 175.5 -65.5t65.5 -171.5q0 -113 -64.5 -180t-172.5 -67zM525 1745q0 66 -33.5 103.5t-92.5 37.5q-58 0 -91 -32t-33 -90q0 -66 33.5 -103.5t92.5 -37.5q58 0 91 32t33 90z" />
    <glyph glyph-name="ogonek" unicode="&#x2db;" horiz-adv-x="872" 
d="M548 0q-65 0 -109 -51.5t-44 -114.5q0 -51 35 -85.5t105 -34.5q80 0 192 47l50 -209q-154 -58 -284 -58q-85 0 -154.5 24.5t-113.5 64.5t-67.5 90t-23.5 103q0 44 20 91t60.5 92t116 74t172.5 29q35 0 52 -2z" />
    <glyph glyph-name="tilde" unicode="&#x2dc;" horiz-adv-x="1094" 
d="M401 1888q68 0 136 -20t120.5 -39.5t82.5 -19.5q24 0 36.5 3.5t22 19t10.5 47.5h117q0 -59 -11.5 -108t-36.5 -90t-71.5 -64t-111.5 -23q-67 0 -135 19t-120 38t-82 19q-24 0 -36.5 -3.5t-22 -19t-11.5 -47.5h-115q0 288 228 288z" />
    <glyph glyph-name="hungarumlaut" unicode="&#x2dd;" horiz-adv-x="1181" 
d="M595 1916l-226 -359h-181l42 359h365zM1069 1916l-226 -359h-182l43 359h365z" />
    <glyph glyph-name="gravecomb" unicode="&#x300;" horiz-adv-x="0" 
d="M-369 1557l-226 359h365l42 -359h-181z" />
    <glyph glyph-name="acutecomb" unicode="&#x301;" horiz-adv-x="0" 
d="M-113 1916l-226 -359h-182l43 359h365z" />
    <glyph glyph-name="uni0302" unicode="&#x302;" horiz-adv-x="0" 
d="M-299 1557l-215 197l-213 -197h-203l256 359h322l256 -359h-203z" />
    <glyph glyph-name="tildecomb" unicode="&#x303;" horiz-adv-x="0" 
d="M-693 1888q68 0 136 -20t120.5 -39.5t82.5 -19.5q18 0 28 2t20 8.5t14.5 21t5.5 38.5h117q0 -60 -11 -108t-36.5 -89.5t-71.5 -64.5t-111 -23q-67 0 -135 19t-120 38t-82 19q-24 0 -36.5 -3.5t-22 -19t-11.5 -47.5h-116q0 288 229 288z" />
    <glyph glyph-name="uni0304" unicode="&#x304;" horiz-adv-x="0" 
d="M-205 1630h-810v203h810v-203z" />
    <glyph glyph-name="uni0306" unicode="&#x306;" horiz-adv-x="0" 
d="M-422 1715q90 0 115 154l153 -17q0 -122 -75 -218t-191 -96t-191.5 96t-75.5 218l154 17q25 -154 111 -154z" />
    <glyph glyph-name="uni0307" unicode="&#x307;" horiz-adv-x="0" 
d="M-337 1570q-72 0 -118 45.5t-46 114.5q0 74 45.5 120.5t116.5 46.5q72 0 118 -45.5t46 -114.5q0 -74 -45.5 -120.5t-116.5 -46.5z" />
    <glyph glyph-name="uni0308" unicode="&#x308;" horiz-adv-x="0" 
d="M-764 1570q-72 0 -118 45.5t-46 114.5q0 74 45.5 120.5t116.5 46.5q72 0 118 -45.5t46 -114.5q0 -74 -45.5 -120.5t-116.5 -46.5zM-337 1570q-72 0 -118 45.5t-46 114.5q0 74 45.5 120.5t116.5 46.5q72 0 118 -45.5t46 -114.5q0 -74 -45.5 -120.5t-116.5 -46.5z" />
    <glyph glyph-name="uni030A" unicode="&#x30a;" horiz-adv-x="0" 
d="M-397 1513q-110 0 -176.5 65t-66.5 171q0 113 65 180.5t174 67.5q110 0 175.5 -65.5t65.5 -171.5q0 -113 -64.5 -180t-172.5 -67zM-275 1745q0 66 -33.5 103.5t-92.5 37.5q-58 0 -91 -32t-33 -90q0 -66 33.5 -103.5t92.5 -37.5q58 0 91 32t33 90z" />
    <glyph glyph-name="uni030B" unicode="&#x30b;" horiz-adv-x="0" 
d="M-587 1916l-226 -359h-181l43 359h364zM-113 1916l-226 -359h-182l43 359h365z" />
    <glyph glyph-name="uni030C" unicode="&#x30c;" horiz-adv-x="0" 
d="M-732 1916l216 -197l213 197h203l-256 -359h-322l-256 359h202z" />
    <glyph glyph-name="uni0312" unicode="&#x312;" horiz-adv-x="0" 
d="M-529 1436q0 180 207 403q0 1 25 -16.5t50 -35.5l25 -18q-8 -8 -20.5 -21.5t-39.5 -53.5t-40 -79q88 0 141 -54t53 -142q0 -92 -54 -147.5t-142 -55.5q-93 0 -149 64.5t-56 155.5z" />
    <glyph glyph-name="uni0326" unicode="&#x326;" horiz-adv-x="0" 
d="M-111 -386q0 91 -56 155.5t-149 64.5q-88 0 -142 -55.5t-54 -147.5q0 -88 53 -142t141 -54q-13 -39 -38 -77.5t-44 -57.5l-18 -19q6 -5 16.5 -12t32.5 -23t36.5 -26t14.5 -9q207 223 207 403z" />
    <glyph glyph-name="uni0327" unicode="&#x327;" horiz-adv-x="0" 
d="M-301 -19l-30 -86q104 -11 156.5 -63t52.5 -126q0 -96 -81.5 -173t-210.5 -77q-79 0 -162 32l41 147q50 -21 93 -21q41 0 64.5 19t23.5 45q0 29 -27.5 50.5t-77.5 21.5q-12 0 -42 -4l70 267z" />
    <glyph glyph-name="uni0328" unicode="&#x328;" horiz-adv-x="0" 
d="M-324 0q-65 0 -109.5 -52t-44.5 -114q0 -51 35.5 -85.5t105.5 -34.5q80 0 192 47l49 -209q-154 -58 -284 -58q-85 0 -154.5 24.5t-113 64.5t-67 90t-23.5 103q0 44 20 91t60.5 92t116 74t172.5 29q34 0 51 -2z" />
    <glyph glyph-name="Wgrave" unicode="&#x1e80;" horiz-adv-x="2233" 
d="M1099 1553l-226 358h364l43 -358h-181zM753 555l-311 864h-367l510 -1419h268l261 730l266 -730h269l510 1419h-367l-311 -864l-274 864h-181z" />
    <glyph glyph-name="wgrave" unicode="&#x1e81;" horiz-adv-x="2107" 
d="M1030 1239l-226 359h365l43 -359h-182zM1764 1067h301l-420 -1067h-307l-284 717l-284 -717h-307l-420 1067h300l278 -726l266 726h333l267 -726z" />
    <glyph glyph-name="Wacute" unicode="&#x1e82;" horiz-adv-x="2233" 
d="M1425 1905l-226 -358h-181l42 358h365zM753 555l-311 864h-367l510 -1419h268l261 730l266 -730h269l510 1419h-367l-311 -864l-274 864h-181z" />
    <glyph glyph-name="wacute" unicode="&#x1e83;" horiz-adv-x="2107" 
d="M1346 1596l-226 -359h-181l42 359h365zM1764 1067h301l-420 -1067h-307l-284 717l-284 -717h-307l-420 1067h300l278 -726l266 726h333l267 -726z" />
    <glyph glyph-name="Wdieresis" unicode="&#x1e84;" horiz-adv-x="2233" 
d="M907 1549q-72 0 -118.5 45.5t-46.5 114.5q0 74 46 120t117 46q72 0 118 -45.5t46 -114.5q0 -74 -45.5 -120t-116.5 -46zM1333 1549q-72 0 -118 45.5t-46 114.5q0 74 45.5 120t116.5 46q72 0 118 -45.5t46 -114.5q0 -74 -45.5 -120t-116.5 -46zM1481 555l311 864h367
l-510 -1419h-269l-266 730l-261 -730h-268l-510 1419h367l311 -864l273 864h181z" />
    <glyph glyph-name="wdieresis" unicode="&#x1e85;" horiz-adv-x="2107" 
d="M845 1239q-72 0 -118 45.5t-46 114.5q0 74 45.5 120.5t116.5 46.5q72 0 118 -45.5t46 -114.5q0 -74 -45.5 -120.5t-116.5 -46.5zM1271 1239q-72 0 -118 45.5t-46 114.5q0 74 45.5 120.5t116.5 46.5q72 0 118.5 -45.5t46.5 -114.5q0 -74 -46 -120.5t-117 -46.5zM1764 1067
h301l-420 -1067h-307l-284 717l-284 -717h-307l-420 1067h300l278 -726l266 726h333l267 -726z" />
    <glyph glyph-name="Ygrave" unicode="&#x1ef2;" horiz-adv-x="1860" 
d="M896 1557l-226 359h365l42 -359h-181zM47 1419h386l497 -645l497 645h386l-729 -943v-476h-307v476z" />
    <glyph glyph-name="ygrave" unicode="&#x1ef3;" horiz-adv-x="1467" 
d="M698 1227l-227 358h365l43 -358h-181zM32 1067h316l369 -756l407 756h314l-819 -1517h-314l258 480z" />
    <glyph glyph-name="endash" unicode="&#x2013;" horiz-adv-x="1448" 
d="M1244 732v-86h-1039v86h1039z" />
    <glyph glyph-name="emdash" unicode="&#x2014;" horiz-adv-x="2318" 
d="M2114 732v-86h-1909v86h1909z" />
    <glyph glyph-name="quoteleft" unicode="&#x2018;" horiz-adv-x="817" 
d="M169 956q0 223 253 497q0 1 31.5 -20.5t62.5 -43.5l32 -22q-10 -9 -25.5 -25.5t-49.5 -66t-51 -97.5q108 -1 174.5 -68.5t66.5 -175.5q0 -113 -67 -181t-176 -68q-114 0 -182.5 79t-68.5 192z" />
    <glyph glyph-name="quoteright" unicode="&#x2019;" horiz-adv-x="817" 
d="M649 1184q0 -222 -254 -497q0 -1 -31.5 20.5t-63.5 42.5l-31 22q10 9 25.5 26t49.5 66.5t51 97.5q-109 1 -175 68.5t-66 174.5q0 113 67 181.5t176 68.5q115 0 183.5 -79t68.5 -192z" />
    <glyph glyph-name="quotesinglbase" unicode="&#x201a;" horiz-adv-x="817" 
d="M649 186q0 -222 -254 -497q0 -1 -31.5 20.5t-63.5 42.5l-31 22q10 9 25.5 26t49.5 66.5t51 97.5q-109 1 -175 68.5t-66 174.5q0 113 67 181.5t176 68.5q115 0 183.5 -79t68.5 -192z" />
    <glyph glyph-name="quotedblleft" unicode="&#x201c;" horiz-adv-x="1393" 
d="M169 956q0 223 253 497q0 1 31.5 -20.5t62.5 -43.5l32 -22q-10 -9 -25.5 -25.5t-49.5 -66t-51 -97.5q108 -1 174.5 -68.5t66.5 -175.5q0 -113 -67 -181t-176 -68q-114 0 -182.5 79t-68.5 192zM745 956q0 223 253 497q0 1 31.5 -20.5t62.5 -43.5l32 -22
q-10 -9 -25.5 -25.5t-49.5 -66t-51 -97.5q108 -1 174.5 -68.5t66.5 -175.5q0 -113 -67 -181t-176 -68q-114 0 -182.5 79t-68.5 192z" />
    <glyph glyph-name="quotedblright" unicode="&#x201d;" horiz-adv-x="1393" 
d="M649 1184q0 -222 -254 -497q0 -1 -31.5 20.5t-63.5 42.5l-31 22q10 9 25.5 26t49.5 66.5t51 97.5q-109 1 -175 68.5t-66 174.5q0 113 67 181.5t176 68.5q115 0 183.5 -79t68.5 -192zM1225 1184q0 -222 -254 -497q0 -1 -31.5 20.5t-63.5 42.5l-31 22q10 9 25.5 26
t49.5 66.5t51 97.5q-109 1 -175 68.5t-66 174.5q0 113 67 181.5t176 68.5q115 0 183.5 -79t68.5 -192z" />
    <glyph glyph-name="quotedblbase" unicode="&#x201e;" horiz-adv-x="1393" 
d="M649 186q0 -222 -254 -497q0 -1 -31.5 20.5t-63.5 42.5l-31 22q10 9 25.5 26t49.5 66.5t51 97.5q-109 1 -175 68.5t-66 174.5q0 113 67 181.5t176 68.5q115 0 183.5 -79t68.5 -192zM1225 186q0 -222 -254 -497q0 -1 -31.5 20.5t-63.5 42.5l-31 22q10 9 25.5 26t49.5 66.5
t51 97.5q-109 1 -175 68.5t-66 174.5q0 113 67 181.5t176 68.5q115 0 183.5 -79t68.5 -192z" />
    <glyph glyph-name="dagger" unicode="&#x2020;" horiz-adv-x="951" 
d="M476 1135q-6 0 -32 39t-51.5 98.5t-25.5 101.5q0 38 30.5 78.5t80.5 40.5q48 0 78.5 -41t30.5 -78q0 -42 -25.5 -101.5t-51.5 -98.5t-32 -39h-2zM422 1079q0 -6 -39 -31.5t-98.5 -51t-101.5 -25.5q-38 0 -78.5 30.5t-40.5 80.5q0 48 41 78t78 30q42 0 101.5 -25.5
t98.5 -51t39 -31.5v-3zM529 1082q0 6 39 31.5t98.5 51t101.5 25.5q37 0 78 -30t41 -78q0 -50 -40.5 -80.5t-78.5 -30.5q-42 0 -101.5 25.5t-98.5 51t-39 31.5v3zM478 1028q5 0 36.5 -135t62.5 -313t31 -269q0 -59 -37 -89t-93 -30q-58 0 -95 30t-37 89q0 91 31 269t62.5 313
t36.5 135h2z" />
    <glyph glyph-name="bullet" unicode="&#x2022;" horiz-adv-x="885" 
d="M444 354q-134 0 -216.5 82.5t-82.5 214.5q0 137 82 220t215 83q134 0 216 -82.5t82 -214.5q0 -137 -81.5 -220t-214.5 -83z" />
    <glyph glyph-name="ellipsis" unicode="&#x2026;" horiz-adv-x="2598" 
d="M403 -36q-110 0 -177.5 67.5t-67.5 175.5q0 113 67 181.5t176 68.5q110 0 179 -68t69 -176q0 -113 -68.5 -181t-177.5 -68zM1299 -36q-110 0 -177.5 67.5t-67.5 175.5q0 113 67 181.5t176 68.5q110 0 179 -68t69 -176q0 -113 -68.5 -181t-177.5 -68zM2195 -36
q-110 0 -177.5 67.5t-67.5 175.5q0 113 67 181.5t176 68.5q110 0 179 -68t69 -176q0 -113 -68.5 -181t-177.5 -68z" />
    <glyph glyph-name="perthousand" unicode="&#x2030;" horiz-adv-x="3136" 
d="M700 -36l-75 42l821 1434l75 -43zM525 493q204 0 327 125t123 336q0 202 -125 326t-329 124t-327.5 -125t-123.5 -336q0 -202 125 -326t330 -124zM757 937q0 -113 -63 -177.5t-171 -64.5t-171.5 72t-63.5 193q0 113 62.5 177t170.5 64t172 -72t64 -192zM1619 -17
q204 0 327 125t123 336q0 202 -125 326t-329 124t-327 -125t-123 -336q0 -202 125 -326t329 -124zM2615 -17q204 0 327.5 125t123.5 336q0 202 -125 326t-330 124q-204 0 -327 -125t-123 -336q0 -202 125 -326t329 -124zM1852 427q0 -112 -63.5 -176.5t-171.5 -64.5
t-171.5 71.5t-63.5 192.5q0 113 62.5 177t170.5 64q109 0 173 -72t64 -192zM2848 427q0 -112 -63.5 -176.5t-171.5 -64.5t-171 71.5t-63 192.5q0 113 62 177t170 64q109 0 173 -72t64 -192z" />
    <glyph glyph-name="guilsinglleft" unicode="&#x2039;" horiz-adv-x="738" 
d="M94 636l446 390l45 -36l-227 -391l229 -390l-47 -36l-446 388v75z" />
    <glyph glyph-name="guilsinglright" unicode="&#x203a;" horiz-adv-x="738" 
d="M151 209l229 390l-226 391l44 36l446 -390v-75l-446 -388z" />
    <glyph glyph-name="fraction" unicode="&#x2044;" horiz-adv-x="981" 
d="M117 -36l-74 42l821 1434l75 -43z" />
    <glyph glyph-name="Euro" unicode="&#x20ac;" horiz-adv-x="1597" 
d="M834 766h-264q-3 -19 -3 -34q0 -16 3 -32h264v-203h-222q44 -109 125.5 -173t196.5 -64q125 0 218 92t117 239l224 -115q-9 -114 -49.5 -206.5t-99.5 -151.5t-135 -99t-152.5 -57t-156.5 -17q-123 0 -228 43.5t-179 120t-124 174.5t-75 214h-185v203h164v30q0 23 2 36
h-166v203h198q30 107 81.5 196.5t125.5 159.5t176.5 109.5t222.5 39.5q32 0 53 -0.5t67.5 -6.5t82.5 -17t86.5 -34t93 -55t89 -83t85.5 -115l-224 -194q-45 100 -130 152t-184 52q-101 0 -187 -53t-128 -151h217v-203z" />
    <glyph glyph-name="trademark" unicode="&#x2122;" horiz-adv-x="2060" 
d="M838 1267h-298v-557h-154v557h-299v152h751v-152zM1412 1090l207 329h194v-709h-153v502l-203 -293h-90l-202 293v-502h-154v709h194z" />
    <glyph glyph-name="minus" unicode="&#x2212;" horiz-adv-x="1499" 
d="M1295 732v-86h-1090v86h1090z" />
    <glyph glyph-name="notequal" unicode="&#x2260;" horiz-adv-x="1230" 
d="M832 924h329v-86h-389l-207 -298h596v-86h-655l-192 -277l-75 43l162 234h-331v86h391l209 298h-600v86h660l192 277l74 -43z" />
    <glyph glyph-name="uniF8FF" unicode="&#xf8ff;" horiz-adv-x="1749" 
d="M858 1299q-24 31 -69.5 84.5t-78.5 91.5l-34 38l17 14q60 -43 104 -71t59 -35l14 -7h9q43 17 177 113l19 -14q-128 -144 -183 -214h-34zM875 -79q-180 0 -332 88t-241 240.5t-89 332.5q0 134 52.5 255.5t141 209.5t211.5 140t257 52q180 0 332 -88t240.5 -239t88.5 -330
q0 -135 -52.5 -257.5t-141 -211t-210.5 -140.5t-257 -52zM862 119q54 0 104 15.5t91.5 45.5t66 79.5t24.5 111.5q0 52 -23 96.5t-59.5 76.5t-80.5 61t-88 56t-80.5 55.5t-59.5 65.5t-23 80q0 58 41 96t106 38q80 0 120.5 -54.5t71.5 -175.5l19 2q0 164 22 269l-20 4
q-1 -4 -3 -10t-15.5 -16t-34.5 -10q-22 0 -71.5 9.5t-90.5 9.5q-115 0 -181.5 -61.5t-66.5 -141.5q0 -54 22.5 -99.5t58.5 -78t79.5 -61.5t87 -57t79.5 -57t58.5 -68t22.5 -84q0 -78 -46 -122.5t-112 -44.5q-78 0 -137 58.5t-59 161.5q0 62 23 111l-17 9q-85 -67 -85 -167
q0 -94 76 -148.5t180 -54.5z" />
    </font>
</defs>
</svg>
